<?xml version="1.0" encoding="UTF-8" standalone="no"?>
<!-- Created with Inkscape (http://www.inkscape.org/) -->

<svg
   xmlns:dc="http://purl.org/dc/elements/1.1/"
   xmlns:cc="http://creativecommons.org/ns#"
   xmlns:rdf="http://www.w3.org/1999/02/22-rdf-syntax-ns#"
   xmlns:svg="http://www.w3.org/2000/svg"
   xmlns="http://www.w3.org/2000/svg"
   xmlns:sodipodi="http://sodipodi.sourceforge.net/DTD/sodipodi-0.dtd"
   xmlns:inkscape="http://www.inkscape.org/namespaces/inkscape"
   id="svg3528"
   version="1.1"
   inkscape:version="0.91 r13725"
   xml:space="preserve"
   width="354.33105"
   height="354.33105"
   viewBox="0 0 354.33105 354.33105"
   sodipodi:docname="30_of_the_classical_papercut_pattern_vector_0.ai.svg"><metadata
     id="metadata3534"><rdf:RDF><cc:Work
         rdf:about=""><dc:format>image/svg+xml</dc:format><dc:type
           rdf:resource="http://purl.org/dc/dcmitype/StillImage" /><dc:title></dc:title></cc:Work></rdf:RDF></metadata><defs
     id="defs3532" /><sodipodi:namedview
     pagecolor="#ffffff"
     bordercolor="#666666"
     borderopacity="1"
     objecttolerance="10"
     gridtolerance="10"
     guidetolerance="10"
     inkscape:pageopacity="0"
     inkscape:pageshadow="2"
     inkscape:window-width="718"
     inkscape:window-height="480"
     id="namedview3530"
     showgrid="false"
     inkscape:zoom="0.66604379"
     inkscape:cx="177.16553"
     inkscape:cy="177.16553"
     inkscape:window-x="0"
     inkscape:window-y="0"
     inkscape:window-maximized="0"
     inkscape:current-layer="g3536" /><g
     id="g3536"
     inkscape:groupmode="layer"
     inkscape:label="30_of_the_classical_papercut_pattern_vector_0"
     transform="matrix(1.25,0,0,-1.25,0,354.33105)"><path
       d="m 142.95508,218.45703 c 0.54101,-0.41162 1.02441,-1.5791 1.44629,-2.11426 2.85058,-3.62646 7.38086,-5.54882 12.15918,-7.21826 2.68164,-0.93652 5.63476,-1.66943 8.16797,-2.86084 3.20507,-1.50586 6.54394,-2.92138 9.12988,-5.12109 2.47265,-2.10449 4.61133,-4.61719 5.90918,-7.9292 14.40527,-0.85254 22.56738,-8.4502 27.7168,-18.58106 0.63964,-1.2583 1.46093,-2.30029 1.63574,-4.03808 7.24414,-0.0713 10.77343,-4.24024 14.33203,-8.11963 5.4082,-5.896 10.00098,-12.55859 15.3916,-18.46484 0.84375,-0.92334 1.7666,-1.82325 2.62988,-2.96387 -4.64648,-3.20313 -7.91992,-7.91699 -11.05859,-12.74024 -4.11719,-6.32812 -8.90918,-12.18652 -16.13672,-15.40039 -1.78027,-0.79199 -3.57227,-1.47265 -5.55371,-1.98242 -0.14648,-0.0371 -0.60742,-0.0625 -0.85742,-0.0918 -2.76172,-7.32324 -6.89453,-13.41796 -12.75586,-17.68652 -3.28906,-2.39453 -7.63086,-3.82031 -13.31055,-3.75976 -0.38281,0.0029 -1.53515,-0.13672 -2.05273,-0.1836 -3.1377,-8.34961 -10.45703,-12.72168 -19.1709,-15.59375 -3.21387,-1.05957 -6.39649,-2.13867 -8.94922,-3.9375 l -6.62305,-5.83398 c -4.28418,4.2666 -10.49121,6.69336 -16.71728,9.00879 -7.42383,2.76172 -13.88819,6.49804 -18.52783,12.03027 -0.69825,0.83203 -1.17383,1.86719 -1.76026,2.81348 -7.91553,0.41894 -14.69336,2.18652 -18.78906,6.46679 -3.33301,2.52735 -5.38623,6.34571 -7.41943,10.2168 -1.18311,2.25391 -2.24707,4.60742 -2.67725,7.50781 -3.03174,0.13672 -5.65186,0.7295 -7.9541,1.49903 -4.8335,2.99121 -8.07373,7.66601 -11.17334,12.4414 -3.09619,4.76856 -6.47461,9.34864 -11.76367,11.93067 -0.82764,0.40429 -1.71338,0.74316 -2.64698,1.02441 -0.3833,0.11621 -0.15966,0.52344 -0.20214,0.49902 l 5.50292,3.21387 c 3.1792,2.77832 5.06348,6.95215 6.9336,10.96729 2.74072,5.88086 6.25732,11.24902 11.91211,14.11816 1.22607,0.62256 2.64062,1.02686 4.16699,1.24219 2.01318,0.28271 3.93164,0.77148 6.05176,0.44531 1.25244,5.4668 2.47412,10.83691 5.48486,14.57813 4.58594,5.69677 11.21338,9.83252 21.88086,9.29589 1.39356,3.88672 3.99316,6.6377 7.36133,8.56348 4.79199,2.74072 10.72119,4.2544 16.25244,6.38086 4.64893,2.40332 8.94629,5.16943 11.58936,9.52637 0.0806,0.13232 0.29443,0.54785 0.44531,0.85107 m -65.98926,-85.8164 c -4.89209,0.0332 -10.57373,-0.0879 -15.47559,-0.68262 l 3.03663,-5.60352 c 2.75585,-4.84375 6.11816,-9.20508 12.25976,-10.64941 1.89307,0 4.04151,0.0781 5.80225,-0.0244 0.16308,-1.37793 0.46777,-2.43261 0.76025,-3.45117 0.1294,-0.0254 0.65234,-0.13867 0.8291,-0.15332 3.74317,-0.31152 8.09717,-0.5791 12.00635,-0.0693 0.73047,0.94043 1.96631,1.75976 3.33496,2.20117 -0.38769,0.76758 -0.38086,1.56054 -0.27295,2.63281 0.03272,0.32129 0.24072,0.81836 0.52832,1.12109 0.50489,0.53418 1.1333,1.02735 1.84375,1.16993 2.24707,0.45507 3.93799,-0.83008 4.59571,-2.39258 0.70752,0.28418 1.3208,0.61133 1.93164,0.67871 2.39892,0.26367 4.43603,-0.99707 4.81054,-3.0293 0.16602,-0.90429 -0.15185,-1.84863 -0.59424,-2.48926 0.3169,-0.0449 1.05372,-0.19921 1.29249,-0.17675 5.24755,0.49023 10.75,0.0225 14.49121,-1.46387 1.28418,-0.50977 2.10546,-1.56348 2.61328,-2.86816 0.98144,-2.52247 -0.10108,-5.19532 -1.90235,-6.27344 -1.91406,-1.14649 -4.50976,-1.30762 -7.16894,-1.75879 -0.94141,-0.16113 -1.84717,-0.57324 -2.3042,-1.31348 -1.39746,-1.29687 -0.97608,-4.01269 0.44336,-5.25195 2.32226,1.55664 6.38525,2.16797 9.67627,1.13769 2.29053,-0.71679 3.85986,-3.16699 3.13721,-6.42675 1.3872,0.52441 2.70361,1.12011 4.21826,1.17578 0.083,3.49023 -0.0654,6.79297 -0.96289,9.41406 2.13281,1.06543 4.63476,1.78516 7.20263,2.54395 -0.18652,0.63085 -0.37695,1.32128 -0.81201,1.62793 -0.56103,0.39453 -0.88867,1.23144 -0.88135,2.30761 2.14551,-0.79492 5.25586,-0.95312 7.41602,-0.14941 0.59473,0.2207 1.33203,0.42187 1.74805,1.13476 -1.73926,-0.24414 -3.21289,0.26661 -3.87598,1.31641 -0.72852,-0.084 -1.46191,-0.56543 -2.16699,-0.32422 -0.57324,0.19629 -0.75782,0.88281 -0.76172,1.44531 -9.8e-4,0.30079 -0.24707,0.60547 -0.55957,0.70899 -1.11963,0.36816 -1.84424,1.2959 -1.59229,2.82519 0.22461,1.36036 0.85303,2.47559 1.31055,3.63868 -0.35059,0.37304 -0.81055,0.61816 -0.97314,1.08789 -0.33155,0.958 0.22558,2.03515 -0.22559,2.99023 -0.51563,1.09082 -0.76025,2.90918 -0.10791,4.00195 0.59961,1.00489 1.7583,1.52539 2.94678,1.9375 -9.8e-4,2.35254 1.66601,3.71973 3.77148,3.83692 -0.27148,0.33984 -0.81543,1.12402 -1.08105,0.91113 -1.84278,-1.4707 -4.49366,-2.27051 -7.76856,-2.10937 -0.53564,-3.47168 -1.57373,-6.79102 -3.07129,-9.45801 -0.13574,-0.24121 -0.33691,-0.64356 -0.45361,-0.48828 -2.25147,2.99316 -4.28272,6.80175 -3.64697,11.96777 -6.64063,0.44434 -12.9795,1.10156 -19.9375,1.07227 -4.25147,-5.23243 -9.39014,-9.8584 -19.08789,-9.52149 l -21.35987,3.9541 c 2.61426,1.46094 5.34229,2.80762 9.31885,2.85547 -0.21728,0.60254 0.17383,0.93652 0.45557,1.23828 1.37695,1.47852 3.89013,1.90625 6.5083,2.02149 -0.0503,0.59668 -0.19922,1.22461 -0.53223,1.22363 l -10.71289,-0.0498 m 16.88672,53.41308 c -0.69434,-0.28711 -1.13086,-0.53564 -1.46387,-0.85498 -4.83252,-4.64062 -7.93066,-11.12646 -8.73486,-19.76855 -1.69922,-0.008 -3.47901,0.0376 -5.06152,-0.0347 -6.53223,-0.30127 -10.96436,-2.69531 -13.6084,-7.01563 -0.08301,-0.13574 -0.48535,-0.77002 -0.10157,-0.78906 l 2.66065,-0.19678 c 10.13428,2.0044 19.50586,4.93848 27.30615,9.50293 2.62305,2.46436 9.04151,3.3291 12.00195,0.54151 1.26514,-1.19043 2.28907,-2.70264 3.10157,-4.35059 l 3.96728,0.99219 c -0.95312,1.22656 -2.13379,2.33105 -2.21533,4.3999 -0.0171,0.41992 0.25195,1.25147 -0.32031,1.4458 -1.21485,0.41309 -2.07569,1.28272 -2.85791,2.15576 -0.17871,0.2002 -0.53907,0.94727 -0.68311,1.21485 1.67383,-0.0459 3.16455,0.062 4.7002,0.18506 l 3.65283,4.33398 c -1.52002,-0.0347 -2.83643,0.15039 -4.04834,0.38867 -1.87842,0.36865 -3.69141,-0.4375 -5.84619,-0.18213 -0.009,-0.55761 0.11377,-1.29883 -0.17725,-1.98779 -0.31445,-0.74463 -1.09717,-1.14014 -2.29687,-1.03906 -1.95606,0.16455 -3.11182,1.67627 -3.0835,3.67871 -3.73926,0.36474 -6.11914,2.32715 -6.65625,5.6831 -0.0835,0.52149 0.3208,1.92774 -0.23535,1.69678 m 43.9624,2.41211 c -0.0205,-0.10742 -0.1084,-0.43018 -0.14746,-0.53467 -0.94678,-2.54004 -2.09473,-4.82959 -3.55371,-7.07373 1.53711,0.30762 3.02344,0.91992 4.59277,0.68799 1.78907,-0.26416 3.23145,-1.11084 3.61377,-2.84668 3.45801,-0.1875 7,-0.22803 10.3252,-0.49414 0.32715,-0.0264 0.80566,-0.17871 0.94043,0.26465 0.17969,0.59082 0.32324,1.20019 0.44043,1.79785 0.18945,0.97119 1.28711,1.42725 2.4209,1.35156 1.83593,-0.12256 3.35058,-1.18115 3.40429,-3.05371 1.77246,-0.23389 3.75196,-0.29931 5.30664,-0.11279 1.33692,1.68945 2.5127,3.48535 4.48243,4.32129 0.94238,0.40039 2.05859,0.6167 3.26074,0.70117 2.34472,0.16309 4.27929,-1.00147 5.84277,-1.82813 -0.53027,2.33497 -0.40918,5.15967 -0.11523,7.33008 -0.31641,0.0478 -1.01563,0.19532 -1.24707,0.18897 l -11.25879,-0.30078 c -0.28125,-1.03711 -0.52735,-2.23877 -1.36426,-2.75196 -0.63867,-0.39258 -1.47363,-0.2334 -2.4668,-0.20068 -0.35351,0.0112 -0.84863,0.24023 -1.2041,0.53662 -0.7041,0.58447 -0.88476,1.60938 -0.99023,2.76807 -7.39453,-0.35254 -15.08887,-0.63526 -22.19434,0.13134 -0.0186,-0.18505 -0.0562,-0.71093 -0.0884,-0.88232 m 76.3794,-44.51025 c 0.92578,-1.42432 0.77832,-3.58545 0.31543,-4.95948 -0.16797,-0.5 0.83496,-0.66699 1.29785,-1.06738 0.63672,0.34668 1.57422,0.68945 2.63867,1.29883 3.71582,0.61621 7.88281,1.26855 11.75391,2.24805 -1.17872,-1.29786 -2.47754,-2.37793 -3.90821,-3.25489 -4.20703,-2.5791 -7.71972,-5.88476 -10.44629,-9.99023 1.58985,0.39453 3.7793,0.36816 5.21485,-0.10547 l 2.70312,-1.50098 c 3.05469,5.78809 6.74121,10.85059 11.43555,15.02686 -3.83106,4.08887 -7.2793,8.76855 -10.56348,13.41504 -2.19726,3.10888 -5.45605,5.03955 -7.95898,7.77685 -0.27539,0.30176 -0.97168,1.06397 -1.0791,0.73145 -0.28516,-0.87744 -0.56836,-1.6377 -1.17774,-2.16651 -0.88183,-1.63574 -2.6084,-2.82177 -4.38086,-3.65332 0.71192,-0.604 1.28028,-1.2871 2.0293,-1.48095 0.9834,1.26758 1.74023,2.59814 2.99121,3.47363 0.11719,-0.24853 0.38574,-0.80469 0.44141,-0.99853 0.58789,-2.02295 0.65332,-4.56543 0.48828,-7.12549 0.60937,0.19091 1.14258,0.5542 1.66699,0.72021 0.6875,0.21729 1.0498,1.03272 1.88281,0.73584 2.41407,-0.85937 4.91797,-1.87939 7.16114,-3.16113 -3.94336,-1.81641 -8.09864,-3.23731 -11.67676,-5.19287 -0.34082,-0.18653 -1.03711,-0.44824 -0.8291,-0.76953 m -123.89942,1.1499 c -0.3125,-0.45166 -0.81201,-0.84424 -1.08594,-1.53858 -0.53857,-1.35888 -1.94043,-2.84033 -4.3496,-2.6499 -0.36182,0.0283 -1.65723,0.24658 -1.23047,-0.58496 0.64453,-1.25781 -0.24707,-2.33008 -1.03711,-2.85449 -0.78565,-0.52344 -1.86084,-0.45801 -3.05127,-0.36719 -0.74414,0.0557 -1.67383,0.94629 -2.1543,0.79981 -1.17041,-0.35547 -3.0918,-0.42676 -4.38281,0.0312 -1.55518,0.55078 -2.71533,1.45312 -4.27051,2.06347 -1.68848,-0.0508 -2.81787,0.61328 -4.04785,1.35205 2.37549,0.4668 4.91797,0.79297 7.03418,1.70118 -0.45117,0.0903 -0.97363,0.23925 -1.14893,0.24169 -4.95703,0.0635 -9.33691,-0.61914 -14.02636,-0.91162 -1.08155,-0.95752 -2.34571,-1.73877 -3.75684,-2.59912 2.88525,-1.70117 5.20947,-3.75 7.16064,-6.25097 0.09815,-0.12598 0.99463,-0.18946 1.26075,-0.18262 7.14941,0.17187 14.35449,1.02344 21.63232,0.74121 1.55176,-0.0596 3.29199,-0.1709 4.63086,0.0615 0.05371,0.48926 0.09912,1.4502 0.19287,1.74219 0.07959,0.24707 0.32568,0.4209 0.5332,0.56738 1.21094,0.86133 3.30469,0.80469 5.06397,0.39453 0.02637,0.91895 -0.21582,1.76563 0.2749,2.5625 0.29736,0.4834 1.18018,0.71192 1.6167,1.25489 -1.21973,0.75244 -1.37842,2.86328 -0.32715,4.07373 -1.46289,-0.16846 -2.7959,-0.0791 -3.88574,0.50146 -0.03516,0.0186 -0.39258,0.21631 -0.64551,-0.14941 m 58.41992,61.94629 c -2.32421,-0.4917 -4.708,-1.0503 -6.62011,-1.94678 -1.04932,-0.16699 -1.59766,-1.34766 -1.68848,-2.46728 -0.0195,-0.24073 -0.20361,-1.17969 0.23438,-0.73291 0.0952,-0.0977 0,-0.46436 0.0845,-0.57081 0.44726,-0.56054 0.49902,-1.52734 1.17676,-1.70117 4.61962,-1.18359 10.44189,-1.34814 15.32373,-2.12939 2.20996,-0.35401 4.68847,0.0102 6.72949,-0.29737 1.08496,-0.16406 1.91113,-0.5664 2.44238,-1.03271 2.50098,-0.10449 4.64942,-0.44238 6.42871,-1.05762 1.56543,-0.54248 2.2793,-2.59375 1.2627,-4.37011 0.96972,0.0122 1.91797,-0.10059 2.39941,0.11132 -0.67676,3.08057 -2.47949,5.1333 -4.40723,6.92237 -4.36621,4.05517 -10.16894,6.70752 -17.49707,8.03808 -1.3789,0.83448 -3.52343,1.73145 -5.86914,1.23438 m -17.89599,-3.24658 c -0.52735,-0.23047 -1.05762,-0.47705 -1.58203,-0.51075 0.21191,-0.56982 0.48047,-1.33496 0.39941,-1.98047 -0.45068,-3.59033 -1.64111,-6.57519 -2.25635,-10.04296 -0.0815,-0.46387 0.3501,-0.63428 0.63721,-0.65186 1.49854,-0.0928 3.37549,-0.10791 4.74951,0.003 1.51319,1.42139 3.18115,2.45264 5.54004,2.80713 -0.0996,-0.88623 -0.31055,-1.74414 -0.22412,-2.67871 5.979,-0.63721 12.86084,-0.95606 18.62353,-0.26368 1.59766,1.03321 2.76758,3.36622 1.68458,4.90284 -0.39356,-0.16944 -0.54004,0.44043 -0.9336,0.5332 -4.73144,1.11621 -10.33887,1.30664 -15.37305,2.14111 -2.72949,-0.16064 -5.38281,0.13282 -7.67871,0.5586 -2.14404,0.39746 -3.40966,2.22558 -3.20117,4.73242 0.0112,0.13623 0.11572,0.66992 -0.38525,0.44971 m -66.95704,-47.6968 c -0.06348,-0.10937 -0.17774,-0.2085 -0.20118,-0.25 l -6.41357,-11.3667 c -0.13184,-0.23535 -0.6001,-0.76514 -0.24268,-0.80127 1.13379,-0.11572 2.01612,0.16065 2.87354,0.24463 4.13574,0.40332 8.20117,0.21191 12.33887,0.20947 1.3042,0.82471 2.41699,1.69287 3.40283,2.64112 1.86963,1.79931 3.64209,3.96533 5.1665,6.16162 -0.53418,0.21338 -1.30957,0.59179 -1.58154,0.63232 -0.19336,0.0288 -0.8125,-0.15478 -1.01758,-0.16699 -3.27978,-0.20166 -5.54883,0.70264 -7.87597,1.73682 l -2.93653,0.0102 c -0.62695,0.01 -1.27344,0.18994 -1.87451,0.40723 -0.53613,0.19384 -1.4292,0.90478 -1.63818,0.5415 m 78.74609,21.1748 -0.32373,-2.35205 c -0.0264,-0.23242 -0.0264,-0.5747 0.33447,-0.43603 1.26319,0.4834 3.10108,0.46631 4.21631,-0.18115 0.68945,-0.40039 1.17285,-1.24219 1.1416,-2.27735 1.39453,0.12842 2.59082,-0.1372 3.52637,-0.58789 1.53906,-0.74121 2.87793,-2.40381 2.32227,-4.91504 0.46582,-0.67236 1.49707,-1.59912 1.39453,-2.84179 -0.0391,-0.46289 -0.12793,-1.01661 -0.61035,-1.54346 l 4.52246,-3 c 0.0908,1.85693 0.15625,3.74707 -0.32715,5.00391 -0.3584,0.93554 -0.79004,1.84668 -1.35254,2.63378 -1.08496,1.51709 -2.14063,3.15723 -3.32715,4.58594 0.30176,0 1.21289,0.0161 1.49805,-0.0591 2.38476,-0.62891 4.48144,-1.69678 6.13183,-3.04883 1.29004,1.58106 2.08985,3.19483 3.30371,4.65479 1.32129,3.01465 7.06543,3.91064 10.20313,1.90381 1.41601,-0.90528 2.46289,-2.35254 3.82031,-3.51954 -0.10937,1.45997 0.24414,2.56153 0.4961,3.55372 -2.94239,1.04052 -6.12012,2.20703 -9.58008,2.4497 l -10.6709,-0.33252 c -0.36328,-0.69775 -1.11328,-1.30322 -2.06348,-1.38476 -0.67383,-0.0571 -1.33301,0.16308 -1.95898,0.36621 -0.60742,0.19775 -0.90821,0.91992 -1.58399,0.99121 -3.65234,0.38574 -7.23437,0.2793 -11.11279,0.33642 m -29.70752,-66.99267 c 0.12744,-0.12793 0.32031,-0.36914 0.42236,-0.42285 1.32178,-0.6836 2.76465,-1.25196 3.9834,-2.09278 0.81397,-0.56054 1.78418,-1.14843 2.04981,-2.24121 0.41894,-1.72363 -0.6709,-2.43457 -1.52979,-3.10351 -4.19238,-1.48633 -8.9082,-2.33399 -12.49023,-4.50391 -1.25781,-0.76172 -3.13867,-1.36816 -3.17383,-3.37109 -0.008,-0.49317 0.0527,-0.92774 0.35644,-1.37598 1.2002,-1.78027 4.50928,-2.39355 7.13184,-1.62695 0.20459,0.05957 0.98242,-0.14063 0.80615,0.41992 -0.46582,1.48437 -0.15381,2.99219 0.52002,4.02637 0.49463,0.75879 1.25244,1.33886 1.98145,1.85156 2.41748,1.69727 5.85058,2.27148 9.23535,3.00781 2.26318,0.49317 4.57812,0.94531 6.23633,2.44141 0.33642,0.30371 0.80761,1.08887 0.84179,1.64551 0.14209,2.34961 -1.2456,3.40722 -2.73828,3.99316 -3.70507,1.45508 -8.6416,1.42383 -13.63281,1.35254 m 68.60449,78.34717 c 1.0166,-1.99903 1.69825,-4.67725 1.13477,-7.55371 1.28808,0.61181 2.33105,1.33496 3.65625,1.7417 1.92773,0.5913 4.3418,0.28759 6.10058,-0.54493 0.26661,-0.12646 -0.25195,-0.81298 -0.52832,-1.12011 l -2.93261,-3.41895 c 2.3955,0.0923 4.66601,0.38086 6.53222,-0.35351 1.48145,-0.5835 2.81446,-2.65577 1.57325,-4.47217 -0.16211,-0.23682 -0.73536,-0.41846 -0.74414,-0.91309 -0.006,-0.28955 0.41699,-0.59717 0.7666,-0.78125 -1.27637,-0.93359 -2.47168,-2.01855 -3.99512,-2.61426 -0.22656,-0.0884 0.0869,-0.62109 0.27539,-0.93798 3.97949,0.26513 7.94824,0.58789 11.66113,1.0913 -3.13965,10.76465 -10.18847,18.27686 -22.62402,19.77491 -0.17481,0.0205 -0.69629,0.0874 -0.87598,0.10205 l 0,0 m -68.56152,-34.94873 c -0.36426,-0.22998 -0.75049,-0.46387 -1.20606,-0.45508 0,-0.17774 -0.0732,-0.70899 -0.0532,-0.89014 0.3501,-3.17285 1.7544,-5.27783 2.46826,-8.32129 0.94971,-4.04834 0.42383,-8.64795 -1.51513,-11.61767 l 15.06152,-0.95996 5.60986,0.30078 c 0.75098,0.86523 1.47657,1.77051 2.37989,2.49609 0.37695,0.30371 0.67236,0.76074 1.34375,0.72559 2.14355,-0.10742 3.78662,-0.8252 5.90869,-1.51172 -1.73096,1.90527 -3.34522,3.52832 -4.42725,5.47754 -0.73193,-0.22168 -1.55664,-0.55078 -2.23047,-0.58203 -1.23828,-0.0557 -2.50976,-0.48829 -3.67773,-0.44141 -2.72705,-0.75977 -5.43164,-2.03418 -8.16748,-2.7959 -3.93701,-1.09765 -7.77051,0.54297 -8.9502,3.78418 1.36621,0.0439 2.63965,-0.0361 3.45069,0.48731 -2.86084,3.47461 -4.84961,7.88427 -5.32618,13.52343 -0.0234,0.27832 0.0459,1.23145 -0.66894,0.78028 m 67.59961,5.70215 c -0.11719,-0.009 -0.73828,-0.25635 -0.94824,-0.32862 -2.24317,-0.7749 -5.80176,-0.46631 -7.82032,0.4126 -0.66796,-0.88867 -1.1748,-1.80518 -1.86425,-2.625 0.14453,-0.95752 0.14648,-2.03711 0.002,-3.08496 -0.22168,-1.61524 -0.7207,-2.99561 -1.58594,-4.53076 -1.01172,-0.98828 -2.25195,-2.50733 -2.27051,-4.96094 -0.004,-0.45752 -0.0449,-1.34473 0.32227,-1.48584 1.06348,-0.4082 2.17676,0.0176 3.07617,0.43359 1.08887,0.50391 2.21387,0.17871 2.71875,-0.62939 0.61524,-0.98242 0.0498,-2.08936 -0.0312,-3.09229 -0.0498,-0.60742 -0.0234,-1.82226 0.25684,-1.76367 1.89941,0.38574 3.29394,1.01074 4.30957,2.07422 0.54101,0.56543 0.48144,1.58252 0.15625,2.31836 -0.54199,1.22363 -1.30664,2.26172 -1.73438,3.68408 -0.31054,1.03076 -0.73144,2.17334 -0.52246,3.39746 0.34375,2.01026 1.39649,3.67334 3.10547,4.40576 -0.14941,1.09375 -0.10547,2.1128 0.13965,3.2627 0.86133,0.95117 2.37109,1.48047 4.01562,1.77783 -0.3457,0.13721 -0.34179,0.46387 -0.39453,0.72363 -0.0967,0.46778 -0.52539,0.0444 -0.93066,0.0112 m -72.18115,-55.35254 c -0.25586,-0.39454 -0.5376,-0.77246 -0.79444,-1.13575 -1.36914,-1.93847 -5.30127,-1.72558 -6.56738,-0.14648 -4.5874,0.49512 -9.1748,0.40137 -13.71387,0.20605 2.62158,-5.3291 7.2461,-8.86328 13.70459,-10.37695 -0.60693,1.25391 -0.70849,2.71094 -0.18896,3.81152 0.24072,0.50879 0.56494,1.01856 0.99902,1.3711 2.11817,1.71484 5.05762,2.55176 7.43506,3.9541 -0.23389,0.54297 -0.10352,1.3252 -0.36377,2.0127 -0.062,0.16308 -0.31396,0.61035 -0.51025,0.30371 m 96.86572,42.47168 c -0.11816,-0.17969 -0.47754,-0.17823 -0.58984,-0.41456 -0.57911,-1.21679 -3.167,-1.208 -3.80957,-0.47753 -0.64649,0.73388 -1.83887,-0.006 -2.36622,-0.42334 -0.14746,-0.11719 -0.42675,-0.82227 -0.2207,-0.98682 1.26758,-1.01465 1.5791,-3.8501 0.0703,-5.06982 -0.29687,-0.24024 -0.98047,-0.37793 -1.56933,-0.41114 -1.58399,-0.0898 -2.40625,0.73145 -3.70996,0.76953 -0.96192,0.0283 -1.86621,-0.49511 -1.99317,-1.41796 -0.0225,-0.15918 0.56153,-0.7461 0.82617,-0.8711 1.16114,-0.5498 2.37012,-1.41992 2.6045,-2.77832 -0.26563,-1.13476 -0.67578,-1.94922 -1.042,-2.66992 -0.14257,-0.2793 -0.18847,-0.75391 -0.12109,-0.7793 0.85645,-0.31836 1.75879,-0.81347 2.44238,-0.26953 0.32032,0.25488 -0.16699,1.23828 -0.27148,1.88184 -0.0625,0.38476 -0.01,0.86523 0.2207,0.98047 1.96485,0.98144 3.91895,-0.10547 4.8086,-1.61914 0.21289,-0.36231 0.52441,-1.14551 0.68066,-1.625 0.66699,0.30371 0.49023,0.96191 0.96387,1.41796 -0.51758,1.70704 0.43554,3.46387 1.83691,3.79297 -0.14355,2.50098 -1.21875,4.36231 -1.8457,5.85889 1.72851,1.66211 3.75586,2.64014 5.9873,3.4082 -0.94433,0.72608 -1.89843,1.31592 -2.90234,1.70362 m -50.84863,5.46777 -2.89356,-3.40039 c 0.41797,-0.27295 0.8711,-0.77149 1.3125,-0.66455 1.78418,0.42969 3.90723,0.0508 5.13379,-0.92725 0.24121,-0.19238 0.93164,-0.27685 0.69238,-0.57422 -0.97363,-1.20849 -2.12695,-2.03857 -3.56054,-2.66504 -0.23145,-0.10156 -0.3916,-0.32031 -0.52246,-0.5747 -0.45508,-0.88135 -0.97754,-1.62305 -1.72168,-2.34619 0.30078,-4.32032 -1.15918,-7.58399 -3.42579,-9.53614 0.37208,-0.91797 0.90821,-1.42968 1.21485,-2.21386 1.36328,0.70019 3.50879,0.73046 5.31348,0.28808 0.57714,5.84082 2.04394,10.57129 4.10937,14.72022 l -1.44629,5.45752 c -1.57715,0.49414 -3.08203,1.42968 -4.20605,2.43652 m 48.58789,15.28809 c -3.15723,-0.24512 -6.35742,-0.66309 -9.48633,-1.03125 0.65723,-2.54688 0.38867,-5.85743 -0.1416,-8.10694 0.41894,-0.0996 0.74609,0.0947 1.08398,0.23975 5.67969,2.42187 12.35156,3.74463 18.31543,5.9248 0.26563,0.0967 0.74121,0.5376 0.47754,0.64356 -1.16797,0.46679 -2.10644,1.10791 -3.60937,1.35644 -1.16407,0.19239 -2.23145,0.31836 -3.55372,0.1416 l -0.73925,1.09327 -2.34668,-0.26123 m -77.09668,34.87597 c -2.11768,-0.55371 -4.04834,-1.4541 -5.86914,-2.22656 -4.48047,-1.90137 -7.02588,-5.94531 -9.10547,-10.19385 3.74267,0.95361 7.99072,0.68799 12.04883,0.68945 -0.0737,2.02149 -0.11475,3.90381 0.40771,5.37696 0.90137,2.54199 2.52686,4.5039 4.47168,6.23779 -0.54541,0.28565 -1.39014,0.26367 -1.95361,0.11621 M 211.9464,137.0077 c -0.4834,-0.29297 -0.93555,-0.95215 -0.93262,-1.28222 0.0127,-1.5127 -0.25683,-3.09375 -1.01758,-3.92188 -3.13183,-3.4082 -6.85839,-6.3125 -10.54687,-9.1582 -1.36231,-1.05078 -3.06543,-1.85156 -4.68555,-2.66699 -1.22754,-0.61719 -3.01953,-1.21192 -4.41504,-0.9209 -0.68457,0.14258 -0.24804,-0.50586 0.0977,-0.74121 1.58789,-1.07813 4.2207,-2.167 7.26269,-1.46094 4.87012,3.17773 8.71485,7.42383 11.96582,12.13281 1.59961,2.31543 3.30176,4.24805 4.76563,6.4961 -0.41211,0.58105 -0.83594,0.7832 -1.22949,1.14257 -0.18555,-0.0879 -0.76367,0.11328 -0.19434,0.38086 -0.29394,0 -0.91211,0.0977 -1.07031,0 M 92.54785,110.59668 c -2.77637,-0.25879 -5.49365,-0.25879 -8.21826,-0.20703 0.50293,-2.06152 0.89551,-4.13086 1.7666,-5.66406 4.43652,-0.53907 9.5376,-0.28907 14.33301,-0.32129 -0.0288,0.69433 -0.29053,1.37402 -0.39258,2.07812 -0.18457,0 -0.78857,-0.0273 -0.85937,0 -1.76661,0.68555 -3.24952,1.89258 -3.36475,3.93848 -1.19531,0.26465 -2.20801,0.27344 -3.26465,0.17578 m 17.50733,33.18018 c -0.006,0.0517 0.0986,0.12597 0.10058,0.13769 0.40088,1.8794 0.0298,3.97363 -0.81055,5.72022 -0.65625,-4.61426 -1.69677,-8.44336 -3.85693,-11.15918 -3.00976,-2.39356 -7.37988,-3.54981 -12.125,-4.27246 -0.52099,0.37109 -1.49463,1.01855 -2.77246,0.86816 -0.10791,-0.35938 -0.67627,-0.53516 -0.46484,-0.95801 0.44873,-0.89844 0.44873,-2.02441 1.00927,-2.68164 3.99121,0.1377 8.45215,0.52441 11.5127,1.38965 3.15576,1.98047 5.11328,4.55957 6.38525,8.08496 0.43653,0.57666 1.16309,1.59375 1.02198,2.87061 m 1.41748,-1.53418 -1.0542,-2.4419 c -1.48047,-3.97461 -3.77002,-7.12695 -7.92823,-8.36133 -4.67041,-1.38476 -10.70654,-1.31152 -15.86621,-2.23437 -0.74365,-0.13281 -1.66943,-0.41016 -1.96435,-1.09375 4.26416,-0.25098 8.86474,-0.19336 13.29638,-0.13867 2.67188,0.0322 4.74073,0.73925 6.67481,1.50586 2.08105,0.82617 3.69092,2.09179 5.00684,3.62304 1.67431,1.94629 3.2998,5.42774 2.17578,9.00391 0.021,-0.0684 -0.10547,0.68652 -0.34082,0.13721 m 87.95214,7.28711 -3.78027,-0.76514 c -3.64062,-1.00488 -6.79101,-2.60303 -10.18262,-3.90479 -2.09082,-0.80175 -4.31933,-1.81591 -4.75,-4.41552 5.33594,1.94482 11.3584,2.98925 15.56348,5.29248 1.54785,1.5708 4.5,2.2666 5.65039,1.0415 0.54004,-0.57373 1.51367,0.54004 1.15235,1.16943 l -1.27637,1.81495 -2.37696,-0.23291 m -12.95898,-26.02002 c 0.0635,-0.21582 0.15137,-0.542 0.0137,-0.24805 0.96778,-2.06348 2.89551,-3.36133 5.28321,-2.82617 2.33203,0.52246 4.45117,1.50097 6.2832,2.75683 3.16797,2.1709 5.8457,4.85547 8.53223,7.49414 -0.20411,0.64161 -0.57911,1.19922 -0.80372,1.79102 -0.27734,0.73535 -1.62695,1.39453 -1.85253,0.97461 -0.46387,-0.85938 -0.14844,-1.79883 -0.50293,-2.73731 -0.69727,-1.84472 -2.29786,-3.24707 -4.49805,-3.44336 -2.4043,-2.75781 -7.37305,-4.49218 -12.27832,-3.16601 -0.42774,0.11523 -0.20899,-0.48828 -0.17676,-0.5957 m -81.07812,4.59277 c -1.30225,-0.0654 -2.42969,-0.38086 -3.59522,-0.59277 -5.85889,-1.07032 -12.92432,-0.54688 -19.5874,-0.91895 -0.93262,-0.0518 -2.17334,-0.0674 -3.12451,-0.50879 5.33545,-1.12695 10.38623,-2.41504 16.60791,-2.28808 4.71631,0.0957 7.80273,1.9746 10.49707,4.41699 -0.28955,-0.0166 -0.71631,-0.10449 -0.79785,-0.1084 m 67.17773,40.0708 c -3.11328,-0.51025 -6.13281,-1.24902 -9.6416,-1.49072 0.90039,-0.99219 1.25879,-2.77442 1.02246,-4.73682 1.63965,0.75879 3.34082,1.25 5.52051,1.23584 2.62402,1.34717 5.66601,2.37256 9.79004,2.26416 -0.04,0.85889 0.10937,2.03174 -0.16114,2.82471 -2.16699,0.22412 -4.58691,0.22168 -6.53027,-0.0972 m -71.5835,21.32812 c -0.70312,-0.0601 -1.41601,-0.17675 -2.07959,-0.39355 -1.80127,-0.58789 -3.38183,-1.93262 -3.17773,-4.29492 0.26562,-3.06494 2.64746,-4.94141 6.18506,-4.84375 0.23828,0.006 0.86816,0.19775 0.57373,0.58252 -2.13965,2.79492 -0.47559,7.36865 2.27832,8.75732 -1.20166,0.56104 -2.70508,0.28321 -3.77979,0.19238 m 119.97901,-66.72509 c -0.0811,-0.0488 -0.29883,-0.14649 -0.37305,-0.17481 -3.46094,-1.32617 -7.81055,-1.71191 -11.71191,-2.53613 -1.91016,-1.91113 -3.34375,-4.34375 -5.01758,-6.43164 0.14258,0 0.63672,-0.0254 0.79199,0.0137 0.37988,0.0947 0.95899,0.36328 0.78711,0.94629 6.7207,1.01758 11.97656,3.66699 15.97852,7.91699 -0.0274,-0.0293 0.16406,0.64356 -0.45508,0.26563 m -112.01172,32.4541 c -0.0376,-0.0127 -0.13574,-0.0742 -0.16455,-0.0942 -2.13916,-1.46631 -2.8252,-4.32129 -3.23438,-7.48828 -0.18701,-1.4419 -0.48486,-2.85205 -1.16699,-3.81787 -0.68066,-0.96387 -1.51123,-1.52539 -2.4331,-2.44531 -1.42725,-1.42383 -2.76465,-3.27344 -5.75,-3.0293 -0.01612,-0.82617 0.10742,-1.61133 -0.125,-2.27734 3.20263,0.25 5.75048,1.37597 7.83056,2.84179 2.37256,2.45215 3.38135,6.24561 4.01807,10.30713 0.38037,2.43066 0.57324,4.75 1.90283,6.17725 -0.31641,0.0669 -0.59863,-0.0791 -0.87744,-0.17383 m -14.89893,7.51367 c -1.78711,-0.20361 -3.08154,-0.69189 -4.44677,-1.30176 -2.81495,-1.2583 -4.86866,-3.64111 -7.52051,-5.30371 0.02637,-0.31689 0.18017,-0.74072 0.27539,-1.16064 0.0957,-0.42237 0.56933,-0.45313 0.76562,-0.25537 2.86817,2.88232 6.11036,5.65918 11.81592,5.62548 3.43945,-0.0205 6.46143,-0.80273 9.88184,-0.58349 1.3247,0.0845 2.57226,0.31299 3.15869,1.08545 -1.94434,0.0757 -3.49854,0.51367 -5.13037,0.88037 -2.57276,0.57959 -5.65186,1.37305 -8.79981,1.01367 m 53.59522,-10.89307 c -2.32227,-2.51513 -5.51856,-4.24707 -9.81153,-4.53955 -0.77832,-2.02978 -1.51953,-4.18213 -2.82812,-5.65381 -0.17481,-0.19628 -1.54932,-1.29931 -0.49072,-1.0122 5.08838,1.375 8.81494,3.99658 12.26513,6.93652 0.83301,0.70899 1.58985,1.61768 1.86621,2.73291 0.14063,0.56787 -0.54589,1.31445 -1.00097,1.53613 m -4.10352,21.26368 c -0.16308,-0.0283 -0.72119,-0.0601 -0.90381,-0.22461 -0.76025,-0.67823 -1.00097,-1.71826 -1.51757,-2.917 -0.0376,-0.0879 -0.11963,-0.58349 -0.46143,-0.31152 -1.01709,0.80713 -2.22266,1.41602 -4.20459,1.58838 -0.99756,-0.28418 -1.42969,-1.48096 -1.28467,-3.2959 0.0366,-0.47021 0.30713,-0.94385 0.66358,-1.23633 0.43359,-0.35595 0.73877,0.43213 1.08789,0.58594 0.28759,0.12695 0.55713,-0.0723 0.81054,-0.0737 1.82276,-0.01 2.90284,-1.25537 3.33448,-2.84228 1.28125,1.12402 2.58593,1.84521 4.45019,2.11132 0.58106,0.083 0.79102,0.65918 0.87207,1.10596 0.2002,1.11084 -0.14453,2.23193 -0.98047,2.49463 -0.96875,0.30469 -1.26855,-1.13135 -1.86425,-1.37061 -0.34668,0.38184 -0.43457,0.85743 -0.3584,1.23096 0.21875,1.09375 1.30566,1.81055 2.74316,1.71826 -0.26855,0.87647 -1.30469,1.62451 -2.38672,1.43653 m 32.26856,-67.01514 c -1.32813,-0.38281 -2.68653,-0.83398 -3.8545,-1.32617 0.49903,-0.47656 1.1543,-0.69239 1.45606,-1.25196 0.52246,-0.96972 0.25195,-1.91015 -0.41602,-2.48632 -0.4873,-0.41993 -1.01757,-1.3545 -0.46679,-1.82227 0.79199,-0.66894 1.56152,-1.31934 2.0039,-2.41016 l 0,-3.41894 c 1.11133,0.75781 2.57227,1.29297 3.70703,1.96875 -0.18554,3.10742 0.043,6.25 0.64161,8.66504 -1.44141,-0.24121 -2.48438,-0.7207 -3.67774,-1.08399 0.009,0.6709 0.33496,1.21973 0.42383,1.8125 0.0723,0.46973 0.47266,1.4375 0.18262,1.35352 m 32.17285,49.53369 c -0.59766,-0.17773 -1.16211,-0.79248 -1.87891,-1.08887 -5.18164,-2.15136 -11.60449,-3.16064 -17.84961,-4.2666 -1.708,-1.15283 -3.21777,-2.73681 -4.62207,-4.52295 5.78809,2.5708 11.92285,4.43262 18.37403,5.83741 1.71093,1.06542 3.46191,1.96875 6.02539,1.80419 0.36425,0.80909 0.98144,-0.0942 1.5166,0.49268 0.29297,0.32227 0.2793,0.99463 0.0762,1.24951 -0.44043,0.55274 -1.12109,0.6499 -1.6416,0.49463 M 134.58398,82.33301 c -0.84179,-0.26563 -1.71728,-0.30469 -2.54199,-0.73438 -0.023,-0.01172 -0.76806,-0.02441 -0.29492,-0.29492 -0.68603,-0.10449 -0.36035,-0.80859 -0.56934,-1.34277 -0.25097,-0.64453 0.21094,-1.28614 0.72852,-1.88867 1.55664,-1.80762 5.9458,-2.2295 7.76758,-0.31055 0.49267,0.51855 0.45654,1.27441 0.0747,1.89453 -0.12354,0.2002 -0.42579,0.52637 0.104,0.54102 -0.15381,0.15429 -0.52637,0.5166 -0.61865,0.66113 -0.81201,1.26465 -2.6958,2.08984 -4.64991,1.47461 m -42.37109,76.21972 c -1.36133,-0.18359 -2.55371,-0.84228 -3.6206,-1.66113 -0.21583,-0.16553 -0.23926,-1.37256 0.24902,-1.93017 1.0791,0.50927 2.16699,0.94433 3.37207,1.16162 3.22266,0.5791 6.56006,0.25049 10.10742,0.21533 2.49902,-0.0239 4.60791,0.86963 5.68311,2.41016 -5.19287,-0.79737 -10.76661,0.47949 -15.79102,-0.19581 m 14.74854,30.20313 c -1.37745,-0.37109 -2.38575,-0.9668 -3.14649,-1.86914 -1.42724,-1.69238 -0.83545,-4.9126 0.53906,-6.23779 0.55518,-0.53467 1.3003,-0.81836 1.99317,-1.12012 0.56299,-0.24561 1.26416,-0.12598 1.90576,-0.084 0.36719,0.023 1.28662,0.27442 0.93066,0.56739 -1.31738,1.08691 -1.82714,3.40771 -1.25976,5.59619 l 0.97119,2.66504 c -0.64209,0.38379 -1.4668,0.60888 -1.93359,0.48242 m 10.02539,-90.76367 c -1.71924,-0.46875 -3.24952,-1.07617 -4.26514,-2.17578 -0.99854,-1.08106 -1.06738,-3.54004 0.0845,-4.49024 1.45703,-1.20312 3.12451,-2.31738 5.91162,-2.0791 0.0312,0.31445 0.56348,1.69434 0.21436,2.14356 -0.88721,1.13769 -2.25684,2.76074 -2.30518,4.94433 -0.0166,0.73633 0.61963,1.13965 0.86426,1.68652 -0.083,-0.0049 -0.51269,-0.03125 -0.50439,-0.02929 m 102.56396,39.90527 c -0.54394,-0.0791 -1.32422,-0.1709 -1.79785,-0.86133 -1.0498,-1.52539 -2.38086,-3.24902 -3.77734,-4.83203 -3.87696,-4.3916 -6.98438,-9.53515 -11.49707,-13.34961 -0.19434,-0.16601 -1.31153,-1.28613 -0.47364,-0.83594 2.29981,1.23438 4.1543,2.95704 6.03809,4.59571 4.31445,5.51465 8.54785,11.16015 14.28027,15.41601 -1.09863,0.0615 -1.96191,-0.0146 -2.77246,-0.13281 m -134.8501,15.63623 -2.80566,-3.08301 c -2.2627,-2.90771 -4.77637,-5.50488 -7.68848,-7.73632 -0.75683,-0.58008 -1.8623,-1.22754 -2.49267,-1.96534 0.77197,-0.46972 1.56787,-0.67187 2.60254,-0.80078 1.86474,0.67285 3.29199,2.0166 4.41943,3.60108 2.47021,3.47216 5.47363,6.37451 7.55762,10.19336 -0.51758,0.0522 -1.2666,0.18652 -1.59278,-0.20899 m 51.39893,52.53955 c -0.20508,-0.0439 -0.83838,-0.12695 -1.03857,-0.1958 -1.26856,-0.43896 -2.37403,-1.34619 -2.16944,-3.09912 0.29639,-2.53662 3.47315,-3.6001 6.60791,-2.95996 -0.15088,0.88184 -0.48779,1.98242 -0.50635,3.12988 -0.0146,0.89356 0.37159,1.76221 0.52539,2.55127 -1.18066,0.271 -2.23388,0.82471 -3.41894,0.57373 m 53.4375,-36.0708 c -0.044,-0.47217 -0.58789,-0.9043 -0.61621,-1.42724 -0.21192,-3.97901 0.5498,-7.66553 0.16015,-11.43653 -0.35253,-0.73486 -0.55273,-1.875 -0.333,-2.7539 0.91211,0.51513 1.5039,1.30371 2.41992,1.98339 0.47656,1.39063 0.6582,3.29932 0.64355,5.29395 l -0.57812,5.28125 -1.1709,2.95557 c -0.0596,0.13134 -0.43848,1.0332 -0.52539,0.10351 m -1.37012,-54.30322 c -0.80664,-0.79883 -1.83301,-1.41309 -3.58984,-1.50684 -0.40918,-0.0215 -1.04688,0.48731 -1.66504,0.63184 l -0.41797,-1.71094 c 4.99024,0.74902 9.28809,-0.61426 10.6543,-3.99805 0.25097,-0.62207 0.32715,-1.2871 0.40136,-2.20507 0.96485,1.13672 1.92676,2.17187 2.90723,3.07129 l -1.31055,3.33398 c -2.91699,-0.0488 -5.24316,0.86816 -6.84863,2.30469 -0.0293,0.0254 -0.12402,0.0898 -0.13086,0.0791 l 0,0 m -40.14746,51.81543 c 0,-0.46289 -0.31152,-0.93994 -0.3789,-1.521 1.49609,-0.80078 2.68164,-2.6665 2.08398,-4.95849 -0.17773,-0.68164 -0.9668,-1.0625 -1.25391,-1.68067 0.58301,0.0254 0.94336,-0.44775 1.46485,-0.28174 0.87011,0.27735 1.57617,1.14746 1.53906,2.24121 0.64453,0.52247 1.13574,1.24317 1.38086,2.10694 0.33008,1.1582 -0.39942,2.00342 -1.37988,2.16943 0.0215,0.88037 0.19043,1.60938 0.21191,2.34961 0.0537,1.84863 -1.78711,2.94678 -3.66797,2.37207 l 0,-2.79736 m 30.97949,-43.4336 c -0.13867,-0.30371 -0.50195,-0.63867 -0.33691,-1.02539 0.20996,-0.49316 0.54297,-1.20117 0.52734,-1.59765 -0.0693,-1.6836 0.1836,-3.11035 0.48535,-4.72754 -0.28613,-0.18359 -0.88867,-0.12891 -0.49511,0.16601 -0.45703,0.53614 -0.97071,0.96973 -1.77442,1.38965 1.00782,-1.54687 1.05078,-4.36523 -0.0937,-5.59277 -0.60156,0.37891 -0.91699,1.07324 -1.53418,1.40918 -0.72558,0.39453 -0.083,-0.10156 -0.66504,-0.24609 -0.28613,-1.04004 -0.49511,-2.16504 -0.57128,-3.33106 -0.0186,-0.28125 -0.62403,-0.82226 -0.66211,-0.97851 -0.12696,-0.53223 0.0127,-1.6045 0.40332,-1.44727 5.17285,2.08594 7.8955,9.46387 5.21972,15.69727 -0.12988,0.30566 -0.34765,0.62597 -0.50293,0.28417 M 125.50684,92.60938 c -1.89454,-0.22559 -3.29395,-0.98926 -4.03809,-2.00977 -0.0742,-1.7041 0.74072,-2.4541 1.76416,-3.10547 1.75879,0.8457 4.37012,1.23047 6.76221,1.48438 0.3374,0.96679 0.23437,1.93359 -0.31787,2.39257 -1.05616,0.87696 -2.27686,1.46387 -4.17041,1.23829 m 25.30859,-8.56543 c -0.28027,-0.06641 -0.82031,-0.21192 -0.73438,-0.667 -0.29687,-0.22168 -0.41796,-0.62011 -0.62207,-1.14257 -0.17871,-0.45801 0.60645,-0.75782 0.43262,-1.40723 1.22559,-0.69531 2.65528,-1.48047 4.64063,-1.37988 1.59179,0.08105 2.6914,1.09277 2.98828,2.64062 0.0225,0.11231 0.0723,0.44336 -0.0352,0.60645 -0.27832,0.42285 -0.66211,0.77148 -1.08301,1.03418 -1.27636,0.79687 -3.81445,0.73535 -5.58691,0.31543 m -4.03906,39.69824 c -0.0332,-0.91504 0.2373,-2.10059 0.17968,-3.06543 -0.55175,0.6875 -0.61523,1.81738 -1.14746,2.08789 -0.92773,0.47168 -1.84277,0.56543 -2.50781,-0.0674 -0.45557,-0.43457 -0.44726,-1.16407 -0.35644,-1.95997 0.0654,-0.56054 0.75586,-1.06738 0.68164,-1.64941 -0.0869,-0.6748 -0.0986,-1.51758 0.37695,-2.05176 0.67187,-0.7539 1.79199,-0.55468 2.72656,-0.0293 0.36621,0.20605 0.59864,1.2373 1.0166,1.86914 0.82813,1.25293 1.78711,2.85156 1.31641,4.84472 -0.76367,0.0215 -1.5127,0.37403 -2.28613,0.0215 m 16.21679,-22.16699 -2.67285,-3.80176 c -0.0312,-0.04199 -0.41113,-0.5586 -0.007,-0.66504 0.51172,-0.13477 1.01465,-0.1582 1.4834,-0.31738 3.01367,-1.03125 5.4121,-3.15528 5.00683,-7.40039 0.95508,-0.01856 1.73242,0.33007 2.42188,0.56445 0.9707,0.3291 2.09961,0.72558 2.66504,1.44629 -0.34083,0.53613 -0.80469,0.91894 -1.37305,1.09961 -3.94727,1.25488 -6.85645,4.16308 -7.52442,9.07422 m -45.20703,87.54687 c -2.72509,-0.11914 -5.29345,-0.44922 -7.33984,-1.22119 0.69336,-0.23291 -0.26123,-0.64551 -0.33154,-1.125 4.7456,1.34961 10.07324,0.0898 13.39892,-1.91162 0.11524,-0.0688 0.75293,-0.55615 0.5791,0.19092 l -1.05078,3.92968 c -1.63769,0.23633 -3.50635,0.21436 -5.25586,0.13721 M 187.45877,176.416 c -2.1748,-0.36914 -4.31445,-1.09034 -6.27832,-1.75049 -0.085,-0.69629 -0.23437,-1.29102 -0.19824,-1.91699 1.75684,0.85644 3.88574,1.5415 6.1084,1.87109 0.31641,0.0469 0.14453,0.73193 0.16211,1.16455 2.57715,-0.99854 5.77344,-1.52295 7.91113,-2.771 0.64942,0.52979 0.74121,1.13868 0.65528,1.66455 -0.16797,1.02295 -0.75196,1.64551 -1.75,1.7417 -2.07911,0.19971 -4.56934,0.34229 -6.61036,-0.003 m 17.7754,-19.61622 -7.1504,-0.97949 c -3.49609,-0.44482 -6.18457,-1.73388 -8.48925,-3.77002 5.85644,0.90772 11.16406,1.90772 15.82519,3.67725 0.71973,0.27246 1.34863,0.76416 1.95703,1.15527 -0.74902,0.007 -1.44824,0.0283 -2.14257,-0.083 M 142.09814,88.13477 c -0.53125,-0.09961 -1.0625,-0.23926 -1.36376,-0.37207 -0.29834,-0.13184 -0.35596,-0.72168 -0.70459,-1.10059 -0.49122,-0.53125 -0.19532,-1.49512 0.2871,-2.10156 1.04981,-1.32032 4.11573,-1.71582 5.88526,-0.3125 0.21387,0.16992 0.4414,0.66504 0.59082,1.125 0.13574,0.41699 -0.0449,0.87304 -0.20215,1.26367 -0.57031,1.42969 -2.63769,1.8457 -4.49268,1.49805 m -47.10595,67.04345 c -2.23291,-0.10449 -4.10303,-0.7959 -5.51612,-1.79443 -0.13476,-0.0952 -0.03271,-1.10303 0.27247,-0.85254 1.26757,1.0376 4.14209,0.94678 5.05371,-0.41309 3.09716,-0.14599 5.65869,0.91455 7.65039,2.13379 0.28613,0.1753 0.70605,0.33936 0.76465,0.64014 l -8.2251,0.28613 m 51.09668,-76.48291 c -0.54102,-0.18164 -1.08106,-0.44336 -1.56153,-0.70996 -0.56543,-0.31347 -0.35156,-0.50097 -0.51855,-0.99805 -0.16211,-0.48144 0.25586,-0.91992 0.45312,-1.35839 0.19922,-0.44043 0.81446,-0.85743 1.37403,-0.94141 l 2.00879,-0.29199 c 1.53906,-0.05371 2.80273,0.57715 3.42675,1.53613 0.32325,0.49512 0.0772,1.25781 -0.29687,1.82617 -0.79199,1.20508 -3.20508,1.50489 -4.88574,0.9375 m 35.63183,33.15625 c -0.53613,-0.51562 -0.95507,-1.09277 -1.15722,-1.73047 -0.0947,-0.29785 -0.71778,-0.74316 -0.15039,-1.17382 1.92968,-1.46485 4.31738,-2.38086 5.47461,-4.34375 0.21875,-1.73438 -0.48633,-3.08789 -0.36231,-4.84571 1.10156,0.68262 2.10352,1.46973 2.77832,2.20703 -1.12793,1.53223 -1.60058,3.3584 -2.43945,4.99707 -0.9834,1.91993 -1.87793,4.20997 -4.14356,4.88965 m -18.06836,32.87354 c -0.25879,-0.27246 -0.63574,-0.42822 -0.86523,-0.72217 -2.60645,-3.33789 -4.83203,-7.80664 -4.33398,-13.85547 0.53906,0.10449 0.76464,0.69629 1.43847,0.94434 0.72461,4.23242 1.81055,8.2539 3.76953,11.74609 0.18653,0.33154 0.10254,1.25684 -0.009,1.88721 m -20.66259,66.45508 c -1.86768,-1.13868 -3.76954,-2.27247 -5.3252,-3.84815 0.94483,-0.18066 2.01367,-0.34473 2.77295,-0.67578 0.25342,-0.10986 1.31592,0.42822 1.65381,0.44727 2.15381,0.12011 4.42139,0.73486 6.31299,1.39697 -1.417,1.05957 -2.9668,1.83691 -4.17676,2.78808 -0.4502,0.35352 -0.92383,0.083 -1.23779,-0.10839 m 51.78173,-67.63916 c -4.10351,-1.50245 -8.21289,-3.17774 -12.80761,-4.17481 0.22363,-0.58301 0.41113,-1.28027 0.69336,-1.25488 1.23437,0.10937 2.32519,0.46191 3.38476,0.73535 2.2461,0.5791 3.64453,2.18652 6.63477,2.04199 0.96582,-0.0478 2.00293,0.0566 2.70508,-0.46191 0.23242,-0.17188 1.14746,0.0723 1.36914,0.48047 0.41211,0.7583 -0.292,1.39062 -0.51563,2.10498 -0.18359,0.58935 -0.89062,0.73779 -1.46387,0.52881 m -85.65136,39.87988 c 0.22509,-0.63086 0.53613,-1.25488 0.95361,-1.79297 0.46484,-0.60107 0.39893,-0.51807 0.94678,-1.06689 1.60058,-1.60059 5.07812,-1.75391 7.68262,-1.13428 -1.48731,1.33887 -3.22901,2.37549 -5.03418,3.39551 -1.38721,0.78418 -2.55225,1.73339 -4.54883,1.93408 0,-0.23242 -0.0835,-1.1001 0,-1.33545 m 66.40136,-91.46485 c -0.47949,-0.28027 -1.20117,-0.34667 -1.26074,-0.63378 -0.11426,-0.5586 -0.084,-1.1875 -0.26953,-1.81641 -0.52539,-0.06836 -0.92285,0.80664 -1.55859,0.44531 -1.39649,-0.79101 -3.32324,-1.49023 -5.41016,-2.19433 1.43457,-0.85352 2.66895,-2.13965 2.87207,-3.95215 0.0693,-0.61328 0.36524,-0.0293 0.66016,-0.15528 1.49609,1.15723 2.52148,2.72559 3.38867,4.50586 0.53516,1.09668 1.37988,2.3584 1.57812,3.80078 M 160.1619,196.06836 c 0.30566,-0.979 0.41504,-1.82373 0.57715,-2.77197 -0.2334,-1.05616 -0.88867,-2.05127 -1.47559,-2.87549 0.58008,0.0386 1.30176,-0.25586 1.61524,0.28369 0.77832,1.33545 3.23632,1.1001 3.84863,0.53418 1.43945,0.26025 1.68652,2.3374 1.03027,3.17432 -0.31445,0.40039 -0.57519,1.17187 -0.90527,1.23046 -1.42285,0.25635 -3.16895,0.45215 -4.69043,0.42481 M 86.40674,151.52344 c -2.55518,-3.70215 -5.16699,-7.24414 -7.57471,-10.65821 -0.29394,-0.41503 0.83399,-1.64355 1.77881,-1.26269 0.5874,0.23633 0.08643,1.58301 0.47559,1.89404 1.72461,1.37696 3.19384,3.24219 4.27002,5.45606 0.55517,1.14257 2.05029,1.93554 1.56738,3.77539 -0.07959,0.30127 -0.35645,1.02734 -0.51709,0.79541 m 101.22217,11.15722 c -1.11036,-0.27441 -2.24121,-0.78808 -2.62696,-2.05859 0.0127,-0.91846 0.46582,-2.1084 0.3584,-3.45459 -0.16406,-2.06103 -1.06738,-4.26562 -0.86621,-6.95703 0.8877,0.99414 1.57422,1.93994 2.43945,2.74805 0.3877,1.26757 0.48633,2.95068 0.56543,4.63427 0.085,1.7959 0.39453,3.55811 0.12989,5.08789 m -59.51709,37.34717 c -2.55909,-2.16748 -4.69043,-6.10693 -3.58448,-11.04736 0.43311,-1.93555 0.65918,-3.95557 1.92383,-5.72656 -0.20605,3.92871 -0.61426,8.36816 0.16797,11.49414 l 1.49268,5.27978 0,0 M 99.70166,166.92041 c -1.50684,-0.3208 -2.82422,-0.86523 -3.85498,-1.65088 3.82373,-0.56103 7.27539,-1.52099 11.18311,-1.96728 0.59521,-0.0684 0.19775,0.43066 0.0991,0.58203 -1.00196,1.53711 -2.33936,2.7417 -4.36817,3.19775 -1.10107,0.24756 -2.13135,0.0366 -3.05908,-0.16162 m 54.19775,-76.51025 c -0.19238,-0.05567 -0.79785,-0.11524 -0.92675,-0.13868 0.21093,-0.52832 -0.7168,-0.75 -0.65528,-1.3496 0.084,-0.79102 0.56934,-1.46485 0.95996,-1.86231 0.87305,-0.88672 2.3711,-1.74121 4.01758,-1.11719 0.78418,0.29785 0.83399,0.43262 1.30762,0.92383 0.47363,0.48926 0.43066,1.23633 0.16601,1.82715 -0.66699,1.48633 -2.91015,2.28418 -4.86914,1.7168 m 26.92872,76.31152 c 0.28613,-2.34326 1.00292,-4.2251 2.0996,-5.86377 0.38086,1.89795 1.55274,3.47559 3.08887,3.96191 0.11231,1.18213 0.23438,2.18506 0.20606,3.2837 -0.90723,-0.23682 -1.89453,-0.17774 -2.96289,-0.29444 -0.75782,-0.083 -1.67872,0.0581 -2.44727,0.19776 0,-0.21729 -0.0176,-1.02149 0.0156,-1.28516 M 139.4834,74.95801 c -0.6499,-0.20899 -1.38526,-0.25488 -2.12549,-0.67285 -0.11133,-0.0625 -0.17187,-0.34082 0.13281,-0.40137 3.34082,-0.67188 5.87061,-2.24121 7.71631,-4.46582 1.17871,1.0791 2.62695,1.92871 3.8877,3.01172 l -3.51758,0.65136 c -1.81348,0.26856 -3.36231,0.88282 -4.18506,2.09864 -0.24023,0.35547 -1.27881,-0.02051 -1.90869,-0.22168 m 39.12695,76.84765 c -0.85547,-0.25732 -1.375,-0.55908 -1.55078,-1.16503 -0.89453,-3.07764 0.51465,-6.3086 2.18164,-8.23633 0.39551,0.95166 0.62695,1.81494 1.09277,2.5581 l -0.62207,7.05567 c -0.34277,0.0337 -0.72851,-0.0991 -1.10156,-0.21241 m -44.40381,-8.39502 c 0.55176,0.60694 0.6416,1.35938 1.05567,1.9961 -1.70801,-0.021 -3.25244,-0.32373 -4.8628,-0.43311 -1.47949,-0.10009 -3.13671,-0.3667 -4.04736,-0.92334 0.14551,-0.58056 0.49268,-0.8916 0.72754,-1.31543 0.21582,-0.39111 -0.43652,-1.58007 0.58057,-1.50927 2.62402,0.18115 5.14306,0.6416 6.54638,2.18505 m 63.58252,-11.66455 c -0.41601,-0.47656 -0.13867,-1.15722 -0.30664,-1.70703 -0.58984,-1.94629 -2.6416,-3.07129 -5.06933,-2.9414 -2.51954,-0.94434 -4.98438,0.31054 -6.13379,1.80859 -0.50684,-1.80469 0.39258,-3.57227 1.75879,-3.8291 4.24707,-0.80274 7.64941,1.03613 9.82421,3.17969 0.17579,0.17382 0.13086,0.77343 0.36231,1.10254 0.25293,0.35937 0.54883,0.84863 0.2207,1.2373 0.36524,0.57129 -0.39355,0.83594 -0.65625,1.14941 m 12.50098,29.59766 c -0.93359,-0.11279 -1.80664,-0.26758 -2.625,-0.48535 -4.13379,-1.10205 -8.3877,-2.0044 -12.2168,-4.02588 3.06348,0.14648 5.65918,0.49268 7.8711,0.81396 3.33593,0.48584 5.97851,1.58936 7.79004,3.62647 -0.23243,0.20557 -0.5879,0.0991 -0.81934,0.0708 m -90.77881,16.31299 c -1.48242,-0.70996 -2.61475,-1.68506 -3.37549,-3.08985 2.49317,0.48487 5.15332,0.75586 7.98584,0.62842 1.01905,-0.0464 1.896,-0.32763 2.85889,-0.62256 0.14307,-0.0439 0.65283,-0.10888 0.43262,0.42579 -0.10889,0.26464 -0.31641,0.76074 -0.46778,0.0625 -0.10888,0.49121 0.0107,0.92138 -0.12109,1.1748 -0.21875,0.42236 -0.65772,0.78174 -1.13721,0.9668 -1.75293,0.67773 -4.2456,0.75439 -6.17578,0.4541 m 61.56982,-20.8169 c -0.44238,-0.0923 -0.75976,-0.37646 -1.07226,-0.30322 -0.44141,-1.3081 0.30566,-2.34424 0.85937,-3.0874 0.12207,-2.22949 0.21094,-4.7168 0.6836,-6.63916 0.77246,0.48096 1.25879,1.30224 1.27246,1.87598 0.0576,2.79052 0.4082,5.66503 1.28613,7.97753 -0.81347,0.21778 -2.22461,0.34571 -3.0293,0.17627 m -60.15527,16.36133 c -2.77002,-0.041 -5.12695,-0.70654 -7.02783,-1.80908 0.22754,-0.30078 0.0269,-0.96826 0.21533,-0.91357 3.11621,0.90136 7.81201,1.27929 11.54395,0.51367 0.51806,-0.51856 1.59423,-0.88672 2.55615,-0.21826 0.24023,0.16748 -0.45166,0.72998 -0.80859,0.98388 -1.59766,1.13477 -3.88819,1.48242 -6.47901,1.44336 m -8.04639,-65.49512 c -0.16699,-0.47363 -0.2622,-0.98144 -0.54003,-1.3623 -0.24512,-0.33398 -1.37989,-1.18848 -1.35303,-1.39648 0.12793,-0.96582 0.20019,-1.98731 0.52832,-2.82422 l 4.58545,1.47461 c 0.52441,0.18359 1.41308,0.91406 1.03418,1.63183 -0.73389,1.38867 -2.08106,2.51465 -4.01856,2.99512 -0.25976,0.0645 -0.1748,-0.34277 -0.23633,-0.51856 m 78.08155,-6.74902 c -1.86817,-0.82519 -3.33887,-1.54199 -4.90137,-2.5459 2.94824,0.09961 4.83398,-0.80078 6.71973,-1.61328 1.36328,1.22949 2.58496,2.31934 4.10449,3.14844 0.40723,0.22266 -0.27539,0.39551 -0.63477,0.4541 -1.60742,0.26563 -3.82617,0.38672 -5.28808,0.55664 M 128.6001,86.58594 c -0.9419,-0.19336 -1.94239,-0.21094 -2.60352,-0.76758 -0.58056,-0.48926 -0.76513,-1.1582 -0.53857,-1.84082 0.17724,-0.53418 0.67627,-0.92676 1.1333,-1.27246 0.68213,-0.51563 1.73633,-1.12598 2.78369,-0.94531 0.55811,1.05371 1.40771,1.77343 2.42334,2.15039 0.23437,0.08789 0.52734,0.25195 0.4043,0.57519 -0.40869,1.0752 -1.40821,1.56543 -2.57325,2.09668 -0.12646,0.05762 -0.8164,0.04785 -1.02929,0.0039 m 16.28076,78.06347 c -0.20703,-0.0732 -0.84277,-0.26367 -1.04492,-0.354 -1.21582,-0.54541 -2.53858,-0.94189 -2.72266,-2.67676 0.98389,-0.53857 1.99121,-1.45459 2.36426,-2.59717 1.13476,-0.17236 1.94238,0.30372 2.44434,0.83204 -0.12989,0.24462 -0.22168,0.51513 -0.40235,0.72802 -0.36426,0.43018 -0.625,0.97901 -0.61426,1.54688 0.0108,0.71094 0.92578,1.25635 1.38868,1.19922 -0.28125,-0.62159 0.12402,-1.26465 0.6416,-1.50635 0.35254,-0.16455 0.73925,0.0918 1.00586,0.37793 0.36328,0.39111 0.0322,1.05176 -0.1084,1.53711 -0.27246,0.93847 -1.92578,1.27441 -2.95215,0.91308 m 8.08594,-36.21875 c -1.18946,-0.25195 -1.79297,-1.38183 -2.5127,-2.09668 -0.67187,0.69922 -1.52734,0.78418 -2.35351,0.96094 -0.5752,0.12207 -1.35157,-0.18262 -1.84668,-0.73437 -0.47266,-0.53028 -0.12403,-1.37793 0.084,-1.70313 1.38477,0.99805 3.85156,0.83008 4.6377,-0.51953 l 2.38281,0.98731 c 0.30957,0.1289 1.58008,0.042 1.99902,0.0517 0.0381,0.32325 0.0703,0.71778 0.0684,0.83985 -0.0273,1.51074 -1.04687,2.51172 -2.45898,2.21386 m 13.125,-42.35937 c -0.80469,-1.01465 -0.99903,-2.45996 -1.8125,-3.56641 -0.79785,0.76953 -1.66407,1.4668 -2.2627,2.31153 -0.28613,0.40234 -0.81152,0.96289 -1.17676,0.86816 -0.47558,-0.12207 -1.47461,-1.03516 -1.7832,-1.25293 0.51563,-0.13867 0.24512,-0.87988 0.46289,-1.15137 0.78223,-0.97363 1.89746,-1.49804 3.50098,-1.57226 1.98828,-0.0918 3.52441,0.33105 4.56152,1.34961 0.0928,0.08984 -0.22851,1.09179 0.2627,0.63379 0.0557,0.97558 -0.38868,1.69238 -1.06836,2.28711 -0.14844,0.1289 -0.47168,0.36132 -0.68457,0.09277 m 21.34863,50.84668 -3.91113,-0.94531 c 0.004,-0.28614 -0.15039,-0.65723 -0.11426,-1.0625 1.02051,-0.0127 2.03906,0.10449 2.97266,-0.10352 1.84082,-0.4082 3.21093,-1.76465 4.3789,-2.91113 0.86231,0.25781 1.30567,1.03125 1.50684,1.70019 0.12695,0.41797 0.49414,1.05762 -0.11914,1.32618 -1.3086,0.57226 -2.52637,1.25097 -3.53028,2.1621 -0.32617,-0.1416 -0.78125,-0.0732 -1.18359,-0.16601 m -20.1192,57.81109 c 0.0947,-0.11181 0.19043,-0.23437 0.1875,-0.21972 0.082,-0.59961 0.59277,-1.04688 0.36328,-1.61621 -0.38477,-0.95508 -0.50977,-2.03272 -1.19141,-2.69776 1.62012,0.12158 3.34375,0.0234 4.77442,0.36573 0.70019,0.16748 1.48633,0.71679 1.54297,1.56347 0.0498,0.72315 -0.2627,1.55322 -0.91309,1.83447 -1.14062,0.49366 -2.88574,0.8003 -4.76367,0.77002 m 42.2666,-53.04052 c -0.41211,-0.0601 -0.78809,-0.17432 -0.98047,-0.48389 -1.18359,-1.90479 -1.58594,-4.40381 -2.34179,-6.61182 -0.12598,-0.36816 0.81347,-0.64843 1.3164,-1.08105 0.125,-0.10742 0.7168,-0.49609 0.80957,0.0186 0.31641,1.77539 0.82422,3.66211 1.66797,5.03028 0.12988,0.20996 0.98242,0.53222 1.24609,0.74609 0.42481,0.34473 -0.12597,0.80762 -0.21484,1.2207 -0.15332,0.71827 -0.93945,1.24268 -1.50293,1.16114 m -72.43018,24.01416 c -0.19824,-0.20606 -0.42919,-0.82569 -0.47607,-1.10791 -0.0679,-0.40918 0.33984,-1.15918 0.0234,-1.48487 -0.73194,0.5542 -1.11621,1.34278 -1.77686,1.92627 -0.22265,-0.10693 -0.51513,-0.0718 -0.74658,-0.17383 -0.35547,-0.15771 -0.47607,-0.66259 -0.61182,-1.08935 -0.19287,-0.61084 0.0552,-1.36133 0.40625,-1.68311 1.28956,-1.18261 3.76563,-1.55859 5.04639,-0.29736 0.53369,0.52588 0.46631,1.28467 0.31787,2.29883 -0.061,0.42236 -0.31347,1.19043 -0.9126,1.25781 -0.48437,0.0547 -0.20166,0.34082 -0.0249,0.39746 -0.41748,0.0151 -1.0039,0.20606 -1.24512,-0.0439 m 78.89307,-41.00342 c -0.17578,-0.0303 -0.69531,-0.16504 -0.87402,-0.18945 -2.08887,-0.29004 -3.94922,-1.07813 -4.89649,-2.70118 2.65235,0.14649 5.12989,0.2295 7.17383,0.77735 1.61914,0.43359 2.96582,1.11719 3.7461,2.35254 -1.85938,0.0996 -3.61329,0.0225 -5.14942,-0.23926 M 148.60547,99.36816 c 0.0703,-0.09961 0.15918,-0.32128 0.21191,-0.375 1.38575,-1.40625 2.167,-3.44043 2.63086,-6.16113 1.98535,1.47559 3.75391,3.52149 5.13379,5.2959 -0.625,0.0166 -1.52637,0.28027 -1.87402,0.07227 -1.71094,-1.0293 -4.67676,-0.36329 -5.32715,1.2705 -0.31348,0.02344 -0.92676,0.11524 -0.77539,-0.10254 m 35.95703,34.29493 c 0,-0.21387 -9.8e-4,-0.42383 0,-0.42676 0.88184,-1.28028 1.48535,-2.78028 2.67578,-3.66504 0.97363,-1.23535 3.20899,-1.99902 5.07227,-0.90332 l -3.80078,3.56641 c -0.94532,0.80078 -2.29786,1.53515 -3.94727,1.42871 m -13.85449,37.58056 c -0.17285,-0.0469 -0.72461,-0.0552 -0.89453,-0.11133 -1.97168,-0.65185 -3.81153,-1.65673 -5.56641,-2.70214 0.41309,-0.0586 1.19141,-0.31446 1.51563,-0.21631 3.44433,1.03418 7.44628,1.62304 11.98535,1.94092 -1.65332,1.38916 -4.69825,1.72851 -7.04004,1.08886 m 11.76074,-40.34521 c -0.51465,-0.2334 -1.07715,-0.65528 -1.1543,-1.27735 -0.35449,-2.82519 0.56739,-5.39941 0.96485,-7.82519 0.78418,0.20801 1.39746,0.43359 1.88476,0.85156 -0.59863,2.29785 -0.64062,5.41113 -0.68554,7.65723 -0.008,0.4414 -0.76172,0.70703 -1.00977,0.59375 m -29.15234,-6.99121 c -0.19336,-0.002 -0.76953,-0.31348 -0.82422,-0.37403 -1.07715,-1.19433 -1.86231,-2.59277 -2.4834,-4.25488 1.86914,0.44727 3.35156,-0.17969 4.25293,-0.88184 0.47266,-0.36718 1.05176,0.34473 1.64844,0.31055 -0.24903,0.67969 0.13964,1.07422 0.45117,1.79981 -1.44336,-0.0273 -2.65528,0.34277 -3.06055,1.26269 0.23047,0.11524 1.05469,0.56348 1.33496,0.69336 0.45899,0.21191 0.4209,0.77539 0.25684,1.11133 -0.30274,0.62109 -1.05274,0.33887 -1.57617,0.33301 m 6.50195,-43.94336 c -0.0947,0.02051 -0.52344,-0.46485 -0.66211,-0.57813 -1.4375,-1.18359 -3.16992,-2.19726 -5.4043,-2.55176 -0.0342,-0.52929 0.17481,-0.90039 -0.0283,-1.47363 2.88086,0.76465 5.667,1.61328 8.24512,2.61426 0.95215,0.36914 1.84473,0.93652 2.27441,1.83496 -1.48925,0.0098 -3.10253,-0.11914 -4.4248,0.1543 m -15.94727,62.40527 c -0.99316,-0.48437 -1.74853,-1.09521 -2.81445,-1.48047 -0.28516,-0.10449 -0.87451,-0.16308 -0.72363,-0.68066 0.46875,-1.60254 1.4292,-2.78028 2.38232,-3.87891 0.38916,-0.44824 1.01807,-0.60644 1.46631,-0.9375 0,0.41797 -0.0732,1.54981 0,1.90723 0.0664,0.32324 0.55859,1.23242 0.70899,1.56543 -0.32032,0.39355 -0.53809,0.96289 -0.82422,1.46191 -0.37012,0.64551 0.1582,1.74903 -0.19532,2.04297 m 22.81543,18.79004 c -0.10839,-0.021 -0.40527,-0.17627 -0.51074,-0.21484 -1.81836,-0.6587 -3.30762,-1.85303 -4.42773,-3.20752 -0.27246,-0.32911 -0.84278,-1.53955 -0.98145,-1.95411 -0.12012,-0.35986 -0.2959,-0.88623 -0.10742,-1.20458 2.86523,2.16699 5.64355,4.31787 8.40234,6.68359 -0.66992,0.34424 -1.75293,0.0234 -2.375,-0.10254 m 2.68164,13.1416 c -0.0488,-0.0132 -0.1875,-0.0581 -0.23632,-0.0742 -1.49707,-0.49511 -2.63282,-1.47363 -3.24805,-2.9082 -0.17774,0.01 -0.44824,-0.72559 0.0156,-0.48145 2.51465,1.32129 6.28809,2.20606 10.21973,1.48145 -1.49316,1.66113 -4.02148,2.70703 -6.75098,1.98242 M 123.85889,82.05762 c -1.1919,-0.52735 -2.23877,-0.74024 -3.17432,-1.09864 -0.30371,-0.11621 -0.0522,-0.5 0.12354,-0.56445 2.78515,-1.02051 5.9038,-1.76465 8.39111,-3.17187 l -0.57715,2.59668 c -1.896,0.35742 -3.63672,1.24902 -4.76318,2.23828 m 15.61328,15.0957 c 0.15332,-0.28125 0.58447,-0.6416 0.99072,-0.7373 1.42481,-0.33497 3.13477,-0.70118 3.95508,-1.80274 0.86133,-1.15527 1.95898,-2.30762 3.74023,-2.55176 -0.45215,1.93457 -1.59277,3.92188 -3.26562,4.76563 -1.36914,0.69043 -3.62451,0.68652 -5.42041,0.32617 m -4.37744,92.83301 c -0.28955,-0.29199 -0.73731,-0.32959 -1.02735,-0.56104 -2.8208,-2.25439 -5.09961,-5.07715 -5.87549,-9.37939 -0.0268,-0.14844 -0.28906,-1.98242 0.36573,-0.84912 2.11279,3.66064 4.18115,7.43896 6.53711,10.78955 m -21.17627,-5.48535 c 2.45849,-1.83838 5.25439,-3.43506 7.91601,-5.11475 0.88428,-0.21631 1.89014,-0.18506 3.08057,-0.14258 -2.61133,2.6211 -6.25733,4.10401 -10.22168,5.25391 -0.13672,0.0396 -0.54932,0.11328 -0.7749,0.003 l 0,0 m 44.3374,-16.13477 c 1.70898,-2.23682 2.90918,-5.82226 2.18164,-9.97851 0.89063,0.99316 1.56348,1.93994 1.96582,2.69287 0.38867,3.67822 -1.32715,6.1958 -3.89648,7.32568 0.10839,-0.0479 -0.11426,0 -0.25098,-0.04 l 0,0 M 104.80908,152.3712 c -0.29883,-0.3872 -0.58642,-0.43554 -0.95019,-0.73242 -1.49219,-1.21436 -2.07666,-3.80127 -2.52686,-6.82031 -0.0205,-0.1377 0.78613,-0.70215 1.21485,-1.05518 0.74853,1.15479 1.37744,2.27783 1.55175,3.82031 0.16748,1.48487 0.56494,3.07227 0.71045,4.7876 m -20.63232,7.56543 c -3.51905,-0.85303 -6.74512,-2.02051 -9.84522,-3.36523 0.85401,-0.54102 2.37159,-1.25782 3.38721,-0.63721 2.4458,1.49414 5.56592,1.96484 7.45654,4.15723 -0.43847,0.0942 -0.70556,-0.0835 -0.99853,-0.15479 M 158.00391,94.8922 c -0.37989,-0.45508 -0.94434,-0.58496 -1.26661,-1.05274 1.26563,-0.68164 2.26758,-1.70019 3.21485,-2.71777 1.2998,-1.39453 2.00195,-3.5 2.97656,-5.26172 0.16406,4.48047 -1.78223,7.61133 -4.9248,9.03223 m -58.48194,56.69287 c -1.30224,-0.26514 -2.39746,-0.87451 -4.00244,-0.76953 -0.06592,-0.71778 -0.33642,-1.37988 -0.83496,-2.0376 -0.26562,-0.3501 -1.06787,-0.36816 -1.29199,-0.94873 -0.09668,-0.25 -0.15479,-0.68213 0.0166,-0.76318 0.78027,-0.37159 1.73047,-0.44678 2.41309,0.0259 1.79003,1.23925 3.2373,2.94238 4.45703,4.67968 -0.19239,0.041 -0.46192,-0.12695 -0.75733,-0.18652 m 2.44971,-33.68799 c -0.48291,-0.17871 -0.93555,-0.4707 -1.07031,-0.97363 -0.37842,-1.41016 0.13379,-2.61035 1.09375,-3.26367 0.21924,-0.14942 0.6997,-0.52149 0.79638,-0.13184 0.12061,0.48535 0.3501,0.87598 0.59961,1.28418 0.52637,-0.0254 1.00196,-0.44824 1.51612,-0.52051 0.36621,1.39453 -0.11866,2.6709 -0.84473,3.5625 -0.062,-0.0127 -0.90723,-0.16504 -0.33887,0.25391 -0.50634,0.14844 -1.17431,0.006 -1.75195,-0.21094 m 16.20605,52.39502 c -1.5039,-0.36377 -3.03662,-0.91064 -4.34765,-1.39307 l 0,-1.20214 c 0.53906,-0.0371 1.06347,0.13134 1.56103,0.29736 1.5376,0.51416 3.39844,1.02978 5.04102,0.47168 1.14111,0.43115 2.39746,0.44287 3.19531,1.12549 -0.59131,0.55029 -1.43945,0.46728 -2.11084,0.66259 -1.08105,0.31543 -2.24072,0.30469 -3.33887,0.0381 m 86.79297,-21.42236 c 0.0361,-0.0361 0.3545,-0.4502 0.47754,-0.57471 1.62305,-1.62256 3.92969,-2.80225 6.94824,-2.96631 -0.36132,0.68018 -0.63574,1.42188 -1.12011,1.99121 -1.24121,1.46045 -3.82617,2.04981 -6.30567,1.54981 m -96.37109,-32.8877 c -0.10449,-0.0371 -0.41699,-0.14258 -0.52051,-0.18554 -0.77344,-0.31739 -1.39062,-1.03516 -1.51953,-2.01954 -0.0352,-0.2666 0.93311,-0.10351 1.51367,-0.11425 l 0,-1.94239 c 0.3877,-0.0498 0.77002,0.0908 1.14209,0.1084 1.10742,0.0547 2.05176,1.17871 2.00684,2.50098 -0.0449,1.29785 -1.46973,2.06933 -2.62256,1.65234 M 211.0957,152.7682 c -1.86523,-0.78369 -4.14453,-1.00439 -6.05371,-1.02783 -0.83105,-0.0103 -0.88086,-0.99951 -1.05664,-1.61279 2.59668,0.73828 6.13086,0.26904 7.58399,-0.99365 -0.23047,1.03711 -0.15137,2.72412 -0.47364,3.63427 m -45.10644,1.06543 c -0.38086,-0.18164 -1.67676,-0.54736 -1.96582,-0.83007 -1.37891,-1.34864 -2.50781,-3.36963 -2.71094,-5.83203 -0.0234,-0.29444 0.0771,-1.00782 0.24121,-0.80567 1.87207,2.31299 3.35059,4.94434 4.96973,7.50293 -0.0723,0.10742 -0.36817,0.0435 -0.53418,-0.0352 M 119.0708,86.17285 c -0.19629,-0.02637 -0.70312,-0.49805 -0.91797,-0.50195 -0.61572,-0.0078 -0.31738,-0.33399 -0.47412,-0.64844 -0.52246,-1.04687 0.375,-1.68848 1.00293,-2.01269 1.06201,-0.54786 2.27344,0.04101 3.20899,0.32128 0.31445,0.09473 0.70703,0.84766 0.54101,1.19141 -0.52344,1.0791 -1.77393,1.86035 -3.36084,1.65039 m 95.53955,70.59033 c -0.18457,-0.18408 -0.60547,-0.60058 -0.7168,-0.75683 -1.32421,-1.85401 -1.54882,-5.68311 -0.37304,-8.1416 0.11719,-0.24512 0.45996,0.40673 0.51758,0.65234 0.43261,1.83154 0.72949,3.80469 0.88574,5.76465 0.0674,0.84424 -0.0732,1.66015 -0.31348,2.48144 M 159.27441,95.83789 c 0.15235,-0.15332 0.35254,-0.38379 0.40723,-0.4082 2.90234,-1.31543 4.40527,-4.24219 4.79199,-8.41309 0.25684,0.56836 0.42481,0.91504 0.45117,1.03711 0.26368,1.17285 0.4795,2.46875 0.0996,3.61426 -0.16503,0.50195 -0.12207,1.10351 -0.42089,1.62109 -0.89649,1.54883 -2.94141,2.55664 -5.32911,2.54883 m 10.62012,84.02051 c -0.38574,-0.0815 -0.96191,-0.19922 -1.13867,-0.3916 3.16602,-0.77832 6.17285,-1.9541 9.84375,-2.44483 -0.32715,0.4253 -0.55273,0.97266 -1.03125,1.32471 -1.5127,1.11328 -4.57813,2.1709 -7.67383,1.51172 m -59.2041,-19.1836 c 0,-0.16503 -0.002,-0.82763 0.0142,-1.04785 0.13623,-1.8042 1.40088,-2.94824 3.17627,-3.07568 0.13477,-0.009 0.64746,0.61182 0.72754,0.92236 0.39795,1.53858 -0.98096,2.35303 -1.79639,3.34229 -0.35644,0.43359 -1.40039,-0.0156 -2.12158,-0.14112 m -7.625,-53.32714 c -0.17334,-0.26563 -0.38232,-0.34571 -0.57031,-0.43164 -0.68848,-0.31153 -0.68604,-1.31836 -0.51416,-1.73047 0.0581,-0.13965 -0.14307,-1.00489 0.26953,-0.44532 -0.14356,-0.44335 0.44092,-0.84863 0.79492,-1.08886 0.98096,-0.66699 2.10693,-0.39453 2.78418,0.27929 0.74854,0.74219 0.64258,2.26954 0.0342,3.07715 -0.5918,-0.33008 -1.02783,-0.92187 -1.53223,-1.40722 -0.4209,0.583 -0.80908,1.45117 -1.26611,1.74707 m 61.03711,33.27148 c -0.0879,-0.0879 -0.27637,-0.22461 -0.31543,-0.28613 -1.35156,-2.14551 -2.26367,-4.72461 -2.57617,-7.8916 0.61621,0.17871 1.63965,0.38769 1.76172,1.13964 0.32812,2.01661 0.85449,4.40723 1.88769,6.26954 0.22168,0.39941 -0.52832,0.69921 -0.75781,0.76855 m 20.53613,-28.93262 c 0.22852,-0.72851 0.81641,-1.12207 1.05762,-1.5205 1.44141,-2.37403 2.28906,-5.27149 4.09082,-7.24512 -0.044,2.4541 -0.86719,4.30859 -1.70898,6.0166 -0.65333,1.3291 -1.84571,2.44922 -3.43946,2.74902 m -86.03076,0.62403 c -0.34082,-0.009 -0.80078,-0.37403 -1.11865,-0.75977 -0.21143,-0.25781 0.35644,-0.43066 0.39599,-0.38867 -0.56298,-0.59277 -0.49951,-1.29102 -0.11474,-1.78027 0.13232,-0.16895 0.18408,-0.6377 0.5664,-0.44336 0.49366,-0.49219 1.18457,-0.63086 1.82227,-0.49219 0.34814,0.0752 0.86035,0.26855 0.81787,0.61328 -0.0615,0.49609 -0.57324,0.72559 -0.77344,1.05371 -0.16113,0.26367 -0.0122,0.50488 0.22266,0.69727 0.28369,0.23047 2.0625,0.4834 0.91797,1.18261 -0.17041,-0.17773 -0.69629,-0.0283 -0.15283,0.16016 -0.792,0.37305 -1.65772,0.17871 -2.5835,0.15723 m 15.47168,73.84082 c -0.064,4.9e-4 -0.23291,-0.15283 -0.25928,-0.25586 4.45313,-1.27197 8.45264,-3.06836 11.87403,-5.3794 -2.57373,3.12744 -5.98438,5.60254 -11.61475,5.63526 m 66.69189,-78.9668 c -0.15332,-3.54199 -1.05078,-6.19629 -1.40918,-9.11523 -0.0713,-0.58008 0.19434,-1.29786 0.23926,-1.59375 0.66602,0.72168 0.99414,1.75586 1.31543,2.84668 0.61621,2.08886 0.36914,5.1289 1.03614,7.08886 l -1.18165,0.77344 0,0 m -44.33154,82.40967 -4.55224,-7.23682 c -0.75928,-1.20605 -1.75831,-2.62256 -2.1875,-4.34375 3.15625,2.91309 4.92431,6.82959 6.70947,10.5669 0.13623,0.28418 0.20312,1.28759 0.0303,1.01367 m 50.78565,-77.6333 c 0.83105,-0.7002 1.49121,-1.26172 1.90625,-1.98047 l 2.16894,-5.65918 c 0.53906,0.68945 0.50977,1.3916 0.60938,2.33984 0.33398,3.16504 -1.90723,4.84571 -4.68457,5.29981 m -51.58448,67.22607 -3.55029,-7.62451 c -0.16504,-0.36328 -0.24121,-0.71973 -0.26074,-1.00342 1.04443,0.47998 1.90381,1.27442 2.72217,2.49805 0.22412,2.19043 1.43066,3.97119 2.21582,6.16016 -0.58203,-0.0317 -1.04102,0.14892 -1.12696,-0.0303 m 14.8335,-39.97998 c -0.29297,-0.0615 -0.50879,-0.18457 -0.61816,-0.45508 -0.73438,-1.81836 -1.20997,-3.92578 -1.55762,-6.12011 0.32226,0.004 0.57129,0.13964 0.75586,0.29199 1.58301,1.31933 2.39062,3.5459 2.36035,6.35449 -0.002,0.23926 -0.62109,-0.003 -0.94043,-0.0713 m 12.37012,14.89649 c 1.70312,0.38818 3.04882,1.23242 4.19629,2.17041 1.22265,0.99853 2.48242,2.10546 3.07031,3.8164 -2.99219,-1.56006 -5.29785,-3.65332 -7.65625,-5.59668 -0.1836,-0.15088 0.1582,-0.44287 0.38965,-0.39013 m -23.94873,6.08056 c -0.22364,-0.0991 -0.38477,-0.43408 -0.4961,-0.43847 -0.87158,-0.0361 -1.46728,-0.71924 -1.65185,-1.45166 -0.44434,-1.75684 0.84619,-2.87647 2.09277,-3.28174 0.55762,-0.18164 1.00635,0.1333 1.28955,0.5791 0.0845,0.13281 -0.43213,0.15625 -0.69385,0.26807 -0.83203,0.35595 -1.32763,1.55371 -0.63476,2.89404 0.0547,0.10498 0.5,0.28515 1.03271,0.46191 0.34619,0.11475 1.51514,0.0112 1.35889,0.31006 -0.45752,0.87451 -1.45361,1.03272 -2.29736,0.65869 m 4.58838,-61.63916 c 0.14062,-0.02051 0.58007,-0.08008 0.71972,-0.13281 2.6377,-0.99414 4.19727,-3.31641 5.46485,-5.94727 0.38476,2.84082 -0.8584,4.68848 -2.33008,5.75489 -0.6836,0.49707 -1.71289,0.66601 -2.81055,0.71679 -0.62695,0.03028 -1.97119,0.28516 -2.18506,-0.29589 0.30322,-0.0254 0.93311,-0.06446 1.14112,-0.09571 m -35.19874,11.42871 c 0.0142,-0.42383 0.28956,-0.74121 0.34864,-1.14941 0.0723,-0.50781 -0.89746,-0.64649 -1.28614,-1.00684 0.18897,-0.75879 0.76807,-1.30175 1.49366,-1.6084 0.26953,-0.11328 0.74121,-0.11132 1.15625,-0.0156 0.76806,0.17676 1.11523,0.97559 1.09326,1.85547 -0.0229,0.91504 -0.58496,1.84765 -1.12158,1.87305 -0.74073,0.0342 -1.69287,0.3125 -1.68409,0.0517 m 90.07666,-0.86328 c -1.23925,-1.0625 -2.40234,-2.09082 -3.39453,-3.20508 1.42969,1.01172 4.82227,1.0625 6.22266,-0.0723 0.38477,0.59765 0.64844,1.12988 0.66699,1.81054 -1.36914,0.17481 -2.64551,0.79102 -3.49512,1.4668 m -42.64648,-5.67676 c -1.54102,-1.07226 -3.15234,-2.1289 -5.04687,-2.82617 0.10742,-0.18359 0.37988,-0.48926 0.625,-0.74414 0.63964,-0.66308 1.7666,-0.76269 2.63183,-0.23535 0.85938,0.52344 1.37891,1.54297 1.84863,2.46875 0.19043,0.37695 0.0742,1.42969 -0.0586,1.33691 m 9.76856,-4.0166 c 0.0254,-0.06347 0.0625,-0.21094 0.0762,-0.25683 0.86328,-3.042 3.57715,-4.30957 6.70215,-5.01953 0.0684,0.53613 0.22265,1.1123 0.18164,1.70019 -0.17871,0.01856 -0.69532,0.10156 -0.87207,0.13574 -2.49707,0.49024 -4.5752,1.59864 -5.76856,3.68848 -0.0918,0.16211 -0.51465,0.23828 -0.31933,-0.24805 m -65.47168,49.86572 c -0.82276,-0.56152 -1.46436,-1.29736 -2.07081,-1.97265 -0.77392,-0.86231 -0.82373,-2.64111 -1.02343,-3.96289 1.14013,0.13818 2.11035,1.08252 2.61133,2.14746 0.07666,1.31006 0.61132,2.41992 0.88281,3.72803 0.12353,0.59375 -0.48731,0.28222 -0.3999,0.0601 m 80.18945,37.96241 c -0.0391,-0.17774 -0.20508,-0.69873 -0.23828,-0.87744 -0.33008,-1.75538 -0.24121,-3.83252 0.25781,-5.40381 0.0977,-0.30567 0.45703,-1.04737 0.58594,-0.78272 1.13476,2.32178 0.77246,5.97022 -0.49805,7.92188 -0.0371,-0.3003 -0.0772,-0.72168 -0.10742,-0.85791 m -68.23779,-97.4541 c 0.15625,-0.18262 0.28759,-0.29786 0.29931,-0.34961 0.44922,-1.85645 1.58594,-3.17286 2.91016,-4.16993 0.10351,0.20801 0.44726,1.14258 0.65039,1.30079 0.50391,0.39062 1.01367,0.91113 1.53711,1.26953 -1.84668,0.58789 -3.58789,1.28027 -5.39697,1.94922 M 218.75,127.35352 c -2.38965,0.0225 -4.26367,-0.75879 -5.64062,-2.07715 2.58496,0.41015 5.11328,0.6084 7.96484,0.61328 0.29004,9.8e-4 0.70312,0.20996 0.29297,0.52344 -0.73047,0.55761 -1.62696,0.93066 -2.61719,0.94043 m -64.02344,-22.31543 c -0.14843,-0.0733 -0.35644,-0.18164 -0.4209,-0.22364 -2.26855,-1.49316 -5.4248,-2.53027 -9.09082,-2.20898 0.12207,-0.28223 0.45118,-0.56836 0.80957,-0.68848 2.36133,-0.79101 5.04297,-0.0147 6.88965,0.97071 0.66699,0.35449 1.86914,1.29101 1.8125,2.15039 m 21.20215,56.29931 c -0.31445,-0.01 -1.25586,-0.13965 -1.57422,-0.18359 -0.55859,-0.0791 -1.41894,0.12451 -1.75488,-0.42529 1.47852,-1.07178 4.18262,-1.31592 6.26562,-0.5835 0.29395,0.10303 0.62989,0.50488 0.87696,0.85449 0.16113,0.22803 -0.0879,0.65967 -0.37012,0.63135 l -3.44336,-0.29346 m -40.74658,-30.01416 c -0.0723,-0.0976 -0.19336,-0.28125 -0.22705,-0.31543 1.9292,-1.03418 3.94092,-1.88867 7.01611,-1.65332 0.61426,0.0479 1.22412,0.15528 1.64502,0.60742 -0.0742,0.0332 -0.41504,0.25098 -0.6123,0.27539 -1.92676,0.24903 -3.92578,0.52247 -5.80909,0.91016 -0.65087,0.13477 -1.61767,0.70313 -2.01269,0.17578 m 33.49658,23.29053 c -0.26855,-0.26758 -0.58398,-0.57959 -0.66406,-0.70264 -1.21973,-1.84765 -2.68164,-3.87011 -3.6084,-6.09131 2.93164,0.84278 4.1416,3.60157 4.27246,6.79395 M 150.29785,117.8623 c -0.37793,-0.13867 -0.81152,-0.29492 -1.06738,-0.68554 0.11816,-0.10449 0.47266,-0.0498 0.70801,-0.0469 0.70117,0.009 1.12988,-0.54883 1.24316,-1.21679 0.15723,-0.92481 -0.94629,-1.66407 -1.19336,-2.38868 1.1377,-0.0654 2.03125,0.23047 2.49219,0.80079 0.46387,0.57421 0.58789,1.41503 0.51269,2.09082 -0.11816,1.07324 -1.53711,1.87207 -2.69531,1.44628 m 34.84375,55.08155 c -0.61133,-0.15576 -1.29004,-0.73145 -1.99707,-0.88672 -0.88281,-0.19336 -1.45605,-0.91455 -1.98437,-1.56787 0.208,-0.17383 -0.4795,-0.65674 0.16992,-0.41651 1.97363,0.72901 4.17383,1.37403 6.28515,2.03858 l 0,1.15674 c -0.9541,0.10254 -1.68359,-0.12354 -2.47363,-0.32422 m -1.73242,-67.43018 c -0.18848,-3.20312 -1.03711,-5.91015 -1.79492,-8.82617 0.65039,0.46973 1.18359,0.80566 1.49707,1.45508 0.74023,1.53515 1.08691,3.80273 1.22265,6.1748 0.0195,0.34278 -0.66503,0.78028 -0.9248,1.19629 m -6.17188,58.7041 c -2.18652,-0.24121 -3.96386,-0.97802 -5.92578,-1.98144 l 8.17188,0.53076 c 0.51855,0.0342 0.0752,0.56006 -0.23047,0.70166 -0.0859,0.04 -0.2373,0.21289 0.0576,0.38623 -0.73633,0.13477 -1.41504,0.43506 -2.07325,0.36279 m -44.51757,-8.21582 c -0.88379,-0.21777 -1.11182,-0.98828 -1.16993,-1.61816 -0.22558,-2.44922 1.41944,-4.07666 3.40674,-4.56543 0.44434,-0.10889 1.34961,-0.36963 1.42969,0.43603 -0.23975,0.0454 -0.82031,0.12012 -0.88232,0.16602 -0.65088,0.48145 -1.4087,0.646 -1.86377,1.24219 -0.73389,0.95947 -1.0542,2.6626 -0.92041,4.33935 m 33.2373,-16.39257 c -0.89551,-1.51075 -1.49609,-3.16895 -1.62793,-5.13672 0.76074,0.0996 1.81055,0.35156 1.92188,0.80859 0.30664,1.27539 0.73828,2.81055 0.87793,4.21875 -0.61133,-0.17773 -1.09766,0.23438 -1.17188,0.10938 M 143.20996,92.70801 c -0.3501,-0.91504 -0.76562,-1.78028 -1.36035,-2.62207 1.625,-0.0078 3.21191,-0.01074 4.41699,-0.4834 0.26172,0.21582 0.78809,0.32617 1.05957,0.7373 -1.28418,0.55274 -2.31347,1.45606 -3.46289,2.52637 0.008,-0.0078 -0.43652,0.40723 -0.65332,-0.1582 m -15.42773,95.8164 c -0.0835,-1.25732 -0.27442,-2.8125 0.23779,-4.18017 0.9375,1.81933 2.07471,3.38916 3.3584,4.82422 -1.24805,0.0229 -2.56104,-0.0737 -3.59326,0.0542 0,-0.0474 0.009,-0.53614 -0.003,-0.69825 m 1.62353,-48.29296 c -1.82568,-0.44434 -3.77685,-0.61133 -5.62353,-0.49707 -0.31397,0.0195 -0.91358,-0.33887 -1.01368,-0.82618 1.08399,-0.8164 3.19825,-0.82617 4.66602,-0.40722 0.8335,0.2373 1.82764,0.4707 2.14063,1.33007 0.11084,0.30372 -0.13184,0.41016 -0.16944,0.4004 m 29.83643,-24.51075 c 0.23633,-0.90332 0.83984,-1.76953 0.84863,-2.84082 0.0117,-1.50781 -0.32715,-3.19043 -0.82324,-4.4248 0.77441,0.43262 1.27637,0.79785 1.6084,1.3125 1.24414,1.92578 0.41015,4.96777 -1.22071,6.25 -0.0723,0.0566 -0.51367,0.083 -0.41308,-0.29688 m 7.61621,-11.98632 c 0,0.11328 0.0498,0.0791 0,0.22265 0.43652,-1.25488 1.25,-2.05371 2.07715,-2.72754 0.54492,-0.44531 1.38086,-0.70508 1.83496,-0.19726 0.2373,0.2666 0.45898,0.91797 0.29101,1.29101 -0.61035,1.36133 -2.39648,1.86621 -4.20312,1.41114 m -18.08789,41.95849 c -0.0186,-0.0215 -0.1543,-0.20508 -0.125,-0.13916 -0.58887,-1.31787 -0.20703,-2.97314 0.72558,-3.47168 0.67579,-0.36182 1.37207,-0.37939 1.90332,-0.0122 0.37989,0.26368 1.34961,1.01416 0.63379,1.24366 -1.27734,0.40869 -2.4082,1.28906 -3.13769,2.37939 m 34.2041,31.38526 c -0.24219,-0.19678 -0.45703,-0.38672 -0.42578,-0.65528 3.1123,0.31494 5.03515,2.00586 7.03515,4.09717 -2.59375,-0.91992 -4.59668,-1.92725 -6.68652,-2.97119 -0.0195,-0.01 -0.66992,-0.48438 0.0772,-0.4707 M 146.62695,82.31348 c -0.04,-0.02246 -0.12402,-0.19532 -0.28222,-0.24219 -1.38965,-0.41211 -3.21875,-0.86035 -4.90186,-0.78125 l 1.09668,-2.16797 c 1.22412,0.66699 2.48779,1.31348 3.90283,1.84668 0.28321,0.10742 0.92481,0.20605 0.78028,0.80762 -0.0352,0.14843 -0.16016,0.78515 -0.59571,0.53711 m 61.99414,61.61132 c -0.44531,-0.11718 -0.93652,-0.21044 -1.41894,-0.5415 -0.16211,-0.11084 -0.23731,-0.41211 0.0625,-0.42187 l 3.50195,-0.023 c 0.74317,-0.7378 1.35254,-1.70948 2.20313,-2.21192 0.35156,1.05323 0.0986,2.34033 -0.72266,2.79785 -0.94043,0.52198 -2.40039,0.72022 -3.62598,0.40039 m -52.40918,15.2212 c -0.10449,-0.53907 -0.56054,-1.32178 -0.34472,-1.69092 0.72949,-1.25147 1.4541,-2.646 2.68554,-3.65332 0.38282,2.70263 -0.42578,4.53564 -2.34082,5.34424 m -18.86035,-25.82764 c -0.1831,0.01 -0.41894,-0.26465 -0.52295,-0.54883 1.00928,-0.66504 2.46192,-0.89941 4.03174,-1.12012 0.93262,-0.13183 2.3291,-0.333 3.50488,-0.11914 -1.87207,1.20411 -4.41894,1.64551 -7.01367,1.78809 m -3.81006,45.30176 c -0.0767,-0.0215 -0.3457,-0.0918 -0.53173,-0.30567 -1.23584,-1.42138 -2.18702,-3.48632 -2.93995,-5.60498 0.33301,-0.1084 0.52491,-0.50488 0.82813,-0.59424 1.12744,1.77979 1.91797,3.86915 2.73926,5.94385 -0.18946,0.17334 0.71338,0.79346 -0.0957,0.56104 m 20.48487,-31.57178 c -1.13379,-0.34424 -2.38672,-0.75586 -3.33496,-1.42676 1.28613,-0.75586 3.3916,-0.77295 4.47949,-0.14941 0.42773,0.24414 1.0664,0.65625 0.8418,1.12109 -0.28516,0.59131 -1.30469,0.66162 -1.98633,0.45508 m -7.08594,-2.24219 c -1.0498,-0.55859 -1.60254,-2.13281 -0.9707,-3.5039 0.0908,-0.19776 0.60058,-0.72705 1.12597,-0.97608 0.51953,-0.24609 1.09375,-0.11621 1.62793,0.22461 -0.74511,1.23242 -1.61035,2.54492 -1.7832,4.25537 m 9.02734,35.4502 c -0.20019,-0.0649 -0.35839,-0.34278 -0.32226,-0.29639 -0.7793,-0.98877 -0.30664,-2.27783 0.55859,-2.54541 0.52832,-0.16406 0.80762,-0.30371 1.29492,0.0298 0.60743,0.41601 1.15528,1.14257 0.76368,1.80908 -0.18946,0.32275 -0.44434,0.6582 -0.75391,0.82568 -0.45703,0.24707 -1.04883,0.33789 -1.54102,0.17725 m -8.63769,-42.25342 c -1.32617,-0.26758 -2.16211,-1.95801 -1.31055,-3.58301 0.11133,-0.21191 0.36621,-0.78125 0.84082,-1.22558 0.53028,1.54785 0.94629,3.45019 1.32227,5.03418 l -1.41797,0 c -0.0273,-0.28614 0.37988,-0.14551 0.56543,-0.22559 m 18.57031,-34.21387 c -0.12402,-0.62109 -0.33398,-1.17578 -0.27441,-1.37597 0.68359,-2.31153 2.32715,-4.12207 4.88476,-4.90723 0,0 0.71289,0.12988 0.2793,0.45801 -1.89649,1.43261 -3.90625,3.09375 -4.88965,5.82519 M 135.9546,86.82125 c -0.0395,0.0098 -0.77832,-0.07715 -0.76709,-0.07129 -1.00635,-0.51074 -1.45605,-1.6875 -0.84814,-2.59375 1.08496,-0.05371 2.04248,0.16797 2.92138,0.42969 0.34522,0.99414 -0.35058,2.00683 -1.30615,2.23535 m 0.5542,41.82715 c -0.0376,-0.1875 -0.19629,-0.71387 -0.18848,-0.88574 0.085,-1.99122 -0.0249,-4.12207 -0.1206,-5.9336 0.90283,1.76758 1.54931,3.8252 1.56933,6.2666 0.003,0.32422 -0.86035,0.42871 -1.26025,0.55274 m 84.5957,21.19482 c -2.13183,-0.26953 -3.85937,-1.29004 -5.11816,-2.9458 2.74512,0.69922 4.93652,1.93457 7.08887,2.90088 -0.68848,0.0952 -1.33106,0.12598 -1.97071,0.0449 m -23.9004,-44.46332 c -1.53515,-0.36035 -2.5498,-1.32519 -3.64941,-2.07422 1.71582,0.73926 4.25976,0.75879 6.45117,1.11719 0.47168,0.0762 0.13086,0.36035 -0.0469,0.56445 -0.64257,0.74219 -1.67382,0.64649 -2.75488,0.39258 M 88.17139,148.44727 c -1.17237,-1.42579 -2.24414,-3.26807 -3.26026,-5.07471 2.36328,0.48828 3.43262,2.4956 3.50928,4.59131 0.01709,0.46631 -0.04883,0.72656 -0.24902,0.4834 m 74.44677,41.65234 c -0.19336,-0.0327 -0.4541,-0.20313 -0.66211,-0.39307 -0.41503,-0.38281 -0.34765,-0.95068 -0.25,-1.41406 0.1543,-0.73828 1.03516,-1.10352 1.66602,-0.97656 0.80957,0.16308 0.92285,1.07226 0.90039,1.72021 -0.0293,0.83643 -1.06348,1.16309 -1.6543,1.06348 m 6.11719,-50.32617 c -0.0557,-0.0156 -0.24609,-0.0957 -0.2832,-0.22754 -0.27735,-0.99414 -0.47754,-2.1416 -0.5791,-3.41895 0.56738,0.0859 1.41797,-0.008 1.49609,0.37207 0.22656,1.09375 0.57422,2.18164 0.53027,3.27637 -0.0137,0.36426 -0.80566,0.0986 -1.16406,-0.002 m 29.17285,-36.70117 c -1.44824,-0.21973 -2.93945,-0.65137 -4.41992,-1.08204 0.51172,-0.0967 1.34766,-0.25878 1.62891,-0.30273 1.02929,-0.16113 2.23047,-0.27441 3.25683,-0.0791 0.44629,0.0859 1.09766,1.60937 0.68848,1.56445 -0.27051,-0.0303 -0.93457,-0.0674 -1.1543,-0.10058 m -25.68652,78.708 c -0.11719,-0.0298 -0.48438,-0.10058 -0.68652,-0.0923 -0.15723,0.006 -0.46973,-0.2876 -0.26563,-0.30615 2.36817,-0.22657 4.67285,-1.10401 6.86719,-1.85303 -1.21875,1.74902 -3.63867,2.83203 -5.91504,2.25146 m -24.13867,-25.54589 c -0.15332,-0.0342 -0.48535,-0.0947 -0.66211,-0.16065 -0.4668,-0.17529 -0.90137,-0.81836 -0.75781,-0.92529 1.28711,-0.95606 3.28808,-0.61573 4.18652,0.22217 -0.46484,0.82519 -1.4834,1.1499 -2.7666,0.86377 m 35.07422,-60.67286 c 0.0479,-0.52539 0.38867,-1.20605 0.92578,-1.61425 1.07422,-0.81739 2.99219,-0.19922 3.51074,0.79687 -1.30566,0.4043 -2.88477,0.7041 -4.43652,0.81738 M 104.4082,111.7929 c -0.29345,-0.15625 -0.60937,-0.30957 -0.97021,-0.5127 -0.20069,-0.11132 -0.23096,-0.29492 0.16797,-0.2998 -0.396,-0.44238 -0.49512,-0.98438 -0.15332,-1.3916 0.48437,-0.5752 1.39257,-0.4375 2.02295,-0.0859 0.60888,0.34082 0.57129,1.17285 0.29541,1.77344 -0.23926,0.51855 -1.2417,-0.0117 -1.3628,0.5166 m 26.40821,51.16992 c -0.46045,-0.22119 -1.1587,-0.30176 -1.28516,-0.96435 0.49805,0.005 0.2002,-0.35987 0.005,-0.44434 0.10596,-0.68359 0.39356,-1.67627 0.84082,-1.59424 0.77344,0.14111 0.875,1.16699 1.54932,1.40039 0.55517,0.19238 0.15674,0.5708 0.11719,0.73145 -0.13233,0.53808 -0.56495,1.18994 -1.22754,0.87109 m 24.74511,-7.67822 c -0.0762,-0.0894 -0.208,-0.20362 -0.22265,-0.25977 -0.0967,-0.35547 -0.36914,-0.92627 -0.20801,-1.20068 0.67285,-1.14307 1.78223,-2.35547 3.6582,-2.72803 -1.08593,1.60352 -2.12402,3.0249 -3.22754,4.18848 m 29.63477,-58.22998 c -0.51074,-0.08399 -0.50391,-0.3877 0.002,-0.47852 1.61133,-0.29004 3.17383,-0.73926 4.85938,-0.93066 0.48144,-0.05469 0.71191,0.35254 0.82715,0.65527 -0.0947,0.0459 -0.50196,0.29004 -0.64942,0.33692 -1.40234,0.44531 -3.33398,0.69726 -5.03906,0.41699 M 181.35906,94.707 c -1.50977,-0.20312 -2.60743,-0.97265 -3.48145,-1.65332 1.33008,-0.21582 3.13184,-0.28125 4.52832,-0.03516 -0.13477,0.4336 -0.33984,0.86524 -0.39258,1.33497 -0.043,0.36914 -0.4082,0.38574 -0.65429,0.35351 m -52.28077,57.90869 c -0.63623,-0.44726 -1.42871,-1.21093 -1.29882,-2.35302 0.53759,-0.2168 0.62646,-0.95948 1.31201,-0.91553 0.40966,0.0268 0.97656,0.72851 1.02148,1.29248 0.0669,0.83691 -0.76318,1.37012 -1.03467,1.97607 m 4.79737,-24.56201 c -0.0596,-1.86523 0.32031,-3.31933 1.23047,-4.89941 -0.34278,2.08105 0.0874,4.00097 -0.1001,5.46875 -0.0894,0.70019 -0.77832,0.55664 -1.11621,0.70312 0,-0.24902 -0.006,-1.0166 -0.0142,-1.27246 m -31.27162,50.6387 c -0.15185,-0.0713 -0.25341,-0.35644 -0.31103,-0.56445 -0.0239,-0.0845 -0.27881,-1.06592 0.27539,-0.41602 -0.15186,-0.49804 -0.0459,-0.97363 0.55371,-1.19189 0.65381,-0.23779 1.49463,0.0728 1.67529,0.78467 0.16797,0.66845 -0.35644,1.23974 -0.99267,1.51758 -0.28418,0.12304 -0.80567,0.0552 -1.20069,-0.12989 m 35.29932,1.22705 c 0.97852,-1.1792 1.75488,-2.59375 2.63916,-3.8872 0.44775,1.56836 0.0757,3.50927 -1.38184,3.87207 0.005,-0.022 -0.15527,0.37841 -0.30517,0.0142 l -0.95215,9.7e-4 0,0 m 49.10352,1.65381 c -1.81543,-0.67138 -3.75196,-1.45996 -4.6543,-3.04883 2.00781,1.07813 4.04394,2.396 6.53027,3.04151 -0.42871,0.57519 -1.33301,0.20801 -1.87597,0.007 m -30,-78.06738 c -0.14844,-1.54688 -0.57227,-2.62207 -0.86231,-3.61133 0.62891,-0.17285 1.0332,0.12012 1.43067,0.42578 0.95214,0.73438 0.49707,2.61328 -0.15137,3.35547 -0.49414,0.56836 -0.43262,-0.33691 -0.41699,-0.16992 m -6.91602,-14.47363 -1.26074,-0.66602 c 0.11816,-0.90137 0.61621,-1.81152 0.63183,-2.73633 0.44629,0.0625 1.09571,0.20899 1.51075,0.59668 -0.39453,0.77832 -0.50391,2.05664 -0.88184,2.80567 m 10.78711,39.2832 c -1.02246,-0.15625 -1.9873,-0.99219 -2.0127,-1.78516 0.95704,-0.21777 1.98536,-0.42578 2.66211,-0.35547 0.27735,1.13086 -0.22949,2.05079 -0.64941,2.14063 m 13.13184,2.68262 c 0.55566,-0.29395 1.18945,-0.47364 1.79882,-0.625 0.14844,0.17383 0.32813,0.38281 0.35547,0.73242 0.085,1.08496 -1.22949,1.96289 -2.15429,2.17676 l 0,-2.28418 m 45.07714,20.6748 c -1.23828,-0.53418 -2.47265,-1.44873 -3.26757,-2.96777 1.71679,1.37695 3.33398,1.95556 5.29785,2.26758 -0.54199,0.45214 -1.47656,0.93847 -2.03028,0.70019 m -98.80322,-13.81152 c -0.2998,-0.0742 -0.80713,-0.0566 -0.92041,-0.29981 0.82959,-1.11328 3.05274,-1.77539 4.1875,-0.70019 -0.96631,0.42578 -1.88525,1.34472 -3.26709,1 m 10.81104,10.98486 c -0.23194,-0.16064 -0.39307,-0.42969 -0.54395,-0.67724 0.53223,-0.4209 0.83301,-1.0752 1.18408,-1.31983 0.74121,-0.51758 1.66407,-0.0962 2.08057,0.36963 -0.30029,0.31787 -0.66064,0.65381 -1.11719,0.90381 -0.53222,0.29394 -1.11426,1.06445 -1.60351,0.72363 m 5.65478,26.03369 c -0.16504,-0.66504 -0.34961,-1.35547 -0.55371,-1.97217 0.82373,0.35206 2.24316,0.0479 3.18799,0.0488 -0.41455,0.88721 -0.95752,1.46338 -1.7002,1.77149 -0.25195,0.10449 -0.76269,0.84228 -0.93408,0.15185 m 22.02002,-49.85742 c 0.24121,-0.61621 0.3916,-1.10644 0.40625,-1.60449 0.76172,-0.0674 1.5957,-0.37793 2.28125,-0.041 0.40039,0.19727 -0.0723,0.75977 -0.16113,0.97071 -0.38086,0.90527 -1.70703,0.96386 -2.52637,0.6748 m -67.07764,26.26807 c -0.13916,0.007 -0.73974,-0.30078 -0.83398,-0.43555 -0.37207,-0.52734 -0.26953,-1.32666 -0.41309,-1.99072 1.03711,0.0654 1.74854,0.73291 2.41456,1.25195 0.08935,0.0693 0.06103,0.43262 -0.0088,0.67969 -0.14991,0.53662 -0.76123,0.47607 -1.1587,0.49463 m 67.64014,-29.56104 c -0.26855,-0.33203 -0.6416,-0.61816 -0.8291,-0.89258 1.20605,-0.26367 2.18848,-0.80468 3.50488,-0.98437 -0.21289,0.83008 -0.7334,1.59961 -1.44922,1.875 -0.37109,0.1416 -0.87304,0.44336 -1.22656,0.002 m -43.25195,45.41455 c -0.45117,-0.18066 -0.93213,-0.35205 -1.3418,-0.56494 0.56494,-0.41601 1.38281,-0.87988 2.23682,-0.73535 0.77978,0.13135 1.45947,0.7915 1.55322,1.48877 -0.92334,0.0762 -1.74463,0.0928 -2.44824,-0.18848 M 140.9204,94.46949 c -0.24414,-1.3252 -0.7207,-2.34864 -0.98047,-3.66797 1.09522,0.69726 2.1001,1.77051 1.98975,3.50586 -0.3208,0.08691 -0.87989,0.86426 -1.00928,0.16211 m -20.9126,51.26611 c -0.56006,-0.61133 -0.67627,-1.56299 -0.30957,-2.4834 0.10791,-0.27051 0.55078,-0.62158 0.94239,-0.87646 0.8164,1.07763 0.30322,2.3789 -0.42432,3.1416 0.14209,0.13476 0.10303,0.56006 -0.2085,0.21826 m 58.68067,-7.55908 c -0.20313,-0.0801 -0.41211,-0.24707 -0.49707,-0.47461 0.68359,-0.48731 1.33105,-1.125 1.71093,-1.87012 0.13282,-0.26074 0.51856,0.14551 0.54981,0.31641 0.0986,0.54687 0.28515,1.26953 -0.14551,1.75195 -0.46973,0.52344 -1.04394,0.50098 -1.61816,0.27637 m 7.35449,32.42773 -2.90234,-1.28857 c 1.23925,-0.41211 2.66308,-0.0942 3.77343,0.16406 0.0693,0.43555 0.23047,0.89307 0.18067,1.38379 -0.25391,-0.3042 -0.7334,-0.12793 -1.05176,-0.25928 m -23.35059,-39.82617 c -0.6582,-0.0527 -0.84668,-0.70898 -1.24902,-1.11816 0.28613,-0.19434 0.51465,-0.55957 0.81055,-0.67286 0.59863,-0.22949 1.31347,0.16016 1.80859,0.49024 -0.26367,0.41113 -0.19434,0.85156 -0.39746,1.26465 -0.25879,0.52734 -0.68457,0.0596 -0.97266,0.0361 m -35.7207,37.27637 c -0.66895,-0.23535 -1.13672,-0.72803 -1.76465,-0.95948 0.25635,-0.22949 0.10059,-0.63671 0.12402,-1.06689 1.06299,0.80225 2.60254,1.4209 4.27247,1.7417 -0.78467,0.48437 -1.9292,0.5332 -2.63184,0.28467 m 47.10156,-31.93555 c -0.12304,-0.008 -0.47265,-0.23828 -0.6582,-0.23242 -0.31836,0.0107 -0.58691,-0.22559 -0.36133,-0.60938 0.42871,-0.72949 1.91895,-0.68164 2.67481,-0.74023 0.0186,0.78223 -0.34473,1.33105 -0.94922,1.68066 -0.16992,0.0986 -0.43555,-0.0811 -0.70606,-0.0986 m -41.40332,31.03027 c -0.50097,-0.125 -1.10498,-0.27197 -1.24707,-0.80517 -0.14697,-0.55274 0.1001,-1.29541 0.53565,-1.55518 0.41113,0.65332 0.9541,1.38819 1.78466,1.41699 l -0.21142,1.45118 c -0.125,-0.51807 -0.62061,-0.44825 -0.86182,-0.50782 m 38.21387,-34.88086 c -0.22559,-0.67675 -0.36914,-1.58789 0.0303,-2.05566 0.35254,-0.41504 0.98145,-0.52051 1.48633,-0.54883 0.17285,0.76172 -0.0898,1.49317 -0.49121,2.11231 -0.24121,0.37207 -0.76074,0.23144 -1.02539,0.49218 M 138.2749,95.40723 c 0.0137,-0.63282 0.13135,-1.26075 0.20166,-1.88672 0.0688,-0.61133 -0.13623,-1.9043 0.37549,-2.10938 0.40332,1.1543 0.52881,2.54883 0.36035,4.02246 -0.0298,0.26172 -0.4414,0.46387 -0.9209,0.59473 -0.13379,0.03613 -0.021,-0.40918 -0.0166,-0.62109 m 27.5376,16.50683 c -0.58398,-0.92285 -0.88672,-2.0957 -1.13379,-3.35156 0.4707,0.0264 1.05957,0.29199 1.37305,0.72363 0.59668,0.8252 0.43066,1.92481 -0.23926,2.62793 m 2.84668,22.24903 c -0.34277,-0.27735 -0.76855,-0.18555 -1.00977,-0.42188 0.15625,-0.51269 0.0918,-1.16699 0.37207,-1.3916 0.50977,-0.40918 1.04395,-0.72949 1.65137,-0.55859 0.0166,0.87207 -0.5039,2.00488 -1.01367,2.37207 m -49.00879,30.7539 c -0.57129,-0.19726 -1.14648,-0.44726 -1.62793,-0.83398 -0.25195,-0.20215 -0.36133,-0.97168 -0.10156,-0.96875 1.39404,0.0161 2.60107,0.65869 2.64111,1.80273 -0.12646,0 -0.74072,0.0596 -0.91162,0 m 49.43945,-52.91308 c -0.47558,-0.49024 -0.58984,-1.25489 -0.62597,-1.88575 -0.0186,-0.32226 0.2998,-1.11132 0.76953,-0.89746 0.54101,0.24805 0.63672,0.92481 0.70605,1.45215 0.0742,0.56836 -0.31738,1.125 -0.84961,1.33106 m -43.92822,51.40478 c -0.28906,-0.0972 -0.5293,-0.375 -0.57373,-0.48633 -0.35986,-0.89209 -0.38135,-1.85107 0.23047,-2.34423 0.56836,0.38085 1.30762,1.04394 1.01221,1.83447 -0.13575,0.36084 -0.33106,1.10888 -0.66895,0.99609 m -8.17773,-2.92676 c -0.75098,-0.54638 -1.01514,-1.81201 -0.33496,-2.57617 0.3413,-0.3833 1.03418,-0.23291 1.11132,0.19531 0.0933,0.51661 -0.17724,1.11084 -0.479,1.74024 -0.0532,0.11084 0.28711,1.06787 -0.29736,0.64062 m 55.22412,-43.77978 c -0.0283,-0.47559 -0.33399,-0.87793 -0.21289,-1.10352 0.33789,-0.62695 1.26269,-1.09375 1.77929,-0.91015 0.17774,1.0664 -0.33496,2.00488 -1.208,2.16211 -0.16504,0.55273 -0.34864,0.005 -0.3584,-0.14844 m 1.82226,12.06933 c -0.0762,-0.37109 -0.29785,-0.68261 -0.16992,-1.06347 0.0986,-0.29297 0.46875,-0.37793 0.74219,-0.40235 0.39062,-0.0361 1.17969,-0.27441 1.16699,0.24317 -0.0225,0.91113 -0.69433,1.75586 -1.49805,1.7959 -0.47558,0.0234 -0.21484,-0.44336 -0.24121,-0.57325 m -50.45703,14.85254 c -0.30566,-0.0732 -0.69873,-0.35888 -0.68603,-0.33447 -0.24951,-0.47851 -0.62989,-1.20752 -0.24219,-1.77637 0.54687,0.0444 1.17139,0.30225 1.82568,0.20508 0,0.18555 0.0757,0.8208 0,0.89649 -0.36572,0.35742 -0.46728,1.11279 -0.89746,1.00927 m 3.49072,17.44434 c 0.0405,-0.13037 0.24708,-0.17529 0.37793,-0.24512 -0.3496,-0.25 -0.57373,-0.73193 -0.45166,-1.0083 0.19825,-0.44629 0.61622,-1.20556 0.94971,-0.99219 0.86377,0.55323 0.66455,1.61133 0.18897,2.417 -0.084,0.14209 -0.63623,-0.0937 -1.06495,-0.17139 m -0.4165,-5.92432 c -0.24707,-0.19287 -0.47119,-0.42334 -0.71484,-0.84082 -0.31787,-0.54687 0.49951,-1.45996 1.31738,-1.7373 0.16943,-0.0571 0.85596,0.45019 0.64307,0.90039 -0.27491,0.58349 -0.88135,1.07031 -1.24561,1.67773 m 44.17578,-26.76123 0.5791,-2.54101 1.17286,-0.19239 c 0.12304,1.29493 -0.37012,2.37012 -1.40137,2.8418 -0.20215,0.0928 -0.38672,0.0459 -0.35059,-0.1084 m -44.27734,20.39942 c -0.004,-0.009 -0.59619,-0.25244 -0.1709,-0.45655 0.33789,-0.16308 0.1333,-0.55517 -0.16504,-0.54541 0.009,-0.65088 0.69238,-1.12011 1.30615,-1.15673 0.18946,0.31054 0.43604,0.6499 0.5586,1.08447 0.0493,0.17431 -0.28321,0.3872 -0.36817,0.50195 -0.28759,0.38965 -0.8667,1.29443 -1.16064,0.57227 m -1.81445,3.5166 c -0.21192,-0.36035 -0.29932,-0.71631 -0.4668,-0.81836 0.13916,-0.5752 0.46289,-2.02246 1.2583,-1.6582 0.32324,0.14746 0.42383,0.78369 0.52832,1.17968 -0.45313,0.32276 -0.58545,0.83496 -0.95752,1.29493 -0.1333,0.16552 -0.25244,0.18701 -0.3623,0.002 m 41.51757,-26.08496 c 0.15918,-0.71094 -0.0186,-1.47852 0.16993,-2.20899 0.12402,-0.47949 0.8457,-0.19433 1.30761,-0.22363 0.0811,0.51367 -0.10156,1.02832 -0.26269,1.53809 -0.14356,0.45898 -0.53321,0.75879 -0.95313,1.01855 -0.19043,0.11719 -0.33203,0.18945 -0.26172,-0.12402 m -40.59326,32.79394 c -0.52344,-0.20703 -0.68847,-0.73877 -0.74951,-1.16601 -0.0815,-0.56494 0.22461,-1.20508 0.77539,-1.39453 l 0.81152,0.81201 c -0.23681,0.53808 -0.3623,1.14258 -0.59375,1.92822 -0.0356,0.12109 -0.23925,0.13086 -0.24365,-0.17969 m -2.29638,-2.55859 c -0.11817,-0.31592 -0.25879,-0.52783 -0.53321,-0.73877 0.36621,0.005 0.4668,-0.24414 0.1333,-0.34863 -0.0659,-0.58985 0.46192,-0.8877 0.66797,-1.37305 0.40967,0.14941 1.23926,0.4043 1.08106,0.78711 -0.30616,0.73926 -0.72998,1.61475 -1.34912,1.67334 m -2.74415,2.00439 -0.83349,-0.44433 c 0.48779,-0.59961 0.11426,-1.53418 0.73047,-1.90283 0.40967,-0.24463 0.77978,0.0903 1.04785,0.24707 -0.10986,0.84668 -0.40186,1.63623 -0.94483,2.10009 m 81.52051,-46.21533 c -0.57129,-0.23535 -1.16211,-0.61328 -1.25586,-1.22851 1.02149,9.7e-4 1.96387,0.15722 2.83692,0.37304 0.38281,0.0947 0.30078,0.54492 0.2666,0.85547 -0.36621,0 -1.5957,0.10352 -1.84766,0 m -35.25,6.2793 c -0.26562,-0.72949 -0.26562,-1.53711 -0.006,-2.25098 0.42774,0.041 1.10157,-0.50879 1.19141,-0.22265 0.35254,1.12988 -0.37109,2.12695 -1.18555,2.47363 m -44.9774,45.41987 c -0.66308,-0.0688 -0.71338,-0.76465 -1.04052,-1.1377 -0.21582,-0.2456 0.0469,-0.89355 0.29199,-1.31933 0.54785,0.18164 1.43554,0.76465 1.19726,1.52148 -0.10595,0.33643 -0.0347,0.97803 -0.44873,0.93555 m 1.95069,2.31396 c -0.36231,-0.2832 -0.80225,-0.39501 -0.91016,-0.78613 -0.17871,-0.64551 0.25391,-1.39795 0.8335,-1.79345 0.20703,0.30371 0.59912,0.52978 0.70556,0.84765 0.19239,0.57227 -0.29199,1.38965 -0.6289,1.73193 m -4.81494,-4.66748 c -0.0186,-0.008 -0.12793,-0.11377 -0.16456,-0.15283 -0.60742,-0.65478 -0.23632,-1.65674 0.42188,-2.02636 0.18945,-0.10645 0.68799,0.0923 0.7417,0.42968 0.0981,0.61426 -0.26758,1.26514 -0.28613,1.94239 -0.25049,0.0659 -0.4712,-0.0908 -0.71289,-0.19288 m 53.19043,-47.76562 c -0.31055,-0.58594 -0.25977,-1.30078 -0.41407,-1.91113 0.45215,-0.27539 0.93262,-0.65528 1.40137,-0.56543 0.3584,1.03906 0.007,2.00293 -0.79395,2.3584 -0.0332,0.0156 -0.12695,0.0898 -0.19335,0.11816 l 0,0 m -9.66797,-6.85449 c -0.25684,-0.0859 -0.82227,-0.2793 -0.67774,-0.39453 0.74219,-0.58887 2.06836,-0.81055 2.89453,-0.34766 -0.15918,0.4248 -0.33398,0.79199 -0.68457,0.9043 -0.49023,0.1582 -1.03515,0.004 -1.53222,-0.16211 m -3.3877,-2.24414 c 0.11035,-0.92578 0.34863,-1.77442 0.73633,-2.4668 0.16113,-0.28711 0.68652,0.33984 0.73437,0.70117 0.041,0.31934 0.26758,0.5918 0.43946,0.82617 l -1.91016,0.93946 0,0 m 15.00586,19.50683 c 0.19141,-0.52246 0.87793,-0.70996 1.46289,-0.7666 -0.0361,0.31934 -0.0654,0.83008 -0.10254,1.06641 -0.12988,0.81738 -0.45117,1.25293 -1.36035,1.24121 0,-0.24903 -0.10254,-1.26367 0,-1.54102 m -3.10644,10.89063 c -0.33301,0.0127 -0.89356,-0.16797 -1.03418,-0.19336 0.28808,-0.42578 0.19824,-1.07129 0.80371,-1.37012 0.45996,-0.22851 1.3291,-0.31152 1.34863,-0.17383 0.14453,1.00586 -0.73145,1.72168 -1.11816,1.73731 m -71.31202,7.30176 c -1.00976,-0.25831 -1.78613,-0.72852 -2.54785,-1.4336 0.28955,-0.25683 1.04199,-0.46387 1.43311,-0.21484 0.44824,0.28711 0.98193,0.46631 1.4458,1.09179 0.0376,0.0508 0.39013,0.74024 -0.33106,0.55665 m 67.71241,-33.69239 c -0.38282,-0.51367 -1.08399,-0.63086 -1.37793,-1.23144 -0.15332,-0.31446 0.14843,-0.6416 0.0654,-1.0127 l 1.38671,0 c 0.24219,0.68848 0.12207,1.60742 -0.0742,2.24414 m -50.05469,43.44434 c -0.56836,-0.1499 -0.98096,-0.80127 -0.95654,-1.38623 0.02,-0.5083 0.55029,-0.63233 0.85302,-0.71631 0.55908,-0.1543 0.6167,0.51318 0.67432,0.88574 0.0796,0.51416 -0.16748,1.32227 -0.5708,1.2168 m 59.3457,-15.6211 c 0.1709,-0.35644 0.70508,-1.2246 0.71289,-1.48437 0.0195,-0.67285 0.26953,-1.27344 0.0215,-1.88672 0.7373,0.0391 0.78613,0.87891 0.87695,1.3916 0.0889,0.5 -0.14551,0.95313 -0.45996,1.37891 -0.25879,0.35058 -0.7793,0.77051 -1.15137,0.60058 m -57.86474,11.96583 c -0.46045,-0.13184 -0.80274,-0.45508 -1.02686,-0.85596 -0.0723,-0.13086 -0.11816,-0.81153 -0.0361,-0.91211 0.22461,-0.27393 0.35302,-0.8418 0.62304,-0.67236 0.64746,0.40771 0.78321,1.06543 0.95069,1.73193 0.0439,0.1748 -0.32276,0.47363 -0.51074,0.7085 m 52.59619,-38.3877 c -0.41407,-0.43359 -0.62793,-1.05762 -0.80762,-1.62012 0.4707,-0.27636 1.02734,-0.43847 1.53418,-0.47168 0.44141,0.70117 -0.10547,1.34375 -0.16797,1.96778 -0.0322,0.32226 -0.4375,0.25195 -0.55859,0.12402 m 0.96093,9.55566 c 0.0244,-0.0908 -0.19628,-0.29687 -0.13281,-0.43164 0.26953,-0.5664 1.1377,-1.22168 1.91797,-1.27832 0.0488,0.99707 -0.55469,1.92481 -1.35449,2.10938 -0.34668,0.0801 -0.50781,-0.0947 -0.43067,-0.39942 m -9.29199,1.61621 c 0.0703,-0.70605 0.5918,-1.40527 0.43848,-2.05664 0.41015,0.004 1.27246,-0.15234 1.27344,0.0312 0.002,0.85743 -0.23829,1.61817 -0.81543,2.03418 -0.084,0.0606 -0.68555,0 -0.89649,-0.009 l 0,0 m 20.10449,-4 c -0.0488,-0.64355 0.44825,-1.10351 1.05079,-1.34082 0.67382,-0.26464 1.61718,-0.24316 1.89843,0.51954 0.0664,0.18164 0.3252,0.45312 -0.16992,0.375 -1.14355,-0.17969 -2.07812,0.003 -2.7793,0.44628 l 0,0 m -61.79638,37.12793 c -0.008,-0.29052 -0.21582,-0.49218 -0.43506,-0.66308 0.14355,-0.51514 0.11035,-1.23486 0.67529,-1.44043 0.3667,-0.13428 0.62305,0.35449 1.0332,0.53076 -0.11474,0.61914 -0.64013,1.17822 -0.81884,1.75928 -0.11621,0.009 -0.44727,0.0718 -0.45459,-0.18653 m 56.28174,-24.04589 c -0.26758,-0.43555 -0.34766,-0.92871 -0.29786,-1.3877 0.0645,-0.58594 0.72559,-0.84082 1.23536,-0.87988 0.0859,0.67285 0.22363,1.57129 -0.42383,2.21777 -0.0586,0.0596 -0.32422,0.3584 -0.51367,0.0498 m -11.16504,-9.07227 c -0.0459,-0.43945 -0.22364,-0.98535 -0.004,-1.17969 0.43555,-0.38574 0.88379,-0.44238 1.32227,-0.375 0.13574,1.17578 -0.64844,2.04297 -1.2295,2.60645 -0.0166,-0.21582 -0.0684,-0.84375 -0.0889,-1.05176 m -3.39942,4.55371 c 0.25489,-0.45898 1.15625,-0.14258 1.76367,-0.16797 -0.0225,0.20996 -0.10937,0.43457 -0.16113,0.63672 -0.17871,0.69238 -0.89062,1.11817 -1.60254,1.05078 0,-0.25976 -0.16504,-1.22265 0,-1.51953 m 27.90918,46.8457 c 0.008,-0.0454 0.13965,-0.1621 0.18262,-0.19189 0.55371,-0.38232 1.64941,-0.78369 2.52148,-0.53809 -0.60254,0.84327 -1.54101,1.41065 -2.7041,1.43262 0,-0.0981 -0.0264,-0.55664 0,-0.70264 m -22.07812,-50.87695 c -0.10645,-0.39062 0.0928,-0.80664 0.1084,-1.22168 0.37109,-0.0371 0.76757,-0.0498 1.1289,-0.1289 0.26856,-0.0596 0.38477,0.22949 0.29785,0.61328 -0.15039,0.66797 -0.67578,1.47265 -1.43359,1.45605 -0.0195,-0.16113 -0.0635,-0.58105 -0.10156,-0.71875 m -1.02246,8.90527 c -0.22461,-0.0742 0.0166,-0.56347 -0.31641,-0.60253 0.0791,-0.667 0.74902,-1.49707 1.61621,-1.31543 0.0557,0.54199 -0.0762,1.08691 -0.22656,1.63671 -0.10645,0.38868 -0.65039,0.42188 -1.07324,0.28125 m -45.04639,30.31446 c -0.1958,-0.20459 -0.65772,-0.61914 -0.72998,-0.75977 -0.31543,-0.61474 -0.0176,-1.47558 0.47119,-1.76904 0.18457,0.18408 0.77832,0.66064 0.77393,0.77344 -0.0225,0.57568 4.8e-4,1.45703 -0.51514,1.75537 m 19.82861,-50.26758 c 0.004,-0.0273 0.13086,-0.10938 0.1709,-0.13086 0.85547,-0.44336 1.83496,0.26856 2.15235,0.83496 -0.81446,0.14649 -1.53028,0.5625 -2.32325,0.39844 0,-0.21875 -0.0312,-0.88574 0,-1.10254 m 10.00196,49.19189 c -0.42383,-0.24169 -0.34668,-0.63964 -0.51758,-0.88916 0.0811,0.004 0.27539,-0.0732 0.39551,0.0859 0.11816,-0.12939 0.0566,-0.50683 -0.0645,-0.6958 0.4375,-0.54443 1.18067,-0.87158 1.87403,-0.67969 -0.30274,0.8501 -1.167,1.56006 -1.6875,2.17871 m 15.7207,-33.07763 c 0.085,-0.9209 0.59863,-1.74414 0.69141,-2.625 l 0.88378,0 c -0.21582,0.98926 -0.4248,2.08203 -0.99023,2.5957 -0.2627,0.23828 -0.63672,0.58984 -0.58496,0.0293 m 32.36426,-17.01856 c -0.29492,-0.0391 -0.70508,-0.0186 -0.93067,-0.17285 0.7002,-0.4209 1.64453,-0.87402 2.53516,-0.52832 0.33496,0.13086 0.67187,0.30078 0.64453,0.98047 -0.74902,0.0322 -1.49414,-0.18066 -2.24902,-0.2793 m -78.30518,39.8125 c 0.63818,-0.10351 0.041,-0.50195 0.48682,-0.96045 0.17236,-0.17724 0.52588,-0.26513 0.94482,-0.17334 -0.12451,0.74414 -0.80224,1.44483 -0.86328,2.44776 -0.0122,0.18994 -0.59033,0.006 -0.94531,-0.0713 -0.11231,-0.44483 0.22998,-0.83301 0.37695,-1.24268 m 80.05322,-34.05859 c -0.22363,-0.0606 -0.86035,-0.39356 -0.98828,-0.51563 -0.38574,-0.36718 -0.55859,-0.98828 -0.24414,-1.44921 0.85156,0.46777 1.66699,1.20312 2.14844,2.07226 -0.25977,0.29199 -0.63281,-0.0293 -0.91602,-0.10742 m -25.47461,11.38672 c -0.1914,-0.61621 -0.22168,-1.31446 -0.11621,-1.98535 0.0361,-0.23145 0.13184,-0.76856 0.52051,-0.58106 0.52051,0.25098 0.51172,0.83106 0.60547,1.29785 0.15039,0.75196 -0.65234,0.91211 -1.00977,1.26856 M 165.5,129.81152 c -0.2207,-0.59472 -0.37891,-1.51953 0.27344,-1.74609 0.40332,-0.14063 0.93457,-0.36328 1.25488,-0.11328 -0.13574,0.89648 -0.81348,1.68262 -1.52832,1.85937 m -37.09717,27.3667 c -0.31299,-0.021 -0.52099,-0.31445 -0.5957,-0.4834 -0.31494,-0.71386 0.30664,-1.50537 1.05176,-1.72168 -0.0957,0.74366 0.0791,1.48096 0.31103,2.25928 0.12842,0.43213 -0.53027,-0.0386 -0.76709,-0.0542 m -8.59472,-4.68994 c -0.0122,-0.0137 -0.15137,-0.20019 -0.19385,-0.26562 -0.39649,-0.60498 -0.38135,-1.45801 0.1875,-1.917 0.20605,-0.16552 0.69922,-0.54296 0.8247,-0.104 0.28956,1.00879 -0.39453,1.6748 -0.81835,2.28662 m 49.74755,-33.96973 c -0.10351,-0.40722 0.005,-0.88867 0.1836,-1.24023 0.17871,-0.34863 0.69922,-0.37793 1.09082,-0.31836 -0.041,0.4834 0.31055,1.18848 -0.25195,1.48047 9.7e-4,0.49121 -0.62989,0.57812 -0.93262,0.74609 -0.0146,-0.11035 -0.0557,-0.53125 -0.0899,-0.66797 m -6.74902,5.79688 c 0.2832,-0.36719 0.12207,-0.83789 0.28027,-1.04688 0.36914,-0.48925 1.04493,-0.68652 1.64649,-0.55175 -0.10449,0.52343 -0.24902,1.20215 -0.88867,1.50781 -0.27735,0.13184 -0.86817,0.35547 -1.03809,0.0908 m 8.97754,-0.25488 c -0.0771,-0.0889 -0.22852,-0.21582 -0.22266,-0.25977 0.0547,-0.5459 0.29004,-1.0791 0.47657,-1.70605 0.0166,-0.0566 0.043,-0.78028 0.36621,-0.19922 0.24511,-0.0478 1.04004,-0.25488 0.71093,0.39941 -0.34765,0.69043 -0.55761,1.5586 -1.33105,1.76563 m -42.45605,52.44336 c -0.10499,0.0122 -0.55567,-0.2378 -0.77149,-0.42578 -0.26318,-0.22901 0.10938,-0.73096 0.14356,-1.15528 0.0186,-0.23437 0.27294,-0.72217 0.40234,-0.50195 0.3833,0.65234 0.83105,1.33642 0.94287,2.13818 0.0762,0.55469 -0.38428,-0.0933 -0.71728,-0.0552 m -1.53418,-11.41602 c -0.39649,-0.0234 -0.90088,-0.11865 -0.9712,-0.45996 -0.1123,-0.54199 -0.0327,-1.2334 0.37598,-1.62939 0.0811,-0.0776 0.60938,0 0.74268,0 -0.0205,0.69775 0.14502,1.43164 -0.14746,2.08935 l 0,0 m 51.23144,-32.46777 c -0.29004,-0.1709 -0.50098,-0.47852 -0.89062,-0.63379 -0.0176,-0.56738 0.6914,-0.56445 0.97851,-0.96192 0.11719,-0.16406 0.57227,-0.39355 0.63477,-9.7e-4 0.0351,0.22558 0.10254,0.96777 0.0186,1.13769 -0.12695,0.25391 -0.41406,0.65137 -0.74121,0.45899 m -9.37402,-17.42676 c -0.0732,-0.21387 -0.28809,-0.42871 -0.24707,-0.69043 0.10058,-0.63379 0.57031,-1.37109 1.25879,-1.37988 0.0391,0.66015 0.12597,1.39355 -0.44629,1.93652 -0.082,0.0791 -0.4209,0.55762 -0.56543,0.13379 m -13.16895,9.08398 c 0.14844,-0.52929 0.12403,-1.10644 0.31934,-1.67871 0.1084,-0.31543 0.64355,-0.11816 0.98535,-0.0439 l 0,0.87988 c -0.47852,0.24219 -0.1084,0.9502 -0.71973,0.86914 -0.22265,-0.0293 -0.8125,0.78516 -0.58496,-0.0264 m 7.49512,-6.61132 c 0.41309,-0.875 0.95801,-1.82325 1.65527,-2.52442 0.19532,0.62598 -0.0752,1.18848 -0.25,1.66406 -0.24121,0.66309 -1.00683,1.00391 -1.40527,0.86036 m -42.59326,29.75781 c -0.15332,-0.085 -0.48926,-0.17627 -0.32422,-0.29737 -0.30518,-0.9038 0.79004,-1.32714 1.28418,-1.44873 0.12353,0.7837 0.008,1.70557 -0.67432,2.06202 -0.32226,0.16796 -0.42383,-0.0889 -0.28564,-0.31592 m 54.77099,-29.99317 c -0.125,-0.16601 -0.33984,-0.29394 -0.56738,-0.41796 -0.19726,-0.10645 -0.36816,-0.4004 -0.18262,-0.63282 0.37012,-0.46484 0.97364,-0.96777 1.4209,-0.8955 0.0801,0.72265 -0.17383,1.48535 -0.6709,1.94628 m 1.08985,5.28223 c -0.16602,-0.17187 -0.73242,-0.61621 -0.85254,-0.88379 -0.15039,-0.33594 0.65137,-0.54394 0.42969,-1.04199 0.35253,0.083 0.68066,-0.13281 1.02441,-0.21191 0,0.25683 0.10352,0.99316 0,1.13867 -0.22461,0.31836 -0.41602,0.65722 -0.60156,0.99902 m 26.76855,17.92969 c 0.2666,-0.58106 0.16699,-1.31836 0.40332,-1.90625 0.10059,-0.24805 0.27735,-0.54785 0.4502,-0.70703 0.12793,0.80078 0.17383,1.62304 0.12109,2.61914 -0.0176,0.33496 -0.58496,-0.10352 -0.97461,-0.006 m -58.4541,-31.01074 c -0.1875,-0.2334 -0.41016,-0.46485 -0.5,-0.76661 -0.12402,-0.4121 0.16504,-0.90039 0.5,-0.8457 0.16699,0.0273 0.63965,0.50098 0.70508,0.66113 0.14062,0.35059 0.23828,0.73536 0.1914,1.09473 -0.28906,-0.0225 -0.66015,0.14746 -0.89648,-0.14355 m 60.9707,31.52002 c -0.11816,-0.11377 -0.38769,-0.20069 -0.39648,-0.23975 -0.16016,-0.8252 -0.24902,-1.70508 -0.18164,-2.76465 0.44726,0.78516 0.84375,1.80274 1.07031,2.70508 0.0762,0.30371 -0.3418,0.44141 -0.49219,0.29932 m -91.00439,15.29541 c -0.11914,-0.0752 -0.18359,-0.35645 -0.18311,-0.36963 0.0342,-0.93653 0.4419,-1.82618 1.08692,-2.14112 -0.0166,0.56641 0.12744,1.20996 -0.14209,1.72217 -0.14551,0.27588 -0.44141,0.99219 -0.76172,0.78858 m -0.26758,5.31884 c -0.0898,9.8e-4 -0.48633,-0.16797 -0.5791,-0.31152 -0.38086,-0.58643 0.56299,-0.94385 1.00586,-1.20068 0.25,0.49023 0.45166,1.08789 0.4165,1.72509 -0.2876,-0.01 -0.52295,-0.21728 -0.84326,-0.21289 M 178.53516,107.125 c -0.48145,-0.75781 -1,-1.29395 -1.08008,-2.08105 0.53906,0.13769 0.97656,0.51269 1.48437,0.58984 0.41895,0.0625 0.14063,0.51562 -0.0986,0.58496 -0.0625,0.28027 0.009,1.39941 -0.30566,0.90625 m -11.33692,7.51465 c -0.32226,-0.17969 -0.19336,-0.68164 -0.35156,-1.02539 -0.26953,-0.58594 0.43848,-0.89063 0.82031,-1.13477 0.5791,0.75293 0.0332,1.62891 -0.46875,2.16016 m -1.1289,18.27832 c -0.67774,-0.20215 -1.1377,-0.64844 -1.48633,-1.15918 0.39746,-0.47461 0.97265,-0.26367 1.66894,-0.0234 0.3711,0.12695 -0.12597,1.12403 -0.18261,1.18262 m -36.08106,33.24414 c -0.0752,-0.0762 -0.21875,-0.27002 -0.29883,-0.29981 -0.66211,-0.24267 -0.98877,-1.0371 -0.64648,-1.5581 0.32519,0.18262 1.09228,-0.0488 1.19092,0.58643 0.0591,0.37548 -0.11084,0.9414 -0.24561,1.27148 m 7.48877,10.96777 c -0.019,-0.0576 -0.10986,-0.22363 -0.082,-0.29004 0.25635,-0.61425 1.01807,-1.02148 1.75928,-1.12304 -0.32422,0.75097 -0.88086,1.3999 -1.44092,1.93261 -0.16748,0.15918 -0.17725,-0.34277 -0.23633,-0.51953 m 22.97803,-25.02246 c -0.35254,-0.68115 -0.30957,-1.5249 0.21387,-2.01953 l 0.79394,2.08008 c -0.39355,-0.0156 -0.90039,0.14697 -1.00781,-0.0606 m 36.23144,-38.67578 c 0,-0.042 0.0108,-0.25195 0.0108,-0.32031 -0.002,-0.61426 0.42285,-1.14258 0.8125,-1.40528 0.29882,0.57618 0.44043,1.03809 0.0801,1.85254 -0.0957,0.21582 -0.51269,-0.22461 -0.90332,-0.12695 m -15.49609,21.25293 c -0.20605,-0.14941 -0.48438,-0.20019 -0.50684,-0.41699 -0.0537,-0.50879 0.35938,-1.03613 0.80176,-1.19531 0.29102,0.37793 0.47949,0.8623 0.25879,1.45312 -0.0498,0.12988 -0.31543,0.33106 -0.55371,0.15918 m -62.85596,21.39307 c -0.0288,-0.14551 -0.35205,-0.32618 -0.42236,-0.44776 -0.21436,-0.37207 0.37158,-0.50732 0.40332,-0.86133 0.0225,-0.25146 0.62451,-0.97949 0.79297,-0.24511 0.0469,0.20312 -0.49268,1.03662 -0.521,1.40967 -0.0137,0.17822 -0.14502,0.68945 -0.25293,0.14453 M 155.29018,93.083 c -0.52734,-0.13086 -0.93945,-0.50391 -1.17676,-0.9043 l 2.27149,0 c -0.2959,0.37305 -0.6543,1.01367 -1.09473,0.9043 m 44.42187,21.01758 c -0.21093,-0.0332 -0.61914,-0.31055 -0.68457,-0.34278 l -0.0811,-1.52734 c 0.3291,-0.0381 0.50098,0.29394 0.60547,0.41504 0.39746,0.45605 0.27539,1.47265 0.16015,1.45508 m -16.28027,6.08007 c -0.43359,-0.084 -0.36133,-0.49804 -0.31152,-0.79296 0.49707,0.24023 1.12304,0.24511 1.74804,0.3457 -0.17871,0.19726 -0.26269,0.44336 -0.20312,0.70996 -0.43945,0.04 -0.83301,-0.18555 -1.2334,-0.2627 m -14.48047,-13.86328 c 0.23242,0.006 0.48047,-0.0576 0.71289,0.10254 0.21582,0.15039 1.22852,0.43164 0.60059,0.66602 -0.4336,0.16211 -0.9082,0.13867 -1.31348,0.30273 l 0,-1.07129 M 183.75,118.47754 c 0.0137,-0.26758 0.36035,-0.40918 0.50879,-0.41504 0.55762,-0.0254 1.66992,-0.24023 1.39258,0.31055 -0.30469,0.60449 -1.23633,0.19238 -1.90137,0.10449 m -9.28516,2.87598 c -0.15527,-0.12598 -0.15136,-0.36622 -0.23632,-0.44825 0.48242,-0.20117 0.74902,-0.91504 1.37988,-0.87402 -0.0527,0.30859 -0.15235,0.55762 -0.25195,0.79395 -0.1377,0.32421 -0.62989,0.73925 -0.89161,0.52832 m 17.41309,49.6914 c 0.007,-0.0952 0.19141,-0.30517 0.17969,-0.43701 -0.0283,-0.31934 0.22851,-0.58643 0.62304,-0.39551 0.29981,0.14502 0.67188,0.44239 0.49707,0.79102 -0.42968,-0.003 -1.32031,0.31494 -1.2998,0.0415 m -67.59522,-24.1206 c -0.45068,-0.10254 -0.15332,-0.58838 -0.30029,-0.80469 0.19385,0.0757 1.7461,-0.55811 1.05322,0.66406 -0.19873,0.35108 -0.43359,0.21289 -0.75293,0.14063 m 5.16163,0.38183 c -0.0552,-0.12842 -0.24073,-0.48584 -0.28711,-0.6289 -0.13526,-0.42579 0.49121,-0.20166 0.73144,-0.21534 -0.0508,0.28272 -0.2041,0.61377 -0.44433,0.84424 z"
       style="fill:#c4161d;fill-opacity:1;fill-rule:nonzero;stroke:none"
       id="path3538"
       inkscape:connector-curvature="0" /></g></svg>