<?xml version="1.0" encoding="UTF-8" standalone="no"?>
<!-- Created with Inkscape (http://www.inkscape.org/) -->

<svg
   xmlns:dc="http://purl.org/dc/elements/1.1/"
   xmlns:cc="http://creativecommons.org/ns#"
   xmlns:rdf="http://www.w3.org/1999/02/22-rdf-syntax-ns#"
   xmlns:svg="http://www.w3.org/2000/svg"
   xmlns="http://www.w3.org/2000/svg"
   xmlns:sodipodi="http://sodipodi.sourceforge.net/DTD/sodipodi-0.dtd"
   xmlns:inkscape="http://www.inkscape.org/namespaces/inkscape"
   id="svg3492"
   version="1.1"
   inkscape:version="0.91 r13725"
   xml:space="preserve"
   width="354.33105"
   height="354.33105"
   viewBox="0 0 354.33105 354.33105"
   sodipodi:docname="30_of_the_classical_papercut_pattern_vector_27.ai.svg"><metadata
     id="metadata3498"><rdf:RDF><cc:Work
         rdf:about=""><dc:format>image/svg+xml</dc:format><dc:type
           rdf:resource="http://purl.org/dc/dcmitype/StillImage" /><dc:title></dc:title></cc:Work></rdf:RDF></metadata><defs
     id="defs3496" /><sodipodi:namedview
     pagecolor="#ffffff"
     bordercolor="#666666"
     borderopacity="1"
     objecttolerance="10"
     gridtolerance="10"
     guidetolerance="10"
     inkscape:pageopacity="0"
     inkscape:pageshadow="2"
     inkscape:window-width="718"
     inkscape:window-height="480"
     id="namedview3494"
     showgrid="false"
     inkscape:zoom="0.66604379"
     inkscape:cx="177.16553"
     inkscape:cy="177.16553"
     inkscape:window-x="0"
     inkscape:window-y="0"
     inkscape:window-maximized="0"
     inkscape:current-layer="g3500" /><g
     id="g3500"
     inkscape:groupmode="layer"
     inkscape:label="30_of_the_classical_papercut_pattern_vector_27"
     transform="matrix(1.25,0,0,-1.25,0,354.33105)"><path
       d="m 164.7959,163.00537 c 0.0576,-0.16894 0.20898,-0.36377 0.48144,-0.354 1.12793,0.0425 2.18653,0.23242 3.2168,0.36279 6.68359,5.89746 12.79004,12.3418 18.50879,19.16064 2.75195,2.6875 5.01465,5.85889 7.71191,8.59864 l 13.29102,14.04297 c 3.25977,3.10009 7.2373,5.55468 12.14844,7.11767 1.92968,-0.0322 4.05468,-0.13135 5.78613,-0.60986 0.99512,-0.75586 1.84375,-1.65674 2.92871,-2.54492 -0.15625,-1.66846 0.0898,-3.29639 -0.20898,-4.83496 -0.38379,-1.97705 -1.0752,-3.73438 -1.75879,-5.0127 -0.73633,-3.35791 -1.75782,-6.05566 -3.50489,-8.35693 -0.59277,-1.91992 -0.91113,-4.51367 -1.42968,-6.86963 -1.82715,-3.9707 -4.69043,-6.87793 -7.29102,-10.04199 -0.13769,-0.16846 -0.3916,-0.53711 -0.4707,-0.6211 -5.53711,-5.90869 -11.76367,-10.98779 -19.61035,-14.4541 l -11.64453,-5.09814 -1.92774,-5.57618 c 5.59082,-0.23291 11.75293,-0.15087 17.26074,-0.55029 0.63575,-0.0454 1.34571,-0.0366 1.95508,-0.40332 -6.25879,-6.08789 -12.88476,-11.64941 -20.73047,-16.05078 -0.96679,-0.54297 -1.85937,-1.18945 -2.9707,-1.75195 -0.22461,-0.11524 0.0586,-0.57227 0.19824,-0.86914 0.55469,-1.17579 1.03711,-2.36133 1.7168,-3.36133 0.2373,-0.34961 0.77344,-0.3086 0.96582,-0.20703 0.86133,0.45703 2.4668,0.27343 3.375,-0.15625 2.56738,3.41601 4.87109,7.0664 8.25293,9.59668 3.42285,2.56054 6.49316,5.39648 11.41992,6.40478 1.10156,0.22461 2.47949,0.3501 3.59766,0.39795 -3.31836,-3.30469 -6.57422,-6.69336 -9.39453,-10.44238 -2.55762,-3.39844 -5.07032,-6.84961 -7.29395,-11.04492 1.74512,0.22656 3.00684,-0.26368 3.6582,-0.89063 0.30371,-0.29101 0.72071,-0.33984 0.93262,-0.57031 3.02051,3.58594 7.65723,5.50195 14.08594,5.47656 2.89453,-0.0117 5.48926,-0.41601 7.89844,-0.99219 0.73925,-0.17773 -0.21094,-0.47851 -0.53125,-0.62109 -6.11231,-2.73828 -11.5459,-6.44922 -16.76465,-10.57422 0.57324,-0.70312 1.64843,-1.21094 2.25976,-1.60937 1.6377,-2.75391 0.25489,-6.46875 -1.75293,-7.66211 -0.2373,-0.14063 -0.5039,-0.375 -0.60058,-0.70313 0.99609,-0.38867 1.81543,-1.11523 1.98828,-2.12695 0.1709,-1.00195 0.18847,-2.00781 -0.0732,-2.89649 -0.69825,-2.36328 -2.43848,-3.81445 -5.71192,-3.50976 l -2.18359,0.29883 -0.91113,-2.2793 c -1.37598,-2.14648 -4.32911,-3.1543 -7.66016,-2.83789 -1.57813,-1.48828 -2.90234,-2.80664 -3.87695,-4.64649 0.53222,-0.38476 2.09472,-0.17968 2.89355,-0.23632 1.83496,-0.13086 3.47852,-0.50391 4.99219,-1.02539 1.60937,-0.55469 2.9248,-1.68164 3.54199,-3.39844 0.25977,-0.72656 0.25781,-1.57031 0.0762,-2.43555 -0.55469,-2.66015 -2.92285,-3.78711 -5.46289,-4.71484 -2.49902,-0.91602 -5.1748,-1.7461 -8.53125,-1.8418 -10.2334,-0.29297 -19.75683,-0.21094 -30.06055,-0.02344 -4.61816,0.08399 -9.3125,0.56836 -12.19628,2.44141 -0.45997,0.29687 -0.87891,1.12109 -1.59766,1.16797 -4.01172,0.2539 -8.76953,-0.43164 -12.27148,0.45312 -0.83594,0.21094 -1.62891,0.40821 -2.23243,0.91797 -0.83007,0.70313 -1.70898,1.36133 -1.93945,2.67969 -0.0586,0.33203 0.27734,1.0957 0.58398,1.4043 0.49024,0.49218 0.88379,1.09179 1.45899,1.42968 3.62305,2.13672 8.36328,3.01954 13.63379,3.6543 5.5,0.66016 11.32031,1.29297 17.15332,1.64258 -1.8252,2.81836 -4.2168,4.86523 -6.83301,6.78516 -0.46387,-1.5 -1.33105,-2.59766 -2.48242,-3.34375 -0.64356,-0.41797 -1.55371,-0.31055 -2.29199,-0.60938 -3.79297,-0.26172 -5.90039,1.64844 -7.13086,4.51758 -1.18946,-0.9961 -2.84864,-1.76563 -4.79492,-1.50586 -2.39649,0.31836 -4.12696,1.59961 -4.62305,3.81641 -0.12988,0.57812 -0.18555,1.35937 0.0859,1.7207 l 1.71972,2.57422 c -1.10254,1.1289 -2.14355,2.46875 -2.89453,4.06054 -9.22461,0.43164 -16.71387,-1.26367 -23.38281,-3.73632 3,5.61718 8.17187,8.8789 15.34375,10.13671 1.81836,0.32032 3.71191,0.7461 5.23144,1.6504 -4.02343,1.72851 -8.13183,3.29687 -11.43359,5.63867 -2.90039,2.05664 -5.34863,4.52929 -7.56445,7.24218 -4.93555,0.66993 -9.60742,1.46485 -13.28223,3.31836 -4.54394,2.29493 -8.46484,5.07715 -11.60059,8.99707 -0.81152,0.36329 -2.65429,0.13477 -3.83886,0.12305 -4.75293,-0.0488 -9.31543,-0.37695 -13.47559,-1.21875 0.49219,0.82227 0.79688,1.625 1.38672,2.3125 1.51367,1.76367 3,3.52344 5.15527,4.66748 3.05762,0.87061 4.7959,3.0376 6.68262,5.06983 3.07715,3.31494 8.05664,4.82617 13.4043,5.75293 1.17773,0.2041 2.21484,0.50683 3.3164,0.63037 7.64454,0.85449 13.89063,-1.10743 20.28125,-2.14258 0.38868,-0.063 0.85743,-0.34033 1.17579,-0.17822 6.10742,3.12011 12.32031,6.20459 20.42773,7.27002 6.08008,0.79931 12.59375,1.19531 19.28613,1.64648 -1.22363,1.60449 -2.53418,3.21387 -3.43847,5.26465 -2.02149,-2.01221 -6.8711,-2.73584 -9.28321,-0.76416 -0.73535,0.60107 -0.98828,1.78467 -2.10156,2.13135 -0.17187,1.33886 0.20117,2.87402 0.3623,4.32861 0.0733,0.66504 -0.56152,0.47363 -0.56542,0.47363 l -3.57813,-0.29687 c -2.21094,0.41015 -3.77734,1.36718 -4.85937,2.60302 -0.009,0.94532 -0.18067,1.97754 0.0176,2.96534 0.44434,2.22705 1.94825,4.01757 3.25,5.50195 -0.37597,-0.11377 -0.55078,0.38965 -0.70507,0.57959 -1.87598,2.31299 -1.48829,7.13525 0.91796,8.61426 1.48438,0.91064 3.40625,1.46924 5.08301,2.26172 -0.8584,1.59472 -1.34375,3.41796 -1.21191,5.76171 l 0.125,2.05957 c 0.75,1.82276 2.32422,2.9209 4.40918,2.80811 0.10742,-0.006 0.30078,0.40234 0.34082,0.0171 3.125,-0.023 4.74414,-1.61865 6.46484,-3.02637 0.18652,-0.15283 0.57422,-0.60351 0.70801,-0.1499 0.68555,2.33203 2.93848,4.19092 5.92187,3.4502 1.72071,-0.42725 3.0293,-1.33789 4.2168,-2.28174 0.89649,-0.71436 1.83692,-1.37696 2.31836,-2.45606 0.42871,0.37256 0.96582,0.69287 1.49414,0.83155 0.68848,0.18115 1.46484,0.46386 2.31836,0.48974 l 1.87402,-0.21142 c 3.1377,-1.36328 4.43164,-4.21485 4.26563,-8.33008 -0.0156,-0.396 0.25586,-0.81983 0.72363,-0.91699 1.47461,-0.30567 2.56934,-1.04004 3.64453,-1.82422 0.0605,-0.84082 0.0947,-1.66992 0.28614,-2.45215 -0.5293,-2.49024 -1.93067,-4.13623 -3.54493,-5.51758 -0.0889,-0.0771 -0.0225,-0.55908 0.008,-0.60742 0.39257,-0.61231 1.03613,-0.90918 1.71777,-1.21338 1.40723,-0.62842 2.76074,-2.42041 2.21094,-4.43652 -0.47071,-1.7295 -1.49024,-3.15039 -3.12305,-3.64356 -0.72461,-0.21875 -1.39453,-0.71045 -2.20703,-0.73926 0.64551,-2.47363 0.40234,-5.77734 -0.83203,-7.57226 -0.25586,-0.37305 -0.65625,-0.8086 -0.47461,-1.33887 M 135.36157,123.6338 c -0.0459,0.14453 -0.10547,0.50195 -0.23047,0.60937 -0.65527,0.57227 -1.39258,1.13282 -1.88379,1.77149 -1.20898,3.55078 -3.77246,5.73242 -7.75977,6.43457 0.76856,-0.94629 1.60254,-1.67481 2.51563,-2.28418 1.54102,-1.02734 2.48535,-3.04883 2.68066,-5.22852 1.89746,-1.03515 3.42481,-3.47656 2.41407,-6.04101 -0.37207,0.008 -0.66797,0.13086 -0.97071,0.15429 -5.47461,0.4043 -8.7334,3.29688 -10.25976,7.70704 -0.34766,1.00781 -0.81348,2.48828 -0.29297,3.63281 1.66797,3.67285 3.86523,6.88769 7.08008,9.40918 -3.1709,0.20117 -6.125,-0.25 -8.96094,-0.375 -5.16504,0.4668 -9.61523,1.65967 -13.83789,2.92285 -4.33594,-2.8623 -9.63379,-4.44629 -15.92676,-5.09668 -3.70019,-0.38086 -8.17676,-0.29102 -11.94238,-0.11133 -0.27539,0.0137 -1.2041,0.19922 -0.92969,-0.14062 1.77344,-2.19922 3.83984,-3.82422 6.20508,-5.22559 4.15723,-2.45898 9.50293,-4.18359 16.17187,-3.75586 2.64063,-3.48437 5.58692,-6.72851 9.44434,-8.92773 4.75684,-2.70899 9.08105,-5.85547 14.95703,-7.32617 2.13379,0.22265 4.00488,-0.14844 5.54004,-0.6504 0.58594,-0.1914 1.23145,0.39063 1.4668,1 1.03906,2.70118 3.05273,4.45508 6.7207,4.50196 1.74609,-0.5293 2.96387,-1.85156 4.09766,-3.15235 l 1.00586,-1.93359 3.75878,1.14063 c -0.98828,2.49414 -2.81542,3.92382 -5.20019,4.83203 -1.31641,0.50195 -3.02539,0.67187 -4.88867,0.67773 0.23633,1.41602 0.54883,2.89844 -0.0322,3.88477 -0.28125,0.47851 -0.79785,1.11914 -0.94238,1.57031 m 51.51465,-49.08203 0.22363,-0.08594 c 0.51172,0.58398 1.02441,1.28906 1.61816,1.88672 l 0,1.96875 c 0,0.30469 -0.46386,0.81836 -0.82617,1.0332 -2.14746,1.27344 -5.24609,1.94727 -8.7959,1.5625 l -2.84765,-3.85351 -26.80176,-0.13868 c -1.15332,-0.04492 -2.85938,0.01758 -4.37793,0.13086 2.81152,1.1836 5.45801,2.05274 8.36328,2.6211 -0.47363,0.93554 -0.7959,2.00586 -1.36719,2.99609 -7.73047,0.56641 -15.40234,-0.53711 -22.10254,-1.7539 -3.02148,-0.54883 -6.38574,-0.83204 -8.59082,-2.15625 -0.55371,-0.33204 -0.80468,-1.05469 -0.63476,-1.54493 0.1748,-0.50781 0.62988,-1.14648 1.26953,-1.21289 5.56836,-0.59179 11.70996,-0.20703 16.93945,0.6875 -0.25586,-0.37695 -0.59765,-0.61718 -0.82812,-0.90429 -0.39063,-0.48829 -1.15039,-0.90821 -1.35938,-1.52149 0.7793,-0.63672 1.30957,-1.43359 2.24805,-1.5918 12.46387,-2.08398 27.67383,-1.7246 40.54883,-0.2832 2.83984,0.31836 5.35937,0.95508 7.32129,2.16016 m -99.50782,73.42871 c -0.63378,-0.11377 -1.31543,-0.26758 -2.0166,-0.68897 0.81348,-1.12109 1.71875,-2.5581 1.08008,-4.30712 -0.2666,-0.7295 -0.80859,-1.28516 -1.33301,-1.7876 -1.19922,-1.1499 -3.93847,-0.70899 -5.03418,0.29248 0.2793,0.56347 0.74219,1.17676 1.26563,1.6748 -0.84766,0.42774 -1.96289,0.59864 -3.09766,0.77539 l 0.91699,2.8501 c -3.74609,0.4082 -6.21386,-1.41455 -7.32128,-4.00635 0.37011,-0.25683 0.56054,-0.64013 1.01074,-0.98144 3.32715,-2.52051 8.79101,-4.14356 14.82031,-3.26465 3.79199,0.55469 7.18848,1.58398 10.58203,2.65771 1.53711,0.48584 3.12695,0.98047 4.05274,2.1709 0.0811,0.10401 0.80175,0.31787 0.2246,0.62647 -2.23144,1.19287 -4.61425,2.30224 -7.29003,3.10449 -2.18067,0.65381 -5.14942,1.37061 -7.86036,0.88379 m 60.13672,-38.02246 c 0.0615,-0.77539 0.47364,-1.36328 0.73438,-1.97656 0.25,-0.5879 0.20508,-1.25782 0.0586,-1.80665 -0.33887,-1.27734 -0.84765,-2.62695 -1.35156,-3.92187 1.21875,-1.66016 2.4209,-3.44922 2.55469,-6.25195 l 4.54199,-4.59375 c 1.41797,-1.52735 2.56055,-3.32422 3.83691,-5.02149 0.19043,0.10352 -0.12304,0.50781 -0.0937,0.65625 0.35938,1.81641 -0.19043,3.52735 -0.41894,5.12891 -0.97461,6.80664 -2.6836,12.84765 -6.3125,16.93945 -0.41895,0.47266 -0.89453,0.51758 -1.28418,0.58203 -0.6416,0.10938 -1.69043,0.35157 -2.26563,0.26563 m 2.46485,3.43359 c 1.60058,-1.86914 3.35644,-3.54687 4.62402,-5.70117 2.10156,-3.57031 3.33008,-7.86133 3.77637,-13 0.88965,-3.93164 1.01172,-8.54492 2.02832,-12.36523 l 0.82812,-2.95313 c 0.36914,0.47266 1.32715,0.31055 1.76367,0.39063 0.71778,8.53515 -0.22851,17.30664 -3.21191,23.13671 -1.02832,3.64063 -2.77539,6.55469 -5.46875,8.4961 -1.10254,0.79297 -2.28516,1.5664 -3.77637,2.07422 -0.0351,0.0117 -0.37207,0 -0.56347,-0.0781 l 0,0 m 72.11328,80.67236 -2.83203,-1.85644 c -7.05176,-4.97852 -13.11914,-10.90869 -19.94922,-16.146 -4.2002,-3.22119 -8.76172,-6.16113 -12.24903,-10.09033 0.34473,0.14844 0.74903,0.11133 1.06348,0.28467 11.66992,6.42969 21.92871,14.32715 31.09668,23.2832 1.14258,1.1167 2.29981,2.34717 2.91992,4.07862 -0.11523,0.10546 0.53711,0.83007 -0.0498,0.44628 M 135.75,136.71484 c -0.0176,-0.0957 0.041,-0.21484 -0.003,-0.11523 0.86621,-1.98633 1.44629,-4.18359 1.45703,-6.77246 1.91016,-1.50586 3.10742,-3.6543 4.45801,-5.62891 0.25879,-0.72265 0.33984,-1.49023 0.57031,-2.35742 -0.14844,-0.66992 -0.36133,-1.97852 -0.082,-2.66016 4.16797,-1.5039 8.69922,-2.40625 12.67676,-3.93359 0.0117,-0.20508 0.1748,-0.10156 0.3584,-0.0527 3.50879,0.9375 5.32129,3.78125 6.87304,6.79492 -3.51074,-0.80078 -6.99707,-1.51367 -10.79492,-1.98242 -2.25781,-0.2793 -4.52734,-0.71875 -6.95312,-0.42579 0,0.33204 0.0478,0.79688 0.0166,0.93946 -0.86817,3.98047 -2.71582,7.02539 -5.20606,9.43945 -0.68652,0.66406 -0.51464,2.14258 -0.79394,3.30762 -0.37012,1.54687 -1.46777,2.61719 -2.57715,3.44726 m 33.80566,17.48926 c -0.82714,-0.14892 -1.73339,-0.32422 -2.67187,-0.40478 -2.9707,-1.31739 -5.78516,-2.75196 -8.49121,-4.36719 -0.66211,-0.39502 -1.80567,-0.479 -2.35938,-1.29492 l 20.8418,0.75097 c 0.28809,1.64014 0.76953,3.03418 1.01855,4.57959 -1.38574,0.14063 -2.5371,0.55127 -3.78417,0.74121 -1.41114,0.21534 -3.03614,0.26661 -4.55372,-0.005 m -30.208,30.39746 c -0.28321,0.75928 -0.55664,1.44092 -0.68164,2.17334 0.72265,0.38428 1.46484,0.61914 2.20703,0.92725 -0.29395,0.29053 -1.08496,1.14648 -1.40039,1.35303 -0.93946,0.61377 -1.83594,0.99804 -2.84766,1.55371 -2.93945,1.61377 -7.51367,0.97461 -8.69629,-1.68604 -0.44824,-1.00732 -0.18652,-2.46484 0.47363,-3.08349 1.92579,-1.80372 5.08399,-3.16748 8.89161,-2.34961 0.79882,0.17187 1.7041,0.47216 2.05371,1.11181 m 4.35937,9.27246 c -9.8e-4,0.0215 -0.0889,0.0781 -0.0947,0.14014 -0.40039,4.15186 -2.4375,6.78857 -5.23925,8.7251 -1.76172,0.52295 -3.15137,-0.45655 -3.90723,-1.89795 l -0.27832,-2.43701 c 0.71094,-3.80371 3.38672,-5.98047 6.63281,-7.38135 0.22071,-0.0952 0.67285,-0.26563 0.71289,0.0395 0.0996,0.74756 0.33008,1.5 0.36328,2.32666 l 1.81055,-0.43457 c 0,0.1543 0.0137,0.72949 0,0.91943 m 4.68262,9.08252 c -0.31543,-0.0532 -1.45703,-0.15234 -1.61914,-0.38623 l -1.39551,-1.92138 c -0.6416,-3.53321 0.36133,-7.28077 2.51563,-9.01563 0.49316,0.70068 1.02636,1.27734 1.36328,2.12305 0.44629,-0.76367 0.68359,-1.74024 1.25781,-2.27979 0.20117,-0.18896 0.57715,-0.9082 0.875,-0.44482 1.4043,2.18066 2.44531,5.98926 1.33594,9.14502 -0.58985,1.6792 -2.03809,3.16699 -4.33301,2.77978 m 28.15137,-90.54541 c 0.0781,-0.01 0.13671,-0.16601 0.24511,-0.1582 0,0.33008 0.0928,1.33398 -0.0205,1.61523 -0.34961,0.85938 -0.4043,1.74024 -0.78516,2.48633 -1.11133,2.16992 -2.54981,4.27735 -5.83984,4.14844 -0.62208,-0.0254 -0.99903,-0.40625 -1.52735,-0.61719 -0.78613,-0.31445 -1.72461,-1.04101 -1.58984,-2.16406 0.0273,-0.22461 -0.46973,-0.70117 -0.47071,-1.06836 -0.003,-0.64062 -0.14843,-1.3418 0.18457,-1.97852 1.17579,-2.24414 3.45997,-3.55273 6.42676,-4.03906 0.21778,-0.0371 0.91016,0.0547 1.12989,0.10742 0.35253,0.0879 0.59277,-0.14257 0.9082,-0.4082 -0.0937,0.75781 -0.53906,1.37891 -0.5586,2.07617 0.39942,0 1.52344,0.0469 1.89747,0 m -16.73047,86.8667 c -0.085,-0.006 -0.20508,-0.0727 -0.26953,-0.0825 -0.23926,-0.0361 -0.73438,-0.71533 -0.83887,-0.12158 -0.16797,-0.12305 -0.44141,-0.19141 -0.63281,-0.35644 -2.05274,-1.7793 -3.58594,-4.13819 -3.78125,-7.86329 l 2.22754,0.96973 c -0.33887,-1.02344 -0.94532,-1.93408 -1.04786,-2.98682 -0.043,-0.44726 0.34668,-0.28027 0.33887,-0.2832 2.08496,0.89404 3.875,2.0127 5.46289,3.17236 1.42871,1.04493 2.95606,2.94043 1.91699,5.35791 -0.40039,0.93213 0.45508,0.93995 -0.74609,1.42237 -0.0986,0.04 -0.59766,0 -0.78809,0 0.0947,0.16553 0.37891,0.18359 0.49805,0.39502 -0.70703,0.29345 -1.57519,0.43164 -2.33984,0.37646 M 131.7832,180.93994 c -0.15625,-0.0215 -0.60449,-0.16846 -0.75976,-0.20898 -2.08203,-0.54395 -3.86719,-1.96582 -4.02735,-4.29102 -0.01,-0.1416 -0.0488,-0.91455 0.39746,-0.50098 0.26368,-0.17675 0.0693,-0.5498 0.18165,-0.66308 0.37304,-0.37744 0.71484,-0.94043 1.12011,-1.01367 5.37403,-0.9668 9.13477,1.73877 11.35449,4.85644 -1.28125,0.0542 -2.30175,0.34473 -3.27832,0.1084 -0.27148,-0.0659 -1.10742,-0.27051 -0.73046,0.24024 0.3623,0.49072 0.65527,0.99316 0.92968,1.38085 -1.54687,0.37256 -3.52636,0.32129 -5.1875,0.0918 m 16.0752,-5.24609 c -0.1836,-0.23877 -0.61328,-1.10694 -0.67871,-1.4043 l -0.60352,-2.76953 0.0371,-2.71094 c 0.27246,-1.47607 0.95117,-2.84082 1.65918,-3.86084 0.26172,-0.37744 0.64844,-0.58496 1.08399,-0.92822 0.25488,0.10693 0.97851,0.0801 0.49902,-0.50391 l 1.40332,0.72559 0,-0.86572 c 0.2832,0.53906 1.10644,0.94336 1.34473,1.55371 1.16308,2.96484 0.62695,7.14648 -0.69922,10.0249 -0.0498,0.1084 -0.19043,0.1084 -0.25,0.003 -0.38282,-0.67481 -0.8125,-1.31397 -1.34375,-1.61133 -0.59375,0.76856 -1.14551,1.49463 -1.84278,2.1001 -0.14062,0.12207 -0.42285,0.48975 -0.60937,0.24756 m 33.52734,-53.27881 c 0.0205,-0.002 -0.16113,-0.0879 -0.18261,-0.084 -0.59668,0.11915 -1.31641,0.0332 -1.69629,-0.22656 -2.30762,-1.58398 -2.1709,-6.57812 -0.80567,-8.92578 0.22852,-0.39453 0.46387,-1.05469 0.99805,-0.93359 0.53418,0.12109 0.81933,0.82226 1.33008,1.27148 0.46386,-0.59375 0.92187,-1.43359 1.52734,-1.69336 0.5625,0.65039 1.09668,1.20899 1.44531,1.92774 0.79981,1.64453 1.02051,3.99414 0.58496,6.15234 -0.29296,1.45898 -1.55761,2.35938 -3.20117,2.51172 m -25.54492,54.25781 c 0.28223,-0.32959 0.38574,-0.43213 0.39258,-0.45898 0.0811,-0.3252 0.20801,-0.63867 0.16113,-0.98926 -0.39551,0.0962 -0.83008,0.20312 -1.1875,0.23584 -0.39551,0.0356 -0.34863,-0.41309 -0.28613,-0.65625 0.3164,-1.21436 0.7666,-2.4292 1.20312,-3.50342 1.16993,-2.87549 2.542,-5.5542 5.76075,-6.30566 0.47753,-0.11182 0.81836,0.39258 1.26171,0.62158 0.0215,-0.44873 0.2754,-0.24268 0.39551,-0.0342 0.13281,0.22998 0.21778,0.33936 0.31641,0.20508 0.29199,1.70703 0.22656,3.43408 -0.46387,4.7041 -1.53711,2.8291 -4.2793,4.65088 -7.55371,6.18115 m 17.02148,-74.74219 c -2.5996,-0.33203 -4.69433,-1.12695 -6.20898,-2.57617 -0.9707,-0.92773 -2.05957,-2.36328 -1.41797,-4.33008 l 1.60742,-1.82617 c 4.45118,0.2168 6.71778,2.88477 8.28614,6.07227 l -1.20703,0 c 0.38378,0.86523 0.90625,1.68164 1.375,2.5332 -0.78516,-0.004 -1.69922,0.2207 -2.43458,0.12695 m -8.61328,7.60938 c -0.15429,-0.0195 -0.60351,-0.18359 -0.75488,-0.23047 -0.89355,-0.27344 -1.62695,-0.67969 -2.0791,-1.40234 -0.82422,-1.3125 0.0635,-3.08203 1.03809,-3.79493 3.12597,-1.14843 8.08203,-0.35742 10.64062,0.93946 -0.34375,0.70117 -1.3252,0.86328 -1.1543,1.3789 0.20899,0.63282 1.00782,0.77735 1.43262,1.30469 -2.53223,1.16016 -5.46387,2.26563 -9.12305,1.80469 m 51.41114,73.25195 c -4.18457,-3.48095 -7.97754,-7.31836 -12.59278,-10.34082 L 184.96093,159.7266 c -0.18555,-0.13086 -0.63281,-0.41211 -0.36817,-0.65869 5.64551,2.46143 10.18067,5.81104 15.03028,8.95654 3.93945,2.55469 7.98437,5.03565 11.40527,8.10059 1.94824,1.74512 3.58691,4.10449 4.63184,6.66699 m -72.42969,-6.02783 c -0.61719,-0.19922 -1.32617,-0.44971 -1.77149,-0.85937 -0.82812,-0.76563 -2.10937,-1.08692 -2.77832,-2.04786 -0.50683,-0.72851 -1.30761,-1.23828 -1.79492,-1.97314 -0.43359,-0.6543 -1.03222,-1.48047 -0.85742,-2.51367 0.23145,-1.3628 0.97559,-2.44434 1.67383,-3.01612 2.66406,-0.90869 4.58301,0.70606 5.30957,2.40332 0.7334,1.71534 1.49414,3.3501 1.49414,5.74854 -0.62207,-0.11475 -1.15527,-0.45459 -1.83008,-0.69629 0.33203,0.89404 0.5957,1.85205 0.55469,2.95459 l 0,0 m 26.16308,-51.6792 c -1.27832,-0.31445 -2.50292,-0.77344 -3.81054,-1.30859 -1.67578,-4.35352 -4.12793,-8.08203 -7.95801,-10.42188 -0.25293,-0.15429 -0.86426,-0.58789 -0.53906,-0.90625 l 2.87402,-2.69531 c 1.65137,0.98633 3.7793,1.7832 5.7041,2.60742 -2.02929,2.96289 -1.1582,8.54688 1.77735,9.76563 0.66601,0.53125 1.5498,0.89062 2.70898,0.82617 -0.21582,0.76172 -0.44336,1.49805 -0.75684,2.13281 l 0,0 m -11.63964,56.19678 0,-0.27002 c 0.57324,-0.22217 1.05957,-0.60889 1.51172,-1.03613 -0.72559,-0.33008 -1.51954,-0.57569 -2.2002,-1.04786 0.2998,-0.42968 0.84277,-0.85839 1.31543,-1.15771 2.32715,-1.46973 4.55469,-3.3042 8.34375,-3.08545 0.12207,0.2832 0.43848,0.54102 0.43555,0.23291 1.12793,0.44922 1.87988,1.62744 1.94726,3.12647 l -1.65527,1.68798 c -0.005,-0.39355 -0.14453,-0.33935 -0.27832,-0.17578 -0.31641,0.38379 -0.81738,0.66455 -1.18067,0.7041 -0.7832,0.0859 -1.48144,0.17041 -2.21679,0.31104 -0.3418,0.0654 -0.46094,0.49902 -0.72168,0.50732 -1.91504,0.0649 -3.55176,0.38721 -5.30078,0.20313 m 14.40039,-35.90039 c -3.88184,-3.4834 -8.29883,-6.60205 -13.28614,-9.11963 -0.0117,-0.7793 0.44727,-1.28711 0.59473,-1.94531 0.082,-0.36328 0.41699,-0.63282 0.69336,-0.49805 5.77344,2.81641 11.12012,6.32227 15.43066,10.69824 -0.97851,0.41651 -1.97265,0.81006 -3.43261,0.86475 m 14.29883,-2.08643 c -0.78125,-0.25537 -1.54883,-0.44336 -2.56641,-0.8999 -4.64942,-4.73096 -10.79395,-8.38525 -17.04883,-11.97412 -1.80273,-1.0332 -3.95898,-2.09375 -5.44629,-3.41602 l 9.79785,3.92774 c 6.54688,2.8291 12.26368,6.68457 15.83789,12.5625 -0.16796,-0.15576 -0.38671,-0.13965 -0.57421,-0.2002 m 2.91601,-25.5166 c -0.47266,-0.0586 -1.03516,-0.31836 -1.44726,-0.7168 -1.45997,-1.41601 -2.0459,-3.82812 -2.7295,-6.03711 l 0.66504,0.19727 c 0.0186,-0.80859 -0.084,-2.15039 0.0586,-2.75195 2.84765,0.90429 4.91308,2.43164 6.69336,4.20703 0.15429,0.15234 0.31152,0.18359 0.48632,0.16992 l 0.35547,2.74219 c -0.34961,0.26172 -0.52051,0.67383 -0.7373,1.04492 -0.60645,1.03711 -1.89356,1.32617 -3.34473,1.14453 m 8.68066,18.27051 c -5.70507,-2.5957 -9.67089,-6.88184 -12.60253,-12.50879 0.49707,-0.92969 1.25097,-1.875 1.95312,-2.94727 l 8.91211,12.98731 c 0.59668,0.79687 1.23047,1.55859 1.7373,2.46875 l 0,0 m -32.58593,54.05469 c -0.10742,-0.0259 -0.41016,-0.15674 -0.3877,-0.15332 -3.19726,-0.45215 -5.48535,-1.9834 -7.52637,-3.63477 0.75391,-0.12256 1.30469,-0.24658 1.9502,-0.18262 -0.67969,-0.68896 -1.21484,-1.55273 -1.58594,-2.43652 l 2.27051,0.0342 c 3.89356,-0.43311 6.75391,0.98242 8.09473,3.54639 0.11621,0.22021 0.13574,0.69238 0.20117,1.21533 0.0244,0.19775 -0.50781,0.26172 -0.66504,0.55322 -0.34961,0.64697 -1.24316,1.32275 -2.35156,1.05811 m 15.1289,-46.68604 c -2.49316,-0.47168 -4.39746,-1.57812 -5.39355,-3.12256 -4.95996,-4.06836 -10.61524,-6.96679 -16.24414,-10.3623 l 3.46777,0 c 0.45117,0 0.76953,0.47656 1.21875,0.6875 6.53516,3.0498 12.45606,6.79004 16.90528,12.31982 -0.041,-0.0508 0.69824,0.60108 0.0459,0.47754 m -2.01269,-54.76807 c 0.0986,0.0293 0.34472,0.26563 0.39258,0.38282 0.0898,0.2207 0.3164,0.29882 0.55859,0.125 1.16309,2 1.31836,5.90625 0.61035,8.51953 -0.58594,-0.44141 -1.00293,-1.16211 -1.68164,-1.40625 l -1.07324,1.70898 c -1.25195,-1.51367 -2.60645,-3.07617 -3.26563,-5.22265 -0.59472,-1.9336 0.64356,-3.98438 2.24219,-4.73633 0.0391,-0.01758 0.36133,-0.06055 -0.082,0.49414 0.95801,-0.38477 1.75488,-0.02344 2.29883,0.13476 m 6.32617,11.55274 c -0.13086,0.0625 -0.17969,-0.40235 -0.17285,-0.62891 0.0283,-0.91015 -0.65235,-1.94922 -1.61621,-1.7832 -0.002,-1.27734 0.0908,-2.5293 -0.1084,-3.54688 0.21289,-1.03906 0.62402,-2.13086 1.27637,-2.79101 0.9541,-0.96485 1.94629,-1.57227 3.64453,-1.07031 0.72851,0.5332 1.80273,1.16992 1.56445,2.54492 -0.005,0.03125 0.27832,-0.0078 0.41309,-0.0078 0.0459,0.90039 -0.43164,1.68554 -0.77539,2.4414 -0.95996,2.11719 -2.19532,3.83985 -4.22559,4.8418 m 21.23535,21.05859 c -4.42773,-0.36133 -7.95801,-1.73633 -9.95703,-4.50586 -0.17969,-0.97265 -0.61426,-1.93554 -0.45605,-2.99218 0.0967,-0.64844 -0.1045,-1.60157 0.47949,-1.8086 3.70898,3.37305 8.09668,5.9336 12.14062,8.86524 0.1709,0.12304 0.60645,0.66601 0.19336,0.61718 -0.7373,-0.0879 -1.5459,-0.10742 -2.40039,-0.17578 m -33.52249,-33.1739 c -0.0332,0.10743 -0.0312,0.45899 -0.083,0.55274 -0.47265,0.85547 -0.39746,1.88476 -0.86914,2.75586 -0.0693,0.1289 -0.0771,0.43554 -0.4248,0.34765 l -2.15039,-0.5 c -0.39746,-3.51953 -1.38477,-6.58984 -1.48535,-10.45312 -0.0127,-0.4375 -0.20215,-1.22266 0.13378,-1.22461 1.06934,-0.0098 1.97266,-0.13281 2.69043,0.11719 0.94532,2.14258 1.56543,4.47461 2.23145,6.74023 0.16797,0.57617 0.13086,1.11328 -0.043,1.66406 m 21.49609,20.8086 c -0.16601,-0.0254 -0.65332,-0.084 -0.81054,-0.12696 -1.47266,-0.41992 -2.73145,-1.06835 -3.86328,-1.875 0.4707,-0.16992 0.97363,-0.48242 1.14062,-0.83007 -0.30859,-0.34961 -0.60742,-0.61524 -0.86621,-0.91602 -0.15918,-0.18359 -0.26953,-0.57617 -0.0723,-0.66211 1.39942,-0.61914 3.20313,-0.93945 5.12208,-0.9668 1.98828,-0.0293 3.42773,0.27735 4.15039,1.79883 0.11718,0.2461 0.29101,0.61524 0.58203,0.10352 -0.0733,0.95117 -0.42578,1.70703 -0.42285,2.54101 9.7e-4,0.22266 -0.4961,0.4043 -0.78809,0.21875 -0.0186,0.18555 0.13867,0.48633 -0.1543,0.61133 -1.14062,0.48438 -2.79394,0.29492 -4.01758,0.10352 m -46.1142,-15.08008 c -0.11524,-0.10352 -0.25684,-0.25781 -0.31641,-0.2832 -0.44727,-0.19727 -1.01758,-0.17383 -1.44336,-0.71094 1.55078,-1.51758 3.44922,-2.8457 4.83594,-4.53906 2.02441,-2.47266 3.62305,-5.35743 5.31543,-8.20313 0.71094,0.0098 1.66504,-0.18945 2.23047,-0.29492 -1.26953,4.98242 -4.06446,8.40039 -7.08985,11.60547 -0.95019,1.00781 -2.13867,1.97265 -3.53222,2.42578 m -22.26465,15.42578 c -0.86231,0 -1.3457,-0.67187 -1.96289,-1.10351 -0.0156,-0.01 0.0625,-0.42383 -0.004,-0.55079 -0.41406,-0.78711 -0.89062,-1.58007 -0.89746,-2.5625 -0.005,-0.59375 0.37402,-1.10156 0.69434,-1.5664 0.26562,-0.38867 0.71875,-0.6211 1.07226,-1.0586 0.20996,0.13282 0.75391,-0.0234 0.44922,-0.42968 1.41699,-0.0449 2.41309,0.41015 3.83399,0.35547 -0.0195,0.84765 -0.25782,1.6621 -0.47559,2.3164 0.97851,0.14258 1.85644,0.60938 2.7041,0.9707 -0.78711,2.23438 -2.55762,3.63086 -5.41406,3.62891 m 72.33691,-10.40039 c -0.43652,0.43945 -0.93847,0.95508 -1.24121,1.11133 -2.24707,1.15039 -4.5957,1.9082 -7.2832,2.28711 0.16797,-0.67188 0.81738,-1.03516 0.91406,-1.61133 -0.49316,-0.10352 -1.34668,-0.125 -1.24902,-0.38672 0.43945,-1.1582 1.15722,-2.0957 1.95605,-2.90039 1.0918,-1.09961 2.10938,-2.30664 4.35352,-2.26172 0.49316,0.0098 0.99414,0.51758 1.55859,0.37891 0.18652,0.35547 0.6875,0.81054 0.73047,1.0664 0.13281,0.79102 0.0527,1.53321 0.26074,2.31641 l 0,0 m -62.45801,15.16992 c -1.15234,-0.27539 -2.09765,-0.87695 -2.5957,-1.88281 -0.78515,-1.58984 -0.27246,-4.01953 0.40235,-5.38867 0.49121,0.31836 1.23144,0.39062 1.55664,0.84375 0.36425,0.50586 0.46093,1.32422 1.0166,1.63476 0.54297,-0.5957 0.96386,-1.1914 1.64941,-1.63867 -0.0283,-0.3457 0.30469,-0.2793 0.11817,0.0332 0.85449,0.63868 1.29003,1.63086 2.0166,2.4336 l 0,2.4082 c 0,0.18555 -0.34864,0.21485 -0.41602,0.33203 -0.63867,1.08985 -2.10547,1.61524 -3.74805,1.22461 M 104.5878,104.3291 c 4.93652,0.94141 10.58984,1.08008 15.70215,1.82617 0.12695,0.67578 0.38379,1.42969 0.61719,2.05469 -7.08106,0.68164 -12.88184,-1.20508 -17.30567,-3.93359 0.48633,-0.0371 0.73438,0.006 0.98633,0.0527 m 37.97363,-2.99609 c -0.60644,-0.26953 -1.5,-0.41211 -1.83886,-0.9336 0.46289,-0.5664 0.90234,-1.10351 1.17382,-1.73242 l -2.3457,0 c -0.19726,0 -0.41699,-0.11719 -0.52539,-0.30469 0.35547,-0.36914 0.62109,-0.82226 1.05664,-1.13281 1.40039,-0.99609 2.91992,-2.32617 5.23438,-1.85742 1.26757,0.71875 1.74121,1.81836 1.91699,2.80273 -0.52442,2.32032 -2.18457,3.35938 -4.67188,3.15821 m 7.14356,86.28467 c -0.0244,-0.008 -0.0889,-0.021 -0.0371,-0.0186 -1.70899,-0.0903 -3.04102,-1.15185 -3.27344,-2.85254 -0.0156,-0.11328 -0.22461,-0.66504 0.23047,-0.39844 0.19043,-0.51416 0.56934,-0.85107 0.86621,-1.24121 0.78125,-1.02392 2.47656,-2.14257 3.85449,-1.19091 1.09375,0.75537 2.09375,1.46972 1.98047,3.2998 -0.0283,0.46191 -0.59765,0.82275 -0.76953,1.22607 -0.19629,0.46387 -0.68359,0.71827 -1.21582,0.71045 -0.31738,0.61719 -1.10156,0.63037 -1.63574,0.46534 M 134.98926,96.09863 c -1.06641,-0.98047 -1.99805,-2.23047 -1.1377,-3.96484 0.13184,-0.26367 0.72266,-0.83203 1.28418,-1.05664 0.65918,-0.26367 1.36035,-0.375 2.05762,-0.75 0.80273,0.0664 1.625,0.39062 2.62109,0.72851 -0.10156,-0.03515 -0.0605,0.24805 0.04,0.51563 0.0908,0.24023 0.27832,0.36328 0.56934,0.26172 -0.18848,0.79883 -0.30371,1.74219 -0.16309,2.5 -0.56543,0.60547 -1.27344,1.17187 -2.09082,1.67187 -0.31836,-0.23047 -0.45312,-1.07422 -0.86914,-0.91211 -0.86328,0.33399 -1.67578,0.97071 -2.31152,1.00586 m 9.00781,45.11035 c 0.96973,-2.17382 2.1582,-4.02539 2.44336,-6.7832 l -0.55957,-2.74316 c 1.56543,-1.75196 2.57324,-4.07032 3.12988,-6.75586 0.0566,-0.26758 0.3291,-0.28906 0.39844,-0.0273 0.15527,0.59375 0.45117,1.14649 0.50391,1.78711 0.30175,0.12305 -0.0449,0.26172 -0.16504,0.28907 0,0.27929 0.0811,1.02343 0.0234,1.25781 -0.39843,1.60156 -1.41796,2.55859 -1.40136,4.72168 0.0312,3.83203 -1.27735,6.67773 -3.88965,8.32617 -0.003,0.001 -0.65625,0.31689 -0.4834,-0.0723 M 129.79395,99.6748 c 0,0.08008 -0.20215,0.16211 -0.17676,0.1543 -1.16114,0.39258 -2.52344,0.13086 -3.30567,-0.47656 -0.79882,-0.62109 -0.99414,-1.69727 -1.84277,-2.45117 -0.38867,-0.34571 -0.19824,-1.2461 0.12891,-1.81055 0.28906,-0.49805 0.73437,-1.06055 1.40625,-1.35742 0.36132,-0.1582 1.16504,-0.22656 1.43164,-0.17188 0.83496,0.17188 1.54101,0.47461 2.09961,0.9043 -0.11524,0.16016 0.041,0.70313 0.37011,0.20117 l 0.86621,2.63672 c -0.5957,0.0957 -1.17578,0.18359 -1.6914,0.44922 0.0547,0.66211 0.71484,1.32617 0.71387,1.92187 m 6.00293,-0.88476 c -0.0352,0 0.17382,0.05664 0.22851,0.14453 0.12891,0.20508 0.31836,0.13672 0.31348,-0.16016 0.50879,0.28711 0.28027,0.78711 0.75097,1.09571 -0.27148,0.40039 0.3545,0.33008 0.3418,0.01367 0.31348,0.79883 0.45117,1.82031 0.41113,2.73047 -0.333,0.0918 -0.58886,0.53515 -0.13964,0.64062 -0.50391,0.082 -0.46485,0.6875 -0.73243,0.7793 -1.48925,0.52344 -3.15722,0.1543 -4.47851,-0.45117 -0.0449,-0.53516 -0.53614,-1.08203 -0.52344,-1.60156 0.0156,-0.54688 0.1748,-1.19336 0.25,-1.89844 0.15527,0.26562 0.37695,0.5332 0.62207,0.34961 0.41699,-0.31446 0.50098,-0.96485 0.85645,-1.25782 0.5625,-0.46289 1.14746,-0.38085 2.09961,-0.38476 m 6.18164,10.0957 c -0.28907,-0.0781 -0.49805,-0.47461 -0.82032,-0.6582 -0.83105,-0.48047 -1.42187,-1.36328 -1.35254,-2.7207 0.97559,0.30078 2.28125,0.74804 3.36719,0.33398 -0.70019,-0.86719 -1.52344,-1.45117 -2.38965,-2.04297 0.31446,-0.29492 0.70899,-0.73437 0.96094,-0.73242 1.98535,0.0273 3.21973,1.15039 4.01074,2.38477 0.39551,0.61718 0.22364,1.35546 0.18848,2.29687 l -0.57422,-0.35352 0,0.86133 c -0.39551,0.17774 -0.79297,0.65235 -1.01269,0.63867 -0.81934,-0.0508 -1.57325,0.2168 -2.37793,-0.008 m 37.375,-0.93164 c -0.0908,-0.0312 -0.36622,-0.10937 -0.47364,-0.13867 -0.62011,-0.17969 -0.72265,-0.71875 -0.93847,-1.25977 -0.29688,-0.74414 -0.19532,-1.64062 -0.0186,-2.5957 0.0439,-0.23828 0.65625,-0.44726 0.54688,-0.91211 l 0.85449,0 c -0.36035,-0.68555 0.68945,-0.41211 1.0293,-0.4414 0.24023,-0.0176 0.70019,0.6621 0.74804,-0.0273 0.49903,0.11914 0.61035,0.84766 1.14063,0.83789 0.0234,0.18946 0.0703,0.45703 0.1914,0.69141 0.22364,0.43164 0.31348,-0.2207 0.34082,-0.0898 0.12403,0.57618 0.30762,1.43555 0.0254,1.97266 -0.37988,0.72656 -0.90332,1.76367 -1.92187,2.01367 -0.53809,0.13086 -1.01563,0.1211 -1.52441,-0.0508 m -1.94825,-21.94531 c -0.65234,-0.21484 -1.34863,-0.16602 -1.9873,-0.16797 -0.26172,-0.0019 -0.6543,0.01758 -0.80567,-0.32617 -0.71777,-1.61524 -1.39257,-3.21289 -1.9248,-4.85938 -0.11523,-0.35742 -0.41113,-0.86914 -0.083,-0.86914 l 2.30274,0 c 1.34375,2.03321 2.55371,4.19141 3.84375,6.41211 -0.25684,0.24805 -0.91993,-0.04883 -1.34571,-0.18945 m -2.84472,41.54297 c -0.88379,-0.64649 -1.69727,-1.23438 -2.82227,-1.5586 0.72559,-1.73828 1.69043,-3.33789 3.40039,-4.07031 0.0908,-0.0391 0.37012,-0.10156 0.42774,0.10547 0.13867,0.5 0.3164,1.03711 0.78906,1.37305 -0.0908,0.59179 -0.0937,1.3164 -0.40137,1.82422 -0.41211,0.67578 -0.86133,1.61718 -1.39355,2.32617 M 69.09082,141.49023 c -0.2998,-0.0581 -1.21387,-0.16113 -1.50684,-0.24072 -0.88085,-0.23974 -1.66601,-0.70117 -2.4707,-0.90576 -0.56445,-0.61523 -1.19238,-1.07422 -1.625,-1.64648 2.95899,-0.11719 5.37012,0.27734 7.98731,0.48632 -0.18067,0.75977 -0.83789,1.26954 -1.24317,1.89307 -0.10937,0.16797 -0.18164,0.48438 -0.02929,0.67578 -0.26954,-0.0649 -0.9004,-0.2207 -1.11231,-0.26221 m 95.68457,-52.79199 c -0.14844,-2.19922 0.04,-4.43359 0.59766,-6.33984 0.0361,-0.12695 0.20312,-0.50977 0.57324,-0.45508 l 0.44922,8.69141 c -0.37403,0 -0.97754,0.38672 -1.4668,0.67968 l -0.15332,-2.57617 m -9.24023,77.43848 c -0.40625,-1.44824 -0.97071,-3.20606 -2.00977,-4.5874 1.70117,0.28222 3.50488,0.76611 5.17481,1.09668 -0.87403,1.30859 -1.73145,2.31005 -2.54883,3.42334 -0.0859,0.11718 -0.45606,0.6372 -0.61621,0.0674 m 7.42968,-65.02246 c 0,-0.0918 -0.0195,-0.28125 0,-0.32422 0.26563,-0.58399 0.81739,-1.00391 0.89258,-1.66602 0.31641,0.60352 0.85059,1.04493 1.14942,1.66797 -0.49317,0.36719 -1.37598,0.59766 -2.042,0.32227 z"
       style="fill:#c4161d;fill-opacity:1;fill-rule:nonzero;stroke:none"
       id="path3502"
       inkscape:connector-curvature="0" /></g></svg>