<?xml version="1.0" encoding="UTF-8" standalone="no"?>
<!-- Created with Inkscape (http://www.inkscape.org/) -->

<svg
   xmlns:dc="http://purl.org/dc/elements/1.1/"
   xmlns:cc="http://creativecommons.org/ns#"
   xmlns:rdf="http://www.w3.org/1999/02/22-rdf-syntax-ns#"
   xmlns:svg="http://www.w3.org/2000/svg"
   xmlns="http://www.w3.org/2000/svg"
   xmlns:sodipodi="http://sodipodi.sourceforge.net/DTD/sodipodi-0.dtd"
   xmlns:inkscape="http://www.inkscape.org/namespaces/inkscape"
   id="svg3480"
   version="1.1"
   inkscape:version="0.91 r13725"
   xml:space="preserve"
   width="354.33105"
   height="354.33105"
   viewBox="0 0 354.33105 354.33105"
   sodipodi:docname="30_of_the_classical_papercut_pattern_vector_26.ai.svg"><metadata
     id="metadata3486"><rdf:RDF><cc:Work
         rdf:about=""><dc:format>image/svg+xml</dc:format><dc:type
           rdf:resource="http://purl.org/dc/dcmitype/StillImage" /><dc:title></dc:title></cc:Work></rdf:RDF></metadata><defs
     id="defs3484" /><sodipodi:namedview
     pagecolor="#ffffff"
     bordercolor="#666666"
     borderopacity="1"
     objecttolerance="10"
     gridtolerance="10"
     guidetolerance="10"
     inkscape:pageopacity="0"
     inkscape:pageshadow="2"
     inkscape:window-width="718"
     inkscape:window-height="480"
     id="namedview3482"
     showgrid="false"
     inkscape:zoom="0.66604379"
     inkscape:cx="177.16553"
     inkscape:cy="177.16553"
     inkscape:window-x="0"
     inkscape:window-y="0"
     inkscape:window-maximized="0"
     inkscape:current-layer="g3488" /><g
     id="g3488"
     inkscape:groupmode="layer"
     inkscape:label="30_of_the_classical_papercut_pattern_vector_26"
     transform="matrix(1.25,0,0,-1.25,0,354.33105)"><path
       d="m 162.74219,208.12842 c 3.29687,-3.08399 6.39062,-6.45801 8.36133,-11.27246 3.58593,5.87207 7.80664,10.72168 14.27148,13.26758 5.875,2.31347 13.0957,0.26953 16.94727,-2.63038 1.75,-1.31787 3.30078,-2.7207 4.65429,-4.42773 2.32032,-2.92188 3.91309,-6.62744 4.87891,-11.05273 0.38476,0.27148 0.57519,0.56738 0.91992,0.4331 -0.0215,-0.19092 -0.19922,-0.43457 -0.0762,-0.55517 5.82812,-5.67237 9.625,-13.30274 11.31641,-23.01172 0.0547,-0.30323 0.26367,-1.20508 0.34667,-1.59717 -1.26464,-0.3086 -2.41113,-0.83057 -3.29199,-1.55957 l -0.01,-2.79102 c 1.0205,-6.52685 4.44726,-10.92627 7.52343,-15.50244 0.36133,-1.03418 1.63282,-1.80078 1.63477,-2.88574 0,-0.3584 -0.19727,-0.46826 -0.45703,-0.54492 -4.55274,-1.32813 -8.41016,-3.20801 -11.85254,-5.59864 -1.49512,-1.03808 -2.55176,-2.58886 -4.12402,-3.92089 -1.00586,1.23437 -1.93555,2.75683 -2.90235,4.02929 -0.69336,0.91211 -1.47461,1.69239 -2.12402,2.79053 1.74707,1.41602 3.3418,3.0752 4.09277,5.51514 -2.39062,-0.51856 -4.68554,-1.19434 -7.45312,-1.43897 -0.22266,3.56104 -0.22168,7.00293 -0.30274,10.58789 -0.90625,-0.55176 -1.70703,-1.22217 -2.25781,-2.05664 0.21094,-0.40722 1.03223,-0.60498 1.45508,-0.9414 -0.67383,-3.25196 -0.53516,-7.26905 -1.44629,-10.23487 -0.28809,-0.94678 -0.7666,-1.81299 -1.45996,-2.38965 2.09668,-1.00781 2.82031,-3.21875 4.06445,-4.97363 0.62207,-0.87988 1.4961,-1.62207 2.5918,-2.09277 -0.38672,-0.40918 -0.8457,-0.50293 -1.14258,-0.56934 -1.64844,-0.36621 -3.24609,-0.23144 -5.01758,0.007 -0.26758,0.0361 -0.30273,-0.79004 -0.37207,-1.16602 -0.41699,-2.23828 -1.53808,-3.94336 -2.74902,-5.57715 -0.70117,0.79981 -1.70313,1.46192 -2.81934,1.92578 0.63086,-5.35156 3.292,-8.81738 8.50684,-9.52832 3.60937,-0.49316 6.97851,0.35547 9.90039,1.28711 -1.68457,-4.02734 -4.72949,-6.3457 -8.61523,-8.11035 0.25,-1.7207 0.27539,-3.55078 -0.292,-5.31543 2.11914,-0.0596 4.41992,-0.18457 5.84473,-1.00976 l 6.9082,-3.95215 c -0.25195,-0.52051 -1.02929,-0.90137 -1.38183,-1.2168 -1.8291,-1.63476 -3.5459,-3.16894 -5.167,-4.51367 -2.23828,-0.66406 -4.22753,-1.12891 -6.69335,-1.2998 0.37109,-1.39063 0.94726,-2.54786 1.34082,-3.74317 0.84082,-0.13965 1.55175,-0.43066 2.21679,-0.73242 -0.46582,-0.69238 -0.78711,-1.46582 -1.16894,-2.28711 4.86816,-0.6123 8.17968,-2.80273 11.30859,-4.70898 0.38965,-0.23829 0.30957,-0.57129 0.15234,-0.71973 -2.07226,-1.95117 -4.85351,-3.20996 -7.89648,-4.36817 1.51172,-1.92578 2.13672,-4.55957 2.23242,-7.50683 0.04,-1.21289 0.5,-2.16113 0.28516,-3.30567 -0.69922,-0.15234 -1.46094,0.20508 -2.10352,0.44043 -2.38476,0.11426 -4.50195,0.66504 -6.19336,1.58399 L 204.625,67.78027 c -1.8125,1.13379 -3.9834,2.04883 -6.37695,2.58789 l -2.27442,1.25293 c -0.11425,-0.66992 -0.35449,-1.3291 -0.62597,-1.80664 -2.47071,0.79004 -5.17774,0.97364 -7.53809,1.71485 l -1.97559,1.25293 c -0.18945,0.11035 -0.41699,-0.01075 -0.50195,-0.19922 -1.3916,-3.08399 -3.48437,-5.50391 -5.71289,-7.70215 -3.01367,0.3291 -5.73047,0.18066 -8.67187,0.41504 -0.0176,-0.37891 -0.32813,-0.15527 -0.45411,0.13965 l -25.06933,0.77636 c -0.48633,0.01368 -1.125,1.16895 -1.59766,1.25684 -1.91015,0.35742 -4.24463,0.47754 -6.60693,0.40234 0.54785,1.71582 1.25488,3.23536 1.78467,4.91504 0.22168,0.70313 -0.54053,0.33399 -0.74219,0.38575 -0.27979,0.07031 -0.51953,0.20898 -0.72608,0.18554 -0.49316,-1.33398 -1.09668,-2.60937 -1.91455,-3.66211 -0.35205,-0.45117 -0.51367,-1.04101 -0.86328,-1.52832 -0.49756,0.23828 -0.27099,0.84473 -0.36084,1.24414 l -2.52588,11.43653 c -0.0757,0.3164 -0.2163,0.6875 -0.48681,0.8457 -0.43946,0.25488 -0.32617,-0.55469 -0.47461,-0.79102 -0.59375,-0.94336 -0.79346,-2.72656 -0.15186,-3.77539 0.45117,-1.72461 1.16553,-3.22265 1.22608,-5.29492 0.083,-2.90039 -1.05469,-4.99023 -2.3545,-6.98535 0.0303,0.0459 -0.11474,-0.27051 -0.27832,0.12305 -6.63867,-0.06446 -13.56933,-0.52637 -20.1455,0.07422 -2.72803,2.22168 -9.26563,2.81054 -12.83789,0.95703 -0.33008,-0.1709 -0.71924,-0.34571 -1.05616,-0.18946 -1.7622,0.81348 -4.09082,0.03321 -5.15429,-0.75976 -4.14063,2.29297 -11.55078,2.52344 -16.12256,0.80957 0.17871,0.9414 0.4873,1.81543 0.85058,2.55273 0.67188,1.36426 1.58008,2.69434 2.54444,3.53907 -0.14307,1.43261 0.15869,2.60253 -0.15088,3.92382 -0.89942,-1.58007 -1.96729,-3.04101 -2.99902,-4.45605 -0.46875,0.09473 -0.39502,0.91992 -0.69288,0.85058 -2.61914,-0.61816 -5.39453,-1.14941 -7.94677,-1.84375 -0.12207,1.32032 0.0542,2.81446 0.03174,4.34473 -0.0054,0.31055 -0.10059,0.86914 -0.42042,0.63867 -1.75585,-1.27441 -3.24707,-2.7373 -5.14062,-3.69043 -0.34131,-0.17285 -0.3291,0.21582 -0.39258,0.36524 -1.21728,2.81933 -1.93603,6.57324 -1.55859,10.55761 2.42383,0.2002 4.9458,-0.16113 7.49609,-0.27832 0.16895,0.75586 0.20508,1.52149 0.1499,2.4834 -2.71728,1.21289 -5.65869,2.27735 -8.90332,3.08594 -0.16064,0.04004 -0.59521,0.29981 -0.21484,0.51172 2.01318,1.11914 4.53564,1.7168 6.6001,2.89844 0.2622,0.14843 0.44678,0.38574 0.76416,0.72851 -1.93262,1.53516 -4.27539,2.63672 -7.12012,3.35156 -0.37451,0.09278 -0.36475,0.49219 -0.30127,0.7754 0.18604,0.84472 0.34082,1.72656 0.35352,2.71777 1.39013,0.96973 3.36377,1.54785 5.51611,1.80176 1.80029,0.21191 4.16455,0.39941 6.45996,0.24804 0.5625,-0.24511 1.34473,-0.24316 2.40967,-0.42187 -1.92529,2.92773 -4.74219,4.83496 -7.67774,6.5459 -0.22509,0.13086 -0.41406,0.29785 -0.61035,0.53027 0.81153,0.42578 1.76026,0.39258 2.69825,0.6543 l 8.61376,-0.31055 c 1.19629,-0.1123 2.36036,-0.44238 3.46338,-0.86816 -0.07422,4.41504 -0.71777,8.2666 -1.91797,11.79297 3.4961,-1.22364 5.46485,-3.71778 7.36329,-6.2334 l 2.19531,-3.46094 c 2.90527,2.75195 6.71875,4.6084 10.72412,6.21777 0.47021,0.18848 0.13916,0.62598 -0.002,0.90723 -0.35157,0.70508 -0.53369,1.62891 -0.60254,2.6748 -0.03614,0.55469 -0.10401,1.1084 -0.16797,1.67871 -4.65625,0.16797 -9.29004,0.29395 -13.47608,0.90137 -0.72656,-0.11816 -1.62011,-0.44336 -2.44189,-0.44238 0.80225,3.6875 2.43262,6.48242 5.05078,8.39844 -1.88623,0.15722 -3.33057,0.49023 -4.66553,1.09668 -4.14355,1.88086 -7.84033,4.34082 -10.6289,7.61523 -0.67237,0.78906 -1.16162,1.75098 -1.38086,2.96729 0.6748,-0.22364 1.39404,-0.27881 2.0791,-0.59961 0.22656,-0.10498 1.48437,0 1.95654,0 -2.72998,5.58056 -5.30322,11.92627 -4.76269,20.25634 1.6499,7.13282 4.83691,12.90479 7.39941,19.17286 1.42969,3.49707 2.94678,7.52734 2.56885,12.27392 l -0.87305,3.30274 c -1.41797,2.23242 -3.78711,3.52587 -6.23193,4.74414 -1.23486,0.61474 -2.47217,1.0581 -4.06494,1.21972 -0.26123,0.0274 -0.3628,0.33643 -0.24317,0.50293 0.46241,0.64795 1.15869,0.95557 1.51123,1.56446 0.40039,0.69238 0.87745,1.41162 1.00245,2.26367 l -0.002,2.53711 c 0,0.46924 -0.38037,1.01172 -0.45703,1.52929 9.02881,0.92041 15.10059,-2.95214 18.63281,-8.44873 2.03418,-0.4541 4.15772,0.0986 6.14258,0.46192 8.12012,1.48828 15.47901,4.08447 24.06152,5.05761 4.20215,0.47657 8.89454,0.26172 12.38477,-1.12792 0.87988,1.00341 2.31787,2.22558 2.2832,3.76025 5.19532,2.49805 10.42041,4.72656 16.02393,6.61523 0.48047,0.16358 1.05371,0.27539 1.51953,0.10596 1.31934,-0.48096 2.80664,-0.68311 4.0459,-1.22363 3.59766,-1.57031 6.41113,-3.93799 9.16504,-6.38672 0.14258,-0.12793 0.55371,-0.5332 0.69336,-0.66455 m -83.94971,-12.48779 -0.5874,-0.25 c 1.16992,-1.96485 1.73388,-5.23438 1.12109,-8.14747 -0.40234,-1.91796 -1.11816,-3.5708 -1.71679,-5.46582 0.92626,-0.87646 2.37109,-1.32714 3.63037,-1.81445 0.35058,-0.13574 0.80957,-0.30664 0.59228,-0.79736 -0.49023,0.0586 -0.84912,-0.47364 -1.01074,-0.45313 -1.54834,0.18799 -2.57764,0.72705 -3.56885,1.32324 -0.43359,-1.22363 -0.86426,-2.30712 -1.37012,-3.20996 -0.22851,-0.40673 -0.0205,-0.708 0.22998,-0.89892 0.71045,-0.54199 1.57325,-0.94629 2.37159,-1.39112 -0.0093,-0.47705 -0.48731,-1.02685 -1.05078,-0.85351 -0.52979,0.16357 -1.32422,0.50683 -1.95313,0.85644 -0.59912,-0.583 -0.97314,-1.40429 -1.20264,-2.15527 -0.07177,-0.23389 -0.44677,-0.67187 0.06006,-0.44189 0.68262,-0.73877 1.42481,-1.38965 2.36719,-1.77491 -0.18896,-0.2788 -0.52783,-0.59033 -0.95996,-0.52002 -0.6792,0.11182 -1.52442,0.52051 -2.41943,0.68653 -0.50782,-0.61328 -0.69922,-1.45703 -1.08497,-2.08692 0.5835,-0.49902 1.12842,-1.22509 1.9502,-1.53466 0.48486,0.45849 1.08203,-0.23536 1.63818,-0.2959 0.44287,-0.0488 0.0039,-0.38721 0.12549,-0.65576 -0.59277,-0.31641 -1.34326,-0.25538 -2.04248,-0.58399 -0.79101,0.12354 -1.67676,0.19092 -2.34473,0.36768 -0.55029,-0.75293 -1.01709,-1.75244 -1.29589,-2.77637 -0.03516,-0.12695 -0.37061,-0.57813 0.08886,-0.37109 0.5752,-0.43116 1.14551,-0.82471 1.97608,-0.9834 0.43066,-0.0825 1.05078,0.13428 1.51758,-0.44141 -0.31104,-0.33447 -0.84229,-0.70849 -1.29883,-0.70849 l -2.43848,0 c -0.25586,-0.97071 -0.53369,-1.98096 -0.51416,-3.10791 1.15137,-0.32422 2.62256,-0.52637 3.87988,-0.23243 0.19434,0.0454 0.72852,0.10498 0.49366,-0.33447 -0.31006,-0.58057 -1.05811,-0.68018 -1.29883,-1.30273 -0.76709,-0.11036 -1.58301,-0.19825 -2.46192,-0.15577 l -0.06298,-2.3872 c 0.60107,-0.0464 1.13574,-0.84619 1.57812,-0.81104 1.01807,0.0776 2.30127,-0.10742 3.20752,-0.20605 -0.16016,-0.87989 -0.85986,-1.4541 -1.51416,-1.54004 -0.56738,-0.0737 -2.17041,0.0552 -2.32324,-0.29004 0.14941,-1.55322 0.45752,-2.60498 0.84277,-3.66016 l 1.47705,-1.03662 c 0.95313,-0.16162 1.93457,-0.2832 2.6626,-0.0855 0.39746,0.1084 0.14014,-0.41748 0.0063,-0.53808 -0.6626,-0.60108 -1.71778,-0.50342 -2.39649,-0.99707 0.18116,-0.82666 0.4541,-1.50049 0.86866,-2.02979 0.63183,-0.8081 1.5625,-1.33887 2.78271,-2.0918 3.91602,-0.64941 9.36621,-0.98144 13.58447,9.8e-4 0.60742,0.1416 1.49073,0.71094 2.06446,0.46485 0.52099,-3.57227 1.41796,-6.58008 2.16699,-9.77051 -5.77149,0.1289 -9.54444,-2.10254 -11.72119,-5.58301 -0.11426,-0.18164 -0.34864,-0.42285 0.06738,-0.54102 3.78564,-1.08984 9.19727,-1.17773 13.77246,-0.91699 -0.28467,-5.10742 2.05908,-7.89258 4.70752,-10.25 0.11328,-0.0996 0.48828,-0.91113 0.69629,-0.23437 0.39111,1.28125 0.97461,2.43164 1.88574,3.4375 1.21094,5.00293 4.73779,8.24902 10.61719,8.57519 1.02051,1.5166 3.78369,2.05957 5.41504,0.93848 0.26513,-0.18457 0.57373,-0.61426 1.00635,-0.65527 1.94873,-0.18946 3.63818,-0.61426 4.3955,-2.22559 l 0.2959,-1.92383 c 0.80664,-0.51074 1.74121,-0.87988 2.82178,-1.15918 0.31592,-0.083 0.31641,0.47949 0.30566,0.74219 -0.081,1.88965 0.33496,3.56738 0.0737,5.27832 -4.87109,0.93457 -9.04052,2.63476 -12.47412,5.0332 -1.81347,1.74414 -2.95117,4.0166 -4.53174,5.71387 -1.31396,3.01953 -2.37793,6.21484 -3.02734,9.83203 -0.76465,-0.9043 -1.84912,-1.28076 -2.68262,-1.66504 -0.99267,-1.30078 -2.46972,-2.22705 -4.52685,-1.89844 -2.90186,0.46534 -4.49024,2.77539 -4.49756,6.11866 0.4248,0.97216 0.68896,2.13818 1.40771,2.98193 0.25342,0.29736 0.22852,1.15723 0.12452,1.76221 -0.0752,0.43066 -0.79102,0.22412 -1.2168,0.38818 -1.21924,0.46729 -2.13672,1.56738 -2.89795,2.50781 -2.26025,-2.05713 -7.64063,-2.64795 -9.74414,-0.21289 -0.12793,0.14795 -0.2959,0.0684 -0.30274,0.064 -1.16357,-0.71778 -3.15625,-1.25342 -4.24951,-0.48194 -0.49853,0.35205 -1.09912,0.27344 -1.53759,0.68164 -1.72364,1.6045 -1.89112,4.76807 -1.31543,7.64551 l 1.85351,6.92285 c 1.72803,4.50147 4.21973,8.24268 5.64746,13.20801 0.81446,2.8335 1.5625,7.33545 0.86524,10.64697 -0.41651,1.97998 -1.02686,3.64844 -1.90137,5.13184 -0.77002,1.30713 -1.41162,2.55469 -2.58399,3.47363 -2.68457,2.1084 -5.45214,4.48633 -10.26708,4.22071 -0.10743,-0.99317 -0.42579,-1.73877 -0.36133,-2.55762 0.03466,-0.42969 -0.45996,-1.2168 -1.06446,-1.58692 0.25489,-0.1333 0.50391,-0.32275 0.7583,-0.4414 2.43506,-1.14795 4.34668,-2.81787 5.89942,-4.8208 0.56836,-0.73194 1.3789,-1.43848 1.4375,-2.78174 -0.0034,0.0796 0.21289,0.12402 0.48242,0.12061 m 21.91699,6.01074 c -0.9248,-2.16748 -1.63525,-4.5752 -2.15234,-6.98926 -0.2832,-1.31836 -0.36524,-2.90137 -0.76221,-3.99658 l -3.29687,-0.18506 c -2.07764,0.003 -3.50879,-0.85449 -4.96094,-1.71289 0.02051,0.0122 -0.01123,-0.51563 -0.04834,-0.69238 -1.22022,-5.8335 -3.38379,-10.72657 -5.84473,-15.30811 -2.24218,-3.20264 -4.43799,-7.8877 -3.03759,-13.04102 l 1.18945,-1.85693 c 1.77295,0.24658 2.98437,1.22949 4.3125,2.15137 1.87793,3.88086 3.79492,7.87207 7.06396,10.46679 3.24073,2.57325 7.54785,4.03858 12.11866,5.23243 0.36669,0.0957 1.07519,-0.1377 1.3208,0.23291 1.43847,2.17578 3.02002,4.24414 5.45068,5.42675 2.45361,2.19434 7.95654,2.89698 11.34521,1.00635 2.40479,-1.34179 4.34766,-3.37597 6.06202,-5.30469 l 3.37646,1.4629 c 3.21631,1.06738 7.09912,1.50048 10.83838,1.83935 0.90332,0.082 2.22559,-0.15185 3.29199,-0.14502 -0.69922,1.31055 -1.40332,2.38574 -2.56152,2.90039 0.0615,0.55127 0.2832,1.04199 0.3291,1.58985 0.0195,0.24365 -0.38086,0.49169 -0.64062,0.66503 -2.20459,1.47168 -4.87207,2.64063 -7.76465,3.30616 -3.48584,0.80127 -6.90186,1.43847 -11.0083,1.53467 0.30224,1.67236 0.12109,3.50341 0.26904,5.09765 0.22363,2.3916 0.19141,3.94727 0.0518,6.1875 -0.2002,-0.21924 -0.75733,-0.27099 -0.89795,-0.58203 -0.36719,-0.81055 -0.90186,-1.47168 -1.39844,-2.18066 -0.19922,-0.28565 -0.48096,-0.76172 -0.50537,-0.82373 -0.93018,-2.31006 -1.80762,-4.34082 -2.37207,-6.56495 -0.0366,-0.14648 -0.18652,-0.61523 -0.50586,-0.54687 -4.8623,1.0415 -10.10889,2.05615 -16.43262,1.59131 -0.83252,-0.30762 -1.64355,-0.74317 -2.79492,-0.87158 -0.39844,-0.0444 -0.28369,0.27294 -0.27295,0.4458 0.2168,3.72461 1.07715,6.8374 2.15576,9.68603 -0.44384,-0.009 -1.60742,0.0532 -1.91748,-0.0215 m 8.44239,-97.73047 c -0.3545,-0.3252 -0.53809,-0.72363 -0.89991,-0.91309 0.5542,-5.25488 1.01563,-10.38672 2.47901,-14.71777 0.14697,-0.43848 0.60595,-0.3418 0.8916,-0.37695 5.45361,-0.667 11.34326,-0.47266 17.08984,0.10839 0.0283,2.83985 0.38086,6.01856 0.95703,8.30762 8.79395,-2.88574 21.9126,-2.51465 31.43604,-0.70312 l 0.24219,-6.85157 c 0.49804,-0.09179 0.86816,-0.35839 1.34375,-0.40918 4.07422,-0.43359 8.98535,-0.34765 12.9375,0.19141 3.62402,0.49024 6.59961,1.3584 9.29004,2.62109 0.34375,1.53614 0.44433,2.89063 0.27832,4.53907 -0.17383,0 -0.93164,0.1455 -1.16309,0 -1.33789,-0.8418 -2.56543,-2.1084 -4.54102,-2.36524 -1.89062,-0.24511 -3.35449,0.67774 -4.28418,1.37793 -3.12109,0.0059 -5.38671,1.04883 -6.61621,2.83594 -0.73925,1.0752 -1.38183,2.42773 -2.54101,3.71094 -0.48926,0.14648 -1.5127,0.33593 -2.3252,0.96093 -3.26172,-0.0889 -6.45508,-0.47167 -9.77148,-0.54492 l -24.65674,0.19532 c 0.0244,0.63378 0.0498,1.25195 -0.14063,1.83203 -0.37109,-0.42871 -1.08007,-0.48731 -1.38574,-1.03223 -0.91894,-1.63184 -3.01074,-3.05957 -5.66894,-2.13672 -1.04102,-0.27832 -2.01514,-0.89941 -3.22559,-0.95117 -1.56836,-0.06738 -3.58496,-0.37305 -4.80029,0.12793 -2.14893,0.88574 -3.89942,2.18555 -4.92529,4.19336 m 13.16796,66.06836 c -2.58642,-0.2041 -4.55273,-1.46387 -5.71972,-3.26709 -0.36963,-0.57129 -1.0625,-1.07813 -1.10352,-1.94971 -0.1748,0.0688 -0.55029,0.042 -0.41015,-0.22412 -1.34522,-2.01123 -1.97266,-5.00781 -1.37061,-7.97412 0.47656,-2.35254 1.47656,-4.30615 3.21729,-5.30225 1.15136,-0.65869 2.96386,-0.68554 4.52246,-0.96533 1.11963,-0.20019 1.90381,0.44531 2.97314,0.49658 0.062,0.002 0.39356,0.35742 0.51563,0.45313 0.9165,0.72217 1.54736,1.99023 1.74804,2.87207 0.10205,0.13867 0.33594,-0.27686 0.44922,0.18554 0.19531,0.79004 -0.14355,1.7212 0.27246,2.39307 -0.45019,0.53711 -0.45459,1.30811 -1.41845,2.12695 -0.52735,0.88086 -2.85206,0.41748 -3.88135,-0.83642 0.11621,0.14307 0.39697,0.32519 0.49316,0.32226 0.21533,-0.74853 0.45703,-1.53027 0.15576,-2.37402 -0.063,-0.17432 -0.72705,-0.70557 -0.96045,-0.82275 -0.10888,-0.0547 -0.60302,-0.0684 -0.70849,0 -0.3877,0.24951 -0.7583,0.61523 -0.98486,0.99511 -0.21973,0.36719 -0.18702,0.84327 -0.14405,1.26954 0.24561,2.44091 2.33155,3.69775 4.61768,3.92675 1.21338,0.12159 2.3291,-0.50927 3.21777,-0.99365 0.37256,-0.20215 0.4961,-0.68701 0.69922,-1.00488 1.68945,-2.63086 1.09717,-7.59326 -1.69873,-8.8291 1.625,-1.06592 3.125,-2.35889 3.89697,-4.07276 1.16699,-2.5874 0.12305,-6.0625 -2.16162,-6.93066 -1.00976,-0.38379 -2.58057,-0.39844 -3.59961,0.0225 -1.17334,0.48437 -2.36474,1.12451 -2.37451,2.68359 -0.67578,0.94825 -0.23926,2.09961 0.46582,2.56836 0.83691,0.55908 1.94092,0.33985 2.28857,-0.55029 0.20411,-0.52148 0.13819,-1.29688 -0.19238,-1.82666 0.29102,-0.4165 0.73731,-0.82715 1.24951,-1.00586 0.36719,-0.12793 0.1211,0.21289 -0.0396,0.30957 0.53614,0.0127 1.13037,-0.35791 1.34278,-0.12744 0.66504,0.71289 1.15527,1.52392 1.40088,2.11963 0.0786,1.96582 -0.72266,2.77441 -1.5586,3.59961 -1.60937,1.58886 -4.87402,1.24316 -7.1084,0.48242 -2.23291,-0.7583 -3.06006,-3.12256 -3.82666,-5.36182 -1.90527,-3.22509 -0.62158,-8.25439 1.91699,-10.00244 0.13575,-0.0937 0.47315,0.0137 0.70899,-0.13476 1.9331,-1.22168 5.50635,-1.41797 7.38525,0.0351 4.26172,1.1875 7.0625,3.84961 9.18848,7.17481 0.89209,1.39648 1.84863,2.85644 2.22363,4.61718 0.85254,3.99805 2.53955,7.82129 2.04737,12.70411 -0.0415,0.41699 -0.2837,0.72461 -0.39112,1.05029 -2.38867,7.1914 -7.86133,12.89502 -17.34424,12.14795 m 64.53858,-39.21582 c -5.57715,-0.27149 -10.86914,-0.32227 -16.47754,-0.3125 -0.1543,0 -0.46094,-0.23438 -0.47266,-0.45606 -0.23047,-4.55859 -0.63672,-9.48047 -0.18359,-14.32715 1.90234,1.20704 4.59961,2.06641 7.59082,1.66504 0.24707,-0.0352 0.4834,0.0381 0.58398,0.1377 1.90918,1.91601 5.62793,1.39453 7.07325,-0.44629 0.31543,-0.40039 0.35742,-1.23242 0.54492,-1.87891 0.082,-0.28222 0.60351,-0.22656 0.94726,-0.45996 0.20508,-0.13769 0.81055,-0.50293 0.90332,0.0107 l 0.66602,3.08106 c 0.19629,0.73828 0.17871,1.84766 0.5791,2.42969 0.79883,-0.59766 1.08789,-1.40235 1.62402,-2.04981 2.80958,-3.38476 7.75879,-5.38476 14.27247,-4.66797 0.008,9.8e-4 0.0469,0.30176 0.16992,0.34668 1.3916,0.50977 2.70508,1.22559 3.61914,2.29493 -2.11524,0.0176 -4.30664,-0.1836 -6.11133,0.19042 -1.56445,0.32422 -2.81055,1.11133 -3.91016,2.02442 -3.36816,2.79785 -5.583,6.84668 -5.93457,12.59375 l -5.48437,-0.17578 m -16.36231,25.25537 c -0.0937,-0.2207 -0.19433,-0.43067 -0.19531,-0.45557 -0.22461,-4.47558 -0.6748,-9.0747 -0.76269,-13.59179 6.63183,-0.25733 13.14843,-0.37305 19.58496,-0.28125 0.20215,0.004 0.54687,0.13232 0.51172,0.42041 -0.2334,1.93164 -0.89356,3.53271 -1.83985,4.73291 -3.87695,4.92529 -9.87109,7.90918 -17.29883,9.17529 m -68.08886,-48.43994 c -0.0796,-0.0176 -0.3208,-0.0684 -0.40039,-0.0908 -0.65577,-0.19141 -1.18555,-0.55469 -1.64893,-1.00098 -0.11963,-0.11621 -0.6084,-0.12305 -0.73291,-0.20117 -0.26758,-0.16895 -0.46045,-0.46582 -0.71191,-0.72559 0.21191,-0.40039 -0.28418,-0.30859 -0.3335,-0.33691 -4.20605,-2.52832 -7.23145,-6.35742 -9.10352,-11.04688 -0.1416,-0.35254 0.31055,-0.39941 0.55518,-0.43847 3.98682,-0.65235 8.49707,-0.77442 12.83496,-1.07617 1.07129,-0.0752 2.14844,-0.30567 3.09424,-0.08887 -0.0864,3.05469 -0.44775,6.03613 -0.85059,8.79004 0.33594,0.13769 -0.0117,0.27636 -0.15136,0.30761 0.0278,0.23047 0.16845,0.41114 0.27392,0.49024 -0.20361,0.75 -0.12793,1.58496 -0.15576,2.38867 -0.0215,0.62305 -0.66309,1.08301 -1.09863,1.58594 -0.21192,0.24707 -0.4624,1.34179 -0.58106,1.68359 -0.36084,-0.0205 -0.66845,-0.1709 -0.98974,-0.24023 m 40.03369,44.97851 c -0.13281,0 -0.22217,-0.17187 -0.24951,-0.27588 -0.15967,-0.60302 -0.2168,-1.2373 -0.34815,-1.85205 -1.2124,-5.6455 -2.5083,-11.23437 -6.1289,-14.49218 -2.69873,-3.11524 -6.18262,-5.50782 -11.06495,-6.55957 0.80079,-0.6211 1.65186,-0.71485 2.42334,-1.16993 l 3.60938,0 c 1.99853,0.7168 3.80566,1.53028 5.29053,2.63477 6.31591,4.70019 9.99218,12.02588 11.34179,21.69971 -0.13281,0.0166 -0.50195,0.11279 -0.61718,0.0972 -1.23829,-0.17138 -2.84082,-0.0864 -4.25635,-0.082 m 42.34619,-67.458 c -7.0293,-1.36915 -14.21191,-2.53907 -22.56445,-2.54395 -0.10352,-1.74219 -0.41895,-3.55957 -0.91016,-5.2666 1.56152,0.4248 2.96777,0.0293 3.72363,-0.6709 0.73242,0.45996 1.37891,0.75977 1.92871,1.1709 1.98536,1.47754 6.18946,1.78711 7.875,-0.1875 1.00977,0.71094 2.74805,1.35254 4.42774,0.77832 1.37305,-0.46777 2.66992,-1.13184 3.87988,-1.95508 0.67481,2.57813 1.29004,5.04981 1.74317,7.6582 0.0508,0.29493 0.18652,1.07227 -0.10352,1.01661 m 18.89648,109.49707 c -0.26562,-0.27149 -0.49804,-0.53565 -0.71484,-0.76075 -3.22656,-3.37207 -6.05566,-7.11963 -7.71484,-12.15136 0.94336,0.0459 1.74121,0.0874 2.2207,-0.26954 0.0918,-1.28027 0.48047,-2.21044 0.68945,-3.3081 0.12891,0.0664 0.33789,0.24268 0.5459,0.52685 0.0967,0.13184 0.18652,0.76758 0.58496,0.29249 0.0371,0.32275 0.16406,1.07568 0.1875,1.34863 0.0342,0.37988 -0.24414,1.1289 0.47656,1.13525 l 2.94239,0.005 7.31543,8.69971 c 0.20508,0.24463 -0.10742,0.31104 -0.39063,0.0913 0.14649,0.41797 -0.14844,0.55371 -0.30664,0.74756 -1.41015,1.73096 -3.61621,2.77148 -5.83594,3.64307 m -75.17285,-21.10059 c -1.25635,-0.0371 -2.29541,-0.35059 -3.22851,-1.0293 3.11279,-0.33301 5.3457,-1.43945 7.46093,-2.70019 5.00782,-2.98877 9.22071,-7.06299 9.28663,-14.9961 1.52392,0.0859 3.01025,0.25196 4.74951,0.18409 -0.25,1.7666 -0.49903,3.35498 -0.8418,4.9458 -1.82812,8.46972 -7.10937,13.8916 -17.42676,13.5957 m -16.98047,0.0537 c -0.25293,-0.0308 -1.00976,-0.11572 -1.24902,-0.14404 l 0.38721,-1.8208 c -0.43213,-4.08399 -2.64502,-6.06592 -6.09424,-6.91455 -0.17725,-0.0425 0.0483,-0.52735 0.16455,-0.69971 1.02295,-1.52344 1.27441,-4.3501 0.76807,-6.73828 1.75879,-0.62793 3.35839,-1.71729 4.87158,-2.646 0.53711,0.70215 0.73388,1.33106 0.99804,2.07617 -0.67089,7.51905 2.79834,11.49903 6.93018,14.72315 -1.45508,0.83642 -2.92969,1.37744 -4.56006,1.82812 -0.68945,0.19141 -1.24121,0.45557 -2.21631,0.33594 m 36.09864,22.17529 c -0.083,-0.0908 -0.29493,-0.27392 -0.33203,-0.35937 -1.0918,-2.55811 -2.07422,-5.1377 -3.3086,-7.5586 -0.084,-0.16406 0.24219,-0.3374 0.25684,-0.3496 0.99316,-0.86573 2.41894,-1.24366 2.98437,-1.93116 -0.54883,-1.77392 0.7959,-2.37451 1.66114,-2.98584 1.8789,1.52442 3.63867,3.25635 5.5039,5.10108 0.60059,-2.43311 0.23731,-5.31934 -0.37207,-7.31104 0.65723,-0.35547 1.22168,-1.20312 2.02442,-1.50976 0.99609,1.95019 1.76757,4.5039 1.37402,6.98095 -2.73242,4.04541 -6.26856,7.01075 -9.79199,9.92334 m -28.98438,-13.67285 c -0.24707,0.10108 -0.77441,-0.12256 -0.92432,-0.16113 -3.3999,-0.85889 -5.78271,-2.89209 -7.5249,-5.47266 -0.13916,-0.20654 -0.54052,-0.81933 -0.20459,-0.82568 3.8711,-0.0708 6.62061,-1.24365 9.41748,-2.58154 2.06787,1.30273 4.37403,2.40429 7.62549,2.76953 0.12158,0.0137 0.65088,0.084 0.49072,0.48193 -1.15966,2.86572 -3.18017,5.01611 -6.6455,5.68848 -0.7583,0.0371 -1.67676,-0.12549 -2.23438,0.10107 m 98.56836,-0.37256 -12.61719,-9.08349 c -0.89843,-2.07666 -2.32519,-3.96485 -3.95312,-5.65674 -0.27149,-0.28272 0.14453,-1.22608 0.17187,-1.93848 0.84766,0.82276 1.46485,1.82569 2.16993,2.70459 0.66796,-0.24072 1.30468,-0.56445 2.01757,-0.64258 0.24805,-0.0278 0.56348,0.18946 0.80469,0.36768 4.44141,3.2749 8.87695,6.52344 13.57422,9.65625 -0.28906,0.89893 -0.69629,1.77881 -0.92578,2.90478 -0.22852,0.42725 -0.74024,0.97168 -1.24219,1.68799 m -23.41992,15.74366 c -0.0488,-0.003 -0.29102,-0.20118 -0.39844,-0.39161 -1.72656,-3.08984 -3.04687,-6.76562 -3.73047,-11.15478 1.45117,-0.73145 2.83692,-1.7544 4.02344,-2.95947 1.65039,3.56836 3.68262,6.61377 5.65625,9.55908 0.67383,1.00879 1.55957,2.1289 2.10742,3.25 -1.56054,0.55273 -3.02929,1.02734 -4.44238,1.4668 -0.94727,0.29345 -2.05762,0.27392 -3.21582,0.22998 M 87.39063,88.00195 c -0.10792,-0.21582 -0.49366,-0.87207 -0.5337,-1.10742 -0.27099,-1.58008 -0.73242,-2.88672 -0.99463,-4.49707 1.70606,-0.0918 3.17627,-0.49023 4.35157,-1.18848 1.62304,0.97657 3.92187,1.59375 6.47314,1.17481 0.60449,-0.34668 1.42481,-0.52734 2.22217,-0.93555 1.33203,0.70606 3.05127,1.39063 5.17432,1.46387 0.20214,1.12402 0.19775,2.69434 0.0508,3.78516 -5.87549,0.21484 -11.76319,0.29101 -16.74365,1.30468 m 132.58203,87.02735 c -4.86231,-2.87012 -8.98047,-6.42285 -13.56055,-9.43164 0.0117,-1.27149 -0.0449,-2.95703 0.0449,-4.33838 4.9707,3.00146 9.67969,5.83154 15.07617,8.00879 -0.26367,0.50976 -0.043,1.07129 -0.16992,1.39257 -0.41406,1.05079 -0.58203,2.12989 -0.84961,3.15088 -0.12109,0.46875 -0.38672,1.3086 -0.54101,1.21778 m -103.13184,29.63037 c 0.0103,9.7e-4 -0.0459,-0.0791 -0.0635,-0.11133 -1.69482,-2.95166 -3.21679,-6.34814 -4.12988,-10.02734 1.84424,-0.4712 3.98535,-0.60743 6.24707,-0.77979 1.11914,3.80225 2.90479,7.14697 5.10693,10.01611 0.42969,0.56055 -0.4038,0.69971 -0.62109,0.74512 -2.02881,0.42627 -4.34717,0.38379 -6.53955,0.15723 m 57.87598,-19.13281 c -1.17774,0.009 -1.93946,-0.54688 -2.81055,-0.9712 -2.95312,-2.63671 -4.94336,-6.354 -7.10547,-9.86572 -0.7539,-1.22558 0.15235,-2.63916 1.01563,-3.56201 1.21093,2.78857 2.58398,5.48096 4.46679,7.66113 2.34375,2.71582 4.83399,5.35694 9.11524,5.90235 2.01172,-0.37598 3.38281,-1.3125 4.33301,-2.72412 -0.0928,-0.73243 0.16699,-1.41993 0.35058,-2.05811 l 1.46875,-0.14746 c -0.0381,-1.00781 0.0596,-1.95996 0.1582,-2.86475 0.41602,0.0586 1.07032,-0.17627 1.09961,-0.006 0.1836,1.06103 0.36914,2.26416 0.11426,3.19873 0.44922,0.0425 1.0293,-0.0312 1.43067,0.41796 -0.87305,1.79053 -2.25391,3.36573 -4.06543,4.23926 -2.55567,1.23242 -6.24414,0.75537 -9.57129,0.78028 m 36.90234,2.85644 c -1.96777,-2.69531 -4.43359,-4.9458 -6.6582,-7.41504 -0.19824,-1.49219 -0.38477,-3.61181 -0.51367,-5.2915 -0.0303,-0.39649 0.23242,-0.62744 0.49414,-0.44922 l 10.66211,7.51709 c 0.21777,0.1543 0.65039,0.46533 0.55175,0.79541 -0.45019,1.51514 -1.38964,2.73096 -2.38964,3.79541 -0.39942,0.4248 -1.0254,0.53174 -1.54493,1.14941 -0.041,0.0488 -0.42382,0.14258 -0.60156,-0.10156 m 7.64063,-30.31689 c -0.0508,-0.0405 -0.23829,-0.12549 -0.2959,-0.16162 -3.30957,-2.1792 -6.7959,-4.22754 -11.20996,-5.521 -0.26465,-0.88818 0.0166,-2.4834 -0.16993,-3.30371 -0.0771,-0.33789 -0.25,-1.00781 0.41407,-0.95752 2.87304,0.21924 5.40429,0.82861 7.57812,1.89404 2.14942,1.05469 4.17188,2.31787 5.8418,3.98584 -0.56836,1.29004 -0.89649,2.58838 -1.49024,3.83545 -0.10058,0.21045 -0.39453,0.43897 -0.66796,0.22852 m -111.20702,-41.7982 c -0.10546,-0.0176 -0.38574,-0.21777 -0.49072,-0.26171 -1.52148,-0.6377 -2.69385,-1.9336 -2.69433,-4.02442 -4.9e-4,-0.24512 0.375,-0.23047 0.58349,-0.27344 0.34717,-0.0723 0.36328,-0.4541 0.33789,-0.72168 -0.10986,-1.20703 -0.36474,-2.67187 0.11768,-3.82714 0.18017,-0.42969 0.6709,-0.77442 1.15918,-0.79981 2.85742,-0.1582 5.79785,0.52149 8.0498,1.73731 0.12403,0.0674 -0.11377,0.37695 -0.32959,0.51464 -1.53613,0.97168 -3.15527,2.09571 -5.2207,2.83594 L 114.35596,115 c -0.60303,0.25098 -0.8711,0.7666 -1.40479,0.99707 -1.29492,0.55566 -3.30664,0.56152 -4.89844,0.27148 m 109.59082,48.68604 c -3.93457,-1.50195 -7.16308,-3.62012 -10.48046,-5.78613 l 0,-4.64942 c 0.12207,0 0.49902,-0.0644 0.61523,-0.0386 4.63965,1.01269 8.26856,3.20215 11.36231,5.84082 l -1,3.87891 c -0.0605,0.23925 0.15039,1.00097 -0.49708,0.75439 m -96.33984,-53.01318 c 0.0166,-0.2334 0.1084,-0.92871 0.13233,-1.17286 0.0698,-0.73828 0.79296,-1.61523 0.34814,-2.50488 l -2.27246,0 c -0.26563,-0.76367 -0.20166,-1.55762 0.01,-2.28027 0.57813,-1.98731 2.02686,-3.59473 3.98243,-3.74024 2.20507,0.75293 3.56445,1.93457 4.13964,3.55079 1.0293,1.01953 1.4209,2.86035 0.53516,3.97851 -1.49756,1.89453 -3.68652,3.0957 -6.875,3.14258 0,-0.16699 -0.0146,-0.77344 0,-0.97363 m 67.72363,85.19336 c -0.0625,-0.004 -0.25097,-0.0312 -0.30859,-0.0547 -2.87207,-1.13672 -5.38477,-2.53076 -7.25586,-4.19727 -0.45703,-1.65674 -0.72266,-3.32861 -0.75586,-5.05224 2.48438,0.0664 5.26758,0.0459 7.6543,-0.31055 0.6289,3.66748 1.6914,6.5166 2.61719,9.68994 -0.44434,0.22656 -1.39161,-0.0298 -1.95118,-0.0752 m 0.0449,11.49365 -4.41211,-1.10205 c -0.10645,-3.36621 0.16699,-6.29737 0.42968,-9.58789 1.93164,0.72705 3.9668,1.43408 6.46485,1.49414 0.11328,3.25 -0.0723,6.13379 0.0859,9.18945 l -2.56836,0.006 m -55.29346,-0.86524 c -0.37256,-0.49658 -0.81787,-0.9248 -1.19238,-1.41894 -0.16748,-0.22119 -0.5337,-0.84766 -0.19971,-0.83154 1.35449,0.061 2.19726,-0.49268 3.25635,-0.80372 6.7705,-1.98095 12.24951,-5.58007 16.81006,-9.66748 1.35839,-0.0435 2.61328,0.0762 3.55468,0.33643 -2.79297,3.12012 -5.81836,5.81885 -9.78418,7.58057 -0.006,0.55957 0.13184,1.39257 -0.16504,1.66357 -0.77832,-0.53516 -1.66796,-0.79834 -2.5,-1.10254 -2.979,1.71533 -6.23779,3.14111 -9.77978,4.24365 M 73.86377,137.53906 c 0.11182,-0.22265 0.23486,-0.63867 0.42041,-0.83984 2.51416,-2.74609 6.51318,-4.29297 11.57373,-4.67969 0.30713,-0.0234 0.57324,0.0342 0.74414,0.29883 0.10059,-0.26856 0.35645,-0.47168 0.59131,-0.45703 1.69727,0.1123 3.11572,0.39551 4.56836,0.81738 -0.29199,1.45215 -0.37207,2.98535 -0.83203,4.13965 -0.33203,0.0381 -0.54199,-0.0625 -0.76074,-0.0986 -3.8003,-0.61621 -8.39698,-0.41114 -12.0879,0.24316 -0.71777,0.12695 -1.53466,0.0137 -2.21582,0.46875 -0.40185,-0.006 -1.5957,0.20117 -2.00146,0.10742 m 68.68799,40.44971 c 0.48047,-2.18897 1.14648,-4.39551 1.50879,-7.23731 1.09277,-1.73779 2.08886,-4.11083 2.79101,-6.73583 0.86914,0.0396 1.60352,0.20849 2.48047,0.34619 0.16309,0.0264 0.97363,-0.15332 0.85645,0.44531 l -2.74317,12.89209 c -1.16308,0.58447 -3.09668,0.60986 -4.89355,0.28955 M 113.71387,80.95703 c 0.0625,-0.61914 0.27588,-1.11133 0.42138,-1.61816 -0.74023,-0.36817 -1.68164,-1.07617 -2.38818,-1.46094 0.62988,-0.65723 1.50635,-1.10547 2.45215,-1.69141 1.26416,0.30274 2.64941,0.8252 4.2334,0.8418 1.1875,0.01367 2.30273,-0.37012 3.34521,-0.72461 0.39502,-0.13476 0.90235,-0.53906 1.38867,-0.37793 1.54688,0.5127 3.18018,0.99219 4.9668,1.17188 0.0889,1.26269 0.19678,2.86523 0.0869,3.94043 -4.20068,-0.87305 -9.2749,-0.58008 -13.47412,-0.13282 -0.32666,0.03418 -1.05664,0.292 -1.03222,0.05176 m 44.04394,10.6836 -7.6123,-0.62989 c -0.38477,-0.03906 -0.41113,-0.0049 -0.22559,-0.07812 -0.18359,-1.92774 -0.26562,-3.85547 -0.56836,-5.65332 -0.0479,-0.28125 -0.21777,-0.95313 0.19239,-0.90918 l 9.39941,0.85449 c 0,0.33887 0,0.86914 -0.0117,1.04297 -0.14062,1.875 -0.27734,3.76953 -0.72363,5.37109 -0.0869,0.30762 -0.37207,0.0078 -0.4502,0.002 m -2.28125,84.2788 c -0.041,-0.0469 -0.16601,-0.15478 -0.16308,-0.18945 0.0703,-0.9751 -0.0879,-2.11279 -0.0244,-2.7251 3.82422,-2.23193 6.91992,-5.92383 5.81934,-11.97558 0.54394,-0.38379 1.1123,-0.38135 1.61328,-0.54346 0.4873,-0.15771 1.3877,-0.41553 1.48145,-0.0571 0.69335,2.61621 0.77929,6.01172 -0.25586,8.28711 -1.62891,3.58252 -4.86231,5.52881 -8.47071,7.20361 m -2.23437,36.46192 c -0.0732,-0.0737 -0.15821,-0.17432 -0.19336,-0.19776 -0.52344,-0.33838 -1.14356,-0.4663 -1.70606,-0.69921 -0.23144,-0.0952 -0.30468,-0.35206 -0.24023,-0.58252 -0.16113,0 -0.64356,0.0806 -0.75488,0 -1.07813,-0.79493 -2.46875,-1.18018 -3.54102,-2.00977 -0.94922,-0.7334 -2.12988,-1.23438 -3.00391,-2.05029 -0.21289,-0.19873 -0.002,-0.4043 0.12696,-0.44971 0.51562,-0.18066 1.21484,-0.36279 1.62304,-0.17969 1.00586,0.4541 2.26075,0.85156 3.54493,1.09571 -0.25196,-0.95752 -0.24512,-1.99268 -0.59571,-2.81104 0.59571,-0.60889 1.44239,-1.08447 2.28223,-1.44238 1.84668,2.4624 4.32129,4.33984 6.55371,6.34472 0.2041,0.18311 -0.14648,0.58301 -0.36328,0.4458 -1.07031,1.03907 -2.41406,1.8379 -3.73242,2.53614 m -35.4668,-88.39893 c -0.0532,-0.006 -0.19971,-0.18164 -0.25684,-0.21387 -1.60888,-0.94726 -2.875,-3.12597 -1.96777,-5.93457 0.396,-0.33789 0.99902,-0.57128 1.34522,-1.32226 1.08691,0.19629 1.96875,0.64355 3.03564,0.92871 0.37988,0.10254 0.47656,-0.83691 0.69873,-1.31738 0.16992,-0.37012 0.3877,-0.80762 0.85303,-0.54883 0.75342,0.4209 1.60351,0.83203 2.04736,1.58105 1.26953,1.21973 0.95703,4.24707 -0.32812,5.27637 -0.49024,-0.21387 -1.23535,-0.22461 -1.74756,0.0478 -0.48096,0.25489 -0.74903,1.00293 -1.33252,1.31153 -0.71924,0.37988 -1.46826,0.27929 -2.34717,0.1914 m 17.35498,78.60938 c -0.0161,-0.0601 -0.22119,-0.2002 -0.23291,-0.28662 -0.48291,-3.70801 -1.39648,-7.04834 -2.28418,-10.51416 1.42383,-0.35254 3.15869,-0.72559 4.37695,-1.15528 0.87647,3.12549 2.01368,5.62012 2.40723,9.02588 0.0298,0.25733 0.12354,0.49268 0.16406,0.74317 0.0518,0.32226 -0.59521,0.52539 -0.43457,0.98974 -0.16406,-0.0117 -0.37304,-0.0474 -0.50293,0.15283 -0.4541,0.7041 -1.51074,0.83594 -2.37841,1.07032 -0.31934,0.0864 -0.95215,0.58593 -1.11524,-0.0259 m 44.95166,-85.92969 c -0.89844,-0.42969 -1.68555,-1.05664 -2.16406,-1.89453 -0.43555,-0.76074 -0.63672,-1.70215 -0.7959,-2.68164 -0.0693,-0.41699 -0.13867,-1.25293 0.14844,-1.24903 l 3.27051,0.17188 -0.0117,-3.47168 c 1.33789,0.21191 2.62695,0.18066 3.55273,0.71484 1.27832,0.73633 2.4834,1.94141 2.21973,3.5459 -0.70703,1.14942 -1.61817,1.76074 -2.86426,1.67676 l -0.16016,2.26562 c -0.0312,0.47657 -0.86718,0.99219 -1.21191,1.00782 -0.71387,0.0361 -1.41895,0.18359 -1.9834,-0.0859 m -47.8355,-23.96879 c -0.0908,-1.2832 0.005,-3.05762 -0.15039,-4.48731 2.78711,-1.4375 5.45996,-3.11914 7.63477,-5.18945 0.20459,-0.19531 0.64697,-0.65234 0.7041,-0.30078 0.36719,2.24023 0.19287,4.61523 -0.28467,6.53125 -0.0591,0.23438 -0.73291,0.73047 -0.11426,0.83887 -0.33496,0.46484 -0.86328,0.77734 -1.27636,0.95801 -2.09327,0.90918 -4.08497,1.72753 -6.42188,2.24511 -0.0146,-0.1123 -0.0825,-0.47265 -0.0913,-0.5957 m 61.38916,114.8833 c -0.0117,-0.0757 -0.0742,-0.30713 -0.0508,-0.375 0.19043,-0.58691 -0.36426,-1.16309 0.0508,-1.73535 0.20801,-0.28809 -0.19433,-0.53076 -0.19433,-0.68457 -0.008,-1.76904 0.0469,-3.62354 -0.13575,-5.24561 2.23731,-0.11963 4.39747,-0.30859 6.18262,-1.06006 0.25977,2.5752 0.0283,5.58545 0.01,7.98291 -1.71289,0.94727 -3.36133,1.83399 -5.78516,1.90723 -0.0176,-0.18555 -0.0586,-0.63916 -0.0771,-0.78955 m -36.95996,-14.28613 c -0.30273,-0.0415 -1.20898,-0.18018 -1.56836,-0.23487 3.10449,-4.16748 5.75196,-8.79687 8.04395,-13.72314 0.25,-0.53613 0.5498,-1.33691 1.04004,-1.51416 l 1.92382,2.85498 c 0.29493,0.44727 0.0537,0.88232 -0.13085,1.21777 -2.30469,4.18946 -5.23438,7.77832 -8.0293,11.40723 -0.20703,0.26904 -0.86133,0.0483 -1.2793,-0.008 m -0.4541,-24.26074 c -0.0107,-0.10694 -0.10254,-0.42188 -0.10547,-0.34961 0.0752,-2.0083 0.30371,-3.5542 0.27051,-5.67041 -2.89844,0.0454 -5.6416,-0.13965 -7.85938,-0.77637 -0.13867,-1.13184 0.26758,-2.01856 0.36524,-2.8999 3.32129,0.46484 6.91601,0.79443 10.64551,0.86181 0.041,0.26856 0.13769,0.87305 0.15332,1.07617 0.18066,2.25782 -0.39258,3.97559 -0.76368,5.65577 -0.33691,1.5249 -1.41796,2.56103 -2.70605,3.02783 0,-0.0791 0.0205,-0.71533 0,-0.92529 m 47.08496,-3.8169 c -0.43652,-0.95605 -1.08789,-1.82959 -1.70508,-2.64746 -0.81836,-1.08643 -1.83593,-1.97559 -3.38086,-2.51416 -0.54687,-2.81641 -1.17578,-5.69678 -2.8164,-7.47949 0.20898,-0.15772 0.42968,-0.28125 0.53808,-0.27686 0.98145,0.0376 1.76465,0.12256 2.43848,0.27393 3.36133,2.67578 6.20996,5.85547 6.13379,11.83008 -0.005,0.375 -0.65137,0.68212 -1.20801,0.81396 M 109.06718,75.3709 c -0.35205,-0.13671 -0.7207,-0.35937 -0.98144,-0.62402 0.3374,-1.08789 -0.31006,-2.03027 -0.5625,-2.84961 0.17627,-1.25976 0.49414,-2.3291 0.83643,-3.40137 2.22216,-0.23046 4.73876,-0.38086 6.94189,-0.23828 0.33984,1.76856 0.0312,3.81153 -0.38281,5.02637 -1.01026,1.12793 -2.22705,1.86914 -3.95899,2.22656 -0.53125,0.11133 -1.32031,0.08203 -1.89258,-0.13965 m 75.22022,13.66309 c -0.20117,-0.08984 -0.50195,-0.23145 -0.60547,-0.26172 -4.27148,-1.26074 -9.00879,-1.93848 -14.30469,-2.2666 -2.45996,-0.15137 -4.88476,-0.23633 -7.12207,0.23633 l -0.0186,-2.19629 c 6.14551,-0.50391 12.6875,-0.16406 17.94433,1.14941 1.3252,0.33106 2.77149,0.63867 3.98633,1.12989 0.0361,0.60058 0.24707,1.76562 0.12012,2.20898 m -56.021,-2.875 c -4.99756,-0.54688 -10.85644,-0.78906 -16.06982,-0.40039 0.2334,-0.73242 0.2456,-1.62207 0.40527,-2.42383 3.17432,-0.91992 7.71924,-1.11133 11.57324,-0.75586 1.43311,0.13086 2.71436,0.38867 3.76661,0.91309 0.20556,0.95215 0.49121,1.72851 0.78759,2.46972 0.16455,0.41504 -0.34521,0.20801 -0.46289,0.19727 m -0.25634,117.13965 -0.16944,-11.18408 2.91113,-0.25782 c 1.18213,3.13428 2.07227,6.82422 1.6919,11.18311 -0.99219,0.53857 -2.92627,0.45703 -4.6377,0.61719 0.11182,-0.0112 0.20557,-0.20264 0.20411,-0.3584 m 31.13671,4.89453 c -2.35156,-2.05078 -4.80566,-4.22949 -7.00488,-6.57178 0.78028,-0.64892 1.69531,-0.87939 2.45508,-1.49121 0.47168,-0.37744 0.91602,-1.19726 1.70703,-1.21826 1.93652,1.8667 3.98047,3.60986 5.85352,5.52295 0.1875,0.19092 0.47949,0.42041 0.37304,0.75293 -0.51172,1.604 -1.72168,2.52392 -3.38379,3.00537 m -10.36914,6.58691 c -0.56152,0.1377 -1.07129,-0.26562 -1.64843,-0.46631 -4.18067,-1.44677 -8.45752,-2.55371 -11.75489,-4.81835 1.88526,-0.8125 3.95215,-1.68946 5.81983,-2.58838 2.66357,2.31006 5.60107,4.36767 8.51513,6.38037 0.23731,0.16455 0.91016,0.20605 0.67481,0.5581 -0.37402,0.5586 -1.10059,0.81055 -1.60645,0.93457 m 52.49219,-35.32861 c -0.14746,-0.60547 0.082,-1.64746 -0.30762,-1.93018 -0.60253,-0.43701 -1.34863,-0.81835 -1.73144,-1.5498 -0.93164,-1.7832 -1.58496,-3.98682 -2.40039,-5.89355 -0.42383,-0.98829 -1.28028,-2.04346 -1.75781,-3.17774 -0.0488,-0.11328 -0.14063,-0.45508 0.10351,-0.57324 1.54004,-0.7417 2.78516,0.31348 3.80567,1.3501 0.002,0.49463 0.73046,1.21338 1.23144,1.53466 0.85742,1.55518 1.82129,2.8169 2.63184,4.55713 0.14843,1.71436 0.10644,3.81153 0.0186,5.82764 -0.59375,0.0459 -1.10156,-0.01 -1.59375,-0.14502 m -27.93945,-0.94287 c -0.0713,-0.0273 -0.12305,-0.17676 -0.11231,-0.12061 -0.46972,-2.49023 -0.97265,-4.77539 -1.34668,-7.25488 0.48536,-0.0605 1.39844,-0.11719 1.31446,-0.38574 l -2.08203,-6.55127 c -0.48829,-1.60156 -0.98926,-3.28906 -1.3125,-4.88379 1.05273,-0.48584 2.1582,-0.73242 3.36132,-0.70068 0.0156,0.16943 0.11329,0.71777 0.10059,0.8955 -0.16504,2.271 -0.11523,5.0127 -0.44238,7.24707 0.93164,0.1543 1.84668,0.21875 2.80664,0.17774 0.31836,-0.0132 0.82812,0.30908 0.78711,0.36328 -1.95215,2.6792 -2.5918,7.17236 -1.78223,11.25342 -0.51465,-0.007 -0.96582,0.085 -1.29199,-0.04 m 3.45312,21.96045 c -0.58593,-0.34912 -1.31445,-0.91944 -1.2959,-1.75488 -0.63964,-0.27637 -1.16699,-1.07715 -1.27441,-1.50782 -1.85351,-3.25488 -3.84863,-5.82715 -3.4541,-10.75586 2.00781,2.06739 4.15723,3.96045 6.81348,5.292 -0.22461,1.68994 -0.33789,3.41064 -0.73145,4.85937 -0.32324,1.19727 0.0283,2.43848 -0.0576,3.86719 m -8.375,-3.65381 c -0.24414,-0.12305 -0.74316,-0.29395 -0.87207,-0.39941 -1.7666,-1.44434 -3.61425,-3.05713 -5.51465,-4.42432 1.95899,-2.34082 3.48145,-4.76025 5.02149,-7.24658 0.27734,-0.44776 0.36719,-0.0239 0.48144,0.21631 1.0127,2.13086 1.19141,4.91699 1.31153,7.80517 0.0547,1.36914 0.13672,2.94824 -0.42774,4.04883 m -9.46484,-51.14258 c -0.0645,-0.0147 -0.25,-0.10693 -0.30566,-0.14551 -0.74805,-0.51367 -1.56641,-1.30615 -2.16797,-1.93945 0.88672,-0.77148 1.3623,-1.76074 1.49121,-2.98193 0.11426,-1.09424 -0.27735,-2.43311 -0.65235,-3.08155 1.21485,-0.80371 3.24805,-1.41699 4.64942,-0.59765 0.83008,0.48535 1.33594,1.4248 1.21484,2.77441 -0.0772,0.86279 -0.79004,1.36865 -1.04297,1.87256 0.22168,1.35693 0.20117,2.49756 -0.2959,3.35693 -0.26757,0.46485 -0.8496,0.56446 -1.0625,0.73829 -0.55859,0.45214 -1.21679,0.15039 -1.82812,0.004 m 35.2207,-7.50879 c 0,0.0137 0.10547,-0.0996 0,-0.26562 -1.1582,-1.81836 -0.54883,-5.46192 0.83203,-6.96192 0.67676,-0.73535 1.64649,-1.09277 2.80176,-1.33203 0.30762,-0.0635 0.61817,-0.003 0.79785,0.29199 0.66895,1.09375 1.19336,2.28711 1.18067,4.01563 l -0.71582,2.16016 c -0.34961,0.93945 -1.08399,1.73632 -1.99903,2.05175 -0.9248,0.31836 -1.92675,0.19043 -2.89746,0.04 m -62.0459,-12.08691 c -0.0474,-0.0928 -0.24804,-0.0889 -0.3374,0.0781 -0.30127,-1.55957 -0.34082,-3.38964 -0.50635,-4.99218 -0.1875,-1.81446 -0.37695,-3.40039 -0.0391,-5.20508 -0.0928,-1.00098 -0.0674,-1.99024 0.2168,-2.85645 l 7.38086,0.0234 c -0.0483,1.01758 0.14844,1.9707 -0.11963,2.55566 -1.92432,0.0703 -3.8877,0.0977 -5.46387,0.34961 0.007,3.58887 -0.0615,6.95703 0.35352,10.08203 0.0425,0.32227 -0.91699,-0.18261 -1.48487,-0.0352 m 32.03125,76.94482 c -0.51171,-0.68359 -1.35449,-1.19824 -1.83105,-1.74414 -1.39844,-1.59863 -3.09766,-2.57519 -4.76758,-3.98095 1.07129,-1.17383 2.28516,-2.34131 3.36914,-3.40284 2.29492,1.5376 4.37305,3.29395 6.12988,5.30713 -0.73925,1.45362 -1.83789,2.73438 -2.90039,3.8208 m 16.86817,-98.71728 c -0.33008,-1.19434 -0.59766,-2.56934 -1.08301,-3.70801 l -3.28027,1.28516 c -0.11914,-0.64063 -0.30176,-1.5586 -0.32813,-2.33692 -0.0596,-1.79004 0.76465,-2.89062 2.22656,-3.53808 0.3125,-0.1377 1.03418,-0.30079 1.57813,-0.10059 0.82324,0.30078 1.57812,0.55566 2.22656,0.96777 0.69922,0.44336 1.08106,1.23633 1.62305,1.81055 0.39062,2.95898 -1.16016,4.58203 -2.96289,5.62012 m 1.33496,101.57031 c -1.09863,-0.83594 -2.05176,-1.854 -2.88965,-3.0166 -0.16504,-0.22949 -0.54199,-0.60791 -0.20508,-0.91748 -0.39258,-0.74951 -0.80078,-1.73926 -0.82422,-2.8794 -0.0303,-1.55859 0.33008,-3.01757 0.46875,-4.24902 0.0264,-0.23242 0.0479,-0.83887 0.44336,-0.60498 1.39258,0.82373 2.83203,1.7334 4.16895,2.68164 -0.32324,2.6001 -0.68652,5.40967 -0.69531,8.09912 -9.8e-4,0.25733 0.26855,1.44629 -0.4668,0.88672 m 18.87598,-54.53369 c 0.007,-0.0688 0.0166,-0.12744 0.0166,-0.061 0.009,-1.63623 -0.62989,-2.81933 -1.55664,-3.70849 -0.62793,-0.27393 -1.48047,-0.25635 -2.37989,-0.2876 -1.26367,-2.28564 -2.67968,-4.43066 -3.99023,-6.6626 0.3916,-0.0395 1.31055,-0.20361 1.60156,-0.15674 0.65137,0.1045 1.15723,-0.20507 1.83789,-0.009 2.15528,0.62452 3.4375,2.46094 4.36426,4.27149 0.97168,1.89648 0.8291,4.65478 1.35254,6.87598 -0.41309,-0.006 -1.29102,0.24121 -1.24609,-0.26221 M 94.09668,80.51465 c -0.36816,-0.05762 -1.4624,-0.31348 -1.77832,-0.37988 0.11816,-0.38477 -0.47607,-0.64258 -0.4707,-0.79981 0.06445,-1.99512 -0.09522,-4.00586 0.12548,-5.68262 1.7876,-0.11132 3.43702,0.24805 4.98487,0.57032 0.52881,0.11035 1.37744,-0.08789 1.4292,0.43261 0.16259,1.62403 -0.14502,2.9834 -0.54981,4.01172 -0.52002,1.31348 -1.96045,2.12696 -3.74072,1.84766 m 52.98828,50.71973 c -0.0312,-0.0615 -0.18848,-0.18067 -0.0264,-0.0674 -1.60937,-1.11621 -2.95898,-2.5625 -2.9082,-4.7207 0.54688,-1.72168 2.83984,-2.34961 4.26563,-1.26563 0.30859,-0.29101 0.78125,-0.76269 0.85546,-0.80175 1.05469,-0.55371 1.90625,-0.003 2.45118,0.36328 1.05664,0.71094 1.02441,2.71484 0.22461,3.71386 -0.25782,0.32227 -1.25196,-0.20117 -1.92188,-0.0859 -1.45996,0.24804 -2.17773,1.5625 -2.375,3 -0.22266,0.0176 -0.45703,0.0713 -0.56543,-0.13574 m 42.62012,33.79736 c -0.43653,-0.81983 -0.39258,-2.05908 -0.9375,-2.92529 -1.23828,-1.96778 -2.7334,-4.0293 -2.37891,-7.09327 0.69629,-0.60986 1.15918,-1.43603 2.05664,-1.65185 0.34473,-0.082 0.29297,0.38769 0.50489,0.40088 0.58105,0.0356 1.22168,0.0903 1.56933,0.54883 1.02832,1.35058 1.27344,3.7041 0.68164,5.6206 -0.41992,1.35645 -0.99512,2.98291 -0.83984,4.86475 0.0244,0.29443 -0.55371,0.42724 -0.65625,0.23535 m -47.72852,34.41308 -2.8164,-8.85888 c 0.99218,-0.68262 1.92236,-1.40381 3.11572,-1.80762 1.14111,1.94727 2.22998,3.90527 2.70264,6.55469 0.11328,0.63232 0.35351,1.38965 -0.041,1.94629 -0.65234,0.91455 -1.64355,1.49072 -2.64453,2.10791 -0.16943,0.10449 -0.29639,0.12109 -0.31641,0.0576 m 46.6416,-21.85009 c -0.0185,-0.65235 0.25293,-1.43457 -0.084,-1.76709 -1.50391,-1.48243 -2.28418,-3.73926 -1.98047,-5.9585 0.56836,-1.1123 1.1582,-2.03662 1.77832,-2.38428 1.40625,0.17578 1.99805,1.14551 2.45313,2.13721 0.81836,1.78369 1.39257,4.68262 0.0195,6.24268 -0.37793,0.66748 -0.1875,1.48388 -0.3711,2.14892 -0.68457,0.0908 -1.79492,0.33203 -1.81543,-0.41894 m -30.90918,-44.48535 c -0.37304,-1.42579 -1.26464,-2.47071 -2.67968,-2.79395 0.23437,-0.55664 -0.39258,-0.75293 -0.60742,-1.15234 -0.12696,-0.23731 -0.13477,-0.60938 0.1914,-0.74414 -0.43164,-0.9668 0.44141,-1.56055 0.97852,-1.95801 0.57031,-0.4209 1.26855,-0.1084 1.86718,0.0303 0.55372,0.12988 0.9834,0.62012 1.22461,1.06641 0.31055,0.57519 0.62891,1.13965 0.75586,1.98926 1.11133,0.31152 2.60547,0.85742 2.78516,2.26171 0.0693,0.53125 -0.0664,1.13282 -0.39063,1.57813 -0.79882,1.0918 -2.32421,1.37207 -4.0996,1.24512 0,-0.23731 0.0547,-1.21973 -0.0254,-1.52246 m -44.94335,19.75292 c -0.53614,-1.11376 -0.85694,-1.99023 -0.86719,-3.02392 -0.94336,-3.36426 -0.18311,-7.40918 1.44629,-9.98877 0.74365,3.58154 2.20898,6.23926 3.98047,8.66602 -1.92579,0.979 -3.5625,2.48046 -4.55957,4.34667 m 88.88281,52.02393 c -0.10742,-0.25293 -0.2041,-0.46338 -0.21582,-0.5376 -0.28809,-1.85156 -0.39356,-3.93164 -0.2793,-6.14453 l 7.22363,-3.27002 c -0.95019,4.60352 -3.33007,7.87988 -6.72851,9.95215 M 88.44971,91.6377 c -0.16407,-0.37305 -0.49707,-0.61426 -0.52637,-0.99805 -0.03369,-0.43555 0.19434,-0.89356 0.63135,-0.9541 4.82519,-0.66309 10.13965,-1.12891 15.36523,-1.0625 0.57764,0.0059 0.90186,0.45703 1.34473,0.6875 0.42578,0.2207 0.95361,0.60156 0.96533,1.09863 l -9.76709,0.46973 -7.73975,1.17382 c -0.39599,0.0625 -0.21923,-0.29199 -0.27343,-0.41503 m 81.70654,48.20214 c -0.59375,0.008 -0.0606,-1.08984 -0.3252,-1.7041 6.74317,-0.37011 14.01465,0.18067 20.58399,0.0459 0.37793,-0.009 0.31543,1.14649 -0.0361,1.16602 -6.59766,0.35156 -13.32032,0.40234 -20.22266,0.49218 m 7.92578,-63.38086 c -0.5332,0.05762 -1.32812,-0.02148 -1.7207,-0.50878 -0.2461,-0.30469 -0.3418,-0.79981 -0.14453,-1.11133 0.15136,-0.24512 -0.17969,-0.41504 -0.19532,-0.50196 L 175.2305,70.0752 c 1.74316,-0.24317 3.64746,-0.52247 5.36914,-0.292 0.43164,0.92774 0.93359,1.74707 1.1875,2.60938 0.0859,0.29004 0.0527,0.72265 0.0576,1.10644 0.0225,2.00782 -1.98731,2.76661 -3.7627,2.95996 m -13.2168,50.30762 c -0.0937,-0.0361 -0.14843,-0.34375 -0.15039,-0.35058 -0.35351,-3.20411 -0.26953,-6.70997 -0.4375,-10.00977 -1.07226,0.0547 -2.02539,0.0186 -2.90429,-0.1416 -0.14258,-0.62891 -0.20117,-1.32617 -0.14844,-2.10645 1.84375,-0.006 3.60059,0.0615 5.32812,0.25684 0.0137,4.16016 0.27051,8.37305 0.64454,12.43652 -0.91993,-0.0381 -1.7959,0.11621 -2.33204,-0.085 m 4.74219,-50.0664 c -0.94726,-0.24512 -1.84765,-0.67188 -2.65527,-1.54395 0.86914,-0.83691 1.78418,-2.71289 1.25098,-4.66992 1.47167,-0.12403 2.85937,-0.42481 4.16992,-0.47949 0.66992,1.39355 1.36133,2.60644 1.66406,4.25879 0.0449,0.23535 -0.1582,0.8789 -0.49414,1.3623 -0.72559,1.04199 -2.29492,1.5 -3.93555,1.07227 m 41.78711,24.24804 c -3.7539,-0.43554 -7.15039,-1.19531 -10.49805,-2.09863 0.65332,-1.08496 1.64844,-1.71289 2.91407,-2.0957 4.27832,-1.29493 8.24804,1.02832 9.67578,4.05566 -0.77051,0.1582 -1.43164,0.2168 -2.0918,0.13867 M 225,147.3457 c -1.69238,-0.86767 -3.30273,-1.82763 -4.9668,-2.76367 -2.38086,-1.3374 -5.08398,-2.59033 -7.02929,-4.3789 l 1.41992,-2.26856 c 0.75,0.41211 1.35058,1.13965 2,1.63965 3,2.30762 6.48144,4.12793 9.86523,6.06738 -0.13574,0.44238 -0.42187,0.80322 -0.66601,1.13379 -0.15821,0.2124 -0.19727,0.78857 -0.62305,0.57031 m -2.69141,4.41407 c -1.83789,-1.3169 -3.76562,-2.45557 -5.55468,-3.39893 l -4.13868,-6.02295 c 4.12305,2.13867 7.79883,4.42383 11.54688,6.68897 -0.46484,0.56738 -0.51758,1.18652 -0.94336,1.68505 -0.30469,0.35596 -0.49805,1.34424 -0.91016,1.04786 m -72.00488,25.94873 c -0.0342,0.003 -0.21973,-0.12793 -0.20605,-0.1211 0.10547,-4.27539 0.91113,-7.98193 1.48828,-11.88769 l 2.74804,-0.17432 c -0.4707,3.94482 -1.0664,7.86768 -1.625,11.33984 -0.75585,0.76172 -1.55859,0.76465 -2.40527,0.84327 M 118.29004,74.72949 c -0.41602,-0.06933 -1.24414,-0.05469 -1.19287,-0.43554 0.28662,-2.08887 0.33984,-4.12012 -0.0381,-6.21875 1.6709,-0.0459 3.45362,0.09179 4.8584,0.30664 0.48193,0.07421 0.64844,1.30566 0.49414,1.79199 -0.22363,0.70312 0.22656,1.60449 -0.15576,2.22461 -0.23389,1.87109 -2.354,2.5957 -3.96582,2.33105 m 24.17676,13.42774 c 0.0142,-0.10547 0.083,-0.42578 0.0952,-0.53125 0.27197,-2.3125 -0.26221,-4.917 -0.66699,-7.0166 1.07324,-0.92286 1.93799,-2.03321 2.70459,-3.02149 2.31055,2.23535 2.45703,8.12109 -0.25781,9.80859 -0.60547,0.37696 -1.15918,1.16895 -1.875,1.4961 0,-0.24903 -0.0166,-0.61524 0,-0.73535 m 22.97363,55.46484 c -0.0283,-0.13867 -0.12891,-0.59033 -0.14551,-0.74219 -0.47363,-4.47656 -0.59668,-8.89062 -0.60644,-13.60547 l 2.12207,0 c 0.2207,2.21485 0.10644,4.69727 0.16406,7.05372 0.0605,2.44335 0.55566,4.708 0.80273,7.083 -0.56738,0.19873 -1.58984,0.25537 -2.33691,0.21094 m 10.95898,34.62939 c 0.0215,-0.1123 -0.10644,-0.48779 -0.13378,-0.60937 -0.62989,-2.73486 -0.3125,-5.91699 0.94921,-7.87207 0.86719,-1.34326 2.57227,-2.68408 4.80957,-1.979 -0.72168,1.38183 -1.38769,2.65185 -1.89746,4.3081 -0.12109,0.38965 0.0195,1.12695 -0.48925,1.52442 -1.2959,1.01464 -2.35059,2.67724 -1.96973,5.03955 -0.47461,-0.0562 -1.42578,0.40576 -1.26856,-0.41163 M 70.45947,105.19727 c 0.09961,-0.19922 0.23438,-0.47168 0.24073,-0.4795 3.11523,-3.30664 6.2246,-6.44336 9.83886,-9.41308 -0.02978,0.77734 -0.16357,1.99707 0.36963,1.66797 -0.71191,2.99902 -2.82568,4.47656 -4.68848,6.17773 -0.2915,0.2666 -0.77148,0.41895 -1.10498,0.69238 -1.02392,0.83594 -2.54834,1.63282 -4.65576,1.3545 m 94.69873,51.6123 c -0.1455,-3.65576 -0.51172,-7.02393 -0.65332,-10.70019 0.72071,-0.31104 1.59082,-0.30762 2.51465,-0.32227 0.22656,-0.003 0.36817,0.38818 0.38672,0.62158 l 0.65723,9.76563 c 0.0127,0.1997 -0.31543,0.46142 -0.45996,0.46386 l -2.44532,0.17139 m -16.13867,-12.09228 c 0.0791,-0.33838 -0.48828,-0.54493 -0.60644,-0.85938 -0.10254,-0.27441 -0.10059,-1.12305 -0.0342,-1.37744 0.13281,-0.51807 0.44336,-1.30469 0.52734,-1.3169 2.06348,-0.29541 3.67383,-1.49169 4.62695,-2.86962 0.28711,-0.41407 1.29493,0.35644 1.80078,0.54003 1.1504,0.42286 0.85157,2.66602 -0.041,3.18702 -0.46484,0.6206 -1.54199,0.7539 -2.32715,0.97509 -0.59766,1.42237 -2.1709,2.41065 -3.94629,1.7212 m 41.13086,-30.10108 c -0.34277,-1.28027 -0.46484,-2.72558 -0.70898,-4.20605 -0.0645,-0.38184 -0.45118,-1.2959 -0.15332,-1.85059 0.40136,0.21582 0.79004,0.39551 1.13379,0.6377 1.05273,0.74707 2.05761,1.59082 3.55664,1.87597 0.17773,-1.08886 0.52734,-2.19726 0.92578,-3.06738 1.10644,1.40332 2.46582,2.44922 4.0039,3.53906 -3.46679,0.73145 -6.16601,1.93946 -8.5332,3.52344 -0.18164,0.12109 -0.18164,-0.29492 -0.22461,-0.45215 m -84.71387,40.41846 c -1.8208,-0.0679 -3.01806,-0.91065 -3.87158,-2.00928 -0.24609,-0.31738 -0.43994,-0.7959 -0.59033,-1.40674 3.23535,0.36621 5.26758,-0.92724 6.66016,-2.53711 0.18457,-0.21338 0.44189,-0.41455 0.79931,-0.22461 0.40918,0.21729 0.65332,0.8335 0.70459,1.32227 0.0918,0.87891 0.19727,1.72803 -0.13769,2.55615 -0.53711,1.32861 -1.72998,2.36719 -3.56446,2.29932 m 64.25,-43.81201 c -0.042,-0.0479 -0.15722,-0.14942 -0.16406,-0.18848 -0.3584,-2.29297 -0.37012,-4.45313 -0.45605,-7.17285 -0.65332,-0.0859 -1.36914,0 -1.95899,-0.33692 0.0957,-0.17089 0.33594,-0.65234 0.39063,-0.69921 1.17968,-1.05469 2.84765,-0.83008 3.83984,-0.31543 0.74316,0.38281 1.37793,0.43261 1.70313,0.87109 -0.69922,1.30273 -1.59473,2.50977 -2.30274,3.81738 l 3.31836,1.78614 c -0.72851,0.55175 -1.57129,0.9873 -2.37207,1.54101 -0.55957,0.38379 -1.31055,0.51563 -1.99805,0.69727 m -43.09082,-36.2959 -2.03222,-0.63477 c -0.12354,-1.00097 -0.0879,-2.22851 -0.0772,-3.32031 -0.28955,-0.75195 -0.31641,-1.60547 -0.55713,-2.31152 1.56055,0.06054 2.97754,-0.13575 4.48144,-0.01563 l 1.03663,3.42481 c 0.10302,0.33203 -0.14698,0.92089 -0.30567,1.45996 -0.0542,0.18359 -0.4751,0.52539 -0.10693,0.83984 -0.40186,0.12793 -1.03418,0.15234 -1.31348,0.62988 -0.38623,-0.01074 -0.76172,0.04004 -1.12549,-0.07226 m 22.99024,75.8291 c -0.0606,-0.0176 -0.25,-0.0767 -0.33399,-0.11328 -0.35644,-0.1543 -0.22656,-0.5166 0.12207,-0.30762 -0.34961,-0.97851 -0.43457,-2.19629 -0.70019,-3.29199 1.12109,0.3081 2.3125,0.19092 3.31836,-0.19385 1.01953,-0.38916 1.83789,-1.22168 2.52051,-1.75244 1.30371,0.92139 2.60839,2.51953 1.66503,4.25342 -0.32226,0.59082 -1.12304,0.64844 -1.94628,0.77881 -0.30372,0.0479 -0.62403,-0.61719 -0.98438,-0.33594 -0.78027,0.60596 -2.28711,1.36767 -3.66113,0.96289 M 85.7334,79.24023 85.4873,73.52148 c 1.36377,-0.41894 3.38916,-0.41406 4.80909,-0.083 0.06103,1.46191 -0.0073,2.708 -0.14795,3.90429 -0.01074,0.08692 -0.34717,0.36524 -0.45508,0.48047 0.18115,0.06348 0.45068,0.2002 0.30127,0.3291 -0.46045,0.40039 -0.79053,1.01856 -1.34424,1.16504 -0.84521,0.22071 -1.83398,0.33301 -2.72998,0.38867 -0.2334,0.01465 -0.17822,-0.30468 -0.18701,-0.46582 m 26.80224,125.08936 c -0.333,-0.0571 -1.54345,-0.13525 -1.60644,-0.29688 -0.2832,-0.73193 -0.79199,-1.50097 -0.80859,-2.40087 -0.94825,-2.18213 -1.7837,-4.53809 -2.53418,-6.92969 1.0415,0.10351 1.82666,0.006 2.55127,-0.10694 0.25634,-0.04 0.41455,0.46485 0.49023,0.74268 0.91553,3.3457 2.20605,6.27979 3.56055,9.21436 -0.56153,0.0845 -1.09864,-0.12745 -1.65284,-0.22266 M 162.26563,74.96875 c -0.41016,-0.18652 -1.00977,-0.02539 -1.02735,-0.21289 -0.0293,-0.29688 0.31055,-0.30469 0.44043,-0.50098 -1.10937,-0.84472 -1.72461,-2.6914 -1.44433,-4.375 2.1875,-0.0029 3.8496,-0.08496 5.86523,0.0059 0.13281,1.05176 0.17187,2.27735 0.003,3.15235 -0.30566,1.58691 -2.23145,2.66015 -3.83691,1.93066 m -27.05665,8.88086 c 1.30909,-2.66113 2.81983,-5.14551 3.52881,-8.46289 1.66162,-0.23633 3.0127,-0.69531 4.62842,-0.94531 0.0449,0.458 -0.0166,0.81738 -0.15527,1.11816 -1.68506,3.6416 -4.52686,6.08789 -7.76416,8.21875 0.0283,0.18555 -0.42871,0.45898 -0.2378,0.07129 m 39.48926,80.00586 c -0.0791,-0.70459 0.29199,-1.55371 0.32813,-2.28027 0.0762,-1.51416 0.16113,-3.48389 1.28613,-4.24659 1.29297,-0.41552 2.37109,-1.25732 3.87109,-1.48486 0.40039,-0.061 0.17188,0.41113 0.17969,0.3877 -0.3789,1.1875 -0.18359,2.68457 -0.51562,3.63378 -1.58594,1.34034 -2.89844,2.76807 -3.80274,4.43457 -0.43164,-0.064 -1.25293,0.39551 -1.34668,-0.44433 m -57.74463,-56.93262 c -1.31543,-0.85156 -2.53955,-1.40918 -4.06689,-1.69336 -0.57813,-0.10937 -1.53613,0.0234 -1.56348,-0.45996 -0.0366,-0.64258 0.41065,-1.25488 0.90235,-1.72656 1.13769,-1.0918 2.79345,-1.80176 4.70117,-1.90723 1.05127,-0.0586 2.06347,0.0869 3.05273,0.77149 -1.5039,1.05175 -2.98828,2.58593 -3.02588,5.01562 M 62.9585,99.15234 c -0.41846,0.002 -0.8086,-0.27343 -1.22266,-0.28125 -0.58496,-0.01171 -0.9917,-0.4248 -1.40625,-0.76757 5.9375,0.19043 10.59668,-1.1211 14.10059,-3.41211 0.38476,0.45117 1.08984,0.23047 1.51269,0.46191 0.31348,0.1709 0.63086,0.32031 0.93897,0.48731 -1.48194,1.51171 -3.51954,2.51562 -5.9043,3.0664 -2.26025,0.52344 -5.29932,0.44141 -8.01904,0.44531 m 20.16064,-1.11816 c -0.30859,-0.65332 -0.15088,-1.41504 -0.27246,-2.2041 -0.18652,-1.21192 -0.39307,-2.61524 -0.69678,-3.79981 0.80225,-0.68066 1.80713,-1.2832 2.88477,-1.88476 0.72851,2.56054 1.57959,5.07129 2.65576,7.06152 -1.41895,0.32031 -2.90918,0.70117 -4.57129,0.82715 m 24.44678,105.24316 c -0.73584,-0.20654 -1.5708,-0.3667 -2.43897,-0.42871 -1.12109,-2.53906 -1.96728,-5.29687 -2.40283,-8.42334 0.32959,0 1.36377,-0.0308 1.50293,0 0.54443,0.11963 1.21484,-0.0879 1.37402,0.58301 0.71387,3.0044 1.85547,5.58106 2.8667,8.39795 -0.23437,0.17871 -0.62402,-0.0498 -0.90185,-0.12891 M 149.61523,75.17871 c -0.73339,0.06934 -1.41992,-0.1875 -2.01367,-0.36426 -0.77734,-0.22851 -1.72656,-0.87109 -1.72265,-1.82422 0.002,-0.69238 -0.0176,-1.60839 0.19531,-2.24902 2.01172,-0.18555 4.10742,-0.05566 6.15039,-0.04004 0.35156,0.0029 0.0908,0.50488 0.10156,0.92676 0.0469,1.84961 -0.99804,3.38379 -2.71094,3.55078 m -46.80615,74.73779 c -0.98584,0.043 -1.74267,-0.43408 -2.15625,-0.79248 -0.40967,-1.01464 -0.93213,-2.05371 -0.61035,-3.25781 0.51807,-0.65771 1.31641,-1.13672 2.42285,-1.41211 0.35498,-0.0884 0.93555,0.12061 1.45752,0.30762 0.9419,0.33496 1.75684,1.15185 1.76465,2.42334 0.0112,1.69238 -1.4707,2.6709 -2.87842,2.73144 m 91.55225,28.94043 c -0.13281,-1.22802 -0.38281,-2.40869 -0.98926,-3.66162 l 0.0303,-3.89013 c -0.29199,-0.85596 -0.51757,-2.24756 -0.58203,-3.22803 0.76953,0.11865 1.21192,0.55029 1.5166,1.01855 1.61914,2.48145 2.3877,6.35157 1.86914,10.20703 l -1.73828,0.16993 c -0.0166,-0.13282 -0.0918,-0.49317 -0.10644,-0.61573 m -102.8374,20.18946 c -1.11475,-0.042 -2.08643,-0.29932 -3.16944,-0.3252 0.47705,-2.15918 0.63672,-4.6709 0.75879,-7.18701 0.80274,-0.021 1.53418,0.25 2.28369,0.34668 0.36524,2.73486 1.06739,5.23144 2.09961,7.41113 -0.40185,-0.0508 -1.5791,-0.23144 -1.97265,-0.2456 m 48.32617,-21.26123 c -2.34912,-0.16358 -4.38086,-0.98487 -6.30322,-1.79639 2.8833,-1.38818 5.46044,-2.79834 8.35644,-4.10254 -0.25293,2.27295 -0.70117,4.39063 -1.56055,5.9082 -0.15283,0.26905 -0.34912,4.9e-4 -0.49267,-0.009 m 16.32178,-98.84571 -4.68555,-0.30078 c -1.14844,-0.06933 -2.55176,0.12891 -3.39649,-0.08789 -0.53515,-0.13867 -0.62695,-1.30176 -0.94726,-1.84082 0.99316,-0.09473 2.21191,-0.0059 3.11133,0.07617 1.29199,0.11524 1.95117,-0.74316 2.75195,-1.04883 1.42187,0.55176 2.88867,0.72461 4.54297,0.62208 0.24609,0.8789 0.49609,1.78906 0.6582,2.73339 -0.69629,0.04004 -1.36328,-0.10644 -2.03515,-0.15332 m 27.25781,86.05567 c 0.15625,-0.77783 0.51074,-1.68262 0.23828,-2.49121 -1.75684,-1.11719 -2.34766,-4.60157 -1.16211,-6.55811 0.26269,-0.43457 0.49414,-0.89307 0.93945,-1.18603 0.37207,-0.24414 0.70996,-0.50831 1.27539,-0.3545 -0.32226,2.52198 0.0723,4.8208 0.98633,6.4795 -0.4707,1.21679 -0.87305,2.46728 -1.15332,3.87158 -0.0596,0.2915 -0.68652,0.39013 -1.08691,0.65185 -0.0693,-0.0356 -0.0625,-0.28076 -0.0371,-0.41308 m -41.56494,-48.89356 c -0.0547,-0.005 -0.43604,-0.11914 -0.49952,-0.25 -0.33154,-0.67285 -0.43945,-1.55761 -0.57714,-2.44629 0.1665,-0.0332 0.62011,-0.15332 0.77148,-0.15332 l 5.24121,0.004 c 0.83789,0.0439 1.63184,0.0996 2.27344,0.41113 0.18359,0.0879 0.11914,1.30469 0.17676,1.63477 0.0654,0.37695 -0.0381,0.74707 -0.48926,0.79687 -2.15918,0.24121 -4.65625,0.2461 -6.89697,0.003 m -71.25,-24.93164 c -0.8125,-0.06054 -1.57325,-0.07129 -2.31153,-0.36328 -0.11767,-0.04785 -0.58496,-0.24805 -0.10498,-0.33984 3.66992,-0.69141 7.08203,-1.58106 10.02539,-3.02637 1.27491,0.23047 2.38819,0.67285 3.48242,1.11035 0.20459,0.08203 -0.01416,0.36817 -0.16308,0.42285 -3.15186,1.17188 -6.97608,2.48535 -10.92822,2.19629 M 102.54496,80.9516 c 0.0762,0.02051 -0.0796,-0.08691 -0.13818,-0.12793 -0.56494,-0.40625 -1.36865,-0.22558 -1.5835,-0.71386 -0.53808,-1.22461 -0.61328,-2.72071 -0.47461,-4.22754 2.12793,0.01757 3.8501,0.41894 5.33301,0.87695 -0.0107,1.19531 -0.02,2.36621 -0.15576,2.73633 -0.81787,1.07715 -1.51758,1.87988 -2.98096,1.45605 m 84.93555,0.17285 c -0.10352,-0.16015 -0.32813,-0.39941 -0.30469,-0.34082 -0.51367,-1.3584 -0.87109,-2.73144 -0.82422,-4.26269 0.0488,-1.71485 1.16895,-3.05469 2.9961,-3.20703 0.73437,-0.34473 1.61718,-0.59082 2.33007,0.06543 -1.16015,2.13769 -2.32031,4.30078 -3.37695,6.60644 -0.18945,0.41309 -0.55273,1.55371 -0.82031,1.13867 m 9.51269,16.0625 c -0.72656,-0.10058 -1.5498,-0.68554 -2.17285,-1.20214 2.86621,-1.7334 5.48633,-3.52637 8.73438,-4.80176 -0.2041,1.40527 -0.74805,2.27832 -1.29883,3.17676 -1.00195,1.62988 -2.68457,3.17968 -5.2627,2.82714 m -2.05371,67.20069 c 0.14942,-2.06153 -0.54199,-3.65088 -1.85156,-4.33155 0.26758,-2.1167 -0.14453,-4.56005 -0.68359,-6.43603 0.375,-0.0547 0.64843,0.0444 0.88672,0.17773 1.77929,0.99707 2.65625,3.09424 2.97265,5.50782 0.20703,1.57226 -0.0859,2.88525 -0.0547,4.5249 0.01,0.48779 -0.72265,0.30078 -1.26953,0.55713 m -2.6289,-13.86963 c -0.0488,-0.18945 -0.28711,-0.48096 -0.29492,-0.70606 -0.0293,-0.98779 -0.27344,-1.94922 -1.01075,-2.51367 0.42871,-1.50195 0.73145,-3.02832 1.34473,-4.28027 1.83105,1.6875 3.43262,3.92041 3.13672,7.42187 -1.0625,-0.11767 -1.96289,0.26123 -2.83789,0.45215 -0.38086,0.083 -0.31055,-0.26758 -0.33789,-0.37402 M 81.80371,71.44727 c -0.26172,-0.0293 -0.75342,-0.125 -0.90576,-0.22657 -1.03857,-0.68945 -2.02686,-1.35254 -2.88574,-2.2959 4.10205,0.14747 8.05957,0.0127 11.23291,-0.66601 0.05127,0.36816 -0.06446,0.64746 -0.23194,0.83789 -0.88672,1.00293 -1.99853,1.6748 -3.4663,2.37988 -1.13526,0.09668 -2.31836,0.12403 -3.74317,-0.02929 m 88.38477,97.37597 c -1.45801,-0.20019 -2.3545,-0.97558 -3.13184,-2.22363 -0.0801,-2.04883 -0.33887,-4.84522 -0.96094,-6.90918 0.6543,-0.10205 1.74121,-0.43164 1.8418,-0.10742 l 2.81836,9.30713 c 0.0195,0.0586 -0.38477,-0.042 -0.56738,-0.0669 m -29.11133,-36.58496 c -0.0767,-0.15234 -0.17383,-0.32324 -0.15918,-0.31543 -1.31787,-0.78808 -2.29053,-2.03808 -2.6294,-3.71777 -0.0684,-0.34375 -0.23291,-0.86231 0.2793,-1.11035 0.70557,-0.34082 1.29443,-1.25586 2.38135,-0.60547 1.76416,0.3623 2.57031,2.39746 2.33984,4.46191 -0.23535,0.0293 -0.63086,-0.0381 -0.84814,0.13184 -0.48779,0.38281 -1.11035,0.84863 -1.36377,1.15527 M 77.4043,104.49609 c 1.48047,-1.39941 2.81494,-2.95605 4.06543,-4.25976 0.8833,-0.25195 1.83642,-0.34766 2.64599,-0.66797 0.86133,-0.3418 2.01172,-0.46191 3.19092,-0.33496 -0.0015,0.18164 -0.15283,0.37012 -0.16699,0.38769 -1.33887,1.57227 -3.0127,2.71289 -4.81445,3.59082 -0.1128,0.0557 -0.49561,0.1211 -0.61915,0.16797 -1.27685,0.49903 -2.76367,0.71778 -3.90576,1.40625 -0.10107,0.0615 -0.77783,0.0703 -0.39599,-0.29004 m 105.55273,73.5044 c -0.01,-0.0117 -0.0986,-0.11719 -0.0986,-0.11719 -0.003,-0.41846 0.13379,-1.63476 -0.0166,-1.96142 -0.16992,-0.36719 -0.64649,-0.60596 -0.7461,-1.05225 -0.64648,-2.92822 0.77539,-5.18213 2.25,-6.73145 0.14844,-0.15527 0.66602,0.10596 0.95606,-0.23535 -0.26856,0.9126 -0.19629,1.98145 -0.55957,2.79639 0.0342,1.32471 0.0488,2.99707 0.29687,4.19531 l -1.18554,0.18652 c 0.23535,0.7212 0.30175,1.55372 0.26074,2.35596 -0.042,0.82666 -0.81055,0.36719 -1.15723,0.56348 M 60.35303,80.71484 c 0.06347,-0.07421 0.08886,-0.17675 0.09228,-0.10937 -0.12109,-2.06055 0.19287,-3.83887 0.6167,-5.42774 0.71778,0.14356 1.30567,0.52637 1.88233,0.83301 0.94824,0.50586 2.08056,0.97754 2.69531,1.84375 -0.53272,0.24903 -0.8291,0.625 -1.16651,0.9961 -0.42675,0.46582 0.53663,0.90527 0.48877,1.55566 l -4.60888,0.30859 m 130.55908,25.99707 c -0.9668,-0.21777 -1.74414,-0.67187 -2.45703,-1.13769 -0.75488,-0.85547 -1.70313,-1.65137 -2.11914,-2.88867 -0.52051,-1.542 -0.10352,-3.80176 0.96484,-4.45508 1.38379,2.88281 2.80078,5.51465 3.98633,8.2959 0.15527,0.36328 -0.2793,0.20898 -0.375,0.18554 m -26.68359,5.59961 c -0.0254,-0.16894 -0.12989,-0.77343 -0.12891,-0.97558 0.008,-1.9668 -0.22461,-3.63184 -0.17188,-5.63867 1.01172,-0.0371 1.96387,0.0596 2.94239,0.16601 0.17676,1.42871 -0.15918,3.31738 0.23437,4.65137 0.13379,0.45898 0.2041,1.82422 -0.1875,1.82129 l -2.68847,-0.0244 M 98.01953,200.6792 c -0.75683,-0.17578 -1.56885,-0.0786 -2.18896,-0.43897 -1.02198,-2.27978 -1.5586,-5.04931 -2.2417,-7.60986 0.979,-0.0459 1.83349,-0.0381 2.62256,0.13867 0.01464,0.11475 0.04736,0.47998 0.07714,0.59815 0.58741,2.41455 1.05567,4.77832 1.97266,6.95508 0.03223,0.0762 0.22754,0.46533 -0.2417,0.35693 m -5.63867,-89.54346 c -0.05811,-0.0147 -0.19482,-0.19238 -0.25244,-0.22558 -1.96778,-1.13282 -4.39942,-2.02246 -5.36377,-4.15918 -0.54785,-0.59082 -0.65088,-1.54297 -0.67774,-2.47657 0.53418,-0.72168 0.98243,-1.45996 1.6333,-2.01367 0.42579,-0.36328 0.56543,0.25586 0.59766,0.45117 0.61377,3.7295 2.41309,6.39258 4.71729,8.42383 -0.1294,0 -0.53028,0.0303 -0.6543,0 m 52.63086,-0.1123 c -0.19043,-2.32031 -0.10352,-4.46973 -0.34766,-6.7002 0.17578,-0.0205 0.94532,-0.16406 1.44922,-0.1709 0.33594,-0.003 0.86328,0.50391 1.54297,0.31836 0.17773,2.10254 0.0312,4.61621 0.23047,6.60157 -1.04102,-0.17579 -1.95703,-0.38184 -2.875,-0.0488 m 11.26074,-27.86524 -6.2998,-0.6455 c -0.50196,-0.5752 -0.92871,-1.19532 -1.03516,-1.91797 1.35059,-0.01856 2.55469,0.11718 3.80859,0.13281 1.90235,0.02734 3.77539,0.18164 5.39649,0.38379 0.19922,0.83301 0.31445,1.50781 0.36523,2.22754 l -2.23535,-0.18067 m -1.57129,28.5 c -0.0215,-0.16992 -0.11035,-0.9248 -0.11328,-1.1875 -0.009,-0.53027 -0.23437,-1.625 0.4668,-1.73144 0.01,-0.11914 -0.3418,0.002 -0.4961,-0.002 l -0.18554,-3.47851 c 0.60742,-0.26758 1.67675,-0.42481 2.78906,-0.27637 0.0986,2.24317 0.24023,4.57617 0.48633,6.81738 -0.94531,-0.0986 -1.99903,-0.3457 -2.94727,-0.1416 M 61.51172,96.41309 c 0.03418,0.002 -0.26856,-0.12207 -0.40283,-0.18164 2.10937,-1.02149 4.25781,-1.86622 6.22265,-3.14454 1.29492,-0.18457 2.93116,0.16504 4.66455,0.25489 0.10205,0.0039 0.72412,0.06933 0.25879,0.35449 -2.81103,1.73926 -5.95752,3.17969 -10.74316,2.7168 m 41.71631,64.63183 c -0.71485,-0.98437 -1.67969,-1.90527 -3.28662,-2.43164 -0.70655,0.0107 -1.96338,-0.0742 -2.97803,0.0391 l 0.15088,-1.1875 c 0.53125,-0.16796 0.62012,-0.92236 0.95801,-1.00879 0.85351,-0.21679 1.6958,-0.43945 2.6748,-0.4541 0.50977,-0.007 1.04688,0.0913 1.53613,0.36084 0.84375,0.46485 1.20215,1.38867 1.53614,2.36426 0.16699,0.48926 0.31103,1.79688 -0.40967,2.00049 0.008,-0.043 0.18408,0.82031 -0.18164,0.31738 m 50.229,-25.14551 c -0.32031,-1.57812 -1.93555,-2.58691 -3.72461,-2.63574 -0.2373,-0.45605 -0.72851,-0.68554 -0.68945,-0.88672 0.19336,-0.95605 0.81738,-1.44531 1.35644,-1.83496 0.30664,-0.22363 1.23438,-0.27246 1.89161,0.30371 0.26074,0.22657 0.34277,0.89844 1.03515,1.13672 1.13184,0.39063 2.31934,0.89942 2.18555,2.5 -0.0889,1.04883 -0.89258,1.43555 -2.05469,1.41699 M 98.6499,165.09619 c -0.82617,-0.25195 -1.3501,-0.70752 -1.79004,-1.46094 -0.25,-0.4292 -0.23584,-1.18457 -0.1997,-1.86035 l 0.62939,0 c 0.01953,-0.21289 -0.10107,-0.50488 0.09815,-0.71094 0.43798,-0.45068 1.05957,-0.40087 1.59716,-0.47265 1.7168,-0.22803 2.39698,1.12549 2.72461,2.49512 0.1001,0.42041 -0.19922,0.85253 -0.35547,1.25195 -0.36523,0.92627 -1.5498,0.77588 -2.7041,0.75781 m 54.65674,-49.01123 c -0.30859,-0.0488 -1.29101,-0.11328 -1.45703,-0.25391 -0.3291,-0.27636 -0.38477,-0.70898 -0.42285,-1.07714 -0.0391,-0.39844 -0.1875,-0.99317 0.46387,-1.02149 2.54101,-0.11719 5.1416,0.24512 7.54003,0.47559 -0.10449,0.83398 0.0635,1.45117 0.15137,2.04883 -2.13867,-0.004 -4.3789,0.13086 -6.27539,-0.17188 m -1.75976,-4.80273 c -0.46485,-0.082 -1.84473,-0.0469 -1.87012,-0.32422 -0.18946,-2.07324 0.18945,-4.36231 -0.0332,-6.45508 0.99122,-0.22266 1.79981,-0.0205 2.65137,0.13477 l 0.12793,6.61425 c 0.007,0.38965 -0.60644,0.0762 -0.87597,0.0303 m -62.90333,48.583 c -0.6665,-0.55224 -1.02392,-1.30957 -1.73486,-1.77441 0.77539,-1.40039 2.94824,-2.29297 5.27881,-1.39209 0.12988,0.0508 0.55908,0.20947 0.86768,0.50098 0.62109,0.58496 0.9956,1.375 1.20507,2.31884 -1.89257,-0.354 -3.86328,0.0625 -5.6167,0.34668 M 192.9834,106.3252 188.87109,96.98828 c 2.79493,0.5586 4.1875,2.51367 4.64942,5.11035 0.20801,1.16211 0.0225,3.25196 -0.53711,4.22657 m -93.18994,-33.917 0.14502,-0.14453 c -0.70313,-0.86133 -1.56739,-1.71972 -1.8545,-3 l 6.84229,0.01074 c 0.20557,0.0029 0.57959,0.21485 0.51172,0.3711 -0.60645,1.40527 -1.75684,2.39648 -3.39502,2.71875 -0.6626,0.13086 -1.55762,0.08594 -2.24951,0.04394 m 27.01806,46.2627 c -0.0352,-0.0781 -0.21045,-0.37598 -0.22168,-0.48047 -0.1997,-1.7666 -1.2832,-2.78027 -2.58398,-3.64844 1.78857,-0.50488 3.31055,-1.375 4.60791,-2.3916 0.12695,-0.0986 0.67529,-0.32226 0.65186,-0.0342 -0.16407,2.07227 -0.19483,4.39063 -1.10108,5.99414 -0.13769,0.24414 -0.87012,0.25195 -1.35303,0.56055 m 9.29932,-7.83789 c -0.19971,-0.88184 -0.0967,-2.02735 -0.18652,-3.07129 -0.0967,-1.12012 -0.0967,-2.19336 0.006,-3.05469 0.97022,-0.12598 1.77442,-0.22168 2.5962,-0.0195 l 0.33252,6.14551 -2.74854,0 m -55.73291,1.46972 c -0.0083,-0.009 -0.2373,-0.16699 -0.23047,-0.25488 0.17188,-1.9541 0.29492,-3.86914 0.17725,-5.87988 1.11377,-0.35547 2.45215,-0.5625 3.60791,-0.8291 0.0664,1.01855 0.07031,1.83301 -0.17823,2.55273 -0.65966,1.91406 -1.99121,3.20313 -3.37646,4.41113 m 20.74121,59.22901 c -0.88818,-0.21485 -1.70557,-0.60108 -2.32617,-1.10449 0.20557,-0.60205 0.49365,-1.22461 0.44629,-1.79688 -0.02979,-0.35937 0.03418,-0.6582 0.30713,-0.85889 1.00879,-0.74267 2.78369,-0.3496 3.65429,0.18506 0.47071,0.60059 0.76172,1.47168 0.53516,2.32276 -0.26465,0.99511 -1.29932,1.57129 -2.6167,1.25244 m 58.49805,-61.15186 -0.2461,-5.44922 c 0.97071,0.11426 2.0293,0.11622 2.79493,0.46289 -0.19922,2.26465 -0.0977,4.42676 -0.14063,6.34571 l -2.32617,0 c -0.0156,-0.27149 -0.0781,-1.08692 -0.082,-1.35938 M 108.09326,87.4043 c -0.0151,-0.07422 -0.0806,-0.28028 -0.0727,-0.27149 -0.61572,-0.74511 -0.86621,-1.90234 -0.71289,-3.09668 0.15234,-1.18652 0.47656,-2.36816 0.85449,-3.38379 0.15185,-0.40918 0.45898,-0.97265 0.71338,-0.8916 0.88672,0.2793 1.5,0.62403 2.11133,1.03809 -0.89405,2.13769 -1.76172,4.36426 -2.45606,6.75195 -0.0884,0.30371 -0.40234,0.03516 -0.4375,-0.14648 m 80.10596,5 c -0.1875,-0.37598 -0.29297,-0.54981 -0.32617,-0.60742 -0.8584,-1.51758 -0.97559,-3.13379 -0.26953,-4.8418 0.57812,-1.39551 1.93945,-2.29297 3.9375,-2.22852 0.21093,0.0059 0.68164,0.16992 0.58398,0.29102 -0.54004,0.65918 -0.94336,1.29297 -1.39062,1.66504 -1.03125,1.63574 -2.01954,3.55957 -2.53516,5.72168 m 15.63476,-5.52539 -6.04296,-3.73731 c 0.59375,-0.57422 1.36132,-1.10156 2.37207,-1.14453 0.42089,-0.01953 0.90136,0.09277 1.42578,0.29883 1.65918,0.65332 3.02441,2.56933 3.07031,4.84082 -0.31738,-0.07227 -0.60449,-0.125 -0.8252,-0.25781 m -139.1538,1.58593 c -0.11231,0 -0.41455,-0.18457 -0.45655,-0.20507 2.64453,-1.16114 5.65332,-1.99317 8.42578,-3.12012 -0.14843,0.37988 0.92481,0.46094 1.34034,0.83691 0.27685,0.24903 1.01318,0.63574 0.81836,0.73242 -2.68165,1.33301 -6.54688,1.78321 -10.12793,1.75586 m 82.01318,52.07471 c -1.17578,-2.26904 -2.65625,-4.22314 -4.04199,-6.36377 -0.14356,-0.22265 0.21875,-0.82812 0.62402,-1.00488 1.2207,-0.53516 2.83789,0.0742 3.68848,0.99219 -0.98633,1.44433 -1.16407,4.12011 0.11035,5.46582 0.0723,0.0762 0.3125,0.4873 -0.13281,0.61523 0.13476,0.21777 -0.10157,0.58008 -0.24805,0.29541 m 47.4209,-46.48877 c -0.1709,-0.59375 -0.53809,-1.16699 -0.39942,-1.86133 0.28516,0.12989 0.41211,-0.04882 0.48438,-0.29687 0.33008,-1.13574 1.28125,-1.5586 2.37305,-1.98242 0.0312,-0.0127 0.39257,-0.39258 0.49218,0.13964 0.99024,-0.13964 2.11524,0.04395 2.86328,0.47364 0.0723,0.04297 0.42383,0.17285 0.14258,0.36914 -1.76562,1.22949 -3.59863,2.41504 -5.57129,3.42676 -0.23339,0.12011 -0.33886,-0.11036 -0.38476,-0.26856 m -53.31738,16.88574 c -0.0234,-0.15332 -0.12208,-0.75879 -0.14454,-0.96093 -0.18359,-1.70215 -0.17431,-3.62793 -0.12597,-5.41211 0.75342,-0.35743 1.59668,-0.55664 2.18261,-0.19825 0.2754,1.73536 0.20606,3.66602 0.18897,5.67286 -0.002,0.26562 0.17627,1.05078 -0.25342,0.90722 -0.56689,-0.18847 -1.29639,-0.19433 -1.84765,-0.009 M 155.16895,74.4668 c -0.34082,-0.13086 -0.7002,-0.18164 -1.09375,-0.21192 l 0.35644,-3.5459 c 0.65625,-0.34082 1.90234,-0.52929 3.00195,-0.67382 0.23243,-0.03028 0.56739,-0.0078 0.56739,0.23535 -9.8e-4,1.06543 0.0771,2.22558 -0.10547,3.07422 -0.0713,0.33203 -0.52051,0.36425 -0.79981,0.55957 -0.14843,0.10547 0.083,0.34179 0.041,0.37207 -0.5918,0.40625 -1.27539,0.45605 -1.96777,0.19043 m 3.87402,107.38867 -1.72754,-3.95654 c 1.32324,-1.07227 2.97754,-1.95215 4.53613,-2.96827 -0.42676,2.63868 -1.16015,4.83594 -2.19433,6.67286 -0.13965,0.24462 -0.55567,0.38476 -0.61426,0.25195 M 98.52783,112.43652 c -0.18066,-0.16699 -0.42236,-0.39453 -0.50195,-0.46972 -1.24219,-1.2002 -2.22998,-2.7002 -2.44971,-4.78223 -0.02637,-0.24219 -0.17871,-1.14062 0.22461,-0.8125 1.49756,1.2168 2.96729,2.20996 4.8125,3.18652 0.009,0.005 0.37744,0.20508 0.0625,0.4834 -0.79346,0.70117 -1.45703,1.66895 -2.14795,2.39453 m 103.17041,-2.08593 c -0.25781,-0.12696 -0.47265,-0.24805 -0.78515,-0.38184 -2.74317,-1.17969 -5.03614,-3.36426 -5.39454,-7.02344 0.16504,0.0879 0.63379,0.30176 0.74512,0.39942 2.18946,1.94922 4.06153,4.29004 5.74121,6.69726 0.15235,0.21778 -0.0713,0.42578 -0.30664,0.3086 m -88.60303,11.51757 c -0.90576,-0.0303 -1.60693,-0.36328 -2.19873,-0.71582 -1.41845,-0.84472 -2.5083,-2.10839 -3.67724,-3.50293 1.7417,0.5 3.95264,0.50586 5.92529,0.39747 0.0454,1.16894 0.0825,2.29492 0.33887,3.59082 0.0283,0.1416 -0.13037,0.24023 -0.38819,0.23046 m 19.79883,-11.02832 c -0.20312,-0.004 -0.80713,-0.12793 -0.94775,-0.14843 l -0.22754,-5.92188 c 0.79297,0.0928 1.52979,-0.004 2.06201,-0.0518 0.57617,-0.0537 0.39795,0.63379 0.42822,0.97852 0.15186,1.75391 -0.18261,3.35937 -0.0513,5.32031 -0.39453,-0.20019 -0.83837,-0.16699 -1.26367,-0.17676 M 70.58838,77.94043 c -0.25195,-0.28809 -0.30322,-0.61719 -0.51807,-0.82422 -0.45117,0.3291 -0.97705,0.63574 -1.54101,0.72656 -0.17041,-1.53711 -0.50147,-2.93945 -0.64453,-4.51953 1.70898,-0.0068 3.10302,0.47559 4.34814,1.04395 -0.17822,1.01172 -0.74121,1.90234 -1.09912,2.88476 -0.0918,0.25293 -0.33447,0.92871 -0.54541,0.68848 m 104.07568,37.51172 c -1.81054,-0.2334 -3.30566,-1.09473 -4.54687,-2.03711 l 3.20117,-1.72949 c 0.46094,-0.25098 1.25586,-0.88477 1.77441,-0.59082 -0.0459,1.68066 0.2959,3.1748 0.72364,4.41406 -0.44727,0.006 -0.80176,-0.01 -1.15235,-0.0566 m 32.24805,-11.42383 c -0.32324,-0.005 -1.32324,-0.18652 -1.49707,-0.29687 -1.13184,-0.71973 -2.18262,-1.45508 -2.94824,-2.38868 0.49414,0.0342 1.11914,0.0762 1.4707,0.10352 2.7334,0.20996 5.00488,1.00488 7.83691,1.00879 0.11817,0.30273 0.0928,0.67773 -0.14941,0.5498 -1.19727,0.83301 -2.83398,1.05176 -4.71289,1.02344 m 5.08887,-22.00781 c -1.91211,-0.15039 -3.77051,-0.42969 -5.64551,-0.69043 -0.0322,-0.49512 0.44922,-1.02832 0.88086,-1.22559 2.27832,-1.03125 5.38672,-0.09277 6.95898,1.11035 0.21192,0.16309 -0.14062,0.30957 -0.26269,0.45313 0.20215,0.17578 0.53711,0.27539 0.49902,0.63183 -0.73633,-0.23828 -1.55078,-0.21093 -2.43066,-0.27929 m -22.83887,0.29199 c 0.0879,-0.44043 0.19727,-0.78223 0.38769,-1.17676 1.19434,-2.47949 2.58301,-4.98144 3.94629,-7.47949 0.11133,-0.20605 0.33985,-0.15723 0.47657,-0.14551 0.29882,4.30957 -1.75782,6.72949 -4.25879,8.625 -0.0664,0.04883 -0.61817,0.51953 -0.55176,0.17676 m -96.36475,83.19727 c -0.12304,-0.0625 -0.31787,-0.14112 -0.35107,-0.17579 -1.02295,-1.10546 -2.0459,-2.28076 -2.7417,-3.64062 1.01465,-0.42334 2.19531,-1.23633 3.35596,-0.64746 0.96875,0.49267 1.64258,1.82617 1.08349,3.19287 l -1.34668,1.271 m 40,-81.56739 c 0.62696,-3.09472 1.64698,-5.70605 1.99366,-8.78808 0.0806,-0.70996 0.49072,-1.5791 0.67675,-2.25489 0.57569,0.6377 0.98487,1.28614 1.33643,1.94922 -0.71338,2.57032 -1.45654,4.89063 -2.6792,6.97168 -0.32422,0.54785 -0.73242,1.83594 -1.32764,2.12207 m 44.66162,98.77539 c -1.13671,-0.37256 -2.17382,-1.11621 -2.96386,-2.08398 l 4.7832,-0.20801 c 0.83691,0.0186 1.90918,-0.11865 2.77637,0.27637 -0.15235,0.86621 -0.73047,1.59228 -1.37305,1.83008 -0.74707,0.56103 -2.25976,0.50146 -3.22266,0.18554 m -4.30175,-81.64843 c -0.2168,-0.0674 -0.38575,-0.25489 -0.50879,-0.29493 -0.97852,-0.30957 -2.08496,-0.5957 -3.44727,-0.52832 0.85938,-1.68164 2.17578,-2.83105 3.86524,-3.43164 0.24414,-0.08789 0.82031,-0.16406 0.80078,0.20508 -0.0859,1.62305 0.25586,2.89356 0.41406,4.29199 -0.43945,0.04 -0.78223,-0.13769 -1.12402,-0.24218 M 205.7832,75.82227 c -0.27441,-0.26856 -0.50586,-0.47852 -0.7207,-0.6836 -0.49805,-0.46972 -0.97949,-1.04785 -1.06641,-1.94824 -0.0273,-0.29688 0.22071,-0.54297 0.26758,-0.76367 0.35254,-1.68067 1.97656,-2.80957 4.26563,-2.28809 -1.13086,1.55274 -1.95606,3.58008 -2.7461,5.6836 M 79.26855,78.86523 c 0.0293,-0.1123 0.13868,-0.42675 0.13721,-0.4414 -0.12109,-1.15723 0.08692,-3.03613 0.03906,-4.54785 1.23194,0.53515 2.49952,0.82031 3.3877,1.46777 l -0.09229,2.3291 -1.75439,1.42578 c -0.03125,-0.23144 -0.06836,-0.68847 -0.3335,-0.92675 -0.26757,0.2998 -0.67578,0.36425 -0.94775,0.64941 -0.06982,0.07129 -0.56494,0.54687 -0.43604,0.04394 m 26.77637,94.28565 c -0.36963,-0.0357 -0.72363,-0.19678 -1.31543,-0.44141 1.01074,-0.86181 1.47022,-3.30322 0.78125,-4.75146 -0.0986,-0.20606 -0.41162,-0.8794 -0.0459,-0.75537 1.78223,0.60058 3.26758,2.49902 2.75098,4.76611 -0.18213,0.79834 -1.1709,1.2793 -2.1709,1.18213 m 96.95801,-65.12061 c -1.91992,-2.28125 -4.22363,-4.17773 -6.27539,-6.16894 0.76367,-0.50781 1.90332,-0.2832 2.83105,0.0195 1.53321,1.26953 3.18164,2.9043 3.64258,5.6875 0.0332,0.21094 -0.10937,0.56836 -0.19824,0.46191 m 4.32324,-31.30078 c 0.82422,-2.28808 1.60547,-4.59082 2.9375,-6.25488 0.18262,-0.22754 0.65625,-0.35938 0.65625,-0.36328 0.52149,2.3789 -0.0527,3.99512 -0.8164,5.35351 -0.30762,0.5459 -0.84766,1.17871 -1.69727,1.11719 -0.36328,-0.02539 -1.16113,0.37305 -1.08008,0.14746 M 95.00586,71.44336 91.01807,70.89844 c 0.12597,-0.85449 0.48486,-1.72168 0.80273,-2.33692 1.37354,-0.27734 2.6499,-0.08398 3.96289,0.08496 -0.0034,1.2129 0.3418,2.19922 0.72363,3.02344 -0.51269,0.06055 -1.00341,-0.15332 -1.50146,-0.22656 M 82.26025,86.65332 c -0.02783,-0.0039 -0.14062,-0.05371 -0.16308,-0.14062 -0.42285,-1.7334 -0.90869,-3.32129 -1.24805,-5.1377 0.58984,-0.51465 1.26416,-0.99219 2.11621,-1.27344 0.1836,2.46582 0.6333,4.59082 1.17041,6.72559 -0.63379,-0.08203 -1.25879,-0.13281 -1.87549,-0.17383 m 117.65967,1.80859 c -1.31347,-0.14355 -2.17773,-0.77148 -2.93652,-1.42578 -0.23438,-0.20117 -0.51074,-0.43164 -0.085,-0.42578 -0.34961,-0.33789 -0.50977,-0.77832 -0.69531,-1.26074 -0.0537,-0.1416 0.27734,-0.37891 0.11523,-0.63867 -0.14258,-0.23242 0.0449,-0.40821 0.28027,-0.27832 2.08301,1.16699 4.12207,2.28027 6.26465,3.68261 0.0342,0.02442 0.0547,0.1836 -0.19336,0.28028 -0.76269,0.29492 -1.80078,0.16992 -2.75,0.0664 m -2.89062,-9.47363 c -0.78516,-0.21094 -1.01563,-0.89844 -1.48633,-1.29199 0.2373,-0.36524 -0.0215,-0.82031 -0.13281,-1.22266 -0.043,-0.15136 0.0732,-0.61425 0.14257,-0.73633 0.87696,-1.54882 2.33692,-2.95019 4.61329,-3.42968 -1.39942,2.09082 -2.68164,4.01758 -3.13672,6.68066 m -54.41992,12.5127 c 0.11474,-0.22754 0.18652,-0.42676 0.24023,-0.48047 l 4.30664,-4.21094 c 0.42383,1.38086 0.4375,3.00684 0.3252,4.40527 -1.31641,0.11036 -3.43457,0.12989 -4.87207,0.28614 m 47.32519,0.5957 c 0.62109,-2.53516 1.77441,-4.4375 3.34082,-5.95801 0.21484,-0.20801 0.56348,-0.31445 0.89258,-0.23633 -0.25586,0.18262 -0.16016,0.51368 -0.19238,0.79786 -0.22168,1.99804 -0.63868,3.64843 -1.92676,4.55859 -0.35938,0.25488 -0.81836,0.39746 -1.22266,0.5791 -0.27734,0.12305 -0.97363,0.59473 -0.8916,0.25879 m -96.2832,16.4248 c -0.29151,-0.30761 -0.61182,-0.45996 -0.75733,-0.67578 -1.08105,-1.57715 -2.40381,-2.94531 -2.69336,-5.37793 -0.0708,-0.60449 -0.61425,-1.12304 -0.16748,-1.78418 0.52393,0.60547 1.2793,0.9795 1.76563,1.67383 1.09912,1.56836 1.31006,4.08301 1.85254,6.16406 m 63.38379,48.0127 c -0.14258,-0.17139 -0.56543,-0.59961 -0.63672,-0.78613 -0.0566,-0.15186 0.12402,-0.34668 0.26074,-0.45264 -0.23535,-0.4834 -0.10449,-1.02783 -0.11816,-1.48193 0.59375,-0.21387 0.98046,-0.7959 1.65136,-0.91748 0.417,-0.0747 0.57227,0.48339 0.917,0.47168 0.20898,0.58056 1.37695,0.67431 0.80468,1.48584 -0.15039,0.21484 0.10938,0.29443 0.26758,0.31298 -0.20703,0.71631 -0.97461,1.06592 -1.49609,1.52491 -0.27735,0.24365 -1.29102,0.27539 -1.65039,-0.15723 m -19.02295,-34.05566 c -0.58936,-0.85743 -0.33448,-1.54395 -0.17432,-2.81543 0.0312,-0.24121 0.52149,-0.44532 0.73096,-0.5459 1.01904,-0.4961 1.92334,-0.0371 2.33154,0.65722 0.11084,0.18946 0.23193,0.57325 0.0933,0.88184 -0.10888,0.24219 0.0298,0.47949 0.25635,0.50195 -0.41113,0.57715 -0.92236,0.99414 -1.59131,1.40918 -0.35498,0.22071 -1.46191,0.17969 -1.64648,-0.0889 m 37.90185,-14.46485 c -0.55664,-0.0107 -0.69824,-0.67383 -0.78027,-0.83008 -0.40332,-0.77441 -0.39746,-1.35254 -0.1377,-1.84765 0.40332,-0.77246 1.53907,-0.83399 2.47657,-0.56153 0.80078,-0.17382 1.30273,0.8584 1.22656,1.79883 -0.38379,0.86524 -1.47363,1.46973 -2.78516,1.44043 m -16.35351,15.70996 c -0.39649,-0.125 -0.96485,-0.26367 -1.05176,-0.55273 -0.42285,-1.4375 0.24902,-2.8457 0.90723,-3.21387 1.5664,-0.0342 2.09082,0.80762 2.35156,1.83399 0.0332,0.13281 0.10937,0.57226 -0.0205,0.81445 -0.19238,0.35937 -0.48926,0.68457 -0.84863,0.91601 -0.41211,0.26172 -0.96875,0.31934 -1.33789,0.20215 m 39.67675,-44.7832 c -0.0166,-0.0498 -0.10644,-0.18457 -0.10058,-0.30664 0.14258,-2.69922 1.48242,-4.4834 2.73633,-6.2207 0.28027,1.4082 0.0566,2.81933 -0.16797,4.11621 -0.10352,0.59375 -0.50977,0.96386 -0.72266,1.51758 -0.0527,0.13867 0.041,0.51562 -0.30469,0.5498 -0.48046,0.05078 -0.79492,0.57227 -1.21972,0.8252 -0.19043,0.11035 -0.16992,-0.32911 -0.22071,-0.48145 m -50.54589,59.52051 c -0.21289,-0.15137 -0.47071,-0.19043 -0.64649,-0.34766 -0.27539,-0.24902 -0.34179,-0.6875 -0.4375,-1.18359 -0.0527,-0.28028 0.60645,-0.19727 0.60547,-0.69434 -0.002,-0.50781 0.43945,-0.86035 0.96484,-1.00586 0.46192,-0.1289 1.16797,0.14942 1.38184,0.44043 0.39648,0.53711 0.79883,1.33594 0.77051,2.0293 -0.44727,0.7959 -1.23633,1.12793 -2.16504,1.0625 -0.27832,-0.0195 -0.66113,0.0537 -0.47363,-0.30078 m 39.68359,45.8042 c 0.0898,-0.0884 0.24902,-0.21143 0.28125,-0.26416 0.67383,-1.12207 1.18164,-2.42432 1.46191,-3.93946 0.30567,-0.0268 1.37207,-0.019 1.72754,-0.15234 0.5166,-0.19336 0.51758,-1.1001 0.59571,-1.81494 0.98828,3.3999 -1.51661,5.42676 -4.06641,6.1709 m -14.24414,-48.07959 c 0.01,0 -0.0713,-0.0723 -0.0791,-0.10742 -0.25098,-0.9375 -0.52246,-2.06446 -0.40137,-3.1836 0.85547,-0.24609 1.67774,-0.18945 2.49414,-0.0615 0.0781,1.15625 0.43164,1.94824 0.3418,3.19922 -0.75293,0.21777 -1.45117,0.27636 -2.35547,0.15332 m -24.3086,-14.48143 c -0.52832,0.0615 -0.7959,-0.4375 -1.15625,-0.66894 -0.34375,-0.21875 -0.2461,-0.53614 0.26171,-0.23243 -0.49609,-0.74902 -0.14062,-1.50293 0.32618,-2.03418 0.24023,-0.27343 0.77929,-0.38085 1.30664,-0.38378 0.2207,0.3789 0.79199,0.65332 1.05468,0.56445 0.73438,0.95898 0.13184,2.30078 -0.64062,2.73437 -0.19141,0.10743 -0.91992,-0.008 -1.15234,0.0205 m 21.29687,54.74072 c -0.23437,-0.23388 -0.48242,-0.43798 -0.5625,-0.50878 -1.49219,-1.29541 -2.49902,-3.22364 -2.81445,-5.59766 -0.0381,-0.28613 0.0264,-0.49561 0.28906,-0.35938 0.7832,0.40967 1.3418,1.10303 2.05859,1.89112 0.18067,1.33008 0.75391,2.87011 1.0293,4.5747 M 72.02588,79.08301 c 0,-0.03906 0.01318,-0.17285 0,-0.12403 0.42725,-1.50976 1.10644,-2.76367 2.05957,-3.68066 0.83252,0.84082 1.55078,1.92969 1.79541,3.0625 -0.54492,0.02539 -0.99951,-0.15723 -1.33496,0.18164 -0.04004,0.04102 -0.04834,0.45117 -0.07861,0.63281 l -2.44141,-0.07226 m 114.08545,57.15039 c -0.21973,-1.12891 0.12988,-2.28613 0.0195,-3.45899 0.78516,-0.042 1.6709,0 2.23535,0.35254 0.21582,0.13477 0.0791,1.40137 0.11426,1.7461 0.0488,0.49121 0.19336,1.55957 -0.17578,1.52441 l -2.19336,-0.16406 m 22.92578,-51.30176 c -1.28711,-0.25781 -2.23242,-0.79785 -3.00977,-1.56738 0.0283,-0.01172 0.33204,-0.12988 0.27637,-0.125 2.47559,-0.20117 4.61035,-0.02051 6.33887,0.70703 -1.01856,0.69434 -1.98242,1.30859 -3.60547,0.98535 m -91.94482,29.03125 c -0.6001,-0.0957 -1.15381,-0.33789 -1.32032,-0.86035 -0.0913,-0.28516 -0.18115,-0.66992 -0.12402,-0.93555 0.0996,-0.45801 0.28857,-0.97461 0.59668,-1.15136 0.52441,-0.30567 1.12549,-0.21583 1.6875,-0.11426 0.36816,0.0664 0.32275,0.68457 0.78906,0.80566 -0.0117,0.5293 0.13721,1.18555 -0.0737,1.44336 -0.4707,0.57324 -1.1123,0.88281 -1.55517,0.8125 m 65.30712,22.32715 c -0.10058,-0.0576 -0.15722,-0.34277 -0.16699,-0.41699 -0.1416,-0.92969 -0.35644,-1.90528 -0.32129,-2.9375 0.76075,-0.13282 1.52051,-0.22071 2.292,-0.008 l 0.0146,3.43946 c -0.63769,-0.0107 -1.39746,0.16797 -1.81836,-0.0771 m 17.61622,2.13867 c 0.14941,-0.29687 0.49023,-0.92187 0.58105,-1.1416 0.45117,-1.09375 0.8291,-2.15039 1.70508,-2.7793 0.42578,-0.31054 1.43652,-0.16992 1.86621,0.0117 -0.72852,1.09766 -1.46289,2.0918 -2.21484,3.07324 -0.36133,0.47559 -1.16407,1.04004 -1.9375,0.83594 M 78.521,85.68945 c -0.99268,-0.125 -1.90723,-0.7373 -2.81202,-0.92578 l 1.63623,-1.6914 1.00831,0.50293 c 0.3164,-0.31055 0.60107,-0.6504 0.97265,-0.91016 l 0.13379,3.06348 c -0.28467,0.03515 -0.5249,0.01171 -0.93896,-0.03907 m 99.78759,50.27442 c -0.0781,-0.0312 -0.16796,-0.32324 -0.16211,-0.40137 0.0723,-0.94531 -0.12011,-1.82617 -0.19433,-2.61914 0.72656,-0.19824 1.46777,-0.27441 2.10058,-0.043 -0.005,0.94336 0.48829,1.85352 0.35743,2.8418 -0.58887,0.32812 -1.50782,0.46191 -2.10157,0.22168 m 9.08594,15.83252 c 0.47559,-1.18994 1.24219,-2.44092 2.12793,-3.43897 0.77539,0.9126 1.18262,2.05127 0.95117,3.37158 -0.88672,-0.19384 -1.6875,-0.0649 -2.36816,0.0977 -0.2793,0.0654 -0.89258,0.42285 -0.71094,-0.0303 M 141.22949,72.83691 c -0.19287,-0.04394 -0.41357,-0.82031 -0.49267,-1.00781 -0.1167,-0.28222 -0.31787,-0.84082 0.0234,-0.89551 1.042,-0.17285 2.24366,-0.23828 3.37061,-0.32714 0.16211,0.6455 -0.17969,1.33496 -0.61328,1.63867 -0.55908,0.39551 -1.43848,0.78613 -2.28809,0.59179 M 74.35547,83.25098 c -0.98242,-0.68946 -1.74658,-1.4541 -2.53418,-2.17871 1.2749,-0.05664 2.4834,0.0098 3.57617,0.15722 0.38428,0.05371 0.99756,-0.04394 1.13672,0.42481 -0.73291,0.50879 -1.46045,1.25879 -2.17871,1.59668 M 68.24658,82.6582 c -0.0098,-0.07715 -0.16699,-0.13476 -0.15967,-0.24804 l 1.38282,0.30957 c 0.0049,-0.35938 -0.08741,-0.92188 0.06884,-1.06836 0.771,0.29004 1.19922,0.9873 1.72315,1.44824 0.17578,0.15723 0.20459,0.45019 -0.0024,0.57422 -0.85596,0.51562 -2.03369,0.63086 -3.0127,0.9834 0,-0.37696 0.04688,-1.59375 0,-1.99903 m 101.7378,53.57032 c -0.1211,-1.0918 -0.29688,-2.15821 -0.33008,-3.31153 0.5625,-0.16894 1.125,-0.18457 1.6875,-0.15429 l 0.16406,3.46582 -1.52148,0 m 8.4707,54.12109 -2.71289,-2.07031 c -0.0547,-0.0405 -0.41211,-0.57325 -0.0117,-0.45655 0.9873,0.28907 2.02539,-0.0493 3.20508,-0.0674 0.10742,0.96533 0.14843,1.80957 0.0996,2.7583 -0.20801,-0.0312 -0.47266,-0.0757 -0.58008,-0.16406 M 96.74854,169.33936 c -0.07325,-0.0669 -0.26416,-0.31202 -0.34717,-0.31934 -0.82666,-0.0762 -1.23535,-0.68164 -1.80811,-1.01172 -0.21728,-0.12402 -0.05664,-0.45361 -0.03711,-0.59326 0.08838,-0.64111 0.70362,-0.75098 1.39502,-1.02637 0.09815,-0.0395 0.29004,0.36817 0.72949,0.40723 0.4585,0.0405 0.52539,0.69433 0.57764,1.12012 0.05322,0.43603 -0.28516,0.96093 -0.50976,1.42334 m 55.82568,14.01513 c -1.12305,-0.5581 -1.77344,-1.64258 -2.54785,-2.47461 0.47656,-0.44873 0.98926,-1.0664 1.62402,-1.16797 0.5918,0.87696 0.99805,1.93164 1.04297,3.22413 0.21289,0.104 0.32617,0.63916 -0.11914,0.41845 m 40.1543,-100.70801 c 0,-0.14062 -0.006,-0.32324 0,-0.33984 0.24511,-0.76269 0.75586,-1.375 1.04687,-1.90918 0.14844,-0.27148 0.24805,-0.57422 0.5293,-0.45117 0.71484,0.31445 1.31445,0.89062 1.6875,1.62793 -0.92481,0.37891 -2.12793,0.86816 -3.26367,1.07226 m -2.41993,52.98243 c -0.3125,-0.7461 -0.24218,-1.60938 -0.20312,-2.5625 0.55859,0.0127 1.21289,-0.0947 1.76465,0.10547 -0.0322,0.88671 -0.17676,1.76953 -0.11621,2.73632 -0.25293,0.0293 -0.9795,0.11426 -1.23047,0.16993 -0.22852,0.0498 -0.15235,-0.30079 -0.21485,-0.44922 m -11.80273,29.90869 c -0.26953,-0.3291 -0.65234,-0.43604 -0.61719,-0.55371 0.40821,-1.3667 1.27735,-2.35352 2.29199,-3.04493 0.29981,0.34034 0.83692,0.67676 0.71582,0.81446 l -2.39062,2.78418 m 13.68555,-0.37012 c -0.0215,-0.0269 -0.1543,-0.12793 -0.16309,-0.19092 l -0.2959,-2.17627 c 0.40528,-0.22656 0.25977,-0.60986 0.47656,-0.98291 0.20508,-0.34912 0.50684,-0.0381 0.78516,0.34229 0.32129,0.43945 0.32031,1.3706 0.34082,2.4209 0.009,0.44726 -0.72949,0.40234 -1.14355,0.58691 m -6.14844,0.55322 c 0.15625,-1.13769 0.48828,-2.32959 1.14844,-3.01074 0.4375,0.59717 0.84961,1.19775 0.78711,1.68311 -0.0703,0.5581 -0.0918,1.10254 -0.42383,1.45556 -0.50391,-0.24463 -1.04883,-0.11377 -1.51172,-0.12793 m -6.54395,12.90528 c -0.0283,-0.0322 -0.1123,-0.13868 -0.11132,-0.12842 -0.17774,-1.30371 0.32128,-2.27295 0.97656,-2.7461 0.61426,0.63672 0.93066,1.41211 0.62988,2.72413 -0.0644,0.27929 -0.95215,-0.0376 -1.49512,0.15039 m 20.18262,-26.97901 c -0.0469,-0.0459 -0.16211,-0.22558 -0.2793,-0.27978 -0.67285,-0.30567 -1.46875,-0.55176 -2.06445,-0.96582 -0.16211,-0.1128 0,-1.19336 0,-1.4668 0.20117,0.006 0.41211,0.0644 0.60352,0.082 1.22656,0.11035 2.07617,1.33887 1.74023,2.63037 m -1.43457,13.22315 c -0.11816,-0.0283 -0.48535,-0.0571 -0.50488,-0.0596 0.0928,-0.88916 0.0137,-1.94971 0.27832,-2.67676 0.5459,0.11328 1.05371,0.36523 1.25293,0.81445 0.33008,0.74463 0.0332,1.48682 -0.18848,2.16602 -0.25098,0.005 -0.53711,-0.17237 -0.83789,-0.24414 M 76.56006,93.41406 c 0,0.0049 0.03515,-0.07031 0,0.01074 0.47412,-1.12988 1.81152,-1.82421 3.29053,-1.35253 -0.04541,0.55078 -0.70362,0.8164 -0.61768,1.36425 -0.854,0.20899 -1.77783,0.13965 -2.67285,-0.02246 m 118.14111,6.46387 c -0.5,-0.62988 -0.87109,-1.47168 -1.15527,-2.36914 1.34277,0.55762 2.48926,1.33301 3.61621,2.1123 -0.85156,0.17383 -1.61523,0.1709 -2.46094,0.25684 m -9.36914,6.96582 c -0.72851,-0.60352 -1.85351,-0.87012 -2.69336,-1.17187 0.57617,-0.76465 1.39258,-0.99317 1.89844,-1.62598 0.38184,0.56738 0.73242,1.84277 0.79492,2.79785 M 104.54346,74.58594 c -0.40186,-0.18067 -1.28565,-0.19336 -1.12158,-0.39258 0.56689,-0.68457 1.35253,-0.98535 2.16748,-1.31445 -0.0591,0.70214 0.0605,1.33105 0.19189,1.98828 -0.46289,0.01074 -0.87207,-0.11621 -1.23779,-0.28125 m 98.46826,3.29492 c 0.0254,-0.0918 0.13867,-0.36231 0.15234,-0.54199 0.0127,-0.14356 0.0801,-0.54297 0.39551,-0.31739 0.41113,0.29493 0.91992,0.48731 1.35156,0.76368 0.24707,0.15625 0.33008,0.6582 0.0107,0.7041 -0.64161,0.08496 -1.31934,0.12793 -1.98438,0.16797 -0.0195,-0.27637 0.002,-0.53028 0.0742,-0.77637 M 191.6709,95.59473 c -0.6875,-0.27246 -1.40332,-0.40821 -1.80274,-0.59961 0.51465,-0.48633 1.1045,-0.88184 1.75489,-1.0166 0.13965,-0.02735 0.22656,0.25488 0.2207,0.43554 -0.0117,0.39649 0.30371,1.37012 -0.17285,1.18067 m 11.59961,-13.99317 -1.54199,-0.77051 c 0.62402,-0.37695 1.72851,-0.70312 2.59082,-0.63085 -0.27637,0.60253 -0.76075,1.04003 -1.04883,1.40136 m -22.80762,84.21973 c 0.32227,-0.22119 0.47266,-0.47363 0.38867,-0.75195 0.57032,-0.31836 0.70215,-1.00586 1.22657,-1.39698 0.31445,0.43311 0.0156,1.22559 -0.2461,1.72559 -0.25,0.47851 -0.95605,0.37695 -1.36914,0.42334 z"
       style="fill:#c4161d;fill-opacity:1;fill-rule:nonzero;stroke:none"
       id="path3490"
       inkscape:connector-curvature="0" /></g></svg>