<?xml version="1.0" encoding="UTF-8" standalone="no"?>
<!-- Created with Inkscape (http://www.inkscape.org/) -->

<svg
   xmlns:dc="http://purl.org/dc/elements/1.1/"
   xmlns:cc="http://creativecommons.org/ns#"
   xmlns:rdf="http://www.w3.org/1999/02/22-rdf-syntax-ns#"
   xmlns:svg="http://www.w3.org/2000/svg"
   xmlns="http://www.w3.org/2000/svg"
   xmlns:sodipodi="http://sodipodi.sourceforge.net/DTD/sodipodi-0.dtd"
   xmlns:inkscape="http://www.inkscape.org/namespaces/inkscape"
   id="svg3456"
   version="1.1"
   inkscape:version="0.91 r13725"
   xml:space="preserve"
   width="354.33105"
   height="354.33105"
   viewBox="0 0 354.33105 354.33105"
   sodipodi:docname="30_of_the_classical_papercut_pattern_vector_24.ai.svg"><metadata
     id="metadata3462"><rdf:RDF><cc:Work
         rdf:about=""><dc:format>image/svg+xml</dc:format><dc:type
           rdf:resource="http://purl.org/dc/dcmitype/StillImage" /><dc:title></dc:title></cc:Work></rdf:RDF></metadata><defs
     id="defs3460" /><sodipodi:namedview
     pagecolor="#ffffff"
     bordercolor="#666666"
     borderopacity="1"
     objecttolerance="10"
     gridtolerance="10"
     guidetolerance="10"
     inkscape:pageopacity="0"
     inkscape:pageshadow="2"
     inkscape:window-width="718"
     inkscape:window-height="480"
     id="namedview3458"
     showgrid="false"
     inkscape:zoom="0.66604379"
     inkscape:cx="177.16553"
     inkscape:cy="177.16553"
     inkscape:window-x="0"
     inkscape:window-y="0"
     inkscape:window-maximized="0"
     inkscape:current-layer="g3464" /><g
     id="g3464"
     inkscape:groupmode="layer"
     inkscape:label="30_of_the_classical_papercut_pattern_vector_24"
     transform="matrix(1.25,0,0,-1.25,0,354.33105)"><path
       d="m 160.56641,223.99512 c 0.20507,0.54834 0.82422,0.21484 1.11718,0.0786 4.6543,-2.1543 8.03907,-5.64648 10.65528,-9.83398 0.13476,-0.21436 0.36621,-0.37354 0.50488,-0.70411 3.5,0.80469 7.25391,0.71241 11.16992,0.38233 0.26172,-0.022 0.30469,-0.37744 0.24219,-0.59326 l -2.16602,-7.66504 c 0.92774,-0.71289 2.29102,-1.14014 3.08204,-1.94043 -0.81641,-1.21387 -1.46094,-2.34668 -2.05274,-3.62451 1.11914,-0.62256 2.57617,-1.05225 3.40039,-2.13672 -0.62988,-1.57569 -1.76562,-2.80664 -2.88672,-3.94434 2.08203,-2.0083 3.45703,-4.71435 3.97071,-7.60644 0.16796,-0.94434 1.22656,-1.63477 1.62793,-1.58399 0.93164,0.11914 1.76464,0.36719 2.68066,0.84131 -1.66797,2.69873 -3.24414,5.47559 -3.51172,9.45215 -0.10742,1.62109 -0.32324,3.14648 -0.55469,4.74072 2.38282,-0.35596 4.36524,-0.97803 6.52539,-1.22265 1.21778,-0.1377 2.28907,-0.14209 3.19141,0.0566 1.89648,2.53955 4.38086,4.31494 6.86719,6.2583 0.74414,-0.31787 1.25195,-1.09131 1.80566,-1.68164 1.3877,-1.48047 2.4209,-3.34717 4.48047,-4.08594 0.15039,-0.0537 0.24023,0.51123 0.43262,0.11572 7.29004,0.11865 12.51562,-2.11328 16.5664,-5.60596 -1.82226,-2.95556 -3.90234,-5.64794 -6.66796,-7.93847 1.0332,-1.21143 2.17871,-2.45996 2.69824,-4.00586 0.23144,-0.69043 1.01562,-1.52881 0.71289,-2.09473 -2.29395,-2.18506 -4.625,-3.75195 -7.26074,-5.18359 0.30957,-1.22901 0.9541,-2.1543 1.06445,-3.44043 0.0801,-0.91602 -0.1543,-1.77393 -0.25977,-2.86231 -1.98828,-0.20361 -4.33007,-0.48974 -5.88086,-1.20507 -0.42773,-3.16016 -1.5332,-5.58008 -2.67285,-8.26709 0.78223,-4.44776 2.62598,-7.86817 5.78614,-10.2378 0.90136,0.53223 1.58593,1.45117 2.38281,2.06739 0.96972,0.75048 2.23242,1.28515 3.98633,1.42334 0.70703,-0.1753 1.53515,-0.24122 2.25976,-0.56495 2.2002,-0.98388 3.32031,-4.48437 2.06641,-7.16601 -1.07617,-2.30322 -3.54102,-3.86768 -6.96582,-3.27979 -0.9336,0.15967 -1.70899,0.67286 -2.49317,1.04004 -0.42187,0.19727 -0.66015,-0.3457 -0.77539,-0.62207 -0.65039,-1.54004 -1.88476,-3.19629 -4.04101,-2.96386 -1.76856,0.1914 -2.99414,1.29687 -4.14258,2.12597 l -2.11524,-2.49414 c 0.65625,-1.38965 1.04297,-3 1.39844,-4.82031 0.0508,-0.25488 0.54883,0.04 0.72363,0.2041 1.6045,1.50684 3.75879,2.38281 6.26954,2.99609 1.05371,0.25782 2.19629,0.42774 3.34472,0.54102 l 2.96973,0.01 c 0.56055,-2.08008 0.33496,-4.86231 -0.17285,-6.94532 -0.15039,-0.008 -0.26367,-0.23047 0.0234,-0.32031 -0.1875,-0.41406 0.008,-0.85449 0.0918,-1.28125 0.98633,0.11914 2.02344,0.36133 3.05957,0.25293 1.61231,-0.16797 3.02051,-0.71289 4.34473,-1.2998 0.40234,-0.17872 0.4209,-0.77344 0.26758,-1.1377 -1.40528,-3.32617 -2.76172,-6.58301 -5.57227,-8.58691 0.74414,-1.71387 1.32617,-3.63672 1.83594,-4.92774 -0.0264,-1.91113 0.0566,-3.18066 -0.23535,-4.15039 -0.65723,-0.6582 -0.91114,-1.47851 -1.39551,-2.23047 1.24219,-1.20312 2.27637,-2.59961 2.83984,-4.38867 1.03321,-3.28906 -0.77636,-6.02832 -3.34765,-6.90234 -0.51953,-0.39844 -0.31055,-1.35547 -0.21875,-2.23926 0.27734,-2.72754 -0.9834,-4.69531 -2.85547,-5.46192 -0.50391,-0.20507 0.0625,-0.66015 0.2539,-0.87695 0.98047,-1.10742 1.9668,-2.23926 2.6504,-3.67578 0.0986,-0.7207 0.47265,-1.49512 0.40234,-2.34082 -0.084,-1.00098 0.0898,-2.41113 -0.32813,-3.27051 -0.33789,-0.69726 -0.95214,-1.20312 -1.47851,-1.68359 -1.19629,-1.0918 -3.67578,-1.33594 -5.79492,-0.68848 -0.62305,-2.57715 -1.9043,-4.40625 -4.00977,-5.37012 -1.65039,-0.75585 -4.14941,-1 -5.97851,-0.26757 -2.09375,1.49121 -3.52735,4.77539 -2.70606,8.16797 0.0439,0.18359 -0.15723,0.39843 -0.21191,0.52636 -1.06641,-0.27148 -2.4668,-0.71386 -3.91797,-0.7998 -1.00586,-0.94434 -2.44434,-2.01074 -3.8711,-3.22461 0.57227,-3.15625 -0.25,-5.9375 -1.17578,-8.45899 -3.72265,0.1875 -6.47656,1.67188 -9.38476,2.94922 -1.4502,0.6377 -2.82032,1.51563 -4.26758,2.21582 -0.44629,0.21582 -0.8418,-0.48633 -1.17383,-0.79394 -2.20117,-2.04297 -4.38867,-4.16406 -7.49707,-5.24024 -1.80469,2.50586 -3.34473,5.40235 -3.25098,9.51465 -0.71191,0.20801 -1.37402,-0.0049 -2.1289,-0.08203 -0.0303,-0.76074 0.36328,-1.79394 0.56933,-2.55469 0.79004,-2.91601 -0.50293,-5.62597 -2.79785,-6.30175 -0.86914,-0.25684 -1.88379,-0.24415 -2.33984,-0.86622 l 0.11133,-2.2998 c -0.45508,-0.20508 -1.06055,-0.3125 -1.83008,-0.23242 -0.0469,1.26269 -0.0742,2.75781 -0.29688,3.93066 0.15625,0.97754 -0.20117,2.01856 -0.21679,3.12598 -0.11133,0.02637 -0.46094,0.16601 -0.14942,0.29492 0.041,0.87109 -0.0703,1.65625 -0.17285,2.40039 -0.0547,0.41504 -0.51172,0.03809 -0.50195,0.06152 -0.77344,-1.8291 -2.85059,-3.24707 -4.99414,-2.37988 l -5.13282,2.81641 c -0.458,0.25488 -0.46777,-0.56641 -0.49804,-0.84278 -0.22071,-2.08593 -1.18653,-3.40136 -1.97852,-4.75781 -2.96142,0.7207 -5.74853,1.52051 -7.88135,3.0459 -0.0908,0.06445 -0.38427,0.11133 -0.52539,-0.11328 -0.55175,-0.875 -0.5874,-1.90918 -1.28076,-2.9043 -2.60742,-2.13281 -5.6289,-4.05273 -8.89355,-5.75976 l -1.48194,1.98242 c -0.49267,-0.51953 -1.36377,-1.36914 -2.24365,-0.68555 -1.54541,0.5459 -2.83398,1.41797 -3.5918,2.7793 -1.375,-0.66992 -2.48828,0.21387 -3.39843,0.86914 -0.31397,0.22558 -1.10157,1.10937 -1.40088,1.41601 0.0649,0.2168 -0.002,0.46485 -0.17334,0.53809 -0.72022,0.30957 -0.70117,1.08106 -0.70801,1.65527 -0.002,0.20606 -0.13525,0.81348 -0.19873,1.23829 -0.51465,-1.36329 -0.95313,-2.89454 -1.70898,-4.03711 -0.86573,-0.67383 -1.72461,-1.61036 -2.77686,-2.64747 0.11377,-2.69238 -1.29395,-4.6455 -3.33447,-5.42285 -2.65918,-1.01269 -4.91748,0.70703 -5.98047,2.25977 -0.65772,0.95703 -1.11084,2.35937 -1.42774,3.5957 -0.06298,0.2461 -0.86767,0.10156 -1.20947,0.26563 -1.1831,0.5664 -2.43017,1.09863 -3.40283,1.71289 -1.46631,-1.29981 -4.13525,-2.31055 -6.54492,-1.39844 -0.77295,0.29102 -1.28076,1.03516 -2.08106,1.61719 -1.24414,2.05078 -1.14843,5.60742 -0.45654,8.39062 0.07373,0.29492 -0.23584,0.39453 -0.47998,0.54883 -1.13135,0.71484 -2.2915,1.33691 -3.16455,2.375 -1.09668,1.30469 -1.73438,3.80371 -0.79736,5.61328 l 2.05566,2.33399 c -0.91943,2.26172 -0.87451,5.46777 0.31055,7.1914 0.10107,0.14844 0.18164,0.77149 0.28027,1.05469 C 80.4707,95.22266 76.854,94.91797 75,93.88672 73.90771,93.2793 72.6626,92.86719 71.24268,92.9082 c -2.40674,0.06934 -5.15528,0.42578 -7.14258,1.39063 -0.2124,0.10351 -0.54199,0.17578 -0.52246,0.25586 1.01757,4.12109 2.05761,8.01562 4.52441,10.66211 -2.13037,0.53711 -4.0376,1.1123 -5.93457,1.78711 0.35303,1.86523 1.3042,3.48047 2.17969,4.82714 0.16553,0.25684 0.1665,0.55567 0.19922,0.58106 l 3.2373,2.48828 c -2.27685,2.83106 -3.58691,6.67188 -5.22803,10.06445 -1.0166,2.10157 -1.98437,4.48829 -2.66796,6.87793 0.02246,1.74707 -0.74805,3.13965 -0.95606,4.60645 -0.4292,3.01562 -1.18506,5.86572 -1.08594,9.32471 l 0.74561,7.79541 c 0.73974,5.06689 2.1709,9.69726 3.86767,13.82324 2.24415,5.45605 6.21875,9.24853 10.44434,12.71338 3.58252,2.93701 7.97217,5.1499 13.08106,6.56592 3.61279,1.00146 7.63378,1.79687 11.75488,2.75878 -1.88623,0.96631 -3.9668,1.67481 -5.28076,2.92579 0.86621,1.57959 1.94921,2.99072 3.42822,4.00927 0.2334,0.16016 0.49805,0.6211 0.15674,0.76758 -1.62256,0.69727 -3.23926,1.65625 -4.42969,3.021 2.31445,2.66357 5.36963,4.72949 9.35742,5.80175 2.96338,0.29053 5.10254,-0.90478 6.47119,-2.45166 0.10694,-0.12011 0.6416,-0.40771 0.66065,0.0928 0.0737,1.98974 1.33496,3.33691 2.83642,4.18017 4.07862,2.2876 11.48291,0.89502 13.73243,-2.12158 0.24609,-0.3291 0.32373,-0.73486 0.18457,-1.01904 -0.94336,-1.92822 -2.20752,-3.57617 -3.85596,-4.80274 -0.19434,-0.14453 -0.58594,-0.37255 -0.32715,-0.65039 0.34521,-0.37158 0.81592,-0.74365 1.47461,-0.89111 0.4707,1.57031 1.26025,2.94678 2.59326,3.83057 2.45508,0.71093 5.55615,-0.32276 6.33399,-2.3667 1.09033,-1.47071 0.65966,-4.1084 0.0889,-5.90918 0.86963,-0.53858 1.69971,-0.97656 2.77539,-1.27149 0.72608,0.78272 1.41407,1.86426 2.24951,2.60498 3.66651,-1.08447 6.57715,-2.89306 9.51417,-4.88134 0.10351,-0.0703 0.38476,-0.18018 0.55078,-0.0337 0.38672,0.34033 0.92871,0.4624 1.36132,0.85937 -0.19531,0.66406 -1.04101,0.92578 -1.51953,1.29297 -0.98632,0.75732 -2.02343,1.43115 -2.91015,2.32959 0.61523,2.4834 2.28711,4.18408 4.13086,5.45703 -0.76758,0.8418 -1.21289,1.81299 -1.74707,2.62451 -0.22559,0.34278 0.30078,0.48682 0.38183,0.53223 1.03906,0.56885 2.53516,0.6831 3.72363,1.13721 -1.21582,2.20947 -2.77734,4.10107 -3.7373,6.43701 -0.0986,0.24218 0.0996,0.39941 0.30762,0.46338 0.84961,0.25976 1.53515,0.84326 2.43652,0.97802 2.02637,0.30274 3.98828,0.82569 6.53125,0.61426 0.9082,4.12647 2.82813,7.40088 4.86133,10.20215 0.25879,0.35547 0.40625,0.56982 0.49219,0.80176 m -55.44239,-37.90625 c -2.29541,-0.78858 -4.0581,-2.07471 -5.86914,-3.30274 -0.21386,-0.1455 -0.32715,0.0957 -0.35498,0.25928 -0.1582,0.93897 0.34815,1.99512 0.19141,2.97705 -0.66748,-0.10351 -1.13233,-0.44092 -1.66406,-0.66308 -2.01221,-0.8418 -3.59522,-2.37745 -4.97901,-4.13379 -0.09033,0.45166 -0.21191,0.90478 -0.23242,1.06543 -0.06201,0.48437 0.2002,1.7622 -0.16211,1.69043 -2.79736,-0.55274 -4.36816,-2.00733 -5.94336,-3.55811 -0.3501,-0.34521 -0.77685,-0.72119 -1.33447,-0.74512 0.021,1.08057 -0.07178,2.0293 -0.28076,2.76465 -1.60254,-0.51318 -2.86866,-1.69922 -3.63428,-2.98877 -0.72266,-1.21777 -1.45264,-2.7998 -2.36133,-3.91943 l -1.00146,2.28711 c -1.29444,-0.70459 -2.35547,-1.50147 -3.03369,-2.59668 -0.83399,-1.34668 -1.30811,-2.98828 -1.91114,-4.60742 -0.41797,0.32617 -0.58008,0.79003 -0.64941,1.00488 -0.12256,0.38086 -0.15869,1.38574 -0.76563,0.82617 -1.66845,-1.53955 -2.53173,-4.22852 -2.52099,-7.04736 0.0029,-0.91065 0.1997,-2.25782 -0.08008,-2.99903 0.15088,0.0112 -0.18213,-0.53955 -0.38379,-0.31005 l -2.04639,2.22021 -0.64453,-2.81689 c -0.14013,-2.44971 -0.04004,-5.27832 0.05225,-7.79883 -1.07861,0.83349 -1.68604,1.89697 -2.48633,2.79052 -0.3125,-1.58984 -0.03125,-3.22021 -0.0293,-4.36376 0.58594,-1.10254 0.81299,-2.34278 1.4253,-3.33497 0.20312,-0.32959 0.62597,-0.91503 0.21045,-1.11132 -0.54932,-0.26026 -1.04102,0.20947 -1.54004,0.40429 -0.26026,-0.34521 -1.00342,-0.27539 -0.97705,-0.44482 0.54003,-3.39649 2.16455,-5.5835 3.57373,-8.18067 -1.03955,0.18653 -2.2627,0.0303 -3.37159,0.2002 -0.1455,0.0215 -0.65234,0.22266 -0.50195,-0.26758 l 0.68848,-2.01562 3.39013,-4.57422 c -0.70166,0.0605 -1.08935,0.27734 -1.50585,0.31055 -0.35743,0.0303 -1.14893,0.10058 -1.06788,-0.12208 1.0669,-2.94433 2.88623,-4.97558 4.86768,-6.95703 -0.26465,-0.31738 -0.76514,-0.22754 -1.18066,-0.35644 -0.20899,-0.0644 -1.09082,0.35742 -0.80079,-0.38672 0.5962,-1.5332 1.79297,-2.35547 3.03223,-3.20703 1.41162,-0.9707 2.87354,-2.02344 4.17725,-3.2832 -0.87891,-0.51368 -1.81494,-0.44434 -2.50293,-1.05665 0.95166,-1.32617 2.37695,-2.33203 3.91064,-3.03906 0.98096,-0.45312 2.09473,-0.79492 3.06787,-1.38867 -0.92334,-0.60742 -1.99218,-0.92187 -2.70263,-1.49805 0.75488,-0.58789 1.38183,-1.05273 2.18261,-1.34961 1.59912,-0.59179 3.80811,-0.80273 5.5459,-1.26367 -9.7e-4,-0.74902 -1.03369,-1.16211 -1.57178,-1.30469 -0.0791,-0.0195 -0.3623,-0.31347 -0.08056,-0.47949 1.98633,-1.17285 4.65967,-1.7334 7.6123,-1.77929 -0.76709,-0.89551 -1.66992,-1.25196 -2.61718,-1.70899 -0.30372,-0.14746 0.28564,-0.44824 0.46386,-0.53125 2.20948,-1.03125 5.63867,-0.94922 8.76367,-1.00098 -0.479,-0.54003 -0.99951,-1.10058 -1.333,-1.63085 2.00976,-0.46387 4.30908,-0.66211 6.49804,-0.61133 0.55225,0.0117 1.67676,0.10644 1.56641,-0.17578 -0.25928,-0.6709 -1.04297,-1.17481 -1.25147,-1.81739 0.78418,0.11621 1.39307,-0.3955 2.07129,-0.44629 2.21045,-0.16015 4.09278,0.44922 6.25391,0.5293 0.0122,-0.47168 -0.27686,-0.79101 -0.36768,-1.19531 l 4.48487,0.30273 c 0.21924,0.01465 -0.14112,-0.52343 -0.0698,-0.80859 2.17676,0.31055 4.24268,0.83691 5.93262,1.57617 0.0859,-0.35742 -0.04,-0.53711 -0.14111,-0.75 -0.19434,-0.41406 -0.92578,-0.96387 -0.56055,-1.05859 1.30615,-0.34375 2.77148,-0.14258 3.7749,0.29004 -0.14453,0.28222 0.27442,0.30468 0.38233,0.37597 0.99658,0.66211 1.87353,1.29688 2.50537,2.14258 0.15381,0.20703 0.60693,0.61524 0.35791,0.68848 -0.97461,0.28222 -1.92236,0.69043 -2.95996,0.84863 0.0254,-0.75977 0.21045,-1.46289 0.18847,-2.32617 -1.36328,1.0332 -2.66406,2.1582 -4.20507,3.12012 -0.21094,0.13183 -0.40528,0.1416 -0.5293,-0.27442 -0.13623,-0.45508 0.0552,-1.79101 -0.46094,-1.1289 -0.74512,0.95703 -1.78857,1.61914 -2.7539,2.4121 -0.2837,0.2334 -0.7876,0.68946 -0.91944,0.4668 -0.37158,-0.62305 -0.68213,-1.2168 -0.73096,-1.82812 -0.23339,-0.0908 -0.61132,-0.0645 -0.44091,0.25879 -0.67432,0.97168 -1.32032,1.93847 -2.03516,2.7705 -0.20264,0.23535 -0.45557,0.2793 -0.72266,0.23438 0.13672,-0.47656 -0.12744,-1.02344 -0.5166,-1.31445 -0.5332,0.66601 -0.85498,1.48242 -1.20947,2.26953 -0.25635,0.57031 -0.56104,1.49023 -1.01953,1.34179 -0.66846,-0.21777 -0.58887,-1.00781 -1.20361,-1.4209 -0.63282,0.73731 -0.70166,1.72266 -0.95899,2.7002 -0.13183,0.50586 -0.008,1.51172 -0.62646,1.4668 -0.52002,-0.0371 -0.86084,-0.5293 -1.33936,-0.74317 -0.0586,1.17871 0.26318,2.29004 0.44873,3.41895 -0.83887,-0.19727 -1.72607,-0.50781 -2.81445,-0.6543 0,0 -0.082,0.26172 -9.8e-4,0.50586 0.26123,0.79297 1.19043,1.63867 1.33252,2.49219 -0.73242,0.25488 -1.3999,0.20117 -2.01172,0.3418 -0.37695,0.0869 -0.18359,0.49609 -0.33349,0.74023 0.93554,1.00586 1.333,2.58008 1.89648,3.95215 -0.51514,0.0576 -1.02393,-0.0576 -1.67236,-0.21582 -0.24903,-0.0605 -0.3877,0.23828 -0.24756,0.52929 0.6206,1.28125 1.46435,2.42286 2.12646,3.6543 0.26514,0.49219 0.32422,1.49414 -0.1333,1.49219 l -2.97607,-0.0156 c 0.0034,0.25196 0.13721,0.45606 0.26269,0.62305 0.73389,0.98047 1.78711,1.75293 2.74805,2.82227 -0.67139,-0.13282 -1.07666,-0.002 -1.58008,0.38183 1.44092,0.78223 2.5835,2.05371 3.65283,3.1416 -0.1958,0.26661 -0.44677,0.36914 -0.69384,0.40137 -0.37403,0.0479 -0.72705,0.41699 -0.7544,0.83887 1.24463,0.71484 2.5044,1.32812 3.93164,1.97461 -0.63574,0.63476 -1.23095,1.30761 -1.70605,2.01855 l 3.0249,-0.0127 c 1.64795,-0.0772 2.82813,0.36133 3.93652,0.89648 -0.21875,0.31055 -0.44873,0.61133 -0.78418,0.72461 -0.29248,0.0996 -0.34912,0.59961 -0.0498,0.63574 1.8501,0.21973 3.23877,0.69922 5.27344,0.7334 -0.0161,0.64209 -0.53516,1.26856 -0.40528,1.82373 2.4917,-1.12695 6.31104,-1.8374 9.3418,-0.73974 -0.26221,0.49462 -0.71045,0.89062 -0.7959,1.39746 0.51758,0.0879 0.97412,-0.17237 1.4209,-0.25391 2.30908,-0.42334 4.77149,0.003 6.23291,0.92383 -0.36816,0.56299 -1.04639,0.58301 -1.1123,1.2251 2.35839,-0.24854 4.10546,0.34082 5.35546,1.0288 0.44483,0.24561 0.85792,0.37549 0.58643,0.65088 -0.48437,0.49073 -1.14893,1.0503 -1.68066,1.97266 2.08105,-0.67041 4.49023,-1.07471 6.15429,0.0137 l -2.88964,2.9419 c 0.73193,-0.13282 1.38232,-0.42041 2.02685,-0.40381 0.54346,0.0156 1.49951,-0.38233 1.49023,0.0268 -0.0142,0.66944 -0.63378,1.15772 -0.95263,1.74561 -1.6377,3.0166 0.29199,6.52441 2.53906,7.71435 1.40234,0.74122 3.16406,1.01026 5.02539,1.12403 0.21973,0.45556 0.62891,1.3081 0.75098,1.60449 0.12012,0.2915 -0.085,0.49707 -0.37696,0.37842 -0.64941,-0.26367 -1.35839,-0.59522 -2.51562,-0.62696 1.08203,1.542 1.87695,3.52002 1.99121,5.57813 -0.61914,-0.0361 -1.23437,-0.22754 -1.65234,0.0161 0.49414,0.69629 0.56054,1.6626 1.03222,2.47315 0.0693,0.11914 -0.0166,1.12549 0.0108,1.44824 0.0361,0.41943 -0.01,1.18945 -0.42774,1.25928 -0.68945,0.11621 -1.12109,-0.36035 -1.64062,-0.65772 -0.19532,0.84424 -0.23047,1.62744 -0.11914,2.40235 0.0312,0.22509 0.0996,1.06347 -0.41895,0.72656 -0.67676,-0.43994 -1.39453,-0.89404 -2.36768,-1.37012 0.16651,1.46875 0.21387,3.59375 -0.26123,4.69971 -0.46582,-0.44287 -0.9248,-0.71533 -1.2417,-1.07617 -0.15527,-0.17725 -0.42138,0.0781 -0.42041,0.0664 l -0.0796,2.77735 c -0.0483,0.90039 -0.72656,1.47705 -1.07373,2.26123 -0.0571,0.12988 -0.43554,0.0517 -0.67236,-0.21094 -0.23584,-0.26074 -0.39258,-0.82666 -0.84961,-1.00684 -0.33398,1.11914 -0.99609,1.90625 -1.58252,3.04102 -0.45312,0.28808 -1.25781,0.43115 -1.91308,0.81445 -0.72608,0.42627 -1.41846,-0.14013 -1.66309,-0.59277 -1.56494,-2.89746 -3.87158,-5.26953 -8.3418,-5.13233 -0.50439,0.0142 -1.77636,-0.17968 -1.70166,0.22803 0.13575,0.74414 0.51416,1.26807 0.7666,1.7876 0.14502,0.29932 0.56006,0.84375 0.0303,1.00928 -1.3999,0.43799 -3.02588,0.21728 -4.46582,-0.0303 -1.7959,-0.30908 -3.09912,-1.2207 -4.98438,-1.57861 -0.16845,-0.0322 -0.33105,0.20703 -0.24707,0.40527 l 1.34033,2.72022 c -3.38476,0.39648 -5.72998,-0.98486 -7.6958,-2.37061 -0.16455,-0.11621 -0.84619,-0.21924 -0.73339,0.11182 l 1.20459,3.65967 -2.91993,0 m 40.34571,-42.71241 c -0.9336,-1.50244 -1.82715,-2.6582 -3.12207,-3.23974 -2.50098,-2.07715 -4.15381,-4.78125 -6.75977,-6.60547 -3.88428,-1.8418 -6.75,-4.76367 -8.40967,-8.76172 -0.58642,-1.41211 -1.17431,-2.64453 -1.62109,-4.22656 -1.87402,-6.62988 -0.98877,-15.30176 2.69775,-19.44824 0.5791,0.13965 1.19287,0.10742 1.79444,0.34277 0.0708,0.0273 0.84863,0.48047 0.50097,-0.0527 -0.31152,-0.48047 -0.47265,-1.00879 -0.80127,-1.40918 -1.01904,-1.24121 -1.30029,-4.03809 0.12061,-5.01758 0.35156,-0.24121 0.91943,-0.71973 1.32519,-0.7041 1.03125,0.04297 1.79297,-0.32032 2.52051,-0.07227 4.30664,-0.12012 8.38281,-0.75781 13.13428,-0.6875 5.36523,0.07813 9.8291,-0.91601 14.39648,-1.67383 0.50196,1.25782 0.31836,2.75391 -0.40429,3.36914 -1.5625,1.33106 -3.47364,2.44727 -6.13379,2.66993 l -4.71387,0.01562 c -0.90137,0.08301 -1.81348,0.18945 -2.59766,0.61523 -0.27539,0.14844 0.29297,0.45508 0.50586,0.53711 4.16016,1.59571 8.14356,3.46289 10.40332,7.40625 0.0264,0.0469 -0.42089,-0.18457 -0.69628,-0.16992 0.208,0.42578 0.72851,0.0937 0.7832,0.50879 0.12012,0.93067 0.39062,1.88184 0.22656,2.79199 -0.82812,4.61328 -3.68945,7.44434 -7.14258,9.46094 -0.73633,0.42969 -1.58593,0.36328 -2.40234,0.69043 -1.49414,0.16309 -2.87012,-0.081 -4.52149,-0.19238 0.33887,0.33008 0.83204,0.87109 1.02832,0.99902 0.10743,0.0693 0.57325,0.044 0.67774,0.10449 2.02637,1.16993 5.78223,0.66602 7.81934,-0.23632 0.10351,-0.0449 0.54101,0.18554 0.68164,0.21093 1.99414,0.35059 3.49023,1.35059 5.04882,2.54102 l 4.89844,6.67187 c 1.38672,1.55078 2.85449,3.23438 5.31445,3.64844 2.29688,0.38672 4.32715,0.92969 6.19629,1.71484 1.06543,0.44727 2.40918,1.22461 2.00684,3.1543 -1.04297,1.71485 -4.56055,2.60205 -7.4668,1.51953 -4.10937,-1.52929 -7.71679,-3.83008 -11.2666,-6.28515 l -2.37402,-0.69141 c 0.17187,0.77344 0.70898,1.4375 0.86816,2.37305 -4.88574,1.74414 -8.40918,5.00195 -11.87207,7.98681 -0.29297,0.25196 -0.66601,0.10645 -0.64355,0.1416 m 17.10449,-0.51025 c 0.30859,0.30811 0.43945,0.59326 0.75976,0.75879 1.69532,0.87549 3.74805,1.91162 5.38575,3.27197 -2.95606,0.40088 -5.51465,-0.10791 -7.53223,-0.89795 0.31055,0.26905 0.59375,0.60987 0.74805,1.1333 -1.96485,0.45069 -3.20313,2.28614 -2.91602,4.71924 0.41699,3.53955 2.57227,5.86377 6.46289,5.82373 3.0459,-0.0312 4.55274,-2.23242 4.94531,-5.13867 1.7129,-0.60449 3.33399,-1.2251 4.75,-2.17773 0.2168,-0.5503 0.62012,-1.21143 0.7793,-1.91993 0.40235,-0.57373 1.29883,-1.0708 2.23633,-0.88964 0.6748,0.13037 0.60156,0.92675 0.60156,1.41845 0,0.90039 -0.77539,1.55469 -1.67187,1.59131 -0.95508,0.0381 -1.16016,1.03906 -1.31153,1.90918 -0.85644,4.93897 -2.86035,8.77588 -6.36914,11.1499 -2.5332,1.71338 -7.77441,2.26612 -11.63965,1.24854 0.12891,0.81885 0.7168,1.13135 1.16211,1.66406 0.21289,0.25537 0.75489,1.01953 0.19727,1.36817 -0.71289,0.4458 -1.52148,1.25341 -2.5918,1.37304 -1.43164,0.16016 -2.41992,-0.21875 -2.96679,-1.25439 -0.34961,-0.004 -0.34961,-0.21143 0,-0.21533 -0.10743,-0.15674 -0.36329,-0.11133 -0.57227,-0.11377 0.36328,-0.22901 0.17383,-0.69385 -0.14062,-0.8501 l 0.0352,-2.35645 c -0.94922,-1.25683 -2.18652,-2.61621 -2.79785,-4.46972 0.98437,-0.49854 1.71582,-1.29492 2.47363,-2.2666 -2.02441,0.52734 -3.83984,1.35253 -6.20898,1.2539 -0.73242,-0.0303 -1.45703,-0.39111 -2.0625,-0.84082 -0.13867,-0.10254 -0.23438,-0.29199 0.0322,-0.34765 1.68653,-0.34864 3.11524,0.0859 4.77442,-0.18213 0.25,-0.0405 1.18555,-0.2334 0.7959,-0.44825 l -2.81543,-1.55175 c 0.0801,-0.42432 0.17969,-1.54151 0.35547,-1.86182 0.13574,-0.24854 -0.11524,-0.40283 -0.27246,-0.26221 -0.64942,0.58399 -1.08985,1.41651 -1.6836,2.021 -1.17285,-0.0483 -2.23926,-0.10498 -3.14844,-0.28906 0.25586,-0.75586 -0.22753,-1.80664 0.25879,-2.33643 0.35791,-0.38818 0.36573,-1.03809 0.55078,-1.16846 1.1709,-0.82812 1.95313,-1.84228 2.38184,-3.06347 1.61328,-4.59326 4.77051,-7.8628 9.31152,-9.89112 1.47657,-1.35937 5.00196,-2.00586 7.74317,-0.60058 0.15137,0.0791 0.72949,0.19726 1.12402,0.51953 1.38379,1.13184 2.94141,2.17773 4.79199,2.73096 1.48536,0.44336 2.84278,0.99511 4.71387,0.88525 0.57422,0.75146 1.02734,1.44971 1.41211,2.38574 -0.16797,0.77588 -0.51758,1.33692 -1.1377,1.9917 -0.65527,-0.18115 -1.37792,-0.21631 -2.17089,-0.29492 -2.52344,-1.43213 -5.45899,-2.50293 -8.77344,-3.52881 m 28.07519,-29.37793 c -0.0517,-0.83594 -0.14453,-1.6709 -0.31836,-2.42383 0.82325,-0.57031 1.44727,-1.39062 2.32911,-2.08203 -2.61328,-2.28125 -5.98047,-3.95898 -9.6045,-5.1875 0,-0.47265 -0.085,-1.58691 0,-1.94531 0.0742,-0.31543 0.32032,-0.63477 0.33594,-0.95898 0.0312,-0.7129 0.78613,-1.12012 1.54102,-1.13672 0.75879,0.47363 1.46777,1.3457 1.14746,2.60742 -0.0899,0.35742 0.47656,0.22265 0.69726,0.12988 0.28809,-0.12012 0.66211,-0.41992 0.79102,-0.68457 1.04687,-2.1543 -0.61133,-3.66894 -2.21094,-4.41797 0.97949,-0.64453 1.8125,-0.98047 2.6211,-1.41797 0.51855,0.71289 0.90625,1.49317 1.44726,2.45996 0.22656,0.40625 -0.54297,0.79981 -0.58203,1.55176 -0.11328,2.2461 1.42188,3.80078 2.75781,4.90332 1.00879,0.83203 2.66797,1.0791 3.94043,1.60449 0.003,0.6875 -0.44043,1.19336 -0.45019,2.04883 -0.0303,2.65918 -1.96485,4.34961 -4.44239,4.94922 m 5.55176,57.64209 c -1.2539,-0.26953 -1.875,-1.21728 -3.01367,-2.11914 0.0176,0.0142 -0.43555,-0.98535 -0.49023,-1.42432 -0.0293,-0.24072 -0.17383,-0.47509 -0.4961,-0.32568 l 0.27735,-2.37158 c 0.0137,-0.12354 0.41992,-0.21387 0.51953,-0.41553 0.90136,-1.8208 3.11133,-2.76269 5.51074,-1.94141 0.9082,0.31104 1.45019,1.05225 1.8623,1.40577 0.38477,1.65869 0.7793,3.47168 0.28516,4.84912 -0.58105,1.6167 -2.26562,2.81396 -4.45508,2.34277 m 10.38965,-91.5542 c -0.26074,0.01758 -0.65332,-0.38476 -1.15137,-0.44336 -0.12695,-0.35547 -0.57226,-0.42383 -0.58203,-0.24609 -0.9707,-0.75781 -1.28515,-2.11719 -1.36914,-3.46484 l 0.25195,-2.15918 c 0.50391,-0.79981 1.08204,-1.51661 1.84375,-1.92872 2.14063,-1.15722 5.15723,0.06641 6.06641,1.72754 1.23535,2.25879 -0.18164,5.44043 -2.09961,6.17969 -0.73047,0.61817 -1.66992,0.24512 -2.95996,0.33496 m -13.24707,78.82764 c -0.19922,-0.0527 -0.6543,-0.39697 -1.00586,-0.75879 -0.37891,-0.39014 -0.625,-1.10791 -1.12402,-1.81299 l 0.1748,-2.94775 c 0.002,-0.0347 0.55078,-0.88623 0.71387,-1.18262 0.21387,-0.39062 0.89355,-0.74805 0.75879,-1.19727 0.39062,-0.0879 0.90039,-0.2705 1.09765,-0.77246 0.55469,-0.0674 1.09961,-0.31103 1.64649,-0.30127 1.15625,0.0195 1.9375,0.65284 2.85547,1.04004 -0.0371,0.39698 0.54785,0.67725 0.59375,0.90528 0.20312,1.00341 0.64453,1.84277 0.49219,2.97412 -0.0352,0.26953 -0.32618,0.67187 -0.43067,1.04297 -0.63183,2.21631 -2.86621,3.78076 -5.77246,3.01074 m -1.16211,-10.88233 c -0.52246,-0.0356 -1.10254,-0.15039 -1.42578,-0.29736 -1.80859,-0.8208 -2.32617,-2.5791 -2.15918,-5.09277 0.0283,-0.42725 0.3252,-0.62256 0.34082,-1.07227 0.0518,-1.43799 1.33594,-2.04541 2.76563,-2.09033 0.21972,-0.007 0.6621,-0.69824 0.73828,-0.0391 0.22851,0 0.96093,-0.0713 1.11523,0 1.00488,0.46582 1.68359,1.24804 2.20508,1.78564 1.11133,2.56934 0.20703,5.41504 -1.58984,6.35938 -0.56348,0.29638 -1.27149,0.49609 -1.99024,0.44677 m 9.49414,0.91163 c -0.9541,-0.0698 -1.7168,-0.77247 -2.63086,-1.50782 l -0.92969,-1.94629 c -0.0703,-0.14257 0.0371,-0.97168 0.01,-1.23291 -0.1084,-1.00976 0.20703,-1.86572 0.68555,-2.43261 0.55468,-0.65332 1.26953,-0.24366 1.64746,-1.15332 0.50879,0.17578 1.29785,-0.57422 1.7207,-0.38184 2.08692,0.95361 4.02832,2.71436 3.56934,5.7749 -0.2793,1.86719 -1.78125,3.04737 -4.07227,2.87989 m -4.50098,-9.84327 -1.50488,-2.12109 c -0.24219,-2.19336 0.36524,-3.9209 1.3877,-5.16016 1.18652,-0.71093 2.87988,-1.11718 4.6084,-0.68066 0.11718,0.47559 0.6914,0.40723 1.02343,0.66016 1.8125,1.38183 1.49805,4.55957 -0.0742,6.15625 -0.94726,0.0439 -2.30664,-0.19239 -3.09375,0.22363 l -2.34668,0.92187 m -20.35058,42.44873 c -0.0606,-0.0137 -0.24609,-0.0581 -0.30762,-0.0669 -1.36035,-0.19238 -2.22949,-1.03369 -2.90332,-1.92676 -0.35058,-0.46484 -1.08008,-0.46875 -1.12305,-0.72119 -0.39648,-2.38379 0.75782,-3.65918 2.13868,-4.62109 0.26953,-0.18799 0.9082,-0.33203 1.39453,-0.34326 0.69238,-0.0156 1.75683,-0.12842 1.91211,0.2705 0.86718,2.22364 2.72558,3.76172 4.39258,5.11914 -1.10645,1.63086 -3.1377,2.82325 -5.50391,2.28955 m 16.01953,1.08692 c -0.23926,-0.0371 -0.50977,-0.11182 -0.75781,0.0234 -1.18946,-0.76075 -2.16504,-2.09082 -2.27344,-3.59717 -0.17187,-2.40088 0.57617,-4.15479 2.37402,-4.78321 0.003,0.0112 0.12989,0.28125 0.34961,0.1001 0.25684,-0.2124 0.63086,-0.41211 0.76856,-0.375 1.65625,0.44483 2.64844,1.0918 3.47656,2.63965 0.15234,0.28711 0.16016,0.98828 0.38867,1.7168 0.26367,0.84472 -0.17578,1.66894 -0.44824,2.41308 -0.49121,1.34473 -1.99512,2.15967 -3.87793,1.86231 m 8.46875,-0.69043 c -0.66602,-0.26514 -1.50781,-0.39502 -2.21777,-0.69776 0.31738,-2.62304 0.11816,-4.81005 -0.65137,-6.82666 -0.0879,-0.23242 -0.10352,-0.69189 0.18164,-0.70605 0.79297,-0.0405 1.67285,-0.38184 1.94043,-0.3833 0.93359,-0.005 1.5957,-0.007 2.12012,0.22998 0.97754,0.44434 1.55078,1.22412 2.57226,1.8667 l 0.47754,2.4956 c -0.24512,2.68799 -1.97363,4.3125 -4.42285,4.02149 M 180.33398,95.0791 c -0.74609,0.13184 -1.43554,-0.20019 -2.03125,-0.33301 -4.60742,-1.03125 -8.28418,-3.07617 -11.11132,-6.17578 l 7.17578,-1.73535 c 0.24511,1.42481 0.53418,2.76074 1.29687,3.57617 1.94727,2.08496 4.78711,3.23145 8.3584,3.75684 -0.18652,0.60644 -0.85254,0.09863 -1.09863,0.6582 l -2.58985,0.25293 m 37.84668,9.61426 c -0.73437,-0.24707 -1.18457,-0.92578 -1.99804,-1.58691 -0.94239,-1.46973 -0.20606,-3.26172 0.83691,-4.52735 0.89844,-1.08789 2.29883,-1.67871 4.1582,-1.79004 1.20313,0.67188 2.13868,1.9336 2.69141,3.01172 -0.25684,3.13477 -2.51172,4.86914 -5.68848,4.89258 m -34.52246,72.06543 c -1.38379,-0.35205 -2.04492,-1.28272 -2.61816,-2.29297 -1.09082,-1.91894 -0.1709,-4.40137 1.50098,-5.13965 0.64453,-0.28564 1.375,-0.21435 1.98046,-0.61865 0.29493,0.30371 0.80176,0.30273 0.93946,0.39551 1.00781,0.68213 1.96777,1.15381 1.98437,2.3916 1.05664,2.01855 0.30274,4.52685 -1.19531,5.24316 -0.80664,0.38575 -1.78516,0.22608 -2.5918,0.021 m 12.32618,-47.8252 c -1.38282,-1.65136 -2.64942,-3.17285 -4.42774,-4.14843 -0.0644,-1.31543 0.32617,-2.09668 0.7207,-2.87305 0.56836,-1.12695 1.83594,-2.39648 3.36914,-2.08789 1.71582,0.34766 2.81055,1.77344 3.29395,3.38281 0.21777,2.92285 -0.91895,4.83203 -2.95605,5.72656 m -6.69239,6.27149 c -0.12207,-0.0312 -0.57031,-0.0166 -0.89258,-0.26758 -0.77539,-0.60547 -2.0205,-1.58008 -2.13281,-3.3125 -0.16699,-2.55664 1.66602,-3.75 3.50684,-4.18555 0.95312,-0.22656 2.01758,0.50196 2.65918,0.86133 0.83496,0.46875 0.80566,1.74512 1.17968,2.67578 0.11622,1.86133 -0.82421,3.21485 -1.92285,4.14063 -0.16797,0.14062 -1.16699,0.29883 -1.53027,0.32226 -0.2627,0.0176 -0.56348,-0.1582 -0.86719,-0.23437 m -27.70508,59.71484 -9.09668,-4.52539 c 0.63379,-1.19775 1.32618,-2.5249 1.73731,-3.99951 0.12402,-0.44434 0.52832,-0.30176 0.76562,-0.24219 1.80567,0.45313 3.37012,1.16113 4.63575,2.14063 0.97656,0.75586 1.52832,1.93945 2.13964,2.99316 -0.31152,0.41992 0.19434,0.91651 0.12598,1.44824 -0.0762,0.59131 0.24805,2.21143 -0.30762,2.18506 M 104.16895,74.28711 c -0.0889,-0.32227 -0.4712,-1.23145 -0.61329,-1.52539 -1.24951,-2.57227 0.46485,-5.13672 2.77002,-6.08106 0.4795,-0.03418 1.39795,-0.02929 2.3711,0.18555 0.39599,0.64746 0.50635,1.77344 1.29248,2.39942 0.23486,0.1875 0.20849,1.083 0.14111,1.69335 -0.17822,1.60547 -1.25586,2.25098 -2.32471,3.17188 -0.79492,0.01953 -1.68017,0.18945 -2.55029,0.28711 -0.33154,0.03808 -0.93506,0.4209 -1.08642,-0.13086 m -16.79834,9.48828 c -0.46143,-0.11035 -0.88916,-0.34961 -1.36622,-0.37402 0.0054,-0.65723 -0.0019,-1.33301 0.02686,-1.97461 0.04346,-0.94922 -0.8584,-1.83692 -1.68359,-2.03028 0.02392,0.35254 -0.1875,0.78809 0.20068,0.96387 -0.13721,0.49903 -0.15918,1.08887 -0.37646,1.58301 -0.12354,0.2832 -0.51661,0.77734 -0.75489,0.74219 -0.81201,-0.12207 -1.4751,-0.4961 -2.06982,-0.9961 -0.31348,-0.26367 -0.18604,-1.10937 -0.19531,-1.55175 -0.0078,-0.35938 -0.27637,-1.13184 0.34912,-0.83692 0.1167,-0.76562 0.84277,-1.04101 1.3955,-1.3457 3.03321,-1.66797 7.02247,-0.0586 8.10596,2.39844 -0.92187,1.12109 -1.6831,2.31836 -2.31299,3.67578 -0.48535,-0.01367 -0.90185,-0.15625 -1.31884,-0.25391 m 118.04736,5.46094 c -0.58789,-0.02344 -1.14063,-0.42969 -1.71777,-0.53125 -0.31641,-0.05664 -0.14747,-0.38672 -0.167,-0.625 -0.74121,-0.28516 -1.03808,-1.04883 -1.23144,-1.85156 -0.53223,-2.20215 1.10644,-3.28321 2.53613,-3.95899 l 2.84961,0.14942 c 0.90625,0.79785 1.78711,1.9707 1.91406,3.72168 -0.51758,1.80664 -1.79883,3.19238 -4.18359,3.0957 m -2.08008,81.24902 c -0.22559,-0.009 -0.43555,-0.18701 -0.75293,-0.32324 0.9834,-1.3916 1.75488,-4.11963 0.79785,-6.08106 1.50586,-0.66748 2.91407,-1.40527 4.0586,-2.38085 0.58789,0.74267 1.33593,1.35742 1.40722,2.32763 0.43946,1.12598 0.43653,2.3125 0.003,3.74463 -0.23242,0.19775 -0.51367,0.82422 -0.83203,1.4668 -0.11133,0.22607 -0.3291,0.46728 -0.28125,0.74707 -0.8623,0.019 -1.51367,0.2832 -2.04687,0.60449 l -2.35352,-0.10547 m -17.80664,-4.70459 c -0.30469,-0.0654 -0.46094,-0.53613 -0.76758,-0.79346 -1.19336,-0.99804 -1.49023,-3.80126 -0.28906,-5.54394 0.0625,-0.0884 0.74023,-0.30811 0.95117,-0.93701 0.41992,0.10058 0.94727,-0.04 1.32227,0.0273 0.82226,0.14746 1.69531,0.95703 2.70996,1.35401 1.34179,1.42187 0.6582,4.84033 -1.39746,6.0205 -0.56543,0.12256 -1.52735,0.0899 -2.5293,-0.12744 m -73.0127,-75.54638 c -0.43652,0.0039 -0.87304,-0.1836 -1.32031,-0.11524 -0.75928,0.11719 -0.77539,-0.82226 -1.17285,-1.41406 -0.082,-0.1211 -0.38525,-0.07422 -0.54883,0.03711 -0.0581,-1.10742 -0.20703,-2.08399 -0.10156,-2.65625 0.8916,-1.85742 2.7041,-3.15039 4.91211,-2.49024 0.79883,0.23828 1.11719,1.08985 1.83643,1.58399 0.34326,0.23633 0.19677,1.02148 0.15478,1.5664 -0.15771,2.01172 -1.58691,3.47266 -3.75977,3.48829 m 85.36524,6.24609 c -1.77637,-0.87988 -3.12402,-1.99609 -3.87402,-3.77734 0.17968,-0.45704 0.61718,-1.23829 0.51953,-2.13672 0.13476,0.18066 0.25781,0.32812 0.48633,-0.2295 0.45019,-1.09863 2.03125,-1.43847 3.42871,-1.59179 0.64941,0.44824 1.31347,0.84277 1.76269,1.47461 0.60742,0.85058 0.7793,2.25293 0.79688,3.8125 -1.15821,0.62695 -2.13086,1.75488 -3.12012,2.44824 m 4.15625,64.90332 c -0.0752,-0.15186 -0.15723,-0.35156 -0.18359,-0.3667 -0.65918,-0.39404 -1.35645,-1.1875 -1.91407,-1.55762 1.37207,-1.31054 2.10157,-3.23681 2.29688,-5.77246 0.0225,-0.29638 0.26074,-0.60156 0.59277,-0.58789 2.68164,0.11426 4.03418,1.81543 4.17774,4.40186 0.0176,0.34033 -0.16211,0.39746 -0.20606,0.56445 -0.54394,2.07959 -2.52051,3.15039 -4.76367,3.31836 M 97.61426,73.34961 c -0.26758,-0.06055 -0.56738,0.0049 -0.80615,-0.10645 -0.33545,-0.15722 -0.69971,-0.46972 -1.06641,-0.76855 -0.4668,-0.38086 -0.69336,-1.11133 -1.33203,-1.84375 -0.24805,-0.57031 0.0332,-1.36328 0.14013,-2.33008 0.37793,0.44922 0.46241,-0.19922 0.6001,-0.36719 0.53955,-0.65625 1.1919,-0.88671 1.83545,-1.30566 1.35303,-0.33398 2.90479,0.32715 3.76563,1.24316 0.22656,0.24024 -0.23243,1.3418 0.44531,1.30176 -0.009,0.66504 -0.0293,1.65918 -0.25733,2.35156 -0.40673,1.23145 -1.61328,2.21582 -3.3247,1.8252 m 17.40185,8.07227 c -0.45996,-0.0918 -1.11474,-0.02149 -1.37841,-0.48633 -0.31495,-0.55567 -0.36133,-1.38867 -0.34082,-1.97657 0.0303,-0.89941 -0.16553,-1.71289 -0.50391,-2.2207 -0.51807,-0.77734 -0.98389,-1.82226 -1.5708,-2.43066 0.27929,-0.39551 0.93701,-1.54883 1.11426,-1.58203 1.64795,-0.31446 3.16796,-0.02344 3.88134,0.9375 1.58399,2.13574 1.29932,6.35254 -0.70263,7.78418 -0.19727,0.14062 -0.36328,0.0029 -0.49903,-0.02539 m 12.05762,111.12841 c -0.82568,-0.16211 -1.6001,-0.33252 -2.52685,-0.66699 -0.90723,-0.73047 -1.5542,-2.45166 -1.04981,-4.38476 0.23633,-0.90723 0.93555,-1.76465 2.10498,-1.83838 0.20313,-0.0127 0.95459,1.00732 1.00586,1.30908 0.17676,1.0376 -0.57373,1.7539 -0.88623,2.43555 0.67187,0.10351 1.21582,0.27441 1.75537,0.17285 0.86035,-0.16114 1.4165,-1.08985 1.85938,-1.55176 1.58007,0.21924 2.36377,1.42432 2.36181,2.97119 -0.75586,1.26221 -2.5083,1.96875 -4.62451,1.55322 m 67.99854,-88.07373 c -0.40332,-0.11133 -0.97852,-0.0371 -1.29297,-0.33398 l -1.5586,-1.5332 c -0.45215,-0.49805 -0.63476,-1.11231 -0.59961,-1.78516 0.0234,-0.41113 0.32227,-0.82813 0.47657,-1.14063 0.7373,-1.47461 2.8457,-2.38183 4.94824,-1.39257 0.27246,0.1289 0.37012,0.9082 0.95801,0.92773 0.0527,0.13672 0.16797,0.73438 0.40039,0.29102 0.16699,0.91406 0.20117,1.87304 0.15136,2.90625 -0.41796,0.0547 -0.83691,-0.0606 -1.26855,-0.17383 -0.38477,0.79687 -0.62305,1.62988 -0.98145,2.42578 -0.0967,0.21387 -0.7832,-0.0654 -1.23339,-0.19141 m 9.42968,-7.52929 0.15528,-0.0039 c 0.0303,0.01562 0.0908,0.09375 -0.0303,-0.01563 1.01368,0.91504 1.73243,2.13086 1.49024,3.90821 -0.3584,0.68945 -0.62696,1.66504 -0.89551,2.77929 -1.33691,-0.41503 -2.58984,-1.00195 -4.00098,-1.1289 -0.57031,-0.0527 -0.41211,-1.1582 -0.67968,-1.68164 -0.51172,-0.99805 -0.66895,-2.67774 0.0723,-3.55274 0.62695,-0.74218 2.07031,-0.67871 3.31836,-0.82324 0.14649,-0.0166 0.19922,0.46094 0.57031,0.51856 m 9.70313,-0.002 c 0.60547,-1.63672 0.33008,-3.75976 -0.18164,-4.84082 -0.0312,-1.58691 0.83301,-2.30371 1.93945,-2.61719 1.54297,-0.43652 2.94922,0.21778 3.68652,1.5254 0.0967,0.38476 0.0264,1.1914 -0.0166,2.13183 -0.0273,0.55664 -0.29101,1.51172 -0.77051,1.77149 -0.91894,0.49804 -2.02734,0.70703 -2.82714,1.29785 -0.37012,0.27441 -1.45118,0.98047 -1.83008,0.73144 M 108.14307,83.26172 c -0.0107,-0.04688 -0.0801,-0.16016 0.0601,0.08789 -0.95459,-1.68164 -2.20557,-2.78516 -3.43067,-3.49219 -0.11963,-1.54101 0.5669,-2.8125 1.67481,-3.24316 2.18408,-0.85059 3.65966,0.64941 4.55957,1.91894 0.33593,0.47266 0.58545,1.17481 0.42871,1.62891 -0.1836,0.53027 -0.23535,1.19922 -0.62012,1.48828 -0.73291,0.55274 -1.2583,1.2207 -2.01855,1.66992 -0.20801,0.12305 -0.55372,0.35938 -0.65381,-0.05859 m -7.0835,4.90234 c -0.13086,-0.01269 -0.36572,-0.21386 -0.062,-0.08691 -1.3877,-0.57813 -1.98096,-1.61621 -1.76026,-3.13574 0.18262,-1.25586 1.1377,-2.24805 2.41407,-2.43555 1.82324,-0.92773 3.47265,0.63867 4.27148,2.03516 -0.0117,-0.01954 -0.003,0.75586 -0.0625,1.0039 -0.44678,1.89844 -2.67871,2.81836 -4.80078,2.61914 m 112.1416,-1.16894 c -0.41308,0.01465 -0.89258,-0.35645 -1.45898,-0.39844 0.18457,-0.98828 0.32617,-2.18066 -0.0137,-3.3584 l -1.20704,-1.93262 c 0.56934,-0.54296 1.35157,-1.36425 2.48633,-1.21484 0.2627,0.03418 0.54297,0.17285 0.62891,0.17383 2.02734,0.03223 3.20508,1.66113 3.17383,3.54394 -0.0342,2.01856 -1.61621,3.11036 -3.60938,3.18653 m -5.77734,10.25879 c -0.90625,-0.8418 -1.34766,-1.69434 -1.94531,-2.51953 -0.22364,-0.30665 0.0605,-1.07325 0.33789,-1.58301 0.48437,-0.88965 1.37304,-1.66114 2.79589,-1.64356 0.55176,0.0059 1.15528,0.08985 1.66309,0.35449 1.49414,0.78028 2.37305,3.08497 1.37891,5.11133 0,0 -0.46094,0.13965 -0.60742,0.12403 -1.31836,-0.125 -2.56641,0.13086 -3.62305,0.15625 m 13.18262,52.60791 c -0.51075,0.16797 -1.30372,-0.57911 -1.79004,-0.99073 -0.92969,-0.79004 -2.1211,-2.00341 -1.25782,-4.10449 0.20508,-0.26611 0.75196,-0.76904 1.37793,-1.22461 0.75684,-0.55127 1.79004,-0.16601 2.28711,0.43946 0.59473,0.72363 0.35254,2.17578 0.0645,3.20898 0.35644,-0.0796 0.60742,-0.27734 0.88867,-0.28174 0.37207,-0.006 0.59082,-0.32568 0.70019,-0.61133 0.45801,-0.0273 0.27735,-0.48877 0.3584,-0.65966 0.15528,-0.32911 0.43653,-0.62354 0.72754,-0.72901 0.28711,0.34912 0.3916,0.7793 0.42969,1.17432 0.0703,0.77148 -0.3086,1.43994 -0.3916,2.21924 -0.0264,0.24316 -0.60254,0.86181 -1.0166,0.96875 l -2.37793,0.59082 m -10.40723,-44.60694 c -0.63086,-0.0986 -1.06055,-0.6123 -1.59766,-0.94629 -0.37304,0.21875 -0.54297,-0.32031 -0.44726,-0.48437 -0.82032,-1.00684 -0.66407,-2.89844 -0.18262,-3.41895 0.63184,-0.68261 1.22461,-0.44629 1.38574,-1.18066 0.36035,0 1.56641,-0.09473 2.01563,0 0.51953,0.11035 1.22265,0.48047 1.46679,0.85547 0.52344,0.7959 1.4375,1.91015 0.83496,3.00976 -0.26562,1.44239 -1.65917,2.44922 -3.47558,2.16504 m -24.48731,35.92139 c -1.1914,-0.48242 -2.50781,-0.77295 -4.083,-0.82666 -0.4043,-0.70508 -0.56641,-1.51172 -0.9668,-2.17578 -0.0772,-0.12793 -0.0312,-0.7793 0.26758,-0.22461 0.0879,-0.62695 -0.34571,-1.29492 0.0137,-1.58887 0.83203,-0.68262 1.80078,-1.28027 2.87598,-1.62305 0.30957,-0.0996 1.04004,0.34864 1.41699,0.63184 1.29492,0.9668 2.19531,3.39258 1.13281,5.05274 -0.18652,0.29052 -0.43555,0.84423 -0.65723,0.75439 m -6.3955,24.85937 c -0.44727,-0.65625 -1,-1.24707 -1.6836,-1.84179 -0.84668,-0.3999 -1.96289,-0.80371 -2.94531,-1.15137 0.42383,-1.46924 1.27148,-2.54443 2.44531,-3.4541 0.8125,-0.17676 1.73242,-0.16504 2.67285,0.0181 0.89649,0.70898 1.59473,1.62353 1.73536,2.77294 0.24218,1.98145 -0.73438,3.15723 -2.22461,3.65625 M 89.3501,75.40039 c -0.5835,-0.12305 -1.05811,-0.33301 -1.36524,-0.67383 -0.81006,-0.90039 -1.62597,-1.73633 -2.13574,-3.0039 -0.35937,-0.89356 -0.58349,-1.78809 -0.32422,-2.93848 0.05225,-0.22949 0.53467,-0.78613 0.65821,-0.72266 0.37548,-0.63183 1.07959,-1.16894 1.854,-1.33105 1.23828,-0.25977 2.12695,0.51758 3.0293,1.41016 0.26806,0.48535 -0.2251,1.60156 -0.39991,2.49414 -0.02978,0.15234 -0.76513,0.21679 -1.34716,-0.11817 -0.14405,-0.08301 -0.21143,-0.45801 -0.54444,-0.68066 0.07666,-0.48828 0.36035,-1.06348 0.03711,-1.4961 -0.49951,0.28711 -1.10449,0.46973 -1.38721,0.9043 -0.52343,0.80566 -0.35498,1.89941 0.27051,2.51563 0.3794,0.375 0.94043,1.05761 1.45703,1.12695 0.91797,0.12402 1.72705,-0.0332 2.37403,-0.25391 0.28515,-0.09765 0.06543,0.48828 0.01367,0.82032 -0.06201,0.39746 -0.68164,0.40429 -0.87549,0.83203 -0.27344,0.60547 -0.93652,1.19531 -1.31445,1.11523 m 78.03857,112.58154 c -4.71094,-1.11377 -8.78222,-2.90332 -11.72656,-5.74658 0.18457,-0.21289 0.40332,-0.35986 0.57715,-0.51465 0.30176,-0.26904 0.82031,-0.21093 1.10937,-0.0288 3.5127,2.20655 7.76465,3.61866 12.32129,4.71729 0.18457,0.67383 -0.28125,1.28174 -0.52832,1.81592 -0.61426,0.0181 -1.19043,-0.10987 -1.75293,-0.24317 m 14.92969,-39.54638 -1.6875,-1.66065 c -0.26074,-0.25635 -0.2002,-0.94092 -0.41309,-1.55566 -0.0205,-0.0615 0.2959,-0.31885 0.44434,-0.66065 0.52344,-1.20459 1.97461,-2.32861 3.47266,-1.79199 1.50976,0.54004 2.85937,1.50537 2.69726,3.55225 -0.0254,0.33496 0.39063,0.88135 0.12891,0.89062 -1.95313,0.0703 -3.27149,0.79053 -4.64258,1.22608 m -10.19629,23.16211 c -0.34668,-0.6626 -0.45117,-1.36768 -0.61426,-2.0962 0.11328,-0.78613 0.44239,-1.47167 0.72266,-2.21826 0.0879,-0.2334 0.64453,-0.47949 1.14453,-0.64795 1.05957,-0.35937 1.78809,0.20215 2.70703,0.19678 0.75781,0.28174 1.13281,0.96338 1.62012,1.53809 0.32715,0.38818 0.71777,1.08642 0.68848,1.80664 -0.0137,0.34375 -0.1709,0.78125 -0.47657,0.79053 -2,0.0605 -3.93164,0.42675 -5.58398,0.97314 -0.37305,0.12353 -0.17969,-0.29004 -0.20801,-0.34277 m 1.45215,14.02685 c -0.2041,-0.0259 -0.8125,-0.11377 -1.00293,-0.14209 -0.12988,-0.75 -0.1875,-1.55176 -0.12109,-2.44043 0.0186,-0.25537 -0.0361,-1.00732 0.40918,-0.7832 3.16406,1.59521 8.24804,1.04541 10.42968,-1.09082 0.15039,0.78955 0.44336,1.76074 0.1211,1.94726 -1.77539,1.02588 -3.71875,1.93311 -6.13477,2.29786 -1.14453,0.17285 -2.53516,0.35839 -3.70117,0.21142 M 102.5957,65.53711 c -0.0742,0.0029 -0.29541,-0.10547 -0.35009,-0.18945 -0.43067,-0.66504 -1.05469,-1.24317 -1.46924,-1.63672 -0.46338,-1.67969 -0.16748,-3.23828 0.72851,-3.89356 0.37647,-0.27539 0.17627,0.09082 0.22412,0.32715 0.18213,-0.18359 0.66407,-0.72363 0.79102,-0.79199 0.26758,-0.14453 0.39502,-0.02637 0.18115,0.14453 0.17529,0.35059 0.48438,-0.08691 0.59863,-0.04199 0.77051,0.31055 1.57666,0.27734 2.04932,0.81738 0.43799,0.91699 0.71338,2.82813 0.063,3.97363 -0.49756,0.875 -1.72315,1.24414 -2.81641,1.29102 m 75.80078,17.36133 c -0.21875,-0.20899 -0.52734,-0.60742 -0.69531,-0.66406 -0.28125,-0.09473 -0.67773,-0.61915 -0.24219,-0.87305 1.79883,-1.04297 3.69922,-2.39649 5.45508,-3.79883 2.11231,-1.68652 3.70117,-4.08789 6.57227,-5.47656 -2.70703,5.00195 -6.53906,8.27929 -11.08985,10.8125 m 32.00586,65.06494 c -0.0264,-0.002 -0.20507,-0.1167 -0.26855,-0.13135 -1.02441,-0.22558 -1.19238,-1.47754 -1.77344,-2.14795 -0.47168,-1.81787 0.52442,-3.6875 1.80176,-4.4209 1.63086,-0.93701 3.42773,0.25977 3.98437,1.45459 0.35352,0.75977 -0.0693,1.72364 -0.62695,2.13916 -0.52148,-0.89306 -1.83789,-1.51318 -3.04492,-1.46679 0.4375,1.08838 1.05469,1.63769 1.42383,2.58105 0.15039,0.38672 -0.0576,1.16162 -0.32813,1.47705 -0.31054,0.36231 -0.71679,0.56006 -1.16797,0.51514 m -1.22949,-27.12354 c -0.57715,-0.34765 -1.01269,-0.78808 -1.24316,-1.17578 1.40625,-2.26562 3.71191,-3.51172 5.59765,-5.24804 1.46289,-1.34571 2.75586,-2.78125 4.8545,-3.84375 -0.37598,0.85937 -0.68457,1.58984 -0.81348,2.30273 -2.48828,3.02344 -5.44531,5.5332 -8.39551,7.96484 m -87.59961,-5.49609 c -0.26269,-0.0293 -0.61572,-0.33301 -0.74707,-0.4043 0.11817,-0.5957 0.45508,-1.23632 0.29737,-1.67968 -0.35743,-0.99805 -0.70948,-1.85157 -1.12696,-2.61914 -0.59228,-1.08985 -1.00342,-2.78711 -0.14795,-3.99122 0.085,-0.11914 0.5,-0.99218 0.63965,-0.30761 0.10352,-0.10352 0.4834,-0.58008 0.67139,-0.67188 0.76758,-0.375 1.64453,-0.55078 2.53564,-0.83008 0.0347,0.65332 -0.12109,1.26758 -0.26758,1.89356 l -1,4.47558 c -0.18359,0.85938 -0.38427,1.76954 -0.4331,2.72657 -0.0225,0.45996 0.15674,1.47265 -0.42139,1.4082 m 41.05078,-42.23828 c -1.10449,-0.21875 -1.94629,-0.71777 -2.8623,-1.16406 0.0449,-0.87012 0.0781,-1.63086 -0.0977,-2.31836 -0.10351,-0.40235 0.27735,-0.85352 0.3125,-1.28907 0.11133,-1.45703 1.87207,-1.9414 3.47364,-1.65625 0.36816,0.40821 0.66308,1.20508 0.65332,2.11915 -0.0195,1.625 -0.50879,2.90625 -0.90235,4.26171 -0.0644,0.22071 -0.35351,0.0918 -0.57715,0.04688 m 1.03516,119.2207 -0.29688,-2.12842 c -0.0635,-0.45605 0.55958,-0.39111 0.7754,-0.30127 l 3.15722,1.42627 c 2.91113,-0.12353 5.89063,-0.21533 7.9043,0.5459 0.2168,0.0825 0.2334,0.4253 -0.004,0.46533 -3.62695,0.60791 -7.88086,0.79151 -11.45508,1.61377 -0.0205,-0.40429 -0.0391,-1.3208 -0.0811,-1.62158 M 151.63086,76.33398 c 0.19531,-0.43554 0.55078,-1.38867 0.30078,-1.62988 -0.62305,-0.60254 -1.5918,-1.05957 -2.11523,-1.6416 0.89453,-1.14648 1.86035,-2.12988 3.48828,-2.3877 0.25976,-0.04003 0.64648,-0.16503 0.85351,0.20801 0.22852,0.41309 0.77442,0.72852 1.15039,1.09375 0.60157,0.58496 0.85352,2.15625 0.25879,3.04395 -0.41211,1.31933 -2.4248,1.89941 -3.93652,1.31347 m 21.34375,21.05274 c 0.11133,-0.32324 0.26269,-0.69629 0.16016,-1.0625 -0.12696,-0.45703 -0.61622,-0.26367 -0.87305,-0.34863 -1.21484,-0.40528 -2.88086,-0.26465 -4.29492,0.17285 -0.3125,0.19922 -1.2295,0.41211 -1.79981,-0.0059 l -0.0244,-3.33106 c -0.0215,-0.35254 -0.15332,-0.89941 0.21094,-1.22168 2.17187,1.27539 4.29589,2.4961 6.62109,3.65039 0.93555,0.46387 2.16602,0.5879 3.08398,1.20899 0.23438,0.1582 1.20704,0.41601 0.8711,0.5293 -1.15137,0.38378 -2.21094,0.57226 -3.24805,0.68554 -0.22656,0.02539 -0.89941,0.28907 -0.70703,-0.27734 m 26.24414,-11.29883 c -0.30762,-0.19726 -0.57227,-0.61328 -0.94336,-0.86816 -0.70703,-0.48926 -1.18164,-1.34766 -1.30664,-2.35157 -0.14062,-1.13769 0.59863,-1.97168 0.91797,-2.65527 0.30566,-0.65625 1.27832,-0.93555 2.14551,-0.72949 l 2.6455,1.0791 c -1.17382,1.46094 -2.32421,3.00195 -2.64257,5.12598 -0.0508,0.33886 -0.46192,0.62597 -0.81641,0.39941 m 5.11328,32.86328 c -0.3457,-0.14062 -0.625,-0.7832 -0.94531,-1.18945 -1.60938,-2.04102 -3.34375,-4.29492 -3.21875,-7.89258 0.01,-0.28125 0.17285,-0.5 0.41601,-0.60156 0.1504,0.19433 0.41797,0.36719 0.55665,0.5625 1.90429,2.67187 3.44824,5.65137 5.0996,8.56933 -0.46582,0.48731 -1.24316,0.82325 -1.9082,0.55176 m -19.29785,36.9375 c -0.29492,-0.0825 -0.89355,0.0718 -0.97559,-0.15088 l -0.68554,-2.39892 c 0.25976,-0.82129 0.66406,-1.44678 0.80078,-1.83789 0.70605,-0.36475 2.4414,-1.1836 3.1582,-0.34131 0.28125,0.33056 0.47461,0.72021 0.66797,0.91846 0.2793,0.28515 0.49414,0.57617 0.0898,0.61425 -0.13281,0.30908 0.26758,0.47217 0.24805,0.59229 -0.17969,1.09082 -0.45117,2.09082 -0.88867,2.80664 -0.99219,0.10205 -1.72266,-0.01 -2.41504,-0.20264 m -21.91016,60.92969 c 0.3252,-5.25098 1.21875,-9.85791 1.86231,-14.81104 0.58594,-0.0854 0.97168,0.69434 0.95215,0.98243 -0.30176,4.59961 -0.81641,8.99414 -1.61621,13.34179 -0.29297,0.4209 -0.56055,1.21973 -1.19532,1.56348 0,-0.22412 -0.0156,-0.86426 -0.003,-1.07666 m 0.30371,-61.67041 c -0.44824,-0.0791 -0.83691,-0.30078 -1.33984,-0.49268 -0.44922,-0.17187 -0.4707,-0.90722 -0.91016,-1.30029 -0.47265,-0.42285 -0.583,-1.10986 -0.59765,-1.71973 -0.0117,-0.53222 0.24609,-1.0288 0.48633,-1.4624 0.59375,-1.07275 2.01367,-2.00537 3.61035,-1.48584 -0.17285,0.31055 -0.59863,1.07764 -0.73633,1.33643 -0.82324,1.53906 0.1416,3.40527 1.41016,4.0581 0.24511,0.12647 0.68847,0.30225 1.07714,0.54151 -0.0527,0.23291 -0.33398,0.51806 -0.50585,0.52295 -0.91602,0.0239 -1.66797,0.1499 -2.49415,0.002 m 18.49024,3.29541 -3.95703,-2.03662 c 0.12109,-0.87793 -0.0625,-1.5293 0.0644,-2.31348 0.21484,-1.34033 1.55078,-2.5332 3.36524,-2.41601 -0.25977,2.43603 0.45117,4.35888 1.27343,5.61816 -0.41699,0.52148 -0.55859,1.24658 -0.74609,1.14795 m 36.97851,-76.10254 c -0.0264,-0.09863 -0.11816,-0.37012 -0.13867,-0.46777 -0.29883,-1.41016 -1.31933,-2.2627 -2.24316,-3.10254 l -2.33985,-0.8252 c 0.4668,-0.68359 1.21583,-1.63281 2.21875,-1.83691 0.50879,-0.27051 1.67481,-0.34277 2.20997,0.10449 0.84375,0.70508 1.66992,1.70899 1.5791,3.12305 0.33593,1.33008 -0.16407,2.47363 -0.71875,2.97754 -0.37989,0.34472 -0.52149,0.21191 -0.56739,0.02734 m -100.48242,55.64551 c -3.70166,-1.10742 -6.24267,-3.51367 -6.77685,-7.95996 1.5,1.4209 2.88916,2.77051 4.44873,3.85254 0.70996,0.49218 1.59326,1.22754 2.47998,1.55664 0.0185,0.22461 0.12842,1.36523 0.11572,1.76367 -0.007,0.23242 0.26074,0.94629 -0.26758,0.78711 m 9.71436,-45.17188 c -0.60889,0.13868 -1.27149,-0.20703 -1.5376,-0.37109 -0.87402,-0.53809 -1.83691,-1.06641 -1.77246,-2.51953 0.9834,0.5625 1.8916,1.19531 3.60303,1.09472 0.41455,-0.02441 1.12744,-0.07421 1.69922,-0.37597 l 5.24267,-2.8418 c 0.38526,-0.19922 0.93018,0.58985 1.10596,0.95508 -2.48047,1.74316 -5.07227,3.31445 -8.34082,4.05859 M 97.91357,79.14258 c 0.04297,-0.36524 0.10303,-0.69922 -0.04638,-1.07813 -0.26709,-0.68164 0.58008,-0.99316 0.63037,-1.70898 0.8457,-0.4082 1.91846,-0.59766 3.06738,-0.84766 0.61231,0.50586 0.56104,1.56446 1.1792,2.34668 0.02,1.27637 -0.83057,1.97071 -1.79199,2.45606 -0.48096,0.24414 -1.18115,0.32812 -1.78565,0.26953 -0.38769,-0.03613 -0.49365,-0.77539 -1.01757,-0.72656 0.02002,-0.21485 0.09082,-0.55079 -0.23536,-0.71094 m 54.20948,10.95508 c -0.39258,0.01172 -1.63672,-0.30469 -1.85547,-0.50196 -0.58399,-0.52441 -1.37891,-0.40332 -1.79297,-1.13672 -0.17383,0.05079 -0.56934,-0.38281 -0.14746,-0.47558 l 5.12109,-1.05762 2.56543,-0.05469 c -0.29883,1.04688 -0.36133,2.33496 -0.58984,3.41993 -1.36328,-0.07618 -2.26758,-0.22461 -3.30078,-0.19336 m 29.91406,42.875 c 0.10352,-0.22071 -0.0566,-0.40235 -0.25781,-0.55274 0.78613,-1.79199 1.25,-4.03222 0.89453,-6.45801 -0.04,-0.27148 0.11621,-0.60058 0.19336,-0.61328 1.17578,-0.18261 2.42773,-0.45703 3.56738,-0.0303 -1.37109,2.04297 -2.70703,4.50391 -2.21777,7.81348 -0.43164,0.0781 -1.44727,0.21582 -1.92578,0.35058 -0.25879,0.0723 -0.39747,-0.20215 -0.25391,-0.50976 m 33.63769,59.16552 c -3.65917,-1.12255 -6.60839,-3.01318 -9.32714,-5.06787 -0.16602,-0.12549 -0.62989,-0.0644 -0.47071,-0.37256 -0.47461,-0.57324 -0.60644,-1.36328 -0.76367,-2.14062 0.51758,0.13574 1.13867,0.21533 1.48242,0.4585 3.20215,2.26806 6.34571,4.45019 9.34278,6.82861 0.33496,0.26465 -0.0537,0.35791 -0.26368,0.29394 m -42.30468,-2.84863 c -0.18848,-0.0122 -0.34278,-0.16601 -0.48535,-0.25098 0.0215,-0.53808 -0.16895,-1.1958 0.18554,-1.63378 0.89258,0.19628 1.82227,0.26806 2.83008,0.16943 2.81934,-0.27393 5.375,-1.1626 7.89844,-1.81445 -0.27246,0.48584 0.0635,1.229 -0.40625,1.46875 -2.70313,1.37841 -6.09668,2.30322 -10.02246,2.06103 m 31.06738,-60.20557 c -0.23633,-0.11718 -0.69531,-0.34082 -0.84766,-0.41503 -1.05664,-0.51661 -2.39941,-0.58497 -3.25781,-1.30372 0.45313,-1.33203 0.53516,-2.89453 0.91602,-4.17089 1.22265,0.33886 2.18066,0.73535 3.14062,1.26464 0.79492,1.09961 0.41504,3.28711 0.0488,4.625 m -78.66455,71.56153 c -0.11035,-0.0312 -0.42432,-0.13477 -0.51221,-0.19971 -0.84082,-0.62109 -1.55078,-1.52978 -1.55078,-2.9209 0.45557,-0.23926 0.2583,0.32422 0.29053,0.3877 0.26514,0.5249 0.63672,0.87207 0.95703,1.27051 0.4834,-0.47754 1.35596,-0.43067 1.5376,-0.95313 0.19287,-0.55664 0.22705,-1.16699 -0.0171,-1.65088 -0.22266,-0.44287 -0.0244,-1.21484 0.43213,-1.43994 0.36572,-0.18018 0.89062,-0.0728 1.22021,0.10791 1.00537,0.55273 1.2793,1.70947 1.16895,3.07422 -0.0342,0.41992 -0.28223,0.79053 -0.50586,1.13818 -0.55225,0.85596 -1.55957,1.60547 -3.02051,1.18604 M 93.63232,86.55664 c -1.19384,-0.61328 -1.94531,-1.4248 -2.72705,-2.18359 -0.16894,-0.16211 0.20459,-0.33594 0.28565,-0.62891 0.36377,-1.31055 1.73974,-2.58008 3.52978,-2.12305 0.65284,0.42774 1.43409,0.84473 1.7378,1.45313 l -2.82618,3.48242 m 90.6792,34.81055 c -1.5166,-0.99707 -2.80664,-2.3125 -4.07714,-3.57422 -1.15235,-1.14258 -2.15918,-2.42969 -3.03125,-3.71875 0.34375,-0.4707 0.78906,-0.96289 1.10546,-0.70313 2.71875,2.22461 4.91602,5.00782 6.89649,8.03711 -0.36621,0.22071 -0.74414,0.0576 -0.89356,-0.041 m -71.53662,3.18945 c -0.0327,0 -0.10693,-0.15234 -0.12549,-0.19238 -0.46679,-1.04199 -0.43652,-2.15039 -0.41064,-3.37891 0.0376,-1.82129 0.95752,-3.44824 1.52539,-4.88574 0.15772,-0.40039 0.54443,-0.80469 1.01514,-0.94824 -0.29053,2.67676 -0.32373,5.76269 -0.13819,8.69824 -0.70361,0.18359 -1.2334,0.7168 -1.86621,0.70703 m 78.60987,67.46875 c -0.12012,-0.146 -0.006,-0.38232 0.0703,-0.49463 0.88086,-1.31055 2.11719,-2.49951 3.28906,-3.77832 -0.0488,0.0537 0.10352,0.0332 0.24414,-0.14795 0.72168,-0.94189 1.58203,-1.76465 2.67578,-2.3125 0.2959,-0.14844 0.81934,-0.0142 1.16602,0.14405 -0.12891,1.33837 -1.0957,1.95214 -1.76367,2.72753 -1.2627,1.46436 -2.6084,2.88721 -4.53711,3.65235 -0.36817,0.14648 -0.91211,0.4917 -1.14453,0.20947 m 12.37695,4.17969 c -0.49414,-0.7085 -0.96094,-1.33838 -1.19922,-2.11475 -0.72754,-2.37304 -0.86328,-4.95996 -0.92187,-7.84228 -0.004,-0.22998 -0.0371,-1.77735 0.5039,-0.78076 1.30371,2.40136 1.61328,5.39746 1.8457,8.53564 0.0381,0.51221 0.004,2.05322 -0.22851,2.20215 M 167.84668,84.5752 c -2.19629,-0.17969 -4.04785,-0.56739 -5.83691,-1.19239 -0.41797,-0.14648 -0.38868,-0.69238 -0.82227,-0.89258 -0.25684,-0.11816 -0.78711,-0.45214 -0.58789,-0.73632 2.94922,0.79297 6.23144,1.15722 9.69531,1.46679 0.30469,0.02735 0.0899,0.88868 0.10938,1.37989 -0.83008,0.12597 -1.66504,0.04785 -2.55762,-0.02539 m 0.0908,114.02343 c -0.11523,0.007 -0.24219,-0.25 -0.24805,-0.28857 -0.0254,-0.25098 0,-1.01416 0,-1.26758 0.15332,-0.0303 0.61133,-0.0962 0.77051,-0.10986 2.1416,-0.18799 4.52832,-0.58155 6.59277,-0.0806 0.92774,0.22461 1.90528,0.5669 2.63672,1.08106 -0.26269,0.0517 -0.71777,0.17968 -0.87109,0.18652 l -8.88086,0.479 M 93.9126,78.91016 c -0.06494,-0.02149 -0.25244,-0.1084 -0.30127,-0.15235 -0.22559,-0.20508 -0.93994,-0.82422 -1.0708,-1.08398 -0.08203,-0.16211 0.02197,-0.8125 0.01074,-1.01563 -0.07813,-1.41015 0.80176,-1.99414 1.75098,-2.45703 0.46045,-0.22265 1.03418,0.58594 1.56787,0.81055 0.1748,0.07422 0.62744,0.13281 0.56445,0.44726 -0.24853,1.21875 -0.82227,2.2168 -1.13867,3.57325 -0.07959,0.34082 -0.89697,0.04101 -1.3833,-0.12207 m 38.73047,3.90039 c -0.63477,-0.51758 -0.90137,-1.3252 -1.39014,-1.98633 -0.97363,-1.31836 -1.36279,-3.19531 -2.09766,-4.71094 -0.26904,-0.55566 -0.54638,-1.19726 -0.62695,-1.90234 0.34375,0.16797 0.69043,0.42969 0.86182,0.60156 1.85107,1.87695 2.84228,4.61914 4.2705,6.93457 0.15918,0.25684 0.3335,0.72363 0.0537,0.85254 -0.23633,0.11035 -0.96094,0.30078 -1.07129,0.21094 m 28.03857,97.26562 c -0.44629,-0.0688 -0.95508,-0.47851 -1.08984,-0.96924 1.1582,-0.12646 2.20703,-0.29638 3.20898,-0.61767 1.75781,-0.56494 3.47266,-1.33155 4.99219,-2.13526 -0.006,0.47413 0.61328,0.917 0.47266,1.0503 -1.76856,1.68799 -4.51563,3.14404 -7.58399,2.67187 m 12.30859,-98.52441 c -0.32031,-0.14942 -0.27539,-0.41113 -0.35742,-0.58496 -0.99414,-2.08789 -2.22851,-4.00391 -2.30468,-6.99024 -0.0137,-0.61328 0.10156,-1.26172 0.3125,-1.84961 0.10937,-0.31152 0.43359,0.25782 0.49218,0.44141 0.95703,3.01562 1.79883,6.10742 3.05664,8.84375 -0.5205,0.01953 -0.96093,0.25 -1.19922,0.13965 m -1.08203,23.79297 c -0.14062,-0.1416 -0.24023,-0.22168 -0.27148,-0.24903 -0.83984,-0.69336 -1.85938,-1.37207 -2.45996,-2.27148 0.59082,-0.43164 1.41504,-0.64258 1.59863,-1.14258 0.35449,-0.96875 2.37402,-1.23828 3.51367,-0.66113 l -1.0332,2.16601 c -0.29492,0.73243 -0.83789,1.67969 -1.34766,2.15821 m 18.70118,-8.83692 c -0.15137,-0.37304 -1.00196,-1.23437 -1.25977,-1.52929 -0.19824,-0.22559 -0.41406,-0.61524 -0.12402,-0.91993 0.66113,-0.6875 1.21582,-1.45507 2.0166,-1.99023 0.19726,0.24316 0.61621,0.21289 0.68359,0.45117 0.33985,1.1836 1.06445,2.05274 1.55078,3.06055 0.10938,0.22656 0.28711,0.68164 -0.0234,0.75976 l -2.25293,0.37891 c -0.17481,0.02539 -0.46582,0.09375 -0.59082,-0.21094 M 175.0957,125.9082 c -0.0723,-0.16211 -0.35742,-0.45507 -0.39062,-0.86718 l -0.80274,-9.68848 0.91993,-0.16699 0.40625,2.59765 c 0.38086,2.08301 0.88281,4.1416 0.59179,6.63282 -0.0596,0.51269 -0.3789,1.45605 -0.72461,1.49218 m 35.46289,50.17188 -1.54687,-1.27393 c 0.91797,-1.25683 1.99902,-2.28711 3.39258,-3.09814 0.71972,-0.41895 1.65039,-0.88526 2.5664,-1.02979 0.16797,0.3916 -0.17871,0.58692 -0.22168,0.65869 -1.15136,1.9458 -2.72949,3.41846 -4.19043,4.74317 M 126.46826,86.53906 c -1.81299,-0.18945 -3.29297,-0.71582 -4.36328,-1.74414 -0.4126,-0.39648 -0.93115,-0.8125 -1.18457,-1.50586 2.59033,1.04102 5.34717,1.79492 8.6665,1.95899 0.0322,0.52929 -0.17382,1.17578 -0.63183,1.23242 -0.63867,0.08008 -1.625,0.14844 -2.48682,0.05859 m 53.49756,24.83887 c -0.83105,-0.15234 -1.69434,-0.4541 -2.53223,-0.0977 -0.0527,-0.45605 0.13575,-0.86328 0.17579,-1.27246 0.0332,-0.3457 0.37207,-0.57812 0.62304,-0.54101 2.32129,0.33203 4.69141,0.63476 7.16406,0.8789 0.0664,0.20118 1.55957,0.46485 0.35059,0.75977 -1.69434,0.41406 -3.86035,0.625 -5.78125,0.27246 m 28.39258,41.95117 c -0.33399,-0.32764 -0.98145,-1.09814 -1.25879,-1.26514 -0.81445,-0.49121 -1.875,-0.83496 -2.37988,-1.51464 0.71875,-0.73926 1.37988,-1.60157 2.13574,-1.94873 1.0332,0.77978 2.20312,1.46435 2.79492,2.28808 -0.35351,0.95947 -0.82031,1.90039 -1.29199,2.44043 m 6.19238,-19.65625 c -0.0508,-0.042 -0.20801,-0.1748 -0.2666,-0.20605 -2.58496,-1.38184 -4.53613,-3.46289 -6.4541,-5.47852 0.041,-0.1123 0.28125,-0.70508 0.60449,-0.9375 0.33887,-0.24512 0.42773,0.20508 0.61035,0.33008 2.28418,1.55664 4.16016,3.50781 5.57422,5.97266 0.2832,9.7e-4 0.21973,0.55859 -0.0684,0.31933 m -33.11914,58.7876 c -0.82715,-0.18115 -1.59961,-0.77686 -1.50586,-1.66895 0.0215,-0.20459 -0.13281,-0.62109 0.19727,-0.72461 l 2.82226,-0.81298 c 0.48926,-0.13721 1.22657,-0.43702 1.64649,-0.40039 0.15429,1.68066 -0.75782,2.83398 -2.07422,3.47753 -0.19531,0.0952 -0.76856,0.19922 -1.08594,0.1294 m -23.93359,-17.62061 0,-0.18457 c 2.51758,-1.1372 5.72265,-1.71875 9.12304,-2 -0.008,0.40284 0.10743,1.03711 -0.084,1.08545 -2.67578,0.67041 -5.74805,1.51026 -9.03906,1.09912 m -8.28321,11.87696 c -0.0527,-0.12061 -0.19921,-0.42334 -0.21484,-0.53125 -0.29883,-2.02637 -0.80762,-3.8086 -0.95801,-5.8667 -0.0195,-0.27979 0.0479,-0.52442 0.20606,-0.71485 0.47656,0.14161 1.00586,0.41797 1.39355,0.91211 1.20703,1.54248 1.27832,4.9292 -0.42676,6.20069 m 65.59375,-62.1543 c -1.80371,-0.18457 -3.35351,-0.69141 -5.12793,-0.99219 0.29395,-0.37597 0.1045,-1.06836 0.30567,-1.0664 2.63086,0.043 4.58398,0.54687 6.54883,0.92675 0.83984,0.16114 1.51757,0.59473 2.1582,1.04004 -1.2168,0.2793 -2.50781,0.23243 -3.88477,0.0918 M 129.75342,83.39941 c -0.14844,-0.16796 -0.34375,-0.27832 -0.53565,-0.40332 -2.27392,-1.48828 -4.75732,-2.81836 -6.62011,-4.98046 0.85058,-0.19727 1.65136,0.49218 2.22656,0.54882 l 6.6084,4.44532 c -0.51856,0.21093 -1.1543,0.26757 -1.6792,0.38964 m 62.8208,5.66895 -1.36035,-1.72754 c -0.16114,-0.20605 -0.29981,-0.63769 0.007,-0.73144 0.78321,-0.23829 1.59375,-0.37208 2.4043,-0.69141 0.22461,-0.59375 0.50781,-1.64063 1.08105,-1.94922 0.60254,0.79004 0.98438,1.60547 1.28614,2.54102 -1.36719,0.60253 -2.34082,1.67773 -3.41797,2.55859 m -8.3125,1.90625 c -0.87402,-0.22363 -1.82031,-0.40625 -2.54492,-0.82422 -1.55176,-0.32129 -2.64746,-1.62695 -3.39453,-3.18359 2.94433,1.47461 5.7539,2.56054 8.39062,3.96777 -0.93066,0.22266 -1.70215,0.23145 -2.45117,0.04004 m -1.03418,-6.63086 c 0.0811,-0.07227 0.2334,-0.20898 0.29004,-0.24609 0.51367,-0.33985 1.11523,-0.41407 1.70312,-0.49219 1.81836,-0.24219 3.50098,-0.6875 5.19141,-0.94141 0.76367,-0.11328 1.69531,-0.24609 2.46094,0.04688 -2.58399,1.41601 -5.95899,2.13476 -9.96094,1.80273 -0.13574,-0.01269 0.13086,-0.25195 0.31543,-0.16992 m -43.64453,103.56299 c 1.6206,-2.45557 3.51269,-4.22656 5.15918,-6.14014 0.44336,0.46631 0.33203,1.50537 0.0898,1.91553 -1.07226,1.80713 -2.74707,3.32226 -5.24902,4.22461 m 13.85058,20.06055 c 2.41211,-2.43213 5.68555,-3.91211 8.53321,-5.81934 0.18164,-0.12207 0.38086,0.44922 0.15918,0.63574 -2.07129,1.72754 -4.51856,3.27637 -7.08496,4.90869 -0.28907,0.18311 -1.04786,0.25733 -1.60743,0.27491 m 54.66211,-26.19288 c 0.36621,-0.81591 1.22266,-1.06787 1.74219,-1.6333 2.11914,9.8e-4 3.72852,0.23096 5.4707,0.5708 0.57813,0.1128 1.50782,-0.0493 1.76465,0.68897 l -8.97754,0.37353 M 96.36768,94.7168 C 96.271,94.65527 96.229,94.37695 96.21631,94.30078 c -0.34033,-1.99805 -0.20899,-4.31445 0.65918,-6.13086 0.67822,2.20703 0.89746,4.37305 1.38379,6.44824 -0.6919,0.13379 -1.45948,0.37989 -1.8916,0.09864 m 41.35009,-12.61035 c -0.19336,-0.08887 -0.39599,-0.23536 -0.28955,-0.47364 1.45215,-3.2207 3.05371,-6.37695 4.72168,-9.94922 -0.009,1.21778 -0.18457,1.95313 -0.229,2.71289 -0.0332,0.57422 -0.54688,1.11133 -0.79541,1.69336 -0.28467,0.66602 -1.10938,1.14649 -1.15723,1.92481 -0.48828,1.42383 -1.16455,2.6709 -1.72021,4.0166 -0.0899,0.2168 -0.36035,0.15234 -0.53028,0.0752 m 30.57813,29.54199 c -1.80664,-0.14258 -3.41797,-0.71875 -4.91113,-1.34766 1.76562,-0.7832 4.01562,-0.5 5.58593,-0.0312 0.91016,-0.13476 1.58203,0.63281 1.49024,1.56641 -0.49903,0.12109 -1.52344,-0.13672 -2.16504,-0.1875 M 139.95361,86.26367 c 0.40723,-0.29687 0.81446,-0.75 1.20313,-0.78906 2.8208,-0.27148 5.02295,-1.66602 7.60303,-2.42578 -0.14649,0.68652 -0.77051,1.16894 -1.29883,1.50195 -1.25684,0.79688 -2.75196,1.13477 -4.28223,1.50391 -0.95801,0.23144 -2.11816,0.28711 -3.2251,0.20898 m 38.40967,59.25293 c -0.8291,-0.2832 -1.63086,-0.68017 -1.82617,-1.52588 -0.42871,-0.56787 -0.10645,-1.43847 0.44531,-1.76758 0.83008,-0.49316 1.46192,-0.88623 2.12696,-1.49658 0.36035,0.44141 0.63281,1.31201 0.4248,1.49658 -0.54785,0.48438 -0.98828,1.3042 -1.05762,2.29249 -0.0244,0.3413 0.18067,1.10107 -0.11328,1.00097 m -15.65137,-21.55566 c -1.05566,-1.33008 -1.97461,-2.63965 -3.19043,-4.07422 l 3.09375,0.36035 c 0.4336,0.0459 1.1836,0.3916 1.11426,0.64453 -0.28906,1.08301 -0.47656,2.27637 -1.01758,3.06934 m 8.02442,7.12304 c -0.5586,-0.10742 -1.08789,-0.39648 -1.7168,-0.2871 l -1.74707,-2.04493 c 0.60059,-0.42773 1.22266,-0.42773 1.79785,-0.49902 0.42774,-0.0518 1.03711,-0.45703 1.25977,0.0195 0.46484,0.99317 1.07226,1.89844 1.38574,3.08984 -0.37598,-0.0771 -0.66699,-0.21777 -0.97949,-0.27832 M 117.61426,72.4707 c -0.40137,-0.61718 -1.06543,-1.13769 -1.18653,-1.98242 -0.11718,-0.82812 -0.33837,-1.55078 -0.19873,-2.4414 0.0869,-0.5586 0.88868,-1.14747 1.03858,-0.9375 0.81396,1.14453 1.30273,3.12304 0.73047,4.73242 -0.0845,0.2334 -0.22998,0.86718 -0.38379,0.6289 m -9.22754,123.61231 c -0.0698,-0.0239 -0.21387,-0.17334 -0.21143,-0.271 0.0581,-2.48633 1.18604,-4.3623 2.35645,-6.02881 0.0532,2.46973 -0.61768,4.16114 -0.79444,6.33985 -0.46337,-0.006 -0.96923,0.0898 -1.35058,-0.04 m 1.53418,-69.76074 c -0.12988,-0.0645 -0.40137,-0.20508 -0.48877,-0.25586 -1.49512,-0.89258 -2.66358,-2.25391 -3.43897,-3.84864 -0.17968,-0.37011 -0.35693,-0.92285 -0.27099,-1.32519 1.12549,0.6875 1.88769,1.64062 2.86572,2.64453 0.90332,0.22266 1.80371,1.48242 1.33301,2.78516 m 64.71973,80.14746 c -0.0586,-0.0317 -0.19532,-0.20215 -0.29297,-0.24561 -2.32715,-1.02051 -4.34571,-2.38525 -6.4668,-3.80029 -0.0723,-0.0488 -0.12109,-0.58643 0.10937,-0.97998 2.30274,1.27392 4.58204,2.64355 6.62696,4.32324 0.10254,0.083 1.21875,1.33838 0.0234,0.70264 m -57.90918,-80.28028 c -0.21192,0.0381 -0.40479,-0.52148 -0.78565,-0.77148 2.20996,-0.64649 4.80176,-1.20313 7.51611,-1.28516 -0.12451,0.24219 -0.28515,0.47852 -0.48095,0.61133 -1.57373,1.06738 -4.00928,1.0332 -6.24951,1.44531 M 68.91357,109.99414 c -0.34179,-0.0449 -0.78613,-0.0488 -1.03173,-0.17578 1.10937,-0.89258 2.81347,-1.29004 4.53027,-1.23633 0.99023,0.0303 2.11963,0.21094 3.14502,0.65235 -2.18701,0.72656 -4.32373,1.06542 -6.64356,0.75976 m 120.77393,10.96875 c -0.64258,-0.79883 -1.27148,-1.72461 -1.54395,-2.87109 0.57325,-0.3125 1.17188,-0.67774 1.80372,-0.80078 0.55859,0.65039 1.07031,1.31738 1.57812,2.10253 -0.24609,0.42286 -0.62402,1.03028 -1.09961,1.46973 -0.16992,0.1582 -0.50098,0.39649 -0.73828,0.0996 M 76.53027,104.28516 c -1.08789,-1.40625 -2.40771,-2.68555 -3.50781,-4.26172 0.76611,-0.13867 1.19922,0.41504 1.66602,0.68359 1.59814,0.92188 2.62158,2.24024 3.66455,3.76953 -0.36963,0.2041 -1.51563,0.20508 -1.82276,-0.1914 m 84.80469,-3.42286 c -0.0644,-0.0752 -0.16308,-0.18261 -0.16308,-0.19042 0.0625,-0.81348 -0.24805,-1.69727 0.18652,-2.2129 0.49219,-1.12109 0.74512,-2.26074 1.47168,-3.14648 0.38183,0.32031 0.65234,0.97461 0.61523,1.58008 -0.10937,1.77344 -0.96484,3.1582 -2.11035,3.96972 m -3.94726,17.0879 c -0.26563,-0.14747 -0.58497,-0.2461 -0.88672,-0.53516 0.9082,-0.90234 1.66894,-1.9668 2.3291,-3.11035 0.11523,-0.19531 0.38281,-0.61133 0.63086,-0.33203 0.89062,1 0.31445,2.78418 -0.70117,3.23242 -0.042,0.76367 -0.82227,1.04883 -1.37207,0.74512 m -42.34082,85.73779 c -1.14209,-0.3335 -2.34131,-0.66016 -2.84375,-1.60889 0.36035,-0.21728 0.77294,-0.57959 1.18164,-0.45898 1.45117,0.42676 2.81298,1.05127 4.33349,1.61718 0.0898,0.0332 0.59522,0.22852 0.0937,0.45411 -0.85156,0.38427 -1.87207,0.25732 -2.76513,-0.003 M 120.9604,68.6723 c -0.21045,-1.11719 -0.0366,-2.47852 0.35547,-3.39454 0.10498,-0.24511 0.46387,-0.58398 0.17431,-0.80468 0.33936,-0.09571 0.56104,-0.65039 0.7959,-0.51368 0.61182,0.35743 0.99805,0.97168 0.81397,1.69141 -0.21826,0.85156 -0.63623,1.5918 -1.09961,2.25 -0.23926,0.33887 -0.53516,0.83887 -1.04004,0.77149 m -17.61816,24.68066 c -0.16456,-0.07031 -0.48438,-0.24707 -0.26954,-0.46191 l 1.95606,-1.93946 c 0.26025,-0.23047 1.20557,-0.74219 1.51269,-0.91992 0.24366,-0.14062 0.51514,0.14063 0.43702,0.41016 -0.35108,1.21875 -1.38526,2.17187 -2.08936,3.06836 -0.25781,0.33007 -1.04492,0.05664 -1.54687,-0.15723 m 64.19091,28.09668 c -0.0195,-0.0703 0.13282,-0.29688 0.14453,-0.37109 0.3711,-2.38868 1.28711,-4.16993 2.34864,-5.80274 0.13574,-0.20898 1.14941,-0.10547 1.02832,0.125 -1.02539,1.95508 -2.07422,3.85352 -2.9834,5.88477 -0.0615,0.14062 -0.44629,0.51172 -0.53809,0.16406 m -3.08007,-19.97461 c 0.11914,-0.11914 0.38281,-0.32617 0.43945,-0.41406 0.8789,-1.37305 2.26172,-2.44532 4.46484,-2.39453 -0.53515,1.91406 -2.58496,2.85937 -4.90429,2.80859 m 37.27832,18.87988 c -0.10254,-0.0459 -0.32715,-0.3164 -0.42286,-0.35937 -1.61523,-0.73731 -3.08593,-1.68555 -4.63769,-2.44434 -0.30274,-0.14844 -0.3916,-0.30273 -0.12793,-0.32715 0.93164,-0.0889 1.76367,-0.0889 2.5,0.14844 l 2.11133,1.1084 c 0.57226,0.33203 0.90429,0.83984 0.93652,1.5332 0.0146,0.33594 -0.16894,0.42774 -0.35937,0.34082 m -85.00635,69.43067 c -0.39112,-0.8877 -0.86084,-1.7251 -1.12256,-2.62403 0.31445,-0.0376 1.07715,-0.16748 1.32959,-0.15381 0.84814,0.0464 1.67578,-0.34375 2.41406,0.0186 l -1.50146,2.09131 c -0.24121,0.33886 -0.88965,1.18896 -1.11963,0.66797 m -14.12549,10.88525 c -0.94531,-0.19385 -1.95996,-0.42432 -2.95898,-0.40332 -0.74903,0.0161 -1.44971,-0.0395 -1.93506,-0.43115 0.31152,-0.25049 0.70947,-0.50635 1.00927,-0.51172 1.68604,-0.0303 3.06153,0.15918 4.52295,0.31982 0.4795,0.0527 0.99073,0.12354 1.36719,0.60987 -0.19678,0.11279 -0.82666,0.59423 -1.05078,0.59521 -0.31885,0.002 -0.68213,-0.12305 -0.95459,-0.17871 m 55.82617,-111.22412 0.54102,-2.40918 c 0.0391,-0.19727 0.008,-0.95703 0.54883,-0.44531 0.71777,0.67773 1.48632,1.60644 2.31835,2.5498 -0.98828,0.19434 -2.30957,0.38574 -3.4082,0.30469 m -39.71826,41.49121 c -0.18359,-0.0557 -0.73633,-0.22656 -1.03809,-0.35156 -0.085,-0.0352 -0.36816,-0.30469 -0.37988,0.11523 -0.35351,-0.13867 -0.6958,-0.41601 -0.81348,-0.74219 0.19092,-0.14453 0.40479,-0.25 0.52637,-0.26757 1.85742,-0.26172 3.62402,0.0312 5.52783,0.22265 -0.57275,0.36719 -1.26172,0.23047 -1.53759,0.5625 -0.39063,0.47461 -1.27832,0.77149 -2.28516,0.46094 m 56.30811,-25.11719 c 0.26269,-0.67578 0.61328,-1.41992 1.36328,-1.52636 0.66015,0.39746 1.16992,1.14941 1.56445,1.77832 -0.6875,0.6914 -1.80078,1.00586 -2.95117,1.04589 0,-0.24511 -0.0664,-1.06347 0.0234,-1.29785 m -5.80469,78.20752 c -0.22656,-0.0586 -0.6875,-0.0132 -0.64063,-0.2124 0.28321,-1.20654 0.66407,-2.39014 1.08301,-3.56104 0.0977,-0.27246 0.54004,0.45704 0.94629,0.61719 l -0.32422,3.40137 c -0.37109,0.0352 -0.71094,-0.15479 -1.06445,-0.24512 M 124.6918,138.6196 c -0.0435,-0.007 -0.21044,-0.0234 -0.2666,-0.10937 -0.77588,-1.16211 -1.31689,-3.03711 -0.16943,-4.32227 0.085,0.27734 0.41162,0.42188 0.48926,0.70313 0.32519,1.18652 0.66064,2.48339 0.84912,3.89843 -0.33838,0.008 -0.61279,-0.1289 -0.90235,-0.16992 m 5.81788,-3.33984 c -0.70313,-0.40625 -1.53565,-0.51758 -1.93555,-1.11524 -0.5044,-0.7539 -1.40137,-1.39062 -1.44483,-2.53711 0.49707,0.10157 1.2085,-0.0293 1.44141,0.25 0.76074,0.91016 1.49707,1.58789 1.74219,2.81348 0.30273,0.0869 0.28955,0.64355 0.19678,0.58887 m 3.20849,5.0039 c -0.59033,-0.0605 -1.22998,-0.18164 -1.64209,-0.66015 0.13819,-0.0693 0.52344,-0.22364 0.63233,-0.29883 1.13916,-0.79492 3.10205,-0.39258 4.11279,0.27734 0.14258,0.0957 0.37842,0.5127 0.0142,0.49805 -0.40576,-0.0176 -0.76953,0.29297 -1.14697,0.29297 -0.65186,0.002 -1.33887,-0.0439 -1.97022,-0.10938 m 45.39209,-36.32715 c -0.62597,-0.27832 -1.01855,-0.94628 -1.26855,-1.60839 0.62402,0.26172 0.31738,-0.17188 0.5166,-0.28907 0.53418,-0.3164 1.88769,-0.72851 2.34765,0.0488 0.24805,0.41797 0.63965,1.13574 0.11231,1.4541 -0.31445,0.19141 -1.48242,0.49512 -1.70801,0.39453 m -25.11133,68.36475 c 0.042,-0.008 0.16602,-0.0737 0.20606,-0.064 0.49023,0.1206 1.17187,0.21972 1.50976,0.40527 -0.77343,1.09326 -2.13769,1.78418 -3.77148,1.73486 -0.0772,-0.43066 0.1543,-0.729 0.0801,-1.21142 0.50586,-0.0386 0.86914,-0.6377 1.33398,-0.89649 0.16504,-0.0908 0.41406,0.0767 0.6416,0.0317 m 12.58789,11.07031 c -0.71875,-0.25488 -1.49804,-0.4917 -2.19043,-0.97851 0.93848,-0.42676 1.75,-0.95362 2.5586,-1.55615 0.17578,-0.13038 0.84082,-0.13624 0.73633,0.0903 -0.14746,0.32275 -0.11036,0.57861 0.14257,0.69189 -0.23242,0.58594 -0.34765,1.19776 -0.67773,1.7124 -0.12305,0.19385 -0.35449,0.11719 -0.56934,0.04 m -23.81054,-37.06543 c -0.0781,0.0195 -0.29444,-0.12207 -0.36377,-0.19091 -0.66211,-0.65479 -1.31739,-1.41797 -2.1084,-1.9795 0.0928,-0.41162 0.18848,-0.85791 0.48193,-1.23339 1.05078,0.30712 1.9541,1.03857 2.21387,2.15576 0.0986,0.42187 0.0723,1.17334 -0.22363,1.24804 M 92.16943,95.86426 C 92.13477,95.83203 91.9585,95.71484 91.91699,95.66211 l -3.03613,-3.99805 c 0.07031,-0.08203 0.37353,-0.09179 0.51123,-0.01953 1.68457,0.88477 2.7583,2.46875 3.59668,4.30762 -0.19629,0.22265 -0.50049,-0.21192 -0.81934,-0.08789 m 15.11475,18.61914 c -0.354,-0.44824 -0.7959,-0.66406 -0.79785,-1.18652 -0.005,-1.625 0.83252,-2.6211 2.07812,-3.34766 -0.22754,1.68164 -0.68115,3.31055 -1.28027,4.53418 m 9.00488,-21.48145 c -0.36328,-0.04687 -0.69922,-0.2705 -1.10058,-0.52343 0.64892,-0.74024 1.92773,-1.03516 2.78222,-1.4668 0.20801,0.30859 0.76709,0.28711 0.72657,0.49609 -0.23145,1.20313 -1.25196,1.64453 -2.40821,1.49414 m -1.01172,15.50782 c -0.10058,-0.11719 -0.21826,-0.21973 -0.22216,-0.25879 -0.0264,-0.2295 -0.0879,-0.98535 0,-1.13184 0.33642,-0.55664 0.79882,-1.00488 1.13427,-1.4707 0.62989,0.16601 0.86963,-0.58399 1.44727,-0.53516 -0.25049,1.65918 -1.29443,2.64746 -2.35938,3.39649 M 86.65869,99.83203 83.91064,99.19336 c -0.38232,-0.10352 -1.71289,-0.08691 -1.20214,-0.32422 1.78027,-0.82519 3.79345,-0.13867 5.17773,0.49414 -0.2876,0.20117 -0.77588,0.55469 -1.22754,0.46875 m 24.69531,98.83106 c 0.0957,-0.19092 0.19043,-0.54932 0.30225,-0.60401 1.52051,-0.75586 3.1748,-1.40869 5.09375,-1.76904 0.15869,-0.0303 0.75146,0.16846 0.30371,0.34717 l -3.37891,1.3706 c -0.62646,0.19824 -1.49267,0.8003 -2.3208,0.65528 M 121.69092,92.14453 c -0.11914,-0.02832 -0.4419,-0.06738 -0.47315,-0.21875 -0.12109,-0.5957 -0.35791,-1.05762 -0.49707,-1.50976 -0.13623,-0.44727 0.63184,-0.87305 1.10889,-1.23438 0.49609,0.71289 0.77979,1.6875 0.8418,2.8916 0.0317,0.62012 -0.66065,0.14746 -0.98047,0.07129 m -15.22754,37.21289 c -0.49463,-0.62695 -0.96289,-1.39258 -0.99854,-2.43164 1.20264,0.36328 2.38721,0.91699 3.02393,1.95313 -0.54004,0.28515 -1.43213,0.36816 -2.02539,0.47851 m 59.97217,41.6416 c -1.17774,-0.54638 -2.39063,-1.19189 -3.2461,-2.35693 1.34864,0.24268 2.34278,0.59766 3.31446,0.91406 0.40527,0.13184 0.50195,0.57422 0.39257,0.9585 -0.0586,0.20459 -0.11523,0.64404 -0.46093,0.48437 M 152.66211,83.89453 c 0.82227,-0.82129 1.62305,-1.4043 2.51367,-1.67773 0.41992,0.58008 0.88184,1.11328 0.94043,1.7832 -0.93066,-0.01758 -2.68066,0.0957 -3.4541,-0.10547 m 5.90918,113.72217 c -1.79981,-0.49609 -3.89356,-0.97022 -5.66211,-1.54004 2.81738,0.0186 5.29102,0.76416 7.67383,1.69922 -0.91113,0.0757 -1.47852,-0.0122 -2.01172,-0.15918 m -47.47168,-87.46436 1.27637,-1.63964 c 0.28515,0.10644 0.58935,-0.30567 0.68213,0.0937 0.11377,0.48535 0.10009,1.083 -0.14063,1.41406 -0.4126,0.56738 -1.0918,1.13965 -1.81787,1.46972 0,-0.34863 -0.11035,-1.19531 0,-1.33789 m 58.73437,39.80274 c -0.45703,0.008 -0.44043,-0.75391 -0.62109,-1.13184 0.62402,-0.0532 1.25195,-0.19433 1.87012,-0.10449 0.54004,0.0786 1.29785,0.0859 1.62695,0.53027 -0.81738,0.51758 -1.83398,0.68506 -2.87598,0.70606 M 145.02344,90.94141 c -0.98047,-0.16016 -1.98145,-0.28809 -2.69678,-0.82032 1.0835,-0.06543 2.04541,-0.26953 2.91455,-0.27539 0.75195,-0.0059 1.19434,0.83594 1.63574,1.34766 -0.3955,-0.05469 -1.49121,-0.19336 -1.85351,-0.25195 m -35.88721,42.8164 c -0.65381,-0.40625 -1.21191,-0.91797 -1.43359,-1.67773 -0.0869,-0.29688 0.12744,-0.48438 0.36084,-0.57227 0.16406,-0.0625 0.89502,-0.0977 1.12597,-0.0332 0.36524,0.10644 0.28565,0.60254 0.33203,0.94531 0.0601,0.45313 0.26172,1.74024 -0.38525,1.33789 m 10.96973,57.09424 c -0.34619,-0.17725 -0.74073,-0.15625 -1.09424,-0.33203 0.1499,-0.75732 0.85791,-1.23438 1.17627,-1.8125 0.0815,-0.14746 0.43847,-0.18701 0.4917,0.0713 0.13379,0.65381 0.40332,1.29541 0.47949,2 0.0625,0.58203 -0.7666,0.21973 -1.05322,0.0732 m -15.71387,6.89844 c -1.1626,-0.61035 -2.05225,-1.59082 -2.98779,-2.64063 0.84375,0.17237 1.4458,0.68897 2.18506,0.99024 0.47412,0.41894 0.91064,1.11426 1.5371,1.5 -0.11865,0.3208 -0.49267,0.27685 -0.73437,0.15039 M 110.19141,93.1152 c -0.46631,-0.05371 -0.93995,-0.21289 -1.36524,-0.37109 -0.28174,-0.10351 -0.1792,-0.55664 0.10498,-0.61914 0.96582,-0.21289 1.91602,0.0019 2.56348,0.30664 -0.1919,0.18262 -0.0464,0.67871 -0.37256,0.80664 -0.26758,0.10352 -0.60791,-0.08594 -0.93066,-0.12305 m 70.09082,6.22657 c -0.34961,-0.08106 -0.0947,-0.41016 -0.01,-0.6211 0.24317,-0.60351 0.98731,-0.69726 1.57324,-0.64062 -0.0664,0.48047 -0.30761,1.09277 -0.80371,1.40039 -0.16894,0.10351 -0.48926,-0.07617 -0.75976,-0.13867 m 31.70215,-9.63867 c -0.27344,-0.26368 -0.37891,-0.72364 -0.10059,-0.77735 0.38965,-0.07324 0.87988,-0.08398 1.20605,0.02539 -0.46679,0.21289 -0.90234,0.68067 -1.10546,0.75196 z"
       style="fill:#c4161d;fill-opacity:1;fill-rule:nonzero;stroke:none"
       id="path3466"
       inkscape:connector-curvature="0" /></g></svg>