<?xml version="1.0" encoding="UTF-8" standalone="no"?>
<!-- Created with Inkscape (http://www.inkscape.org/) -->

<svg
   xmlns:dc="http://purl.org/dc/elements/1.1/"
   xmlns:cc="http://creativecommons.org/ns#"
   xmlns:rdf="http://www.w3.org/1999/02/22-rdf-syntax-ns#"
   xmlns:svg="http://www.w3.org/2000/svg"
   xmlns="http://www.w3.org/2000/svg"
   xmlns:sodipodi="http://sodipodi.sourceforge.net/DTD/sodipodi-0.dtd"
   xmlns:inkscape="http://www.inkscape.org/namespaces/inkscape"
   id="svg3620"
   version="1.1"
   inkscape:version="0.91 r13725"
   xml:space="preserve"
   width="1052.3625"
   height="744.09998"
   viewBox="0 0 1052.3625 744.09998"
   sodipodi:docname="landscape_architecture_paper_cutting_vector_2.ai.svg"><metadata
     id="metadata3626"><rdf:RDF><cc:Work
         rdf:about=""><dc:format>image/svg+xml</dc:format><dc:type
           rdf:resource="http://purl.org/dc/dcmitype/StillImage" /><dc:title></dc:title></cc:Work></rdf:RDF></metadata><defs
     id="defs3624"><clipPath
       clipPathUnits="userSpaceOnUse"
       id="clipPath3634"><path
         d="m 0,595.28 841.89,0 L 841.89,0 0,0 0,595.28 Z"
         id="path3636"
         inkscape:connector-curvature="0" /></clipPath></defs><sodipodi:namedview
     pagecolor="#ffffff"
     bordercolor="#666666"
     borderopacity="1"
     objecttolerance="10"
     gridtolerance="10"
     guidetolerance="10"
     inkscape:pageopacity="0"
     inkscape:pageshadow="2"
     inkscape:window-width="718"
     inkscape:window-height="480"
     id="namedview3622"
     showgrid="false"
     inkscape:zoom="0.31716168"
     inkscape:cx="526.18127"
     inkscape:cy="372.04999"
     inkscape:window-x="0"
     inkscape:window-y="0"
     inkscape:window-maximized="0"
     inkscape:current-layer="g3628" /><g
     id="g3628"
     inkscape:groupmode="layer"
     inkscape:label="landscape_architecture_paper_cutting_vector_2"
     transform="matrix(1.25,0,0,-1.25,0,744.1)"><g
       id="g3630"><g
         id="g3632"
         clip-path="url(#clipPath3634)"><g
           id="g3638"
           transform="translate(399.7085,546.3545)"><path
             d="M 0,0 C -7.471,-3.132 -24.64,-5.841 -33.466,-1.76 -20.435,-3.052 -11.953,0.209 0,0"
             style="fill:#63090e;fill-opacity:1;fill-rule:evenodd;stroke:none"
             id="path3640"
             inkscape:connector-curvature="0" /></g><g
           id="g3642"
           transform="translate(412.0386,104.252)"><path
             d="M 0,0 C 5.911,4.071 19.346,0.618 28.182,1.763 22.271,-2.308 8.836,1.146 0,0"
             style="fill:#63090e;fill-opacity:1;fill-rule:evenodd;stroke:none"
             id="path3644"
             inkscape:connector-curvature="0" /></g><g
           id="g3646"
           transform="translate(517.7202,61.9795)"><path
             d="M 0,0 C 1.69,-7.588 -11.134,-5.961 -14.092,-3.523 -11.005,-0.737 -4.707,-1.162 0,0"
             style="fill:#63090e;fill-opacity:1;fill-rule:evenodd;stroke:none"
             id="path3648"
             inkscape:connector-curvature="0" /></g><g
           id="g3650"
           transform="translate(394.4238,21.4697)"><path
             d="M 0,0 C -3.712,-4.505 -12.994,-3.447 -21.136,-3.522 -15.915,-0.524 -6.633,-1.587 0,0"
             style="fill:#63090e;fill-opacity:1;fill-rule:evenodd;stroke:none"
             id="path3652"
             inkscape:connector-curvature="0" /></g><g
           id="g3654"
           transform="translate(503.6284,58.4561)"><path
             d="M 0,0 C 2.958,-2.438 15.782,-4.064 14.092,3.523 9.385,2.361 3.087,2.786 0,0 m -160.284,-33.463 c 10.429,-1.411 67.173,3.106 31.704,3.52 -11.759,-1.156 -28.157,2.325 -36.988,-1.76 2.073,-0.276 5.001,0.303 5.284,-1.76 m -84.545,40.51 c 4.244,0.721 3.829,-3.218 8.807,-1.761 0.395,1.365 0.047,3.474 1.761,3.525 2.591,6.697 -7.873,0.343 -5.285,7.043 4.15,10.895 15.274,4.81 15.854,17.613 -6.18,1.454 -10.6,4.664 -17.614,5.285 -1.741,-10.769 -0.654,-19.356 -3.523,-31.705 m 362.841,33.467 c 0.095,-1.854 2.259,-1.386 1.76,1.759 -4.68,-3.952 -8.968,2.636 -12.329,-1.759 5.225,1.536 8.689,-7.526 10.569,-3.525 -1.777,0.021 -2.216,3.088 0,3.525 m -378.694,-5.285 c 4.972,-0.275 4.415,4.979 7.047,7.044 -4.607,-6.887 -9.654,2.859 -10.569,-3.521 2.149,-0.198 4.169,-0.527 3.522,-3.523 m 346.989,5.285 c 3.927,14.859 31.893,12.056 40.511,3.522 -7.556,14.984 -32.704,9.782 -44.034,1.76 -0.17,2.431 -6.875,6.874 -7.045,3.523 4.636,-1.823 5.932,-6.984 10.568,-8.805 M 58.124,51.083 c 3.073,6.907 17.047,2.915 21.137,8.807 -5.43,3.018 -24.73,-2.955 -21.137,-8.807 m 59.888,12.329 c -0.328,2.608 -4.258,1.613 -7.045,1.76 -3.761,-6.479 8.969,-7.945 7.045,-1.76 m -221.932,0 c 9.421,1.147 23.45,-2.314 29.942,1.76 -6.019,-1.676 -24.085,6.731 -29.942,-1.76 M -214.886,36.989 c -6.735,7.302 1.468,-2.421 -5.283,-1.76 0.875,-9.819 7.083,-22.59 14.089,-15.853 0.019,-4.679 -0.664,-10.059 1.762,-12.329 9.011,-0.203 14.616,2.999 17.613,8.807 -3.462,0.527 -3.492,-2.378 -5.283,-3.524 1.255,4.397 -7.752,7.239 -1.762,10.569 2.328,-0.019 1.61,-3.087 3.523,-3.523 0.077,2.425 -0.83,3.869 -1.761,5.284 2.243,4.217 5.744,7.173 12.329,7.047 3.042,-1.069 -0.135,-8.356 3.524,-8.808 3.05,3.996 2.839,11.251 8.806,12.33 4.062,0.539 1.956,-5.09 5.284,-5.283 4.292,4.135 -1.964,3.942 -3.523,7.043 6.257,5.56 10.141,-6.103 15.852,0 -2.072,0.276 -4.999,-0.301 -5.283,1.763 2.928,0.21 15.951,-0.962 10.566,1.762 -11.268,0.584 -12.777,2.091 -22.896,5.282 2.636,0.302 6.501,-0.628 7.045,1.763 -7.383,-0.265 -4.242,0.91 -1.761,3.524 -7.585,1.222 -17.832,-0.22 -21.137,5.282 13.62,0.084 34.089,-9.679 42.273,-3.522 -8.62,2.59 -7.174,7.654 -3.524,10.569 -24.674,2.5 -49.294,0.747 -75.736,3.521 3.845,-4.47 18.488,-10.603 8.806,-17.614 11.276,-3.988 30.75,0.219 40.511,-5.283 -16.261,-1.474 -38.98,8.378 -44.034,-7.047 M 89.83,59.89 c -5.402,7.318 8.593,2.131 10.566,5.282 -6.287,5.124 -17.147,1.086 -21.135,-1.76 2.33,-0.023 1.61,-3.088 3.523,-3.522 1.593,6.867 6.484,-5.838 7.046,0 m -218.41,5.282 c -1.872,3.999 -11.071,0.671 -15.853,1.761 -3.449,2.042 -23.774,3.307 -21.135,0 13.252,0.335 22.753,-3.082 36.988,-1.761 M -241.306,54.603 c 3.592,-0.518 3.453,-4.766 7.045,-5.284 -4.176,8.68 6.261,13.349 5.283,19.376 51.024,-0.264 -23.981,12.401 -12.328,-14.092 m -54.602,10.569 c -2.53,5.25 6.181,10.733 -1.762,10.567 0.689,-5.37 -4.631,-8.966 1.762,-10.567 M 72.215,75.739 c 8.742,1.697 9.394,-4.696 15.853,-5.284 1.335,6.827 -18.029,9.052 -15.853,5.284 m 28.181,3.523 c 0.217,-4.48 2.565,-6.83 7.047,-7.043 0.555,2.381 2.507,3.364 1.762,7.043 -2.314,2.261 -6.493,2.261 -8.809,0 m -227.213,-7.043 c 0.978,13.316 15.64,17.626 24.659,17.612 -11.73,5.483 -28.884,-7.228 -24.659,-17.612 m 68.692,21.136 -24.658,0 c 8.065,-4.264 25.899,1.242 29.942,-7.046 1.549,5.658 -5.805,2.414 -5.284,7.046 m -142.67,-7.046 c 0.112,3.798 -2.065,14.149 -5.285,8.806 5.005,0.309 -2.128,-11.523 5.285,-8.806 m 47.556,1.759 c 9.242,3.6 20.801,-0.202 24.659,5.287 -7.693,2.308 -15.914,-3.915 -19.374,0 -0.754,4.862 6.567,1.651 7.045,5.283 -7.94,0.305 -9.457,-5.808 -12.33,-10.57 m -36.988,1.763 c 5.413,-2.696 5.413,11.5 0,8.807 l 0,-8.807 z m 5.284,1.762 c 5.413,-2.694 5.413,11.503 0,8.805 l 0,-8.805 z m -40.512,-14.091 14.092,0 c 1.712,5.4 3.767,19.628 0,24.66 -4.176,-8.744 -12.231,-13.601 -14.092,-24.66 m -56.363,17.613 c -2.533,2.753 -4.436,6.13 -8.807,7.047 -18.43,-21.43 -2.258,-29.073 8.807,-7.047 m 5.284,7.047 c -8.737,-15.917 2.992,-35.399 17.614,-28.183 4.473,2.209 -2.089,7.096 3.523,0 1.307,4.977 -0.829,19.771 -5.285,24.659 -2.137,-3.148 -0.321,-10.247 -3.522,-12.329 0.238,8.458 -0.415,16.026 -7.046,17.613 -0.153,-3.842 4.821,-11.394 1.761,-12.329 -2.114,3.758 -2.148,9.592 -7.045,10.569 m -26.421,-1.764 c -0.917,-9.52 -8.516,-12.987 0,-19.373 -2.18,9.872 6.809,17.769 3.524,22.897 -2.604,-1.902 -11.254,-8.552 -3.524,-3.524 m 86.308,-1.76 c 1.46,3.318 6.501,9.152 0,10.567 -1.379,-1.222 -3.921,-9.826 0,-10.567 m 24.659,5.284 c 0.347,5.044 0.219,9.613 -5.283,8.807 0.587,-4.108 1.804,-7.588 5.283,-8.807 M 153.239,75.739 c 0.793,4.025 9.732,8.9 5.283,12.329 -0.792,-4.021 -9.73,-8.895 -5.283,-12.329 m -1.76,45.795 c -11.641,-1.563 -20.47,5.002 -22.9,-5.283 4.736,-3.142 3.404,7.758 5.284,1.761 2.166,-8.037 -11.907,0.166 -12.328,-5.283 6.283,-5.457 12.383,-11.102 19.375,-15.854 1.222,-7.581 -0.221,-17.828 5.282,-21.136 12.348,10.925 18.257,31.825 5.287,45.795 m -338.184,-7.043 c 0.837,5.532 -2.195,7.197 -5.283,8.807 0.204,-4.493 0.332,-9.062 5.283,-8.807 m -14.09,0 7.045,0 c 1.023,7.479 -4.747,8.17 -8.806,10.567 -1.277,-5.386 3.038,-5.18 1.761,-10.567 m -8.806,12.33 c 1.536,-6.821 -7.691,-2.879 -5.285,-10.57 l 7.045,0 c 0.695,3.028 -2.614,4.517 0,5.283 1.881,-1.639 0.549,-6.494 5.285,-5.283 -1.087,4.785 -3.493,8.249 -7.045,10.57 m 31.705,5.283 0,-10.57 c 4.133,-0.56 6.611,-2.782 12.328,-1.76 -0.547,5.324 1.957,13.699 -3.522,14.091 1.534,-9.451 -5.849,-2.863 -8.806,-1.761 m 232.499,-1.763 c 1.435,6.2 4.835,10.427 8.806,14.094 -5.591,-0.948 -13.967,-8.243 -8.806,-14.094 M -350.51,140.91 c 2.022,-3.128 6.078,-8.039 10.568,-3.522 0.395,3.331 -1.986,3.885 -1.762,7.047 -4.368,0.258 -8.547,0.325 -8.806,-3.525 m 524.886,-8.806 c -2.254,0.097 -2.441,2.258 -5.285,1.761 -4.312,-4.155 2.63,-3.279 1.761,-8.807 -3.499,-0.023 -2.24,-4.805 -7.044,-3.524 0.552,2.381 2.506,3.365 1.759,7.047 -9.259,-4.758 -1.507,-4.758 -8.806,0 -5.054,-7.475 7.419,-12.488 7.047,-21.137 20.359,2.843 7.901,31.823 19.375,40.513 -7.054,-0.724 -11.561,-10.918 -8.807,-15.853 m -14.092,7.043 c 2.064,2.186 12.71,4.72 7.045,8.81 -2.849,-7.641 -2.188,1.937 -8.807,0 3.023,-4.503 -2.017,-6.167 1.762,-8.81 M 77.5,135.628 c 1.015,1.066 4.123,8.354 0,8.807 0.094,-7.14 -7.433,-6.659 -8.807,-12.331 -1.191,6.575 8.691,11.135 3.522,15.853 -12.39,-4.636 -11.405,-22.646 -15.851,-35.228 -2.145,6.395 3.522,13.903 0,15.852 -6.005,-9.261 -5.468,-25.06 -5.284,-40.513 14.624,-1.949 24.426,-1.105 38.75,-5.282 4.035,2.423 4.137,8.779 8.807,10.569 4.389,-1.484 9.435,-2.308 15.851,-1.762 2.958,-5.261 3.553,-12.889 10.569,-14.091 5.53,-0.834 4.653,4.738 8.806,5.284 -2.055,32.582 -44.351,24.928 -47.556,56.361 -1.072,-4.21 2.213,-12.777 -1.761,-14.089 -1.186,8.816 1.632,13.634 1.761,21.136 -3.031,-0.693 -4.516,2.613 -5.286,0 3.492,-1.365 0.952,-11.35 -3.521,-10.566 m -197.273,14.089 c -1.104,-5.353 2.255,-15.172 -1.761,-17.613 0.581,-2.022 2.117,-11.632 3.523,-7.046 -3.69,5.432 3.749,18.065 -1.762,24.659 m -206.078,-14.089 c -6.454,7.567 6.413,12.679 5.283,14.089 -6.651,0.525 -13.036,-11.068 -5.283,-14.089 m 165.567,7.044 c 0.099,-1.073 0.264,-2.086 1.762,-1.762 3.511,2.238 5.205,15.336 -1.762,8.807 1.976,-0.371 2.743,-1.956 3.524,-3.523 -2.151,-0.199 -4.172,-0.527 -3.524,-3.522 m 26.422,3.522 5.282,0 c 0.493,4.015 -0.424,6.622 -3.523,7.047 -0.552,-2.381 -2.507,-3.364 -1.759,-7.047 m 73.976,5.284 c -18.673,-12.921 -3.754,-10.099 12.329,5.286 -3.566,-3.49 -9.049,-3.016 -12.329,-5.286 m -239.545,-5.284 c 0.421,1.912 2.9,4.231 3.523,1.763 -0.983,-4.303 -6.816,-3.756 -5.285,-10.569 8.564,-4.874 7.243,8.62 19.375,5.284 3.618,3.43 2.747,11.343 5.284,15.851 -10.46,-3.299 -22.838,-7.639 -22.897,-12.329 m -54.603,-5.284 c 1.749,5.298 1.304,12.789 7.047,14.091 4.373,2.291 7.309,-5.167 8.806,0 -3.359,0.75 -3.187,5.033 -8.806,3.522 -9.932,-2.908 -8.324,-24.745 -7.047,-17.613 m 250.114,19.374 c -4.659,0.412 -6.541,-10.885 -3.523,-12.327 0.551,3.696 11.827,5.6 5.285,10.566 -0.424,-1.912 -2.901,-4.226 -3.523,-1.759 1.373,0.389 2.047,1.474 1.761,3.52 m -31.704,-21.137 c -4.868,8.621 -1.137,17.276 0,21.137 -6.238,-4.875 -6.153,-15.896 0,-21.137 m 47.556,19.376 -5.283,0 c -0.537,-4.644 3.675,-4.542 7.044,-5.282 3.786,3.756 0.654,9.594 -3.523,10.567 -0.076,-2.425 0.83,-3.866 1.762,-5.285 m 95.113,8.807 c 4.015,-0.49 6.622,0.426 7.047,3.524 -2.382,0.554 -3.363,2.507 -7.047,1.759 l 0,-5.283 z m -310,-14.089 c 1.024,7.248 11.57,14.193 8.809,19.372 -4.284,-3.064 -13.436,-24.429 -8.809,-19.372 m 155.001,8.807 c -7.126,1.65 -2.542,9.762 -5.285,12.329 -4.412,-3.438 1.743,-17.182 5.285,-12.329 m -139.148,1.76 c 0.24,4.01 10.603,6.823 5.284,10.569 -0.24,-4.012 -10.602,-6.824 -5.284,-10.569 m -70.454,5.287 c 3.069,1.627 9.453,-0.065 8.807,5.282 -5.044,0.346 -9.613,0.22 -8.807,-5.282 M 181.42,167.33 c -1.939,4.52 -6.777,6.14 -10.568,8.808 1.098,-5.361 3.912,-9.003 10.568,-8.808 m -503.749,8.808 c 0.212,-4.604 5.19,-13.441 8.807,-8.808 -5.546,0.325 -2.255,9.488 -8.807,8.808 m 14.091,-17.615 c -0.918,6.775 -4.102,20.476 -8.806,17.615 5.306,-3.501 3.5,-14.114 8.806,-17.615 m 186.704,5.285 c 6.842,2.553 8.954,9.835 12.329,15.852 -6.151,-3.24 -7.157,-11.629 -12.329,-15.852 m 302.954,8.805 c -0.075,2.428 0.829,3.869 1.763,5.287 -2.075,0.276 -5.002,-0.305 -5.286,1.76 1.975,0.372 2.743,1.956 3.523,3.524 l -7.044,0 c 1.719,-4.152 0.567,-11.174 7.044,-10.571 m -470.283,5.287 c 5.743,-0.458 8.478,2.089 8.806,7.044 -5.163,-0.121 -6.542,-4.026 -8.806,-7.044 M -77.5,163.808 c -0.889,5.478 5.627,21.311 -1.761,26.422 -2.173,-9.587 -5.442,-20.395 1.761,-26.422 m -28.181,14.092 c -0.63,-4.187 -8.502,-10.13 -3.524,-14.092 7.864,8.59 4.75,28.272 -7.045,24.659 5.287,-1.76 8.809,-5.28 10.569,-10.567 m 287.101,10.567 c -0.388,1.372 -1.474,2.049 -3.523,1.763 l 0,-5.286 c 4.677,1.784 10.023,2.895 10.568,8.807 -6.892,2.782 -3.646,-4.573 -7.045,-5.284 m -438.579,8.806 c -2.336,-5.837 1.186,-7.641 1.762,-10.566 0.422,2.514 2.901,2.969 3.523,5.283 -4.063,-0.538 -1.958,5.087 -5.285,5.283 m 174.376,-7.043 c 1.029,4.181 2.697,8.199 -3.524,8.806 -0.258,-4.37 -0.326,-8.548 3.524,-8.806 m 220.169,-1.763 c 13.119,1.391 -5.65,-11.533 7.046,-10.567 -1.117,5.072 -0.055,19.659 -7.046,10.567 m -15.851,-24.659 c -0.027,9.37 1.103,19.894 -3.523,24.659 -15.631,-6.874 0.721,-31.58 0,-45.795 0.259,3.851 4.437,3.781 8.806,3.522 -0.395,-3.331 1.986,-3.885 1.761,-7.047 -2.578,2.528 -5.581,1.352 -5.284,-3.519 5.549,-0.855 3.988,5.406 10.568,3.519 6.095,-1.301 5.991,-8.79 3.523,-14.089 9.791,-0.983 16.8,0.813 17.614,8.807 -8.73,1.169 -16.701,1.192 -17.614,7.045 -0.032,0.2 5.076,2.996 5.286,3.525 6.395,16.115 3.118,5.89 14.089,14.088 -1.319,-6.6 1.986,-8.583 7.047,-8.806 1.281,4.805 -3.5,3.548 -3.524,7.047 14.901,5.562 11.45,14.196 0,21.136 -7.803,-4.33 -8.33,-5.469 -17.612,-1.762 -0.965,-2.561 2.056,-9.104 -1.762,-8.808 -0.964,2.561 2.057,9.107 -1.763,8.808 -4.96,-7.463 3.044,-17.042 -3.522,-22.897 3.805,8.528 -5.277,30.998 1.761,29.943 -0.825,3.422 -7.89,9.536 -10.568,5.283 6.145,-4.29 5.296,-14.047 1.761,-21.137 1.799,14.127 -3.047,21.615 -10.567,26.421 3.658,-6.363 8.576,-20.726 3.523,-29.943 m -21.139,-14.091 c -0.275,-2.071 0.305,-5 -1.759,-5.282 -4.47,12.305 -2.585,-5.865 -8.807,3.522 2.954,-12.312 3.029,-27.502 17.613,-28.183 3.308,3.116 -2.097,5.141 1.762,8.807 -5.686,-1.578 -2.476,5.744 -5.284,7.047 7.727,2.872 0.229,9.623 -3.525,14.089 m 10.571,-7.045 c 4.608,11.724 0.37,26.488 -8.809,29.941 -7.953,-11.293 -0.717,-25.844 8.809,-29.941 m -10.571,31.705 c -6.609,1.747 -3.837,-8.654 -8.806,-3.523 3.798,-3.25 -1.834,-15.925 5.285,-15.853 -1.257,8.889 2.406,12.861 3.521,19.376 M 79.261,158.523 c 5.7,2.179 1.346,-5.697 7.046,-3.522 -0.264,7.386 0.91,4.241 3.523,1.763 4.147,7.545 -3.164,16.859 5.283,21.136 -11.844,0.103 -13.27,-10.214 -15.852,-19.377 M 63.409,147.957 c 6.238,0.588 4.33,4.846 10.569,1.76 0.763,3.916 4.047,9.551 -1.763,10.567 -4.014,-3.028 -9.399,-4.689 -8.806,-12.327 m -14.092,1.76 c 2.239,5.98 9.771,6.672 10.569,14.091 -15.553,-0.299 -16.277,-15.426 -19.375,-28.18 8.614,5.874 6.093,12.432 19.375,12.329 1.307,8.674 8.801,11.161 12.329,17.613 l -7.044,0 C 61.979,155.854 53.27,150.103 49.317,149.717 m -44.033,3.524 c -0.299,-2.637 0.629,-6.503 -1.761,-7.047 -0.201,2.149 -0.527,4.171 -3.523,3.523 -0.242,-3.28 -1.159,-5.887 -3.523,-7.045 0.497,7.152 -0.643,3.974 -5.284,3.522 0.022,3.5 4.806,2.242 3.522,7.047 -5.277,-3.531 -7.731,-9.883 -19.374,-7.047 -0.751,-9.231 -10.649,-9.315 -21.136,-8.806 3.916,-6.728 -4.119,-4.582 -5.283,-10.567 -3.785,5.357 -7.489,-4.118 -12.33,-3.523 -0.277,2.072 0.302,4.998 -1.762,5.283 -1.16,-5.276 -3.765,1.685 -7.046,0 -1.086,-4.639 -3.492,-2.302 -7.045,-7.047 -0.277,2.072 0.303,5.002 -1.76,5.287 -6.569,-11.187 -0.873,3.178 -8.809,-1.763 0.916,2.607 2.606,4.44 3.523,7.046 l -8.806,0 c -0.087,-9.307 -5.687,-13.103 -7.045,-21.135 13.997,-0.682 21.81,-7.546 31.705,-12.331 13.307,9.352 36.108,1.949 49.316,-3.523 8.172,4.842 25.605,5.141 31.704,-1.76 12.881,6.382 25.855,-2.301 33.467,-7.046 0.389,1.372 1.476,2.048 3.524,1.759 -2.995,15.352 5.731,28.284 1.759,38.753 -4.455,-6.701 -3.328,-18.98 -7.044,-26.423 -0.561,13.131 2.391,16.783 0,26.423 5.051,-4.706 13.622,14.432 7.044,15.851 -1.565,-4.305 -4.103,-7.638 -3.521,-14.091 -2.253,0.097 -2.439,2.259 -5.285,1.76 -2.085,-5.546 -1.981,-13.282 -5.283,-17.612 0.073,15.795 7.634,33.439 7.045,44.035 -6.46,-10.567 -9.189,-24.865 -14.091,-36.99 -1.063,11.666 8.518,21.964 5.285,29.943 -3.575,-5.234 -5.45,-12.163 -10.569,-15.852 6.639,21.169 33.822,42.132 54.602,28.183 0.821,15.454 21.844,24.211 31.705,10.565 -5.345,25.41 19.376,23.977 29.942,19.377 -7.501,11.752 -24.608,8.645 -38.751,8.806 -21.067,0.247 -47.97,6.731 -61.647,-5.282 4.937,-6.809 17.127,-6.36 24.66,-10.57 -17.199,1.275 -29.51,5.13 -42.272,-3.524 4.176,-3.217 10.186,-4.596 15.851,-1.76 4.382,-7.514 -5.443,-7.668 -7.046,-14.09 -5.689,10.64 -9.554,-8.062 -15.85,0 -1.015,-3.097 2.128,-10.349 -1.762,-10.569 -0.021,2.327 -3.087,1.61 -3.523,3.522 6.178,-1.549 3.07,5.806 0,5.285 -5.022,-8.123 6.022,-18.082 -3.523,-10.567 m -73.977,29.943 c -3.365,9.361 6.806,21.564 0,22.896 -0.823,-6.11 -6.494,-20.513 0,-22.896 m -236.021,-24.661 c -1.116,5.932 2.267,16.363 -1.763,19.377 1.116,-5.931 -2.269,-16.361 1.763,-19.377 m 24.657,38.75 c -5.202,4.819 -16.676,-13.568 -26.42,-15.853 -0.826,7.983 -1.313,16.302 -7.045,19.376 3.24,-15.012 7.395,-20.92 12.329,-31.701 5.373,11.064 12.438,20.438 21.136,28.178 m -35.226,-5.283 c 2.688,2.524 1.715,9.182 -3.523,8.806 -2.794,-2.629 -2.575,-10.041 3.523,-8.806 m 454.43,8.806 5.285,0 c -0.401,3.123 1.776,8.82 -3.522,7.047 -0.555,-2.381 -2.508,-3.364 -1.763,-7.047 m -19.375,3.524 c 2.044,-1.477 4.723,-2.325 8.807,-1.763 l 0,5.286 c -4.375,0.262 -7.309,-0.91 -8.807,-3.523 m 63.411,-7.047 5.282,0 c -3.082,6.24 1.173,4.331 1.762,10.57 -2.424,-0.075 -3.867,0.831 -5.283,1.76 -1.212,-6.545 -0.85,-4.606 -1.761,-12.33 M 82.784,204.32 c 6.657,0.388 15.881,-1.79 15.853,5.283 -3.998,-3.048 -14.771,0.681 -15.853,-5.283 M 14.092,193.751 c 2.788,5.485 14.176,11.585 10.568,17.616 -1.588,-6.689 -12.346,-13.42 -10.568,-17.616 M 1.763,204.32 c 5.74,-0.459 8.474,2.092 8.804,7.047 -5.743,0.458 -8.477,-2.093 -8.804,-7.047 m -142.672,1.76 c -2.027,-2.082 -1.994,-6.226 -1.761,-10.566 2.735,-0.407 8.22,-6.772 10.567,-1.763 -4.288,0.995 -9.058,1.506 -8.806,7.045 1.488,5.559 9.082,5.012 10.568,10.571 -6.236,0.952 -4.33,-6.241 -10.568,-5.287 m 302.954,1.763 c 1.769,5.878 -2.442,5.775 -7.045,5.284 -0.53,-4.643 2.438,-5.781 7.045,-5.284 m -58.124,5.284 c -4.163,-4.374 -0.702,-11.052 7.046,-8.807 1.378,1.222 3.92,9.826 0,10.567 -1.196,-5.21 -4.5,-6.603 -7.046,-1.76 m -61.648,-10.57 c 3.339,0.351 5.942,10.274 1.761,12.33 2.231,-5.917 -6.896,-9.316 -1.761,-12.33 m -54.602,10.57 c -1.684,3.28 5.275,5.887 0,7.047 -2.95,-11.092 -8.063,2.731 -12.33,-1.765 4.06,-1.808 5.68,-6.063 12.33,-5.282 m 190.226,1.76 c -4.618,1.255 -1.687,10.054 -7.045,10.569 3.21,-4.951 7.478,-32.729 7.045,-10.569 m 15.854,8.805 c 0.529,4.643 -2.44,5.782 -7.047,5.287 -0.53,-4.641 2.439,-5.782 7.047,-5.287 m -327.613,3.525 c -0.248,1.264 -9.553,-12.603 -7.047,-14.09 2.597,4.449 6.223,7.866 7.047,14.09 m 332.895,-8.808 c 3.746,3.955 1.256,11.607 -3.521,12.33 2.136,-3.144 0.321,-10.247 3.521,-12.33 m -294.146,5.283 c -3.359,-3.303 -3.188,1.047 -8.807,0 1.457,-7.178 0.269,-6.062 0,-14.089 -10.07,-2.697 -8.217,1.156 -17.614,1.764 -27.275,-21.047 48.445,-19.516 14.091,-47.559 11.065,-2.023 10.593,0.966 21.136,1.762 1.611,12.178 -3.357,17.78 -3.523,28.181 -5.324,0.547 -13.698,-1.956 -14.09,3.522 5.553,20.837 14.113,14.797 15.852,31.706 -3.507,2.126 -7.524,1.449 -8.807,0 2.052,-0.294 1.913,-2.786 1.762,-5.287 m -183.182,-1.758 c -4.133,-2.913 -3.814,-10.279 -3.523,-17.614 5.382,1.272 6.419,-1.799 10.568,-1.763 0.275,2.076 -0.302,5.001 1.761,5.286 15.971,-23.806 50.289,-1.952 38.751,26.42 l -5.284,0 c -10.464,-12.751 -22.43,-14.768 -42.273,-12.329 m 306.477,3.522 c 4.263,-2.194 8.556,-4.36 14.091,-5.282 2.096,4.907 2.017,10.715 -1.762,14.089 -2.455,-5.117 -8.692,0.498 -10.569,1.76 1.28,-5.386 -3.037,-5.181 -1.76,-10.567 m 49.318,0 c -2.56,-0.963 -9.103,2.06 -8.807,-1.764 8.691,-3.457 1.28,-1.118 0,-7.043 6.954,2.255 4.262,-5.132 8.807,-5.282 5.525,3.934 4.354,0.85 1.761,-3.524 3.998,3.046 14.77,-0.68 15.852,5.284 -8.956,-0.293 -9.716,0.468 -3.523,3.522 -2.631,3.998 -13.41,-4.19 -15.851,0 -0.298,3.82 6.247,0.798 8.807,1.76 2.82,6.935 -7.607,0.614 -7.046,5.283 6.625,0.204 1.216,7.964 8.807,3.525 0.692,7.152 -0.644,12.272 -7.046,12.329 -1.065,-4.218 -2.532,-8.036 -1.761,-14.09 M -56.364,195.514 c 0.905,14.441 14.532,39.34 5.286,42.272 8.59,-16.534 -12.848,-26.839 -5.286,-42.272 m -5.283,36.989 c 3.105,1.59 5.455,3.938 7.044,7.043 -10.159,1.857 -10.857,-24.829 -7.044,-7.043 m 137.386,-3.524 c -0.301,4.981 1.515,12.085 -3.524,12.33 1.284,-4.001 -3.172,-13.741 3.524,-12.33 m -378.694,5.284 c -9.118,2.53 -22.172,10.078 -29.942,3.523 0.951,-11.38 -2.043,-26.701 1.761,-35.229 5.62,-1.507 5.448,2.772 8.807,3.523 3.14,4.738 -7.758,3.403 -1.762,5.287 10.588,-1.123 22.846,6.389 21.136,22.896 m 0,-44.033 c 5.721,5.436 11.52,10.79 19.377,14.09 -1.131,7.089 2.289,18.728 -1.762,22.897 -10.372,-11.109 -37.439,-20.268 -17.615,-36.987 m 17.615,40.509 c -12.531,-5.084 -21.539,-13.687 -29.943,-22.896 11.515,6.096 21.816,13.409 29.943,22.896 m 294.147,10.57 c 2.854,-2.65 13.683,-1.962 8.806,-7.046 6.275,-0.402 9.21,2.533 8.808,8.806 -4.516,3.637 -13.964,0.923 -17.614,-1.76 M -5.285,199.036 c 0.816,8.827 -1.107,27.105 10.569,29.943 -14.347,1.989 -13.926,-20.09 -10.569,-29.943 m -8.806,44.033 0,-10.566 c 7.175,-5.734 16.467,-2.554 21.136,3.52 -5.733,1.381 -13.952,9.443 -17.613,7.046 4.139,-2.932 -0.643,0.16 -3.523,0 m -140.908,-14.09 c 6.715,2.138 16.896,10.045 14.09,15.851 -0.094,-8.761 -15.783,-11.159 -14.09,-15.851 m 38.749,12.33 c 2.843,-0.299 9.08,-5.911 10.569,-1.763 -2.632,2.653 -10.042,0.528 -8.807,7.047 1.366,0.394 3.473,0.046 3.522,1.76 -4.64,0.53 -5.78,-2.438 -5.284,-7.044 m -59.885,-72.214 c -6.263,-2.741 -1.065,5.98 -5.285,5.282 -1.984,-3.889 -9.006,-2.735 -10.568,-7.047 -0.278,6.439 -1.999,9.438 0,12.33 5.602,-2.692 7.749,-0.617 14.092,0 0.582,-10.782 12.449,-6.737 17.612,-1.76 -2.052,0.296 -1.913,2.783 -1.761,5.284 -30.034,0.926 -23.322,47.284 -3.523,54.602 -10.474,-0.834 -18.706,7.292 -29.944,10.567 -0.431,-10.414 14.421,-5.543 15.853,-14.09 -15.276,-1.162 -35.212,2.335 -47.557,-1.76 6.762,-17.355 -6.887,-29.497 -12.33,-40.513 9.029,-1.495 17.464,-16.483 8.808,-24.66 1.571,41.344 -35.745,11.384 -17.614,8.808 1.341,-6.625 -9.353,-1.216 -7.045,-8.808 5.518,-1.526 9.726,-4.362 12.33,-8.807 -4.859,4.942 -23.146,11.873 -29.943,3.525 4.43,-2.03 12.08,-0.838 12.328,-7.047 -3.807,1.478 -6.007,4.56 -12.328,3.522 -0.758,-3.353 -3.796,-4.425 -3.524,-8.806 7.444,-0.351 13.694,-4.243 21.137,-8.807 4.317,11.132 24.95,21.174 35.228,10.568 l 0,-7.043 c -3.068,0.132 -5.479,-0.396 -7.047,-1.763 l 0,-10.568 c 13.634,8.192 33.586,-10.749 38.751,0 -8.073,0.419 4.513,4.901 -3.523,7.043 7.825,3.903 11.584,-4.286 19.375,1.763 -3.881,11.734 3.673,11.673 12.329,12.331 0.639,7.684 -3.199,10.889 -7.045,14.089 -1.263,-6.491 -5.748,0.293 -7.046,-7.046 1.532,10.856 -4.302,-1.142 -5.284,3.524 2.476,0.461 2.008,3.865 3.524,5.287 m 84.545,66.928 c 2.605,-0.917 4.438,-2.604 7.045,-3.52 0.554,9.36 -0.97,16.643 -8.806,17.613 2.279,-6.26 3.979,-6.403 1.761,-14.093 m -278.295,10.57 c -4.744,-1.13 -4.945,-6.798 -10.568,-7.047 -0.784,-9.573 2.922,-29.504 10.568,-19.372 -2.15,0.198 -4.171,0.523 -3.523,3.518 3.463,-0.523 3.493,2.381 5.284,3.525 7.186,-1.857 12.578,2.347 14.09,-7.043 -2.148,-0.2 -4.169,-0.529 -3.522,-3.525 10.006,2.959 3.954,-10.137 12.328,-8.806 0.391,1.372 1.477,2.047 3.524,1.76 0.43,12.761 0.49,25.151 -3.524,33.466 -4.705,1.166 -11.004,0.737 -14.089,3.524 7.44,-0.044 11.375,3.407 17.613,0 -5.537,6.82 -30.337,3.678 -38.749,1.76 1.874,-4.185 8.112,3.775 10.568,-1.76 M 1.763,244.83 c 7.594,2.975 22.812,-1.678 24.658,7.045 -9.539,-1.029 -20.245,-0.893 -24.658,-7.045 m -156.762,-8.807 c 7.292,-0.774 13.016,12.561 5.283,15.852 -4.011,-3.031 -5.879,-8.208 -5.283,-15.852 m 227.214,12.33 c 6.979,-4.008 7.804,10.789 1.763,8.806 0.719,-4.244 -3.218,-3.828 -1.763,-8.806 m -209.601,-1.76 c 1.603,4.51 2.854,9.985 -1.761,12.329 1.047,-3.649 -2.177,-11.572 1.761,-12.329 m -220.17,8.806 c 0.859,-2.434 15.879,-4.274 14.091,1.76 -0.859,2.434 -15.879,4.277 -14.091,-1.76 m -22.897,-1.759 c 4.42,1.447 15.165,-3.428 14.089,3.519 -2.938,3.959 -15.167,2.371 -14.089,-3.519 m 44.034,-47.56 c 1.843,14.192 5.165,45.075 -1.762,56.366 -0.327,-19.805 -3.998,-39.603 1.762,-56.366 m 29.942,63.409 c -12.359,-2.899 -35.777,-30.282 -14.091,-12.33 0.263,-2.344 -7.161,-5.313 -1.761,-7.043 4.247,6.037 16.13,4.592 21.136,5.283 -0.196,4.5 -3.227,6.164 -5.284,8.807 -1.547,0.946 -8.307,-6.449 -10.567,-3.524 4.537,1.923 8.464,4.454 10.567,8.807 m -22.897,-10.567 c 4.944,2.099 11.229,2.859 10.568,10.567 -5.693,-1.351 -9.216,-4.875 -10.568,-10.567 M -5.285,248.353 c 4.357,6.65 -2.496,20.126 -10.568,24.659 -14.243,-6.306 -25.104,-15.992 -33.463,-28.182 21.658,-17.873 -14.636,-37.199 0,-59.886 0.252,9.141 11.273,7.514 14.088,14.092 -5.76,0.695 -4.284,8.631 -5.284,14.091 8.403,6.91 10.809,25.048 24.659,21.136 1.074,4.211 -2.21,12.778 1.762,14.09 4.369,2.288 8.547,-3.929 8.806,0 m -31.704,21.136 c -2.251,0.096 -2.44,2.258 -5.283,1.763 l 0,-10.57 c 4.825,0.179 15.749,10.022 7.044,12.33 -0.393,-1.365 -0.047,-3.473 -1.761,-3.523 M 70.454,251.875 c 0.144,7.552 7.358,17.225 1.761,24.66 3.022,-10.712 -5.786,-18.792 -1.761,-24.66 m -336.419,22.9 c -2.902,-2.972 -3.827,-7.916 -7.045,-10.569 -0.009,3.145 4.742,10.247 0,12.329 0.519,-7.635 -8.197,-15.199 -3.524,-21.136 0.243,3.281 1.159,5.887 3.524,7.047 0.485,-3.089 -4.959,-8.79 0,-10.571 -1.023,10.46 10.885,17.239 10.568,21.137 -0.855,-3.135 -1.879,0.764 -3.523,1.763 m -14.092,-3.523 c -2.354,-5.868 -7.245,-9.195 -7.045,-17.612 2.424,0.075 3.867,-0.831 5.284,-1.765 0.516,1.083 4.381,6.782 0,7.047 -0.394,-1.368 -0.048,-3.473 -1.76,-3.523 -0.216,7.847 4.345,10.919 5.283,17.613 -2.776,0.16 -1.378,4.493 -5.283,3.523 l 0,-3.523 c 0.099,-1.073 0.262,-2.085 1.76,-1.76 -0.005,0.976 1.427,1.999 1.761,0 M 35.228,255.399 c 2.406,4.127 3.293,18.914 0,22.897 -1.574,-4.962 -3.856,-18.355 0,-22.897 m -162.045,-28.182 c -6.553,-10.279 0.099,-8.642 1.761,1.762 -1.306,11.022 -2.396,22.263 -1.761,35.227 -12.546,36.368 2.594,-22.86 0,-36.989 m -216.648,51.079 c 1.55,-4.321 1.585,-10.155 7.046,-10.567 -0.646,5.226 -3.054,8.69 -7.046,10.567 m 33.466,-7.044 c 0.316,4.964 8.371,2.195 7.044,8.807 -3.916,-0.332 -12.338,-5.087 -7.044,-8.807 m -65.171,-5.287 c -1.072,4.215 2.212,12.783 -1.762,14.094 0.264,-5.207 -5.119,-12.433 1.762,-14.094 M 33.467,250.116 c 4.804,-0.16 3.544,2.932 7.044,0 -1.151,10.005 2.316,24.626 -1.762,31.703 -0.589,-11.738 2.762,-27.419 -5.282,-31.703 m -61.648,22.896 c 2.609,-2.636 9.102,-0.162 8.807,5.284 -2.148,0.198 -4.171,0.527 -3.524,3.523 0.979,-0.004 2,1.427 0,1.763 -0.703,-4.579 -5.256,-5.313 -5.283,-10.57 m 84.545,-21.137 c 3.135,10.372 4.415,22.595 8.807,31.707 -9.976,0.93 -10.546,0.312 -21.137,0 -0.225,-7.378 -1.418,-15.123 -1.761,-26.423 4.263,-2.191 8.556,-4.36 14.091,-5.284 m -22.897,-5.282 0,-8.807 c 9.914,-2.544 7.699,1.674 17.613,1.76 l 0,-7.043 c -2.514,0.421 -2.972,2.899 -5.284,3.52 1.048,-3.646 -2.177,-11.57 1.762,-12.331 0.689,12.165 0.387,-4.432 8.806,0 1.824,4.636 2.107,10.81 1.76,17.617 -6.087,4.978 -14.852,8.85 -24.657,5.284 m 8.806,7.047 c 0.835,-6.214 8.301,-5.793 14.091,-7.047 -0.835,6.209 -8.302,5.787 -14.091,7.047 M 29.942,237.786 c 2.895,10.271 2.895,41.39 0,45.796 2.527,-16.64 -4.985,-32.56 0,-45.796 m -273.009,35.226 c 1.187,4.097 9.241,1.328 7.045,8.807 -6.951,-4.265 -8.105,-2.316 -12.33,3.522 2.029,-3.841 0.35,-11.392 5.285,-12.329 m 246.59,3.523 c 3.648,-1.049 11.572,2.179 12.329,-1.76 -4.682,-6.571 3.388,-0.119 3.523,-3.523 -2.44,-1.083 -0.265,-6.781 -3.523,-7.046 -4.304,2.005 -8.534,1.779 -14.089,-1.76 l 0,-10.571 c 9.641,-0.245 16.754,2.033 24.658,3.524 8.047,24.131 -13.86,42.213 -22.898,21.136 M 0,244.83 c -2.281,20.176 5.969,33.701 -1.762,42.273 C 0.01,273.43 -4.998,250.275 0,244.83 m -297.67,-19.374 c 1.989,16.973 4.289,55.174 0,61.647 -2.837,-16.549 -3.003,-45.123 0,-61.647 m 415.682,-5.282 c -1.48,2.041 -2.323,4.721 -1.762,8.805 8.331,3.421 5.732,-3.394 12.329,1.76 -0.253,-2.082 -3.136,-3.991 0,-5.283 8.86,6.978 28.334,10.032 38.75,5.283 0.232,4.344 0.268,8.488 -1.762,10.57 -6.341,-3.191 -5.19,0.313 -10.567,1.76 -3.385,-7.953 -6.217,-7.636 -14.09,-8.806 0.394,3.331 -1.986,3.884 -1.763,7.046 2.044,1.478 4.723,2.322 8.807,1.76 -3.94,13.442 4.795,13.227 14.091,14.09 -4.57,9.029 0.869,24.619 -1.761,31.706 -7.198,0.741 -7.12,-5.797 -15.852,-3.524 -3.026,-2.258 -0.036,-10.532 -5.285,-10.566 -26.052,4.573 -3.624,-28.966 -29.942,-24.659 -0.975,3.134 -0.905,7.312 -3.523,8.806 -6.896,-5.87 -7.965,0.903 -14.092,-1.763 -0.202,4.493 -0.33,9.062 -5.283,8.806 -6.299,-15.435 5.169,-27.465 1.761,-45.791 7.935,1.473 5.771,-7.147 12.328,-7.047 -2.628,8.501 4.392,7.352 10.571,7.047 -0.222,4.405 -3.363,5.512 1.761,7.043 1.685,-1.452 3.596,-11.391 5.284,-7.043 m -35.228,22.895 c -1.162,15.275 2.334,35.213 -1.763,47.556 2.251,-11.296 -6.332,-37.128 1.763,-47.556 m -343.466,36.99 c 6.781,-0.193 1.587,16.632 1.762,12.329 -6.25,-5.383 1.635,-5.522 -1.762,-12.329 m 285.342,8.806 c 4.779,1.089 13.979,-2.234 15.851,1.76 -4.581,5.207 -13.782,7.207 -15.851,-1.76 m -317.046,-5.283 c 6.724,0.85 11.243,-0.501 14.091,-3.523 -1.284,4.805 3.5,3.543 3.524,7.044 -7.114,-2.415 -6.237,3.156 -8.807,5.285 -0.723,-2.215 -2.272,-3.599 -5.285,-3.523 0.916,2.607 2.607,4.44 3.523,7.047 -6.402,-0.06 -7.737,-5.181 -7.046,-12.33 m -61.648,-1.763 c -1.549,4.323 -1.586,10.158 -7.044,10.569 4.801,-8.115 4.464,-21.368 12.329,-26.423 4.707,3.345 -7.335,10.271 -1.761,14.094 2.222,-5.41 2.669,-12.596 8.806,-14.094 -2.537,9.02 -9.994,18.302 -7.045,22.9 -1.765,-2.347 -2.904,-5.317 -5.285,-7.046 m -14.09,15.853 c 4.472,-10.208 3.881,-25.474 12.329,-31.707 0.493,8.159 -4.832,25.676 -12.329,31.707 m -5.284,1.76 c 3.863,-10.813 3.521,-25.835 10.568,-33.467 0.752,8.419 -4.297,26.211 -10.568,33.467 m -1.762,-10.567 c 3.477,-6.506 -1.793,-21.758 7.046,-22.9 -2.762,7.223 -0.327,19.639 -7.046,22.9 m 65.171,1.76 c -5.294,2.401 -11.961,12.619 -17.614,8.807 7.724,-1.614 12.159,-14.113 21.136,-8.807 0.857,4.55 -6.229,9.985 -8.806,5.287 1.568,-1.033 10.046,-3.704 5.284,-5.287 m 243.067,12.33 0,5.286 c -4.805,0.156 -3.545,-2.935 -7.046,0 -0.53,-4.642 2.441,-5.781 7.046,-5.286 m -290.624,-3.523 c -5.198,2.434 -7.131,8.136 -12.329,10.569 0.546,-5.987 10.487,-11.721 12.329,-10.569 m 223.694,-1.76 c 3.5,-0.024 2.237,-4.805 7.045,-3.524 17.98,9.876 -7.258,28.369 -7.045,3.524 m -147.956,5.283 c 3.28,1.683 5.887,-5.273 7.047,0 -2.609,0.328 -1.617,4.257 -1.763,7.046 -2.606,0.917 -4.439,2.607 -7.044,3.524 0.473,-9.328 7.539,0.266 1.76,-10.57 m -45.795,-22.896 c -9.895,15.351 -25.016,25.476 -40.511,35.226 11.762,-13.483 28.63,-21.861 40.511,-35.226 m -26.421,19.373 c 1.39,-8.591 10.695,-9.268 14.092,-15.85 -3.282,-1.687 -5.888,5.273 -7.045,0 5.755,-0.01 10.683,-11.898 14.09,-3.523 -8.865,4.639 -10.697,16.312 -21.137,19.373 m 31.705,10.569 c 4.381,0.266 0.515,5.964 0,7.047 -3.627,1.544 -7.908,-4.569 -3.522,-5.287 5.353,7.452 0.972,-8.342 3.522,-1.76 m 7.046,0 c 0.757,2.767 5.539,1.504 3.522,7.047 -4.373,-2.292 -7.309,5.166 -8.807,0 3.631,-0.482 0.42,-7.801 5.285,-7.047 m 479.091,19.374 c 0.298,-2.634 -0.629,-6.499 1.759,-7.043 1.47,1.67 9.305,5.685 3.524,8.806 -0.295,-2.052 -2.784,-1.912 -5.283,-1.763 m -304.717,-8.807 c -0.702,9.511 9.303,8.312 14.092,12.33 -7.767,0.076 -19.073,-5.506 -14.092,-12.33 m -181.42,3.523 c -1.272,5.383 1.802,6.419 1.761,10.57 -2.381,0.554 -3.364,2.507 -7.045,1.759 1.189,-4.681 2.773,-8.969 5.284,-12.329 m -15.852,-1.759 c 8.84,-1.256 6.878,6.232 12.33,0 0.085,5.369 -1.601,8.965 -5.285,10.566 -0.242,-3.281 -1.159,-5.885 -3.523,-7.044 -1.91,4.51 5.351,8.396 0,10.566 -3.022,-2.849 -4.375,-7.364 -3.522,-14.088 m 477.328,10.566 c 4.973,-4.453 8.877,2.839 10.569,7.046 -4.805,0.16 -3.546,-2.936 -7.044,0 2.017,-5.539 -2.767,-4.28 -3.525,-7.046 m -438.578,-7.044 c -0.688,7.094 3.275,7.824 -1.762,10.566 2.636,0.303 6.501,-0.626 7.047,1.765 -2.046,1.478 -4.723,2.32 -8.809,1.759 0.548,-5.323 -1.956,-13.697 3.524,-14.09 m -12.33,10.566 c -0.518,-3.589 -4.765,-3.453 -5.283,-7.045 4.979,0.286 4.103,-5.291 8.806,-5.284 -0.299,7.429 2.707,-0.03 5.283,0 -1.366,3.919 -1.016,9.551 -5.283,10.57 -0.855,-2.082 -1.878,-3.994 -3.523,-5.286 -1.683,3.281 5.275,5.887 0,7.045 m -5.283,-1.759 c 0.63,5.824 9.618,3.297 10.567,8.806 -4.833,-0.55 -15.613,-4.214 -10.567,-8.806 m -22.898,-1.763 c -0.561,4.084 0.282,6.765 1.761,8.806 -4.243,-0.72 -3.829,3.217 -8.806,1.763 1.084,-4.785 3.493,-8.249 7.045,-10.569 m -10.568,7.046 c 1.072,-4.21 -2.212,-12.778 1.761,-14.09 2.078,4.377 6.519,13.273 -1.761,14.09 m 517.839,0 c 0.808,5.503 -3.763,5.632 -8.807,5.283 -2.23,-6.926 4.155,-5.237 8.807,-5.283 m -519.601,5.283 c -6.724,1.442 -6.819,-3.748 -8.806,-7.042 5.163,0.119 6.541,4.024 8.806,7.042 m -10.568,-14.089 c 3.33,-0.396 3.886,1.985 7.045,1.76 0.855,-2.079 1.879,-3.991 3.523,-5.284 l 0,12.33 c -5.501,-0.956 -8.721,-4.197 -10.568,-8.806 m 382.215,14.089 c -2.045,1.479 -4.723,2.325 -8.808,1.764 -1.694,-6.475 8.654,-7.003 8.808,-1.764 m 96.875,-73.975 c -1.658,4.21 -4.595,7.146 -8.807,8.807 -1.724,20.582 22.079,17.257 19.375,-1.763 l 12.329,0 c -0.834,5.532 2.198,7.198 5.285,8.807 -4.436,6.467 -1.528,10.569 -3.522,17.616 -13.029,0.487 -12.715,20.976 -1.763,15.849 l 0,8.807 c -5.659,1.55 -2.414,-5.806 -7.043,-5.284 -6.629,5.702 -15.872,8.79 -14.092,22.9 -4.244,0.721 -3.829,-3.218 -8.807,-1.764 -1.572,-5.472 -1.812,-12.276 -8.809,-12.329 -12.473,5.323 -13.595,18.197 -28.181,17.616 -2.611,-2.085 -2.738,-6.654 -5.282,-8.81 -7.443,-0.043 -11.377,3.41 -17.616,0 4.415,-21.093 22.619,-36.91 47.558,-31.703 0.18,-1.976 -2.561,-2.742 0,-3.522 1.273,6.421 9.18,14.969 15.853,21.135 -3.345,-22.44 -38.133,-33.728 -24.66,-56.362 2.637,2.647 3.152,7.415 7.045,8.807 l 8.808,0 c 1.267,-7.416 9.385,-12.529 12.329,-8.807 m -35.229,31.703 c -0.074,-2.424 0.832,-3.866 1.763,-5.283 l 3.523,0 c -2.74,6.259 5.982,1.063 5.283,5.283 -6.579,-0.159 -5.019,-1.972 -10.569,0 m -1.76,0 c -2.251,2.444 -8.316,1.079 -10.568,3.524 0.295,-4.992 3.229,-7.339 3.522,-12.331 5.31,5.699 6,-1.607 10.569,1.764 -2.364,1.159 -3.281,3.762 -3.523,7.043 M 44.034,336.42 c -1.091,-4.778 2.237,-13.976 -1.761,-15.852 -0.186,4.513 -0.998,8.398 -3.524,10.57 3.174,-11.839 -5.106,-29.512 -1.761,-29.943 0.277,2.072 -0.301,4.998 1.761,5.284 -0.259,-4.371 -0.326,-8.548 3.524,-8.807 1.227,6.993 -3.07,19.509 3.523,21.136 -1.451,-5.482 -4.904,-22.103 1.762,-24.66 2.338,6.588 -5.252,12.178 0,15.853 1.207,-6.425 -0.386,-15.65 7.045,-15.853 -5.644,11.971 -3.774,31.455 -10.569,42.272 m 10.569,-24.659 c -0.187,4.513 -0.999,8.398 -3.523,10.571 -0.067,-11.809 4.518,-18.968 5.284,-29.944 6.931,-2.822 0.613,7.605 5.284,7.044 -0.492,-4.015 0.425,-6.619 3.523,-7.044 -2.493,6.705 -5.148,26.722 -10.568,19.373 m 7.045,-1.76 c 1.991,-6.817 3.33,-14.282 8.806,-17.613 -2.014,6.792 -1.093,16.521 -8.806,17.613 m 15.852,-1.76 c -6.317,-0.448 -6.453,5.287 -12.329,5.284 -0.281,-5.097 10.571,-8.059 12.329,-5.284 m -401.591,49.317 -7.045,0 c 0.964,-2.561 -2.059,-9.102 1.762,-8.807 -2.257,6.954 5.132,4.263 5.283,8.807 m 66.932,-3.524 c 13.955,-10.52 30.123,-0.13 49.318,-1.76 -6.341,12.423 -38.809,6.678 -49.318,1.76 m 387.5,-5.283 c 2.425,0.076 3.868,-0.831 5.284,-1.76 -0.486,3.085 4.959,8.787 0,10.567 -1.969,-2.73 -5.726,-3.67 -5.284,-8.807 m -420.966,12.33 c -3.171,-22.263 7.593,-5.948 0,0 m 88.069,-5.284 0,14.09 -12.33,0 c -2.132,-10.938 5.527,-12.088 12.33,-14.09 m -54.603,5.284 c 12.147,3.118 37.672,-7.14 38.751,7.046 -9.701,1.452 -39.287,7.604 -38.751,-7.046 m 287.101,3.523 c 2.971,-0.721 7.917,-8.299 10.569,-3.523 -5.102,0.985 2.701,2.746 1.762,5.283 -3.586,0.525 -4.693,3.53 -7.045,5.286 1.549,-5.661 -5.806,-2.414 -5.286,-7.046 m -362.839,0 c 0.816,5.513 -1.531,7.863 -7.045,7.046 0.214,-4.483 2.563,-6.831 7.045,-7.046 m -14.09,-17.613 c 6.221,1.405 9.642,5.669 14.09,0 -0.035,5.246 0.164,10.733 -5.284,10.567 -0.66,-5.798 -9.364,-3.554 -8.806,-10.567 m -1.762,14.09 c -2.176,-5.699 5.698,-1.345 3.521,-7.047 -0.978,0.006 -1.998,-1.425 0,-1.76 0.172,4.526 6.876,2.517 7.047,7.046 -2.082,2.026 -6.226,1.993 -10.568,1.761 m 5.284,7.046 c 0.527,-3.463 -2.378,-3.493 -3.522,-5.286 6.229,1.55 9.073,-4.523 10.568,1.763 -3.5,0.023 -2.24,4.805 -7.046,3.523 m 375.17,-56.366 c 3.954,9.212 -2.633,-4.824 1.762,-5.282 3.448,3.967 1.475,13.189 -1.762,15.853 0.486,-3.089 -4.96,-8.79 0,-10.571 m -12.33,-15.849 c 4.392,-0.308 11.061,11.994 3.523,12.329 1.159,-6.445 -3.812,-6.758 -3.523,-12.329 m 15.853,59.885 c -0.302,-4.984 1.514,-12.083 -3.523,-12.33 -2.292,4.374 5.166,7.309 0,8.807 -3.127,-8.053 -9.863,-26.512 -1.763,-21.136 -3.574,-12.881 -17.664,-24.587 -14.09,-38.75 3.011,8.731 7.607,15.877 8.808,26.42 8.959,-2.036 13.328,33.167 10.568,36.989 M 19.375,322.332 c -5.66,-6.698 -13.114,-20.904 -10.568,-29.944 3.516,8.84 13.018,20.998 10.568,29.944 M 1.763,308.241 c -3.837,-3.21 -5.535,-8.557 -7.048,-14.093 5.79,0.169 10.681,10.341 7.048,14.093 m 1.76,-15.853 c -0.465,6.463 11.89,16.481 3.522,19.373 0.14,-6.671 -8.004,-14.202 -3.522,-19.373 m -267.727,-24.659 c -0.252,-4.752 -11.746,-14.024 -3.523,-15.854 -1.851,7.237 8.291,11.537 3.523,15.854 m -51.079,14.09 c -18.192,8.823 -31.055,32.346 -49.319,35.229 18.267,-8.75 31.057,-32.343 49.319,-35.229 m -28.182,28.182 c 6.548,-9.908 19.581,-22.667 29.943,-22.898 -10.793,6.82 -20.003,15.225 -29.943,22.898 m -21.137,15.853 c 17.807,-10.964 32.918,-24.619 59.888,-26.422 0.864,4.443 1.559,7.282 8.806,8.809 1.464,-5.655 1.499,-3.653 -1.762,-7.046 6.584,-0.126 10.087,2.829 12.33,7.046 -2.608,0.326 -1.616,4.255 -1.762,7.044 -3.331,0.395 -3.886,-1.986 -7.044,-1.76 4.685,3.852 0.899,9.48 3.521,12.329 10.19,-4.201 10.312,0.35 19.375,-1.763 3.385,3.152 8.423,13.788 12.33,10.57 -3.562,-9.942 -13.288,-13.721 -19.375,-21.136 16.738,14.322 44.396,5.601 61.648,22.895 4.026,-2.429 10.989,-1.925 10.567,-8.806 -8.233,5.27 -4.104,-1.553 -7.045,-5.282 -3.656,8.534 -2.917,-6.702 -10.567,0 0.346,-7.087 0.218,-7.213 -5.286,-5.284 -2.284,-4.37 3.931,-8.548 0,-8.807 -2.251,0.096 -2.439,2.255 -5.283,1.76 0.492,-5.14 -0.425,-6.056 -3.523,-3.522 0.377,-12.045 13.241,-0.758 14.092,-12.331 -2.425,-0.076 -3.868,0.831 -5.286,1.764 -1.844,-10.065 8.721,-7.721 8.809,-15.853 7.581,0.534 14.214,0.123 14.089,-7.047 -9.585,4.154 -3.33,-2.923 -7.045,-7.047 -0.854,2.082 -1.877,3.995 -3.522,5.287 -1.769,-2.341 -1.666,-6.555 -5.284,-7.046 l 0,7.046 c -3.957,-1.195 -7.651,-6.469 -12.33,-1.763 -2.442,-1.079 -0.265,-6.781 -3.523,-7.043 -0.372,1.975 -1.954,2.739 -3.522,3.519 -0.742,-3.366 -0.639,-7.58 -5.285,-7.043 1.304,12.38 -5.701,-3.629 -7.044,1.76 -0.318,5.745 4.138,8.479 -3.524,8.807 1.836,-12.403 -11.45,-9.684 -10.568,-21.136 17.245,12.645 35.882,-0.632 54.602,-5.284 1.238,7.162 3.537,15.973 12.33,10.571 -3.023,6.026 1.936,10.911 -1.761,17.612 2.424,-0.076 3.867,0.83 5.285,1.76 -0.255,-2.082 -3.139,-3.991 0,-5.283 0.702,7.515 8.773,7.664 10.566,14.09 5.215,-7.106 5.001,3.088 12.33,1.763 -0.978,-0.007 -2,1.425 0,1.759 2.369,-4.09 2.915,-10.002 5.285,-14.089 8.753,1.886 8.353,7.242 7.045,15.851 9.738,0.829 10.194,10.943 14.091,17.616 -1.837,4.034 -6.847,4.894 -8.806,8.806 5.63,6.698 8.406,16.251 14.09,22.895 21.757,13.367 46.345,-2.273 33.465,-28.179 8.843,-10.692 -0.954,-25.144 -5.283,-33.466 8.998,0.984 5.69,14.27 17.613,12.328 3.708,-1.868 -2.65,-12.577 3.524,-7.044 -1.854,0.096 -1.387,2.258 1.761,1.76 0.527,3.463 -2.379,3.494 -3.523,5.284 7.599,1.403 8.469,-7.301 3.523,-8.807 4.149,-0.04 5.185,3.034 10.569,1.763 0.209,-3.451 4.196,-10.401 -3.524,-10.57 -2.849,2.437 -4.337,6.233 -10.568,5.286 4.287,-3.165 8.009,-7.116 14.092,-12.329 3.631,0.477 0.419,7.796 5.283,7.043 5.379,-3.918 7.91,-7.969 5.285,-15.849 -7.027,1.739 -5.306,-5.267 -12.33,-3.524 3.723,-5.672 -1.03,-19.818 5.283,-22.899 6.442,8.015 5.715,-5.888 10.568,-5.283 -8.756,24.506 22.276,23.168 21.137,45.795 -9.151,2.669 -4.008,7.206 -10.569,5.283 3.557,7.95 -4.359,7.359 1.761,14.091 -1.373,0.391 -2.047,1.477 -1.761,3.522 -8.082,0.458 -8.509,1.873 -15.852,0 -3.084,6.239 1.174,4.333 1.763,10.57 -10.933,2.995 -18.786,-8.611 -26.422,-1.763 -0.497,9.54 0.513,26.884 15.854,19.376 2.079,2.617 1.524,7.871 7.043,7.046 0.079,5.36 -3.717,6.848 -5.283,10.566 6.367,1.267 5.673,9.594 14.091,8.807 -1.818,-8.274 6.136,-6.78 3.523,-15.852 3.122,-0.399 8.82,1.776 7.044,-3.521 3.916,0.764 9.553,4.048 10.569,-1.763 -6.108,-2.038 -3.244,0.826 -5.282,-5.283 5.531,0.837 7.194,-2.198 8.804,-5.283 -2.995,-6.568 1.04,-2.79 1.763,-8.806 -8.123,2.251 -2.922,-8.823 -12.329,-5.287 1.672,-5.957 6.647,-8.614 10.566,-12.329 -0.394,2.995 1.986,4.358 1.763,0 8.436,0.331 -3.024,3.064 0,8.809 7.025,0.966 5.304,0.966 12.328,0 -4.184,-4.397 2.534,-7.817 5.284,-10.571 14.866,9.435 -23.308,24.972 -10.567,31.707 -7.11,2.869 -11.772,8.189 -14.091,15.85 17.607,-34.679 71.041,-29.67 73.977,15.853 -5.923,-10.537 -14.849,-42.671 -36.989,-36.99 17.006,2.372 26.026,12.728 29.944,28.183 -6.215,-3.403 -7.877,0.827 -14.092,1.76 0.176,-5.458 -0.797,-9.77 -3.522,-12.329 -16.777,2.181 -31.081,11.639 -29.944,26.422 -8.058,0.276 -17.654,5.237 -10.568,15.853 -14.19,2.867 -36.98,-1.73 -59.886,0 -17.645,-13.475 -52.545,-9.689 -68.693,-24.659 -48.338,2.663 -84.308,-1.358 -125.057,-8.806 -0.606,-4.092 -1.139,-8.256 -7.045,-7.047 1.533,-10.557 -2.768,-11.367 -10.568,-8.806 3.517,-7.476 -12.089,-16.987 1.761,-19.377 -26.51,0.498 -37.958,16.059 -58.125,22.899 m 31.705,-10.569 c -8.109,-1.063 -4.966,9.125 -10.568,10.569 -0.389,-1.375 -1.475,-2.048 -3.522,-1.763 0.596,-5.937 9.11,-13.096 14.09,-8.806 m 135.626,40.512 c 7.242,2.737 14.021,5.938 21.136,8.807 -1.488,7.359 3.424,8.318 3.522,14.09 -6.089,-2.953 -11.671,1.441 -21.137,0 0.56,-6.257 -5.116,-11.019 -3.521,-22.897 m -68.694,19.373 c 5.072,-0.209 3.056,-7.511 8.806,-7.043 -1.609,3.085 -0.606,8.787 -3.523,10.567 -0.027,-2.909 -4.884,-0.986 -5.283,-3.524 m -22.898,-10.566 c 0.388,1.371 1.474,2.049 3.523,1.76 1.126,9.348 -6.944,9.497 -10.568,14.093 -4.211,-5.934 0.651,-14.973 7.045,-15.853 m 86.307,17.613 c -2.27,2.428 -7.652,1.743 -12.33,1.76 -0.677,-8.538 9.829,-4.423 12.33,-1.76 m -77.501,-14.09 c 7.797,2.511 4.61,-5.96 10.568,-5.286 1.021,5.718 -1.199,8.195 -1.761,12.329 -5.164,-0.119 -6.542,-4.024 -8.807,-7.043 m 5.286,15.85 c -5.767,-3.301 -9.153,-5.024 -7.047,-14.09 1.532,2.58 2.638,5.582 7.047,5.283 -1.234,5.423 -1.234,3.388 0,8.807 m 77.5,0 c 2.671,-6.117 27.125,-5.3 29.942,0 -7.368,3.699 -22.153,1.554 -29.942,0 m -54.603,-5.283 c 3.33,0.362 17.402,-1.189 12.328,1.763 -6.561,-1.866 -5.685,3.706 -8.806,5.283 -0.917,-2.607 -2.605,-4.44 -3.522,-7.046 m 383.978,-3.524 c 7.301,-0.475 6.861,2.315 12.328,0 -1.781,-8.238 7.064,-5.851 5.284,-14.089 4.599,0.684 9.663,0.902 12.329,3.523 -4.128,14.119 -27.36,34.359 -29.941,10.566 m -371.65,8.807 c 6.393,1.697 1.48,-7.914 7.047,-7.043 l 0,12.329 c -4.408,0.299 -5.514,-2.706 -7.047,-5.286 m -61.647,-3.52 c 6.185,1.391 5.793,4.948 10.568,0 l 0,8.806 c -5.838,-0.62 -7.641,-5.276 -10.568,-8.806 m 72.215,-3.523 c 1.041,3.619 3.391,7.335 7.047,3.523 1.021,7.478 -4.747,8.169 -8.807,10.566 1.073,-4.21 -2.211,-12.777 1.76,-14.089 m -59.885,0 c 6.233,0.225 1.78,11.134 8.806,10.566 -3.353,0.757 -4.424,3.796 -8.806,3.523 l 0,-14.089 z m -10.568,8.806 c 0.543,4.155 6.117,3.278 5.285,8.806 -4.548,0.857 -9.986,-6.229 -5.285,-8.806 m 73.976,5.283 c 5.075,-0.209 3.058,-7.511 8.808,-7.046 -1.781,3.606 -1.226,18.603 -7.045,12.33 6.915,-2.61 0.338,-2.74 -1.763,-5.284 m -36.987,-3.523 c 6.66,2.551 3.379,-4.838 8.807,-3.523 l 0,10.569 c -5.272,-0.012 -7.402,-3.164 -8.807,-7.046 m 5.283,10.57 c -5.263,-0.608 -7.013,-4.729 -8.806,-8.807 4.247,1.624 7.183,4.56 8.806,8.807 m -24.659,0 c -2.213,-0.724 -3.6,-2.271 -3.522,-5.283 5.529,0.83 4.652,-4.742 8.806,-5.287 -0.82,6.811 -8.363,6.947 -1.761,12.33 -3.671,3.072 -14.398,1.189 -8.807,-3.523 -0.539,2.135 5.09,6.073 5.284,1.763 m 29.944,-1.763 c 1.013,-3.096 -2.13,-10.348 1.76,-10.567 2.081,4.659 1.524,5.469 7.047,3.523 3.948,5.436 -2.28,24.986 -8.807,14.09 7.747,0.21 -0.715,-6.917 8.807,-10.566 -4.382,-0.272 -5.453,2.766 -8.807,3.52 m -51.081,3.523 c 4.807,-0.159 3.547,2.935 7.047,0 0.299,4.41 -2.706,5.516 -5.285,7.046 -0.555,-2.38 -2.507,-3.364 -1.762,-7.046 m 155.001,10.569 c -2.426,-0.076 -3.867,0.828 -5.285,1.761 1.348,-5.111 2.786,-10.132 7.047,-12.33 0.099,1.076 0.262,2.086 1.759,1.763 -0.393,1.365 -0.047,3.474 -1.759,3.52 -2.024,-3.204 1.072,4.968 -3.524,3.524 1.075,0.099 2.086,0.265 1.762,1.762 m -3.523,-15.853 c -2.428,5.845 -7.743,18.019 -12.33,15.853 6.298,-3.097 6.308,-12.482 12.33,-15.853 m -17.613,15.853 c 6.022,-3.373 6.032,-12.754 12.33,-15.853 -1.621,6.652 -8.157,17.604 -12.33,15.853 m 7.045,-15.853 c -2.119,6.154 -7.388,18.374 -12.33,15.853 6.297,-3.097 6.308,-12.482 12.33,-15.853 m -5.284,0 c -2.118,6.154 -7.388,18.374 -12.33,15.853 6.406,-2.988 5.176,-13.614 12.33,-15.853 m -5.284,1.761 c -4.178,3.516 -7.278,17.304 -12.33,14.092 5.054,-2.639 7.392,-17.188 12.33,-14.092 m -7.046,-1.761 c -0.983,6.709 -6.774,17.807 -10.568,15.853 5.071,-3.735 4.558,-13.056 10.568,-15.853 m -5.284,0 c -2.342,7.054 -4.555,14.233 -10.569,17.614 3.091,-6.303 5.304,-13.486 10.569,-17.614 m -15.852,17.614 c 2.815,-6.578 5.028,-13.761 10.568,-17.614 -2.341,7.054 -4.554,14.233 -10.568,17.614 m -17.613,0 c -0.242,-3.282 -1.158,-5.888 -3.523,-7.047 0.077,1.876 -0.83,4.473 -1.761,1.763 0.371,-1.975 1.954,-2.742 3.523,-3.523 0.853,2.083 1.878,3.992 3.522,5.284 1.366,-5.679 3.682,-10.408 7.046,-14.091 -9.165,28.758 7.395,1.323 5.283,15.853 2.139,-4.907 3.623,-10.47 7.047,-14.092 -1.086,19.214 -12.933,12.681 -21.137,15.853 m -19.376,-10.567 c 0.644,7.893 5.199,5.184 8.806,7.044 -3.358,0.75 -3.186,5.033 -8.806,3.523 1.911,-4.51 -5.35,-8.398 0,-10.567 m -61.647,7.044 c 5.084,-0.788 4.164,-7.578 8.806,-8.807 1.457,4.978 -2.482,4.563 -1.761,8.807 2.15,0.198 4.171,0.528 3.523,3.523 -4.671,-0.027 -10.371,0.976 -10.568,-3.523 m 51.079,1.762 c 5.54,2.017 4.28,-2.766 7.046,-3.523 0.553,2.381 2.507,3.364 1.76,7.047 -4.368,0.259 -8.547,0.326 -8.806,-3.524 m 22.897,1.761 c -2.739,0.458 -1.221,3.862 0,5.283 -11.683,2.717 -4.062,-10.915 0,-5.283 m -51.079,-14.09 c 6.186,1.391 5.794,4.948 10.569,0 -0.784,4.499 -2.471,8.096 -5.285,10.567 -0.981,-4.301 -6.814,-3.753 -5.284,-10.567 m -5.284,12.329 c -0.394,-3.33 1.986,-3.888 1.761,-7.046 3.703,-0.013 9.14,7.077 5.286,8.807 -0.328,-2.607 -4.258,-1.614 -7.047,-1.761 m -31.704,-7.046 c 6.611,1.325 3.839,-6.728 8.808,-7.046 -1.05,3.649 2.176,11.572 -1.763,12.33 -0.484,-3.627 -6.561,-1.658 -7.045,-5.284 m 1.761,10.57 c -2.544,-2.155 -2.672,-6.724 -5.283,-8.81 5.547,-0.85 3.987,5.407 10.567,3.524 0.32,3.842 -1.442,5.605 -5.284,5.286 m 56.364,-3.524 c -4.864,0.422 -4.02,6.549 -7.045,8.807 -0.519,-3.593 -4.766,-3.454 -5.285,-7.046 5.919,2.232 9.318,-6.897 12.33,-1.761 m -12.33,0 c 1.191,-4.681 2.773,-8.969 5.285,-12.329 l 0,7.043 c 2.072,0.276 5,-0.302 5.283,1.763 -3.682,1.014 -5.028,4.367 -10.568,3.523 m 280.057,8.807 c -0.696,-3.031 2.613,-4.516 0,-5.283 -2.514,0.422 -2.971,2.899 -5.285,3.52 -0.935,-9.039 14.949,-4.904 8.807,1.763 2.515,-0.421 2.971,-2.902 5.285,-3.523 0.254,7.08 -4.518,4.659 -8.807,3.523 M -1.762,382.217 c 22.775,13.904 66.959,20.383 70.455,47.556 -5.8,-3.005 -10.365,-7.249 -15.852,-10.567 -18.221,6.568 -36.329,-12.98 -56.364,-15.853 -3.018,-4.025 -1.673,-12.416 -5.284,-15.853 -1.563,6.429 3.112,9.381 0,12.33 -41.475,-3.732 -92.888,2.471 -128.579,-7.043 -0.88,-4.224 -2.836,-10.972 1.762,-15.853 2.642,5.821 4.307,-3.66 8.807,-1.764 4.972,1.485 4.853,8.066 10.567,8.807 22.493,-19.31 80.396,-2.055 100.397,-10.567 5.675,1.372 6.13,7.96 8.808,12.33 2.776,-0.159 1.378,-4.493 5.283,-3.523 m 44.035,-42.273 c 0.186,9.341 0.996,2.082 3.523,0 1.909,4.514 -5.352,8.399 0,10.57 2.757,-7.312 24.184,-6.435 22.897,5.283 -6.266,-3.436 -7.715,2.501 -12.329,5.284 2.192,9.55 7.407,16.078 17.614,17.613 -4.575,7.71 6.146,6.963 8.806,12.329 2.252,-2.444 8.317,-1.076 10.569,-3.523 1.548,4.912 7.074,5.841 12.329,7.046 6.986,-2.778 2.281,-6.302 7.046,-10.569 7.71,1.053 10.229,6.166 14.09,-1.76 3.092,2.779 3.655,8.089 8.807,8.806 -2.318,4.141 -4.91,8.006 -3.521,15.853 -8.342,0.356 -17.75,1.611 -24.661,-3.523 -1.863,4.377 -13.668,5.21 -14.09,15.853 -2.188,-2.427 -5.123,-1.009 -8.807,1.76 0.619,-9.424 -6.595,-11.018 -10.568,-15.853 -2.343,4.118 -7.871,5.048 -12.33,7.047 C 44.24,399.624 24.307,389.615 1.763,382.217 c -4.249,-12.064 10.331,-14.88 14.089,-19.376 2.049,-3.291 -3.332,-16.627 7.046,-15.85 7.49,7.774 2.045,28.482 14.09,31.703 4.882,-4.556 10.244,-17.879 5.285,-26.42 -0.275,2.072 0.302,5.001 -1.762,5.284 3.505,-6.496 -1.454,-13.456 1.762,-17.614 m 68.694,88.069 c 2.044,-1.478 4.722,-2.325 8.805,-1.763 l 0,3.523 c -1.767,-0.003 -2.096,1.428 -3.522,1.763 -0.026,-2.909 -4.885,-0.986 -5.283,-3.523 m -72.218,0 c 3.501,-0.023 2.24,-4.805 7.047,-3.523 0.159,4.804 -2.934,3.546 0,7.046 -4.016,0.492 -6.622,-0.425 -7.047,-3.523 m -308.238,-5.284 c -3.981,3.594 -6.287,4.454 -1.761,8.807 -4.369,0.259 -8.548,0.326 -8.807,-3.523 4.01,-0.239 6.824,-10.603 10.568,-5.284 m -14.089,3.521 c -0.965,-2.558 2.057,-9.103 -1.762,-8.807 -1.014,3.098 2.129,10.35 -1.762,10.57 -1.594,-3.105 -6.483,-2.909 -7.044,-7.047 7.591,1.721 5.124,-6.618 10.568,-7.043 0.777,6.18 3.712,7.468 8.807,5.283 0.251,5.536 -4.519,6.05 -8.807,7.044 m -5.285,3.523 c -1.075,0.099 -2.086,0.265 -1.762,1.763 l -3.521,0 c 3.322,-5.924 -7.975,-5.775 -1.762,-8.807 0.17,4.526 6.876,2.518 7.045,7.044 m 93.351,-10.567 c -10.136,8.063 -27.448,8.953 -38.749,15.854 -5.534,-0.34 -8.469,-3.275 -8.806,-8.81 8.011,-5.828 10.279,0.869 19.375,-1.76 1.477,-2.046 2.322,-4.722 1.761,-8.807 l 58.124,0 c -2.727,11.264 -22.669,2.607 -31.705,3.523 M 1.763,436.819 c -4.118,-0.544 -7.279,-3.446 -10.57,0 -2.63,-6.652 13.747,-8.577 10.57,0 M -172.613,426.25 c 5.96,-0.675 2.771,7.797 10.568,5.286 0.253,5.536 -4.517,6.05 -8.807,7.044 0.862,-5.559 -3.174,-6.221 -1.761,-12.33 m 153.239,7.046 c -12.377,-1.614 2.511,8.574 -3.524,10.57 -21.616,-6.22 -74.817,-10.879 -91.59,0 -2.446,-2.255 -1.077,-8.319 -3.523,-10.57 31.379,-4.244 71.226,4.755 98.637,0 m -137.386,-3.523 c -2.561,-0.963 -9.104,2.059 -8.808,-1.76 6.262,2.739 1.064,-5.984 5.284,-5.284 -2.176,5.699 5.7,1.345 3.524,7.044 m 5.283,-12.33 c -1.627,3.072 0.06,9.454 -5.283,8.807 -3.653,-3.624 0.005,-8.933 5.283,-8.807 m 7.044,-5.283 c 54.623,4.028 124.019,-11.141 160.285,14.09 -4.958,3.583 -7.227,3.158 -14.089,1.763 l 0,-7.047 c -7.166,-0.249 -9.563,-1.796 -15.854,-3.523 -1.18,6.575 4.881,10.337 -3.521,10.57 -0.395,-3.331 1.983,-3.886 1.759,-7.047 -10.148,-4.011 -8.273,1.299 -17.613,-3.523 -1.053,3.138 5.162,7.316 0,8.807 1.576,-6.15 -5.745,-3.009 -7.046,-1.76 -0.241,-3.282 -1.158,-5.888 -3.522,-7.047 -1.085,9.258 -3.494,1.843 -7.044,0 -1.582,5.247 -2.739,6.439 -5.286,7.047 1.193,5.635 5.854,3.323 7.048,5.283 -21.149,4.769 -53.765,-5.287 -73.978,3.523 -2.443,-1.079 -0.266,-6.781 -3.523,-7.046 -7.356,-2.541 -8.633,9.998 -14.092,3.523 2.613,-1.498 3.787,-4.434 3.523,-8.807 -3.631,1.066 -12.237,-2.842 -10.568,3.524 2.251,-0.096 2.439,-2.259 5.284,-1.761 0.647,5.344 -5.737,3.657 -8.807,5.284 -0.625,-8.259 5.04,-10.225 7.044,-15.853 m -8.806,22.9 c 3.427,3.396 1.843,10.778 -5.283,8.806 0.587,-4.111 1.805,-7.591 5.283,-8.806 m -7.045,1.759 c 0.817,5.513 -1.53,7.864 -7.045,7.047 -0.274,-4.971 4.979,-4.417 7.045,-7.047 m -84.545,-5.283 c -0.89,4.393 -3.331,7.236 -5.285,10.567 -0.02,-2.328 -3.086,-1.611 -3.521,-3.523 4.091,-1.193 4.714,-5.852 8.806,-7.044 m -22.898,-15.853 c 1.096,4.775 7.359,4.383 7.045,10.567 -4.821,0.01 -10.377,-8.253 -7.045,-10.567 m 0,26.42 c -2.019,-9.77 1.506,-10.7 0,-15.853 8.551,6.325 6.157,-1.322 14.092,-3.521 0.74,3.368 0.637,7.582 5.283,7.044 l 0,3.523 c -2.252,0.096 -2.439,2.258 -5.283,1.764 -0.963,-2.561 2.056,-9.106 -1.762,-8.81 0.365,5.063 -0.447,8.949 -3.523,10.569 -1.728,-2.381 -4.7,-3.519 -7.045,-5.283 0.518,3.589 4.765,3.454 5.283,7.044 -2.08,0.856 -3.993,1.879 -5.283,3.523 2.467,-0.133 6.736,0.395 3.523,1.763 -2.426,0.076 -3.869,-0.83 -5.285,-1.763 m 130.341,-7.043 c 1.764,5.432 2.904,-3.823 5.283,-3.524 -0.508,6.535 -1.99,12.097 -7.044,14.089 5.698,-5.309 -1.608,-6 1.761,-10.565 m 176.135,-3.524 c -0.028,7.013 -1.685,12.406 -5.282,15.85 -0.406,-7.448 2.772,-11.318 5.282,-15.85 m -169.09,14.089 c 6.695,-3.934 -5.698,-10.975 3.524,-15.852 1.572,8.076 1.917,8.212 5.283,12.33 -2.907,0.026 -0.985,4.884 -3.522,5.283 -0.297,-2.053 -2.785,-1.913 -5.285,-1.761 m 119.773,1.761 0,-5.283 c 5.559,0.312 10.505,1.238 10.568,7.046 -6.237,-0.588 -4.33,-4.845 -10.568,-1.763 m -174.375,-3.52 c -3.592,0.518 -3.454,4.765 -7.045,5.283 -1.441,-1.278 -4.723,-12.191 1.761,-10.569 -2.738,6.262 5.983,1.062 5.284,5.286 m -8.807,-10.57 c -3.045,5.09 -14.121,7.16 -15.851,-1.76 9.995,-1.106 13.875,-13.907 26.419,-7.046 -3.151,4.243 -4.909,9.875 -1.761,15.852 -6.61,1.326 -3.839,-6.727 -8.807,-7.046 m 230.738,17.613 c 0.95,-5.008 2.606,-18.413 7.046,-14.09 -4.42,2.627 1.144,15.236 -7.046,14.09 m 10.57,-15.849 c 0.173,5.459 -0.798,9.769 -3.524,12.326 0.302,-4.981 -1.515,-12.081 3.524,-12.326 m -227.217,10.565 c 1.241,-6.053 -8.017,-10.612 -1.761,-15.852 2.638,5.3 3.151,-6.037 7.045,-5.283 0.018,4.678 -0.665,10.058 1.762,12.329 -2.647,4.955 -7.417,-4.473 -8.807,0 2.617,2.079 7.87,1.525 7.045,7.047 -2.424,-0.076 -3.867,0.827 -5.284,1.759 m -24.659,-1.759 c 6.562,1.863 5.687,-3.709 8.806,-5.286 l 0,12.329 c -4.288,-0.993 -9.058,-1.508 -8.806,-7.043 m 206.081,0 c 7.31,-0.86 4.576,6.23 1.76,8.806 -1.479,-2.045 -2.325,-4.722 -1.76,-8.806 m -158.523,7.043 c -0.275,-4.971 4.979,-4.413 7.044,-7.043 l 0,8.806 c -3.068,0.133 -5.477,-0.395 -7.044,-1.763 m -33.467,0 c 3.592,-0.518 3.454,-4.765 7.045,-5.284 -0.689,5.371 4.631,8.97 -1.761,10.571 -0.194,-3.327 -5.823,-1.226 -5.284,-5.287 m -49.319,-3.523 c -3.101,1.594 -2.909,6.485 -7.045,7.047 -6.513,-9.713 -27.771,3.802 -31.704,-14.091 2.607,-0.916 4.44,-2.606 7.045,-3.523 -2.011,5.164 -1.038,6.542 3.523,8.806 6.429,1.143 9.381,-1.185 12.33,-3.522 1.531,2.58 2.637,5.582 7.045,5.283 4.715,-2.245 8.373,-2.806 5.285,-8.806 12.019,3.99 18.787,-0.529 26.42,-5.284 3.566,2.892 7.025,5.891 7.046,12.329 -7.374,-8.38 -9.207,6.592 -19.377,0 l 0,12.331 -5.283,0 c -2.442,-2.843 -1.489,-9.079 -5.285,-10.57 m 301.194,1.763 c -7.133,3.573 -10.132,-3.473 -14.09,-5.283 1.372,-0.392 2.047,-1.478 1.759,-3.524 14.336,-0.952 17.509,0.914 19.376,14.091 -2.969,5.326 -7.916,0.451 -10.569,3.523 -0.1,1.076 -0.262,2.085 -1.76,1.76 -2.991,-8.272 8.274,-2.295 5.284,-10.567 M -77.5,452.672 c 3.331,-0.395 3.886,1.986 7.047,1.761 0.318,3.841 -1.443,5.605 -5.285,5.283 -0.555,-2.381 -2.508,-3.364 -1.762,-7.044 m -59.886,1.761 c -2.741,0.458 -1.222,3.865 0,5.283 l -7.047,0 c -0.742,-3.882 5.277,-9.714 7.047,-5.283 m -10.568,0 c 0.963,-2.561 -2.059,-9.103 1.762,-8.808 0.372,1.977 1.954,2.744 3.522,3.524 2.081,-0.255 3.992,-3.138 5.284,0 -3.719,1.564 -5.207,5.363 -10.568,5.284 m -61.647,-1.761 c -1.074,0.1 -2.086,0.263 -1.762,1.761 2.635,0.298 6.501,-0.628 7.045,1.763 -5.547,-0.854 -3.988,5.403 -10.568,3.52 0.505,-2.634 2.266,-12.722 5.285,-7.044 m 51.079,7.044 c 8.13,-0.306 -4.984,-4.052 -3.523,-8.807 11.381,-1.086 11.318,17.713 3.523,8.807 m -14.091,-12.33 c 6.442,0.604 8.061,6.03 10.568,10.57 -5.566,-0.283 -10.63,-0.063 -12.33,3.523 3.331,0.358 17.403,-1.189 12.33,1.76 -5.929,-1.115 -16.36,2.271 -19.375,-1.76 4.325,-2.979 2.771,-9.484 8.807,-14.093 m -10.569,12.33 c -1.708,2.988 -4.868,4.526 -10.568,3.523 l 0,-7.043 c 4.786,2.172 8.249,2.932 10.568,3.52 m -40.51,3.523 c -0.58,-4.118 -2.118,-7.276 -3.524,-10.567 4.775,0.389 10.268,9.056 3.524,10.567 m 1.761,-14.09 c 0.46,2.74 3.864,1.222 5.284,0 1.03,4.184 2.695,8.199 -3.522,8.807 1.898,-4.5 -7.583,-6.167 -1.762,-8.807 m -15.853,5.284 c -1.281,4.804 3.5,3.546 3.523,7.046 -2.381,0.555 -3.364,2.507 -7.045,1.76 0.973,-3.135 0.906,-7.315 3.522,-8.806 m -10.568,10.569 -7.045,0 c -2.039,-1.876 -0.647,-8.112 1.762,-10.569 0.703,4.579 5.254,5.312 5.283,10.569 m 0,-10.569 c 1.592,5.894 3.94,1.537 7.046,0 0.721,4.243 -3.217,3.828 -1.761,8.806 -4.718,1.03 -8.97,-7.246 -5.285,-8.806 m 82.784,12.329 c -17.149,-1.82 26.902,-3.911 24.659,7.047 -8.375,-2.196 -16.12,-5.018 -24.659,-7.047 m -59.887,-1.76 c 2.266,7.057 3.644,-0.484 8.808,0 -0.404,6.054 -5.242,7.674 -10.569,8.807 0.965,-2.561 -2.057,-9.106 1.761,-8.807 m 52.842,5.283 c 5.18,-1.869 12.291,-2.952 14.091,5.284 -5.388,-1.278 -5.18,3.038 -10.568,1.763 -0.917,-2.607 -2.607,-4.44 -3.523,-7.047 m 199.034,0 c 1.571,1.399 7.8,10.793 0,10.567 4.726,-5.453 -4.763,-6.841 0,-10.567 m -241.307,0 c -0.94,3.979 6.864,-2.135 1.761,1.76 -3.106,1.591 -3.97,0.143 -1.761,7.047 -5.485,-1.949 -6.296,-1.135 -3.522,3.523 -7.664,-0.328 -3.208,-3.065 -3.523,-8.806 4.805,1.281 3.545,-3.5 7.045,-3.524 m 21.136,12.33 c 0.555,2.381 2.507,3.364 1.762,7.044 l -7.045,0 c -0.299,-4.407 2.704,-5.513 5.283,-7.044 m 47.558,7.044 c -7.662,4.08 -22.877,0.611 -33.467,1.762 3.422,-2.241 25.91,-10.34 33.467,-1.762 m -31.704,-5.284 c -0.041,-4.147 3.033,-5.184 1.761,-10.566 4.71,1.159 5.275,6.465 8.806,8.806 -4.149,-0.039 -5.186,3.032 -10.567,1.76 m 167.328,5.284 c -1.074,0.099 -2.085,0.265 -1.761,1.762 2.135,-0.538 6.073,5.088 1.761,5.284 -1.73,-4.934 -4.699,2.557 -7.044,-1.76 -0.466,-3.607 6.834,-8.156 7.044,-5.286 m -174.375,-1.761 c -4.718,1.03 -8.97,-7.246 -5.284,-8.806 0.543,4.154 6.117,3.277 5.284,8.806 m -7.045,-17.613 c -4.091,1.193 -4.716,5.855 -8.807,7.047 -0.916,-2.607 -2.606,-4.44 -3.523,-7.047 9.029,-2.629 19.198,-3.925 26.422,0 1.413,6.111 -2.624,6.772 -1.763,12.33 -8.934,0.714 -10.008,-6.432 -14.091,-10.57 5.413,0.459 7.922,3.823 12.33,5.287 -0.395,-3.331 1.985,-3.889 1.761,-7.047 -3.332,3.494 -8.321,0.854 -12.329,0 m -3.524,10.567 c -3.591,0.518 -3.453,4.769 -7.044,5.287 0.865,-5.682 -8.221,-10.411 -3.524,-14.094 2.782,6.247 5.993,8.143 10.568,8.807 m -8.806,5.287 c -3.359,3.304 -3.186,-1.047 -8.807,0 4.201,-5.015 -0.717,-8.943 5.284,-10.57 -0.844,5.542 2.508,6.887 3.523,10.57 m -12.329,-1.764 c 1.746,3.407 10.742,3.377 5.284,8.807 2.424,0.076 3.867,-0.827 5.283,-1.761 1.214,4.736 -3.641,3.405 -5.283,5.284 1.476,-6.289 -8.962,-9.666 -5.284,-12.33 m -22.899,-12.33 c 2.703,-4.34 8.131,-5.961 10.568,-10.566 l 0,12.33 c -5.38,1.272 -6.417,-1.804 -10.568,-1.764 m 3.524,8.807 c -2.379,-1.727 -3.52,-4.699 -5.284,-7.043 5.387,-1.279 5.181,3.038 10.568,1.76 0.32,3.842 -1.443,5.605 -5.284,5.283 m -26.42,-15.85 c 4.347,1.524 12.192,-0.451 12.328,5.283 -4.511,-1.361 -9.984,-1.756 -12.328,-5.283 m -44.035,-79.262 c -1.218,3.477 -4.698,4.696 -8.806,5.283 0.007,-3.144 -4.743,-10.247 0,-12.329 2.182,8.388 14.32,-0.505 12.328,14.093 -3.134,-1.057 -7.314,5.16 -8.806,0 1.948,-1.196 9.137,-5.855 5.284,-7.047 m -10.567,3.523 c -4.604,-0.212 -13.439,-5.19 -8.807,-8.806 3.507,6.166 4.02,-5.17 7.045,-5.287 0.211,5.075 -0.963,11.533 1.762,14.093 m -1.762,5.283 c -4.978,-1.454 -4.562,2.484 -8.807,1.761 3.084,-6.237 -1.172,-4.33 -1.761,-10.567 5.014,1.445 8.941,3.975 10.568,8.806 m 84.545,-317.044 c 12.396,4.629 11.337,22.718 15.853,35.227 -6.317,-0.645 -6.454,-4.729 -12.33,-1.76 -3.787,-9.054 -7.524,-21.768 -3.523,-33.467 m -5.285,17.613 c -0.232,-41.219 3.802,12.596 3.524,12.329 -1.953,-3.33 -2.247,-8.321 -3.524,-12.329 m 1.762,12.329 c -7.457,-2.313 -12.73,-24.327 -5.283,-29.942 -0.523,12.264 1.768,21.715 5.283,29.942 m -73.977,-29.942 c 0.869,4.517 5.863,13.963 1.762,17.613 -1.543,-3.842 -6.537,-13.289 -1.762,-17.613 M -204.318,3.523 c 2.292,-4.374 -5.167,-7.308 0,-8.806 -0.272,7.455 2.768,0.03 3.523,-1.76 4.95,-0.69 10.892,4.629 7.045,-1.763 5.278,-2.308 8.937,9.653 5.285,5.285 -1.614,-0.925 -5.575,10.787 -15.853,7.044 m 339.943,63.41 c 9.112,-1.648 -3.701,-9.764 1.761,-12.33 5.194,1.255 4.53,18.851 -1.761,12.33 M -49.316,510.795 c 1.122,6.409 -3.65,6.923 -8.809,7.047 0.224,-5.062 2.204,-8.365 8.809,-7.047 m -81.025,7.047 c -6.045,-1.588 -14.233,-1.033 -15.851,-7.047 6.69,-6.001 12.23,4.134 15.851,7.047 m 70.455,-3.524 c -20.749,3.483 -63.01,12.376 -73.976,-5.283 15.172,-2.441 28.976,-6.25 40.511,-12.33 0.401,-6.273 -2.534,-9.208 -8.807,-8.807 1.594,3.102 6.484,2.909 7.045,7.047 -11.154,1.448 -29.737,-4.088 -47.557,-1.763 0.401,-3.121 -1.775,-8.82 3.523,-7.043 -7.035,-3.633 -20.608,-1.628 -24.66,-3.524 4.073,-11.045 20.055,0.346 26.421,-8.806 1.283,-4.806 -3.5,-3.547 -3.523,-7.047 23.3,-14.568 74.002,7.459 91.593,-14.09 0.162,-5.449 -5.321,-5.25 -10.57,-5.286 1.105,3.593 8.9,0.494 7.045,7.047 -5.759,6.059 -10.643,-6.609 -12.329,3.523 -5.299,1.776 -3.122,-3.925 -3.523,-7.047 l -17.614,0 c -0.754,4.865 6.567,1.654 7.046,5.287 -13.405,11.114 -34.093,-2.338 -56.363,1.76 -0.723,-4.244 3.216,-3.829 1.762,-8.807 5.466,-0.182 5.026,5.542 12.328,3.523 1.479,-2.045 2.324,-4.722 1.761,-8.806 5.288,2.341 13.476,1.79 21.136,1.759 6.655,-3.473 -8.399,0.436 -7.044,-3.522 24.686,-3.242 51.964,-0.492 79.26,1.763 2.177,5.698 -5.697,1.345 -3.522,7.043 3.665,3.822 5.692,-0.212 8.806,-1.76 0.649,2.996 -1.372,3.324 -3.522,3.523 15.118,6.974 28.257,5.838 40.511,14.09 -0.334,1.428 -1.767,1.757 -1.76,3.523 -5.701,2.175 -1.348,-5.698 -7.047,-3.523 3.502,6.446 -5.673,6.01 -5.282,14.09 -2.527,-2.079 -3.338,-9.341 -3.525,0 -5.35,-2.168 1.909,-6.057 0,-10.567 -3.389,6.804 -15.471,4.596 -12.329,14.09 -3.683,-1.601 -5.37,-5.197 -5.283,-10.566 -4.364,5.635 -3.148,7.673 -10.569,3.523 2.212,10.377 -2.982,9.338 3.522,17.613 -3.475,2.683 -9.589,-2.152 -5.283,7.043 l -14.091,0 c -6.019,-1.411 -10.057,2.624 -1.762,1.763 24.161,-2.238 46.091,6.303 61.649,-1.763 1.66,-3.258 -10.081,-1.079 -3.525,-3.52 -10.369,-2.417 -20.439,3.633 -15.852,-14.093 17.61,12.941 30.074,-2.079 51.081,7.046 -0.221,-4.409 -3.362,-5.515 1.762,-7.046 -1.159,-5.273 -3.766,1.684 -7.047,0 -4.15,-3.4 4.15,-8.926 0,-12.33 34.259,21.319 46.032,-27.482 81.024,-36.985 3.045,-13.396 19.904,-12.975 15.851,-33.467 12.803,-8.922 28.268,-15.182 29.943,-35.229 4.253,-7.594 17.579,-19.49 17.615,-36.989 4.663,-2.966 7.48,-7.784 7.044,-15.85 -2.766,-0.757 -1.506,-5.542 -7.044,-3.524 -1.046,-5.618 3.306,-5.449 0,-8.806 0.527,-3.187 7.409,1.78 8.807,3.524 7.913,-3.185 9.545,-18.331 1.761,-22.9 -10.526,-1.402 -8.177,6.14 -19.376,7.046 -5.207,-15.799 2.35,-34.033 5.284,-47.556 4.408,-0.299 5.515,2.703 7.045,5.284 0.321,3.842 -1.441,5.601 -5.282,5.282 0.962,6.188 10.213,2.827 14.088,1.765 5.749,-12.613 17.705,-29.237 3.524,-42.273 1.19,-4.682 2.772,-8.97 5.285,-12.331 -1.159,-5.275 -3.766,1.685 -7.047,0 8.294,-7.498 5.288,-22.324 0,-31.706 -5.652,-1.543 -3.651,4.57 -7.045,5.283 -4.408,0.299 -5.513,-2.703 -7.044,-5.283 -1.578,-5.684 5.744,-2.474 7.044,-5.282 1.866,-6.562 -3.709,-5.686 -5.284,-8.807 2.573,-2.52 6.82,-2.591 5.284,3.523 6.448,-8.866 -5.879,-14.03 -3.523,-24.66 -7.293,8.468 -3.255,-1.464 -7.045,-12.33 C 172.451,94.046 136.664,49.555 119.772,29.946 96.11,28.362 86.123,13.104 63.409,10.57 60.151,10.305 62.328,4.606 59.886,3.523 49.963,4.171 36.204,0.979 33.467,8.811 c 0.697,5.199 8.715,8.377 12.329,5.282 0.72,7.22 0.553,6.937 5.284,12.33 0.106,3.676 -10.541,-5.575 -7.046,-5.287 -1.247,-1.697 -12.838,1.157 -19.374,0 -0.864,-5.559 3.173,-6.219 1.761,-12.325 1.712,0.044 1.367,2.154 1.761,3.519 C 33.324,8.226 27.887,2.786 22.898,7.047 26.896,5.762 26.02,-0.398 28.182,-3.521 32.184,-0.479 38.022,0.73 45.796,0 30.852,-16.706 3.734,-15.5 -10.568,0 c -4.638,-2.75 -3.171,-6.13 1.761,-7.043 -0.758,-3.938 -8.679,-0.714 -12.33,-1.763 2.773,4.66 1.963,5.472 -3.522,3.523 -0.363,5.063 0.447,8.949 3.522,10.569 12.032,-6.253 32.055,1.943 36.989,8.807 -0.621,2.468 -3.101,0.152 -3.522,-1.763 -5.608,2.948 5.437,3.756 1.762,10.569 17.228,-1.378 30.555,1.15 35.225,12.33 3.916,-3.762 4.704,0.336 15.854,-5.283 0.56,-4.084 -0.284,-6.763 -1.762,-8.81 -0.397,6.506 -4.778,2.196 -5.285,8.81 -6.075,-5.655 6.854,-12.741 -3.521,-14.092 14.809,-1.425 35.008,2.728 47.555,12.329 -3.013,4.031 -13.444,0.648 -19.374,1.763 -2.027,2.078 -1.994,6.224 -1.763,10.568 l -28.18,0 c -1.478,2.045 -2.322,4.721 -1.761,8.805 -5.512,0.362 -12.932,-1.188 -15.852,1.764 2.686,10.814 15.189,11.815 22.896,17.612 -13.704,2.734 -29.936,2.943 -45.794,3.524 -6.165,4.038 11.235,-0.837 10.568,3.52 -24.399,2.049 -36.441,7.272 -61.647,7.047 9.244,-3.813 1.119,-3.707 -7.046,-3.524 2.569,-7.309 13.617,-13.894 22.897,-8.807 l 17.613,0 c -17.966,-3.756 -39.58,-3.865 -59.885,-5.283 22.049,-3.695 11.323,-3.128 -3.523,-3.523 -21.37,-0.571 -43.653,1.388 -63.41,1.763 3.105,-5.927 2.335,-5.516 3.523,-14.093 9.392,0.744 18.432,6.702 28.182,1.764 -1.123,-3.846 4.993,-5.606 -1.76,-5.287 15.184,-0.667 25.73,-5.974 38.75,-8.807 -2.656,-10.66 -10.321,1.743 -21.137,-1.76 l 0,7.044 -28.181,0 c -1.669,-6.363 6.937,-2.455 10.568,-3.521 -0.088,-5.073 -16.622,1.521 -24.659,0 13.345,-5.757 -11.871,-2.799 -19.375,-3.523 2.246,-3.141 25.972,-1.633 8.806,-3.522 -7.837,-0.971 -20.342,2.729 -22.898,-3.524 0.769,-2.613 2.254,0.694 5.285,0 -0.614,-5.257 -8.424,-3.318 -5.285,-12.329 3.632,0.942 0.42,8.334 5.285,3.522 -1.149,-5.309 -6.918,-6 -8.808,-10.565 20.947,-12.238 61.843,-1.569 84.546,1.759 4.327,6.826 12.729,9.58 24.658,8.806 5.667,2.823 -6.193,6.582 0,10.57 2.615,-1.498 3.788,-4.433 3.525,-8.81 5.484,2.149 11.163,4.101 19.374,3.524 1.32,6.02 -7.157,2.238 -5.285,8.807 7.286,0.318 7.087,-4.139 5.285,3.522 9.723,1.505 12.956,-3.483 14.092,-10.566 -6.817,-1.179 -6.268,-0.007 -10.569,-1.763 1.317,-13.097 48.084,1.37 33.465,-7.044 -15.831,0.565 -30.062,-0.468 -42.273,-3.523 0.546,-2.391 4.411,-1.461 7.046,-1.763 -6.808,-3.782 -34.991,-1.394 -44.035,-8.807 -30.108,1.341 -54.794,-2.742 -84.544,-1.759 -6.489,-1.73 -6.207,-10.236 -12.33,-12.329 -8.902,-1.858 -10.077,4.014 -17.613,3.522 5.838,-11.473 11.041,-5.784 10.569,-19.376 27.536,-3.819 71.862,-2.047 91.589,1.763 -0.72,-6.021 -4.756,-2.239 -1.761,-8.807 4.371,-2.53 15.546,3.182 21.136,5.283 -5.281,8.495 5.974,17.285 15.854,14.09 -1.408,-6.223 -5.67,-9.639 0,-14.09 4.48,0.216 6.83,2.564 7.044,7.043 7.519,-6.62 36.234,-15.158 42.272,-1.759 -4.357,-0.222 -2.995,2.156 0,1.759 -0.458,-16.55 -28.313,-11.25 -45.795,-14.089 -17.2,-2.793 -35.439,-8.129 -54.601,-7.046 -5.7,2.028 4.729,1.995 7.045,1.763 -0.545,2.391 -4.41,1.461 -7.045,1.76 2.284,4.138 -0.897,3.945 3.521,7.046 -21.532,-4.652 -68.607,-5.678 -82.783,5.284 2.034,-11.321 -27.137,-3.025 -17.613,8.807 -11.548,0.195 -24.852,-1.366 -31.705,3.522 1.403,8.8 -6.162,8.62 -1.761,15.854 -5.644,-0.818 -6.211,-6.708 -12.33,-7.047 -1.533,2.58 -2.637,5.582 -7.045,5.283 l 0,14.093 c -6.384,1.687 -1.792,-7.605 -5.285,-8.807 -4.818,1.641 -7.511,5.406 -12.33,7.044 0.029,5.257 4.58,5.99 5.285,10.569 6.532,1.249 7.558,-3.007 14.09,-1.763 2.391,0.549 1.461,4.414 1.762,7.047 -2.758,8.171 -13.657,2.095 -15.852,3.524 -8.916,4.137 -7.494,10.021 -10.567,17.612 8.203,3.54 14.758,8.727 26.419,8.807 4.26,2.198 5.698,7.219 7.046,12.329 -1.516,1.422 -1.047,4.826 -3.523,5.284 -5.906,1.209 -6.439,-2.953 -7.045,-7.044 -3.791,3.179 -6.231,4.994 -5.285,-3.523 -3.35,11.328 -24.329,5.028 -24.659,19.374 -7.522,1.623 -7.66,-9.435 -12.328,-5.284 1.295,-15.439 0.936,-27.028 5.283,-42.273 -4.034,3.012 -4.164,9.926 -5.283,15.854 -2.066,-0.286 -1.486,-3.212 -1.762,-5.284 -3.998,1.874 -0.671,11.071 -1.762,15.853 -4.071,-1.804 -3.644,-8.099 -3.523,-14.093 -4.427,3.886 2.497,25.958 -3.521,29.943 -2.401,-6.641 -0.183,-11.377 -3.524,-19.372 -4.162,-3.863 0.286,7.311 0,10.565 -4.071,-1.8 -3.644,-8.099 -3.523,-14.09 -2.948,-5.074 -1.402,9 -1.761,12.33 -3.099,-0.424 -4.016,-3.031 -3.522,-7.046 -0.783,10.202 2.148,31.886 8.806,40.513 -4.259,3.623 -19.037,-25.523 -14.091,-31.707 -10.54,13.177 12.242,35.203 21.136,40.514 9.14,-0.845 12.745,-7.22 19.375,-10.571 4.187,3.448 6.344,8.923 14.091,8.807 14.317,-2.122 10.877,-22 17.613,-31.703 3.29,10.215 1.478,25.53 8.808,31.703 -6.945,9.497 -34.344,-1.465 -38.751,10.569 -25.479,0.17 -40.645,-8.112 -72.215,-5.283 -8.617,18.391 -13.496,40.52 -21.136,59.886 2.231,3.052 5.952,4.615 5.284,10.567 -3.727,4.762 -5.115,-4.726 -10.568,0 -0.148,2.789 0.847,6.718 -1.761,7.046 0.169,4.527 6.875,2.518 7.045,7.046 -6.285,1.741 -2.101,15.901 -10.569,10.567 0.746,47.888 6.127,101.899 22.899,139.148 4.302,0.982 3.752,6.813 10.568,5.283 -9.207,16.451 23.741,24.915 19.374,42.273 6.547,5.784 16.169,8.491 15.853,21.136 6.589,1.039 10.009,5.303 14.09,0 -1.343,8.744 5.389,9.394 1.762,15.853 5.412,2.504 7.921,0.79 12.329,-1.76 4.422,0.751 -1.691,5.031 -5.284,3.524 12.25,14.169 27.02,25.818 38.751,40.509 6.018,1.322 2.236,-7.157 8.806,-5.284 1.214,4.736 -3.641,3.404 -5.285,5.284 6.477,0.887 8.411,0.817 8.808,8.806 5.541,0.843 6.886,-2.507 10.568,-3.523 4.42,0.751 -1.691,5.034 -5.284,3.523 2.455,5.117 8.693,-0.498 10.567,-1.76 2.773,1.474 10.506,6.92 5.286,10.567 3.828,5.067 20.981,8.215 33.464,8.806 9.856,0.469 29.427,0.804 10.57,-1.76 -6.884,-0.936 -14.357,-2.829 -28.183,-1.76 -0.224,-3.161 2.157,-3.716 1.762,-7.047 21.654,9.372 70.761,-2.642 96.875,7.047 -1.139,6.36 -8.002,0.612 -10.569,-1.763 -5.434,1.763 3.819,2.906 3.524,5.283 -3.122,5.782 -7.138,-2.052 -8.808,-3.52 -4.138,-3.114 -38.044,7.747 -42.273,3.52 7.023,7.024 17.258,-6.097 31.704,1.763 -3.649,3.982 -13.096,2.166 -17.613,5.284 5.4,15.995 34.449,11.244 52.841,10.569 24.196,-0.893 56.29,5.493 59.886,-8.809 -3.393,0.717 -1.392,6.83 -7.045,5.286 -4.935,-1.73 2.557,-4.699 -1.761,-7.046 l -21.137,0 c -0.648,-2.995 1.374,-3.324 3.524,-3.523 -2.365,-5.025 -9.247,-0.054 -8.808,3.523 -2.823,-5.815 -5.33,-1.003 -12.329,-1.76 -2.565,-10.683 28.858,-4.533 21.137,-8.807 l -17.613,0 c -1.772,3.513 -7.79,2.78 -7.047,8.807 7.338,4.403 23.395,0.09 28.182,7.043"
             style="fill:#63090e;fill-opacity:1;fill-rule:evenodd;stroke:none"
             id="path3656"
             inkscape:connector-curvature="0" /></g><g
           id="g3658"
           transform="translate(570.561,187.0371)"><path
             d="M 0,0 C 4.181,-2.461 -5.681,-35.511 0,0"
             style="fill:#63090e;fill-opacity:1;fill-rule:evenodd;stroke:none"
             id="path3660"
             inkscape:connector-curvature="0" /></g><g
           id="g3662"
           transform="translate(491.2993,46.1289)"><path
             d="M 0,0 C 5.225,2.319 -6.416,-4.008 -10.569,-3.522 -8.797,-8.796 0.046,-6.999 5.284,-8.81 4.949,-10.233 3.517,-10.563 3.522,-12.329 2.025,-12.007 1.86,-13.017 1.761,-14.092 -0.303,-13.807 0.274,-10.882 0,-8.81 c -13.685,0.978 -18.917,0.201 -29.943,1.764 -0.496,4.607 0.642,7.575 5.283,7.046 -0.982,-3.593 -5.298,-3.457 -1.76,-7.046 16.007,0.429 6.825,6.19 26.42,7.046"
             style="fill:#63090e;fill-opacity:1;fill-rule:evenodd;stroke:none"
             id="path3664"
             inkscape:connector-curvature="0" /></g><g
           id="g3666"
           transform="translate(471.9243,541.0713)"><path
             d="m 0,0 c -1.975,-5.549 -0.16,-3.988 0,-10.57 -3.76,-0.823 -3.356,2.517 -3.523,5.287 -3.049,-2.822 -5.16,-6.585 -7.045,-10.571 -5.569,6.486 -6.609,4.454 -10.569,10.571 C -18.107,3.792 -9.998,0.876 0,0"
             style="fill:#63090e;fill-opacity:1;fill-rule:evenodd;stroke:none"
             id="path3668"
             inkscape:connector-curvature="0" /></g></g></g></g></svg>