<?xml version="1.0" standalone="no" ?>
<!DOCTYPE svg PUBLIC "-//W3C//DTD SVG 1.1//EN" "http://www.w3.org/Graphics/SVG/1.1/DTD/svg11.dtd">
<svg width="3228px" height="2300px" xmlns="http://www.w3.org/2000/svg" version="1.1" >
	<path d = "M2336.06,2257.32 L2927.93,2258.67 L2934.88,2226.32 L3068.66,2223.93 L3076.6,2218.19 L3077.6,2089 L3080.84,2079.85 L3110.64,2072.84 L3111.44,1985.08 L3113.64,283.804 L3110.33,273.569 L3079.8,267.988 L3078.56,127.596 L3059.02,124.28 L2939.2,124.23 L2932.64,92.9931 L2927.2,90.3211 L2390.19,87.9171 L2387.88,90.6771 L2343.68,86.3979 L2338.76,89.6823 L1808.86,91.4398 L245.978,90.3194 L241.763,93.1196 L234.935,122.961 L97.2888,126.287 L94.6806,265.722 L91.0014,269.239 L67.5088,272.226 L62.3046,277.493 L60.3193,301.257 L58.2784,2070.28 L61.2749,2076.24 L86.8332,2079.8 L92.1946,2085.11 L95.0359,2221.96 L233.22,2225.76 L236.109,2226.97 L239.794,2252.72 L249.991,2257.72 zM1664.04,2120.64 L1663.36,2119.04 zM895.359,2119.64 L894.717,2119 zM1749.08,2118.64 L1748.64,2118 zM1204.84,2115.04 L1212.96,2109.24 L1218.72,2110.05 L1217.95,2120.13 L1205,2120.2 zM1543.6,2116.68 L1545.72,2107.89 L1547.72,2105.64 L1550.56,2118.12 zM457.527,2120.09 L456.478,2117.32 L486.28,2102.52 L491.517,2102.88 L500.641,2119.72 zM723.761,2101.56 L735.038,2098.41 L739.677,2098.32 L739.681,2107.04 L737.136,2116.32 L731.617,2119.4 L714.28,2118.68 L713.637,2113.32 zM861.398,2118.68 L855.321,2099.45 L856.963,2096.36 L893.626,2118.04 zM2095.36,2091.96 L2095.36,2091.04 zM928.4,2088.96 L928.364,2088.04 L931.044,2088.72 zM1618.24,2111.96 L1633.56,2080.56 L1636.64,2079.32 L1639.09,2116.27 L1629.27,2120.68 L1617.47,2119.72 zM2140.79,2117.96 L2145.76,2077.56 L2150.24,2080.2 L2156.43,2118.03 L2149.55,2120.64 zM1635.12,2077.6 L1634.92,2076.76 zM525.082,2079.24 L529.239,2076.52 L532.599,2078.87 L531.237,2087.97 zM2581,2119.64 L2587.01,2113.24 L2600.97,2109.71 L2634.76,2075.56 L2712.68,2116.28 L2713.63,2119.72 zM2147.36,2074.64 L2147.36,2073.36 zM1395.29,2112.69 L1391.32,2102.06 L1393.48,2088.35 L1408,2072.25 L1416.21,2073.6 L1416.4,2117.96 L1407.42,2119.53 zM2148.04,2071.6 L2147.36,2070.68 zM2381.45,2105 L2381.64,2060.44 L2399.12,2074.24 L2431.08,2080.68 L2471.48,2075.76 L2497.96,2063.4 L2505.68,2103.56 L2504,2107.67 L2471.84,2091.76 L2437.44,2087.32 L2404.77,2094.72 L2396,2102.81 L2389.16,2119.18 L2382.75,2118.92 zM2381.36,2055.64 L2381.36,2054.36 zM2526.16,2051.24 L2556.28,2040.24 L2562.24,2041.04 L2563.44,2053.24 L2547.07,2064.25 L2528.68,2084.44 L2524.24,2081.44 L2519.37,2055.04 zM1204,2089.2 L1191.28,2076.96 L1187.56,2064 L1193.84,2046.92 L1203,2039.25 L1207.48,2042.28 L1220.14,2089.03 L1212.26,2091.64 zM733.031,2028.57 L738.289,2026.24 L749.44,2028.08 L740.366,2078.13 L726.326,2069.97 L721.763,2058.24 L722.759,2042.12 zM566.12,2010.6 L565.915,2009.76 zM2677.28,2012.44 L2679.56,2007.76 L2684.96,2007.84 L2688.36,2013.96 L2677.59,2019.64 zM1393.48,2019.28 L1409.23,2001.53 L1416.09,2001.8 L1415.12,2051.84 L1406.04,2052.16 L1395.92,2042.16 L1391.36,2027.2 zM1551.24,2007.96 L1550.95,2000.77 L1554.6,1998.79 L1555.6,2001.55 L1554.24,2018.16 zM905.835,2056.07 L896.09,2046.28 L865.923,2032.76 L844.362,2032.37 L843.519,2023.01 L851.759,2000.04 L879.034,2032.71 L895.318,2043.41 L947.092,2054.36 L936.363,2082.68 L931.079,2085.68 L926.319,2083.96 zM938.437,1999.12 L955.076,1995.24 L962.602,1995.88 L955.962,2020.6 zM1583.12,1996.76 L1591.72,1994.52 L1598.68,1993.44 L1599.68,1996.6 L1578.28,2084 L1577.32,2007.03 zM2377.76,2029.32 L2376.76,2005.88 L2404.57,2010.68 L2426.48,2009.76 L2470.68,1993.52 L2473.76,1993.4 L2480.24,2006.04 L2487.16,2030.32 L2447.06,2019.32 L2421.04,2022.24 L2393.41,2033.55 L2381.96,2050.64 zM2335.68,2095.16 L2344.76,1977.72 L2346.28,1975 L2349.48,1980.12 L2357.44,2029.16 L2359.68,2114.33 L2352.43,2120.16 L2334.91,2117.95 zM1083.72,2036.55 L1079.96,2020.32 L1072.2,2013.32 L1058.22,2008.76 L1018.04,2008.56 L979.841,2020.95 L986.041,1994.52 L1014.21,1996.44 L1040.04,1991.24 L1071.64,1974.8 L1076.16,1975.76 L1093.2,2011.08 L1096.72,2035.94 L1076.8,2087.16 L1070.24,2119.28 L1057.56,2118.68 L1052.44,2098.04 L1036.24,2088.24 L999.973,2083.32 L961,2092.68 L957.359,2090.4 L971.884,2059.44 L999.274,2068.24 L1035.36,2068.24 L1058.92,2061.24 L1076.55,2051.2 zM2166.72,2039 L2164.32,1983.9 L2168.15,1972.28 L2185.82,1971.29 L2189.53,1974.27 L2190.64,2117 L2180.32,2120.64 L2177.76,2116.2 zM2319.08,1974.45 L2320.24,1972.56 L2323.64,1971.88 L2321.68,2019.08 L2311.4,2117.96 L2289.8,2120.2 L2286.84,2109.68 L2296.32,2056.96 zM1186.99,2018.19 L1175.72,2007.88 L1170.84,1991.8 L1181.93,1970.43 L1188.44,1970.36 L1202.68,2016.72 L1197.8,2021.68 zM2108.68,1997.2 L2105.72,1966.77 L2126.95,1970.58 L2130.12,1986.63 L2127.76,2049.8 L2120.96,2091.62 zM2543.76,1961.48 L2546.72,1959.52 L2551.6,1959.33 L2550.16,1966.41 L2526.67,1988.16 L2510.4,2016.15 L2504.8,2010.96 L2495.43,1984.24 zM2211.32,2009.92 L2211.6,1969.16 L2233,1959.25 L2237.68,1965.11 L2238.68,2033.46 L2227.72,2117.84 L2215.28,2119.24 L2212.32,2113.8 zM1519.24,1961.88 L1518.53,1960.72 zM2094.56,2088.24 L2074.76,2034.12 L2056.67,1952.76 L2081.68,1959.6 L2094.68,2054.92 L2097.68,2088 zM1978.24,2116.24 L2002.19,2083.03 L1999.51,2078.19 L1965.12,2083.8 L1937.36,2095.85 L1937.24,2086.01 L1966.4,2073.76 L1990.81,2056.95 L2013.76,2034.92 L2024.64,2016.04 L2020.6,2012.36 L2000.72,2014.8 L1953.08,2034.68 L1953.84,2019.08 L2000.84,1990.84 L2029.84,1953.61 L2034.2,1955.53 L2048.84,2022.36 L2080.64,2118.08 L1982.01,2120.72 L1976.72,2119 zM744.758,1955.73 L754.801,1950.24 L762.117,1949.52 L763.672,1953.89 L752.638,2002.95 L743.449,1999.13 L733.763,1985.61 L734.799,1967.72 zM2706.95,1999.59 L2690.84,1978.24 L2697.56,1950.04 L2700.76,1949.37 L2721.16,1998.76 L2713.49,2004.44 zM1543.36,1953.29 L1543.64,1950.64 L1556.6,1950.24 L1561.12,1954.28 L1547.56,1960.67 zM1602,1941.24 L1607.04,1937.28 L1610.68,1936.52 L1611.72,1940.89 L1605.68,1960.32 L1585.77,1957.16 L1583.36,1953.68 L1587.04,1947.56 zM929.534,1936.89 L928.593,1933.47 L964.925,1928.24 L969.404,1927.59 L971.157,1933.37 L966,1965.32 zM1396.8,1972.04 L1390.8,1962.36 L1390.8,1947.64 L1398.48,1933.84 L1408,1928.21 L1411.88,1926.44 L1413.76,1931.55 L1414.68,1980.12 L1405.96,1979.48 zM1858.8,2014.99 L1884.68,1926.77 L1889.32,1927.04 L1893.76,1950.2 L1906.24,1982 L1928.23,2011.24 L1925.11,2021.51 L1897.96,1984.28 L1887.08,1974.92 L1880.56,1977.12 L1884.76,2023.12 L1894.24,2050 L1912.16,2078 L1910.2,2091.16 L1906.8,2094.28 L1884.68,2059.24 L1860.71,2039.52 L1860.24,2081.33 L1872.64,2118.92 L1809.95,2119.28 zM1887.36,1923.64 L1887.36,1922.36 zM881.764,1927.28 L880.641,1925.13 L882.763,1920.33 L893.629,1926.04 zM1638.32,1922.88 L1638.77,1921.17 L1640.27,1918.11 L1641.64,1921.68 L1634.76,2023.69 L1611.2,2077.04 L1604.56,2086.68 L1603.32,2080 zM340.763,1938.52 L347.202,1920.4 L358.21,1914.24 L373,1915.52 L383.993,1926.31 L385.237,1941.01 L378.759,1952.92 L369.195,1957.76 L356.483,1958.04 L346.25,1950.93 zM2779.32,1935.76 L2782.56,1921.32 L2796.04,1911.48 L2811.72,1912.24 L2820.61,1920.21 L2824.68,1931.13 L2821.2,1944.56 L2808.12,1954.72 L2798.56,1955.24 L2782.29,1944.96 zM2366.24,1955.2 L2356.32,1912.76 L2402.49,1916.68 L2431.96,1912.36 L2450.4,1952.72 L2416.14,1949.32 L2391.53,1952.24 L2370.44,1959.68 zM1640.4,1915.77 L1640.64,1912.92 zM1641.36,1908.92 L1641.36,1908.08 zM2740.52,1989.72 L2719.32,1936.72 L2733.56,1904.89 L2737.2,1906.04 L2768.56,1989.32 L2746.48,1995.68 zM1062.36,1907.16 L1068.96,1903.64 L1072.64,1906.41 L1065,1924.19 L1023.12,1931.76 L994.241,1950.36 L991.56,1942.73 L995.344,1923.76 L1037.2,1917.76 zM2512.32,1902.4 L2514,1901.52 L2517.64,1902.69 L2498.48,1922.32 L2480.4,1956.16 L2468.52,1941 L2456.71,1910.88 zM2319.8,1903.45 L2321.55,1902.32 L2325.64,1902.97 L2288.32,2000.96 L2262.24,2120.36 L2250.36,2116.57 L2258.68,2046.35 L2259.04,1945.91 zM2326.08,1899.64 L2325.64,1899 zM1167.8,1948.52 L1155.2,1940.88 L1148.56,1928.04 L1149.77,1912.82 L1160.99,1899.25 L1164.48,1900.4 L1181.4,1947.96 zM1644.12,1899.6 L1643.92,1898.76 zM2286.07,1894.24 L2288.88,1893.76 L2294.92,1893.36 L2294.72,1895.96 L2265.64,1917.76 L2234.72,1933.76 L2191.72,1947.68 L2174.64,1946.79 L2143.49,1922.12 L2142.33,1917.32 zM2530.09,1892.28 L2531.04,1891.76 zM1930.52,1945.04 L1898.96,1915.72 L1887.4,1911.95 L1891.56,1891.2 L1893.76,1889.21 L1915.48,1921.16 L1939.96,1942.32 L1937.96,1953.16 zM2020.44,1892.96 L2023.72,1888.69 L2026.68,1891.63 L2025.16,1900.95 L2008.64,1920.15 L2009.81,1926.28 L2022.32,1936.96 L1993.55,1948.28 L1965.01,1966.68 L1963.36,1962.68 L1967.8,1943.56 L1990.72,1928.72 zM454.203,1882.24 L455.797,1881.76 L460.116,1883.08 L429.241,1929.36 L435.8,1890.04 zM747.955,1890.53 L764,1877.24 L769.682,1877.28 L771.681,1883.06 L767.713,1929.64 L757.923,1928.16 L748.248,1917.01 L744.359,1901 zM1506.32,1910.88 L1512.76,1871.8 L1514.96,1869.87 L1515.72,1873.66 L1517.17,1914.55 L1509.16,1917.19 zM1537.35,1876.49 L1538.24,1868.05 L1572.12,1872.32 L1577.4,1876.88 L1569.6,1906.96 L1542.08,1914.68 zM2573.32,1865.48 L2575,1864.6 L2576.76,1867.72 L2565.4,1888.64 L2535.68,1888.76 zM1865.55,1867 L1869.48,1858.12 L1872.64,1858.16 L1872.68,1871.56 L1867.76,1902.89 L1865.4,1908.16 L1856.65,1909.76 L1865.24,1912.08 L1862.76,1929.2 L1848.24,1982.84 L1827.24,2035.92 L1784.72,2113.96 L1777.16,2120.52 L1775.8,2116.72 zM2395.2,1856.96 L2395.88,1855.71 L2397.88,1857.68 zM2410.92,1864.76 L2400.2,1858 L2408.52,1853.24 L2414.76,1853.13 L2419.67,1864.55 L2415.83,1867.68 zM1398.2,1859.12 L1406.28,1853.25 L1413.12,1852.76 L1415.63,1858.34 L1414.68,1899.12 L1411.52,1905.97 L1399.52,1900.2 L1391.52,1888.61 L1390.32,1873.48 zM2439.36,1853.84 L2439.68,1852.05 L2473.5,1853.39 L2448.28,1881.12 L2444.24,1877.72 zM1871.64,1851.6 L1872.76,1849.76 L1873.72,1854.4 zM479.276,1894.21 L504.117,1852.49 L508.127,1849.76 L530.967,1872.72 L557.085,1889.43 L550.034,1926.64 L524.804,1895.12 L500.602,1877.49 L493.366,1879.88 L505.52,1929.72 L521.029,1955.27 L542.803,1978.49 L539.606,2003.36 L511.679,1975.52 L488.442,1960.32 L483.562,1961.84 L482.319,1966.8 L499.88,2022.32 L414.345,1990.64 zM2150.56,1871.2 L2163.84,1851.56 L2175.74,1847.24 L2218.9,1847.24 L2243.92,1851.24 L2276.84,1860.76 L2294.87,1870.68 L2146.58,1893.68 L2138.38,1890.59 zM1844.72,1848.88 L1845.79,1847.57 L1848.64,1847.09 L1847.76,1852.16 L1835.76,1887.72 L1751.72,2116.92 L1748.32,2111.92 L1753.76,2074.36 L1774.8,1989.73 L1808.88,1909.64 zM953.319,1881.52 L925.921,1871.24 L886.603,1869.56 L885.325,1866.55 L893.839,1848.88 L923.104,1852.68 L955.403,1847.24 L961.679,1846.64 L964.757,1850.28 L969.641,1889.29 L967.002,1891.24 zM1311.64,1846.2 L1311.4,1845.08 zM866.766,1844.17 L867.323,1840 L870.237,1837.97 L872.597,1841.65 L867.562,1850.61 zM589.479,1858.04 L592.799,1840.08 L597.964,1838.28 L619.6,1857.92 L595.449,1866.64 L588.873,1864.68 zM552.524,1839.76 L558.928,1837.52 L567.484,1837.6 L561.237,1860.32 L548.318,1855.72 L539.199,1847.52 L539.328,1844.32 zM2644.48,1911.6 L2658.56,1833.6 L2663.2,1834.8 L2674.76,1878.29 L2678.68,1909.92 L2676.68,1944.8 L2670.88,1959.8 L2632.04,1984.32 zM1919.44,1870.68 L1896.6,1855.41 L1897.76,1833.24 L1899.16,1828.76 L1903.13,1829.33 L1944.44,1863.04 L1945.4,1886.88 L1942.68,1888.64 zM1576.56,1829.32 L1578.45,1828.32 L1592.57,1829.04 L1589.4,1835.6 zM1144.37,1873.05 L1132.56,1851.88 L1140.12,1832.28 L1149.08,1826.52 L1155.6,1827.16 L1160.48,1874.04 L1156.55,1877.68 zM986.28,1843.32 L1031.6,1837.48 L1056.32,1825.49 L1062.92,1826.28 L1075.25,1842.84 L1044.84,1848.24 L1025,1857.24 L993.278,1886.04 zM319.516,1874 L337.483,1827 L339.962,1824.36 L342.241,1828.04 L359.842,1875.4 L315.041,1896.64 L313.319,1892.24 zM2630.72,1828.17 L2633.32,1824.49 L2637.6,1824.61 L2635.48,1843.11 L2610.16,1975.63 L2605.49,1977.16 L2581.24,1946.92 L2576.77,1930.72 L2598.84,1871.96 zM1538.89,1829.96 L1538.88,1821 L1566.59,1828.96 zM2184.4,1816.36 L2184.64,1814.36 L2187.64,1815.04 zM633.523,1816.24 L650.798,1811.24 L656.358,1812.92 L655.759,1819.71 L642.116,1839.56 L616.936,1821.25 zM2586.93,1817.4 L2583.33,1811.05 L2587.21,1809.32 L2597.97,1814.6 L2592.17,1820.67 zM1662.4,1809.88 L1662.36,1809.04 zM1253.27,1881.99 L1237.24,1866.88 L1230.24,1852.44 L1227.28,1837.01 L1229.76,1811.25 L1231.28,1808.07 L1234.24,1813.08 L1257.16,1879.68 L1257,1883.33 zM773.959,1807.24 L779.117,1805.24 L788.44,1807.08 L773.921,1857.36 L760.203,1845.36 L757.319,1830.03 L762.523,1815.08 zM2543.28,1834.04 L2524.48,1832.6 L2543.68,1802.77 L2556.08,1805.48 L2570.56,1833.88 L2557,1843.68 zM2270.8,1837.24 L2237.99,1827.24 L2229.32,1802.89 L2230,1798.79 L2237.01,1802.68 L2248.64,1801.01 L2278.2,1836.84 zM1665.76,1795.76 L1666.28,1794.32 L1667.44,1799.4 L1664.36,1800.95 zM519.759,1813.52 L518.598,1793.12 L555.599,1812.04 L532.196,1820.68 L523.483,1819.88 zM429.797,1819.41 L440.606,1803.88 L485.005,1789.24 L490.404,1788.68 L493.679,1792.97 L495.641,1820.4 L478.918,1820.76 L472.115,1825.49 L471.879,1836.36 L482.044,1844.76 L476.998,1853.2 L442.118,1863.44 L435.005,1859.64 L408.634,1860.64 zM1667.4,1790.09 L1667.68,1787.68 L1670.32,1789.64 zM673.476,1841.32 L681.757,1819.48 L684.8,1795.04 L694.2,1786.56 L697.718,1786.88 L711.682,1835.97 L707.759,1877.48 L700.926,1891.76 L671.28,1918.04 L660.798,1937.03 L655.316,1969.56 L660.682,2022.84 L658.757,2043.88 L626.838,2086.96 L612.237,2118.44 L600.881,2118.64 L599.885,2115 L622.759,2073.99 L620.84,2066.75 L582.039,2080.4 L559.723,2098.67 L557.598,2078.76 L560.558,2063.78 L586.72,2046.72 L608.798,2024.08 L630.602,1980.6 L625.921,1978.32 L607.037,1984.76 L568.723,2007.66 L567.241,1990.96 L570.565,1981.8 L615.606,1948.07 L632.202,1925.04 L639.679,1906.12 L635.481,1902.32 L625.668,1904.28 L578.36,1927.6 L581.8,1899 L585.323,1892.28 L623.716,1884.76 L650.641,1870.44 L672.961,1877.68 L693.96,1877.24 L697.681,1869.88 L696.4,1861.6 L669.92,1850.32 zM2437.64,1785.77 L2439.34,1784.64 L2475.85,1785.28 L2439.2,1815.31 L2435.32,1804.84 zM2403.52,1795.68 L2408.67,1785.73 L2414.52,1786.44 L2412.64,1814.93 L2399.95,1805.92 zM1851.8,1785.76 L1857.76,1784.24 L1864.64,1785.69 L1814.76,1854.08 L1791.68,1894.6 L1799.16,1785.14 L1823.38,1788.68 zM969.241,1787.48 L968.766,1782 L998.915,1785.99 L978.923,1812.56 zM2610.08,1779.64 L2609.64,1779 zM1391.81,1816.57 L1388.8,1805.72 L1391.24,1793.56 L1404.73,1778.52 L1410.13,1777.44 L1412.68,1781.92 L1414.67,1831.21 L1404.72,1829.19 zM1937.2,1808.44 L1899.92,1783.57 L1901.04,1776.33 L1934.12,1789.95 L1939.68,1800.92 L1940.64,1808.95 zM949.722,1805.2 L917.046,1790.56 L920.715,1775.81 L944.759,1776.08 zM197.359,1772.92 L197.359,1772.08 zM1335.36,1776.85 L1340.52,1770.24 L1347.12,1769.44 L1349.68,1774.2 L1346.4,1798.6 L1341.52,1795.04 zM875.759,1776.49 L876.764,1767.52 L881.921,1763.76 L895.838,1771.2 L896.443,1775.96 L892.681,1786.96 L880.935,1789.68 L874.189,1788.64 zM1671.76,1766.16 L1672.91,1761.84 L1675.68,1766.12 L1673.76,1778.48 L1668.64,1783.84 zM849.761,1770.01 L851.484,1763.24 L853.273,1761.19 L854.64,1767.53 L847.239,1825.92 L842.837,1826.23 L839.318,1810.96 zM2089.68,1840.43 L2079.68,1758.78 L2084.4,1759.32 L2088.76,1769.28 L2110.68,1837.28 L2108.68,1844.64 L2095.45,1850.35 L2090.68,1848.12 zM853.396,1759.6 L853.396,1758.4 zM2693.24,1864.56 L2678.56,1814.88 L2704.2,1758.64 L2706,1756.68 L2709.76,1762.56 L2726.68,1824.97 L2727.68,1863.64 L2707.72,1906.08 zM1647.52,1758.72 L1648.48,1757.28 L1643.68,1798.08 L1616.36,1917.23 L1594.77,1911.16 L1593.24,1902.39 L1603.56,1866.36 L1614.68,1856.72 L1609.8,1845.68 zM1131.04,1802.52 L1120.28,1790.96 L1116.56,1778 L1127.52,1755.92 L1132.37,1754.68 L1136.48,1759.28 L1149.66,1801.75 L1146.73,1805.52 zM854.359,1755.92 L854.359,1755.08 zM613.673,1778.12 L640.594,1756.52 L648.079,1759.85 L656.402,1776 L652.88,1783.8 L631.321,1792.16 L603.878,1794.64 L604.953,1783.48 zM1516.21,1757.56 L1519.6,1755.25 L1524.32,1753.52 L1525.71,1756.45 L1520.68,1774.6 L1512.96,1763.2 zM2047.76,1862.63 L2055.32,1754.01 L2060.68,1771.96 L2070.64,1862.85 L2050.16,1878.28 zM2079.4,1755.13 L2079.4,1752.95 L2082.68,1755 zM551.039,1782.8 L527.359,1764.12 L533.996,1751.32 L546.394,1740.64 L556.237,1753.12 L552.321,1761.96 L561.519,1761.92 L578.681,1779.96 L575.961,1791.4 zM345.039,1740.28 L346.002,1739.76 L348.399,1741.32 L299,1860.28 L285.599,1822.56 zM765.761,1764.03 L765.802,1754.19 L771.762,1742.84 L784.28,1734.24 L789.604,1734.88 L789.641,1786.39 L773.319,1781 zM351.319,1791.92 L376.791,1736.93 L388.857,1734.39 L395.106,1738.69 L416.2,1790 L415.479,1797.72 L380.036,1862.6 zM2102.24,1746.08 L2099.23,1733.4 L2163.76,1730.24 L2177.2,1732.05 L2187.4,1748.44 L2158.08,1826.96 L2134.72,1835.68 L2129.8,1829.92 zM1549.48,1751.91 L1556.76,1730.04 L1560,1728.6 L1582.52,1741.76 L1625.12,1745.36 L1627.68,1749.72 L1605.36,1798.95 L1601.32,1800.36 L1578.88,1787.76 L1544.23,1781.23 zM290.477,1736.28 L294.233,1730.21 L300.324,1727.44 L316.16,1729.76 L322.006,1733.56 L320.673,1737.84 L273.836,1798.28 L264.601,1779.68 zM1337.19,1740.4 L1320.76,1733.08 L1318.04,1724.32 L1335.45,1726.93 L1341.68,1739.28 zM2526.84,1777.24 L2481.12,1759.8 L2465.6,1716.04 L2468.72,1714.24 L2607.6,1776.24 L2606.95,1779.72 L2597.21,1781.68 zM963.763,1724.57 L964.763,1716.08 L967.723,1713.32 L1009.28,1723 L967.007,1745.67 zM449.278,1714.48 L453.277,1712.24 L456.956,1711.4 L457.237,1714.96 L432.404,1763.16 L426.557,1758.68 L416.398,1727.87 zM244.519,1722.72 L248.433,1715.49 L255.275,1711.81 L272.23,1718.6 L272.435,1723.76 L246.202,1767.55 L209.157,1812.56 L229.521,1753.24 zM686.523,1712.24 L695.799,1710.24 L704.631,1712.01 L696.594,1725.28 L689.175,1753.67 L680.669,1763.23 L658.598,1729.96 L667.347,1715.56 zM1501.24,1718.48 L1503.56,1710.32 L1536.12,1718.08 L1498.81,1742.12 zM936.314,1718 L938.558,1709.32 L940.923,1707.64 L942.681,1715.78 L941.599,1730.95 L934.357,1726.96 zM1988.24,1729.56 L1992.76,1705.04 L1998.96,1703.76 L2037.08,1724.16 L2026.48,1842.7 L2020.68,1853.68 L1995.16,1868.08 L1970.36,1888.92 L1971.08,1859.52 L1991.52,1843.12 L2008.16,1822.08 L2021.24,1788.89 L2024.4,1767.85 L2022.96,1761.76 L2016.32,1761.28 L1987.31,1783.56 L1969.16,1807.39 L1965.6,1806.96 L1960.84,1781.69 L1977.2,1758 zM1395.76,1713.6 L1410.4,1703.8 L1414,1702.82 L1415.64,1707.12 L1410.96,1758.32 L1399.36,1753.96 L1390.8,1741.88 L1388.36,1732.93 zM907.278,1707 L900.809,1704.44 L910.969,1704.56 L913.86,1706.68 zM1798.24,1740.65 L1802.97,1715.84 L1840.19,1712.76 L1874.28,1697.24 L1912.4,1707.68 L1922.96,1742.6 L1879.07,1723.32 L1836.64,1726.76 L1799,1745.68 zM1205.28,1711 L1199.36,1706.96 L1196.92,1698.77 L1200.48,1696.96 L1212.44,1705.76 L1212.68,1712.95 zM212.684,1703.48 L217.598,1698.25 L223.918,1696.77 L229.079,1702.52 L210.598,1739.04 L200.72,1768.96 L196.357,1766.36 L196.357,1722.16 zM1073.21,1695.04 L1074.87,1692.56 L1078.05,1692.12 L1076.76,1708.44 L1066.68,1724.6 L1035,1717.72 L1062.44,1705.72 zM483.761,1710.45 L492.043,1697.56 L526.27,1688.48 L537.186,1689 L541.196,1713 L510.696,1740.59 L501.038,1727.84 L492.441,1725.32 L486.044,1727.87 L482.802,1742.04 L493.36,1763.96 L487.002,1767.76 L451.476,1775.91 zM1110.63,1724.23 L1104.33,1712.89 L1104.6,1701.56 L1117.16,1685.41 L1122.6,1683.83 L1125.68,1689.88 L1128.36,1729.45 L1126.04,1733.62 zM2357.56,1729.96 L2363.76,1681.08 L2368.16,1681.49 L2401.68,1728.84 L2381.68,1790.27 L2352.92,1835.6 L2350.32,1820.93 zM2591.32,1686.99 L2588.6,1679.84 L2594.16,1685.68 zM2336.08,1676.17 L2337.6,1675.21 L2342.68,1676.04 L2327.92,1827.56 L2318.76,1812.92 L2306.76,1777.16 L2300.32,1723.16 L2303,1702.4 zM859.243,1689.93 L854.321,1674.72 L857.913,1674.31 L865.39,1684.66 L863.645,1695.52 zM1467.68,1696.49 L1468.77,1673.09 L1481.76,1686.37 L1483.64,1694.65 L1476.96,1720.6 L1469.8,1709.24 zM1943.92,1686.56 L1952.76,1672.01 L1970.68,1686 L1948.72,1723.4 L1945.56,1722.96 L1936.36,1698.32 zM2830.24,1742.8 L2853.56,1671.04 L2856.72,1670.05 L2859.24,1679.27 L2863.68,1715.3 L2863.68,1742.71 L2855.4,1788.36 L2849.2,1799.85 L2805.4,1818.92 zM2620.04,1759.24 L2480.93,1697.15 L2482.89,1688.92 L2521.96,1670.24 L2545.04,1678.8 L2574.2,1699.52 L2602.68,1728.92 L2622.2,1755.96 L2623.36,1758.96 zM1747.68,1780.12 L1766.76,1670.08 L1769.76,1672.13 L1772.76,1698.37 L1776.44,1780.08 L1772.68,1857.2 L1763.76,1923.68 L1736.76,2029.16 L1723.24,2066.88 L1701.44,2117.23 L1693.63,2119.48 L1691.84,2115.79 zM1310.72,1927.04 L1287.28,1892.68 L1255.76,1811.88 L1240.24,1747.4 L1232.32,1670.01 L1236.79,1673.87 L1287.76,1838.52 L1313.68,1927 zM1740.2,1670.32 L1740.76,1669.04 L1744.68,1669.08 L1738.68,1712.11 L1669.24,2115.96 L1666.68,2119.12 L1661.32,2113.03 L1656.36,2031.99 L1658.32,1963.76 L1664.56,1910.2 L1677.24,1845.53 L1698.76,1770.12 zM376.886,1668.76 L394.56,1666.24 L412.338,1665.44 L416.656,1668.45 L391.806,1707.48 L384.123,1711.68 L333.723,1712.2 L289.562,1701.76 L257.646,1688.24 zM2785.79,1666.97 L2788.16,1665.16 L2790.64,1665.96 L2754.25,1716 L2734.68,1759.96 L2729.76,1756.84 L2723.6,1725.28 L2759.48,1687.84 zM1743.08,1664.64 L1742.64,1664 zM1306.2,1823.11 L1257.32,1666.45 L1259.97,1663.65 L1264.24,1668.76 L1291.2,1720 L1324.2,1811 L1325.76,1825.44 L1313.93,1843.56 zM766.52,1696.68 L764.318,1677 L777.17,1661.35 L784.124,1659.48 L786.234,1663.32 L789.245,1709.4 L784.873,1711.63 L775.725,1708.48 zM527.807,1662.72 L529.319,1660.32 L533.599,1661.93 zM1256.64,1660.92 L1256.4,1659.36 zM2829.2,1660.2 L2831.12,1658.52 L2833.96,1656.48 L2834.68,1660.17 L2823.24,1700.12 L2785.72,1810.95 L2767.08,1786.56 L2756.6,1763.03 L2783.28,1710.04 zM2866.76,1818.85 L2878.44,1782.92 L2884.68,1730.59 L2882.68,1692.08 L2875.68,1654.13 L2918.92,1682.24 L2936.2,1701.96 L2948.24,1758.44 L2973.76,1809.29 L2974.68,1827.41 L2972.24,1832.6 L2933.41,1777.97 L2918.8,1768 L2900.84,1795.96 L2882.28,1835.56 L2862.68,1902.12 L2824.36,1882.04 L2851.68,1846.48 zM1518.08,1667.24 L1511.32,1663 L1514.68,1653.77 L1555.6,1664.87 L1551.15,1679.31 L1547.12,1681.41 zM2875.36,1651.92 L2875.36,1651.08 zM2635.8,1714.13 L2665.72,1650.96 L2668.96,1650.36 L2678.2,1670.72 L2692.76,1708.52 L2692.51,1717.6 L2651.48,1758.24 L2633.24,1726.72 zM1040.04,1657.68 L1032.09,1655.28 L1051.84,1650.24 L1060.36,1650.77 L1062.4,1660.56 zM972.241,1657.97 L976.044,1648.28 L1017.55,1656.96 L971.004,1676.68 zM947.278,1650.45 L947.764,1647.08 L950.202,1645.64 L951.641,1649.63 L947.003,1664.2 zM950.079,1644.64 L949.639,1644 zM916.921,1642.2 L907.403,1636.76 L924.943,1639.4 L923.957,1645.25 zM1471.24,1654.08 L1472.76,1635.56 L1476.63,1633.03 L1491.64,1652.68 L1488.24,1662.4 L1471.64,1670.84 L1468.4,1668.04 zM1399.59,1683.24 L1393.24,1678.64 L1385.36,1663.04 L1389.53,1644.71 L1402.72,1632.52 L1408.68,1640 L1414.64,1685.12 L1411.88,1687.44 zM1837.16,1637.76 L1861,1627.24 L1884.68,1632.28 L1886.96,1640.56 L1826.44,1642.84 L1826.92,1653.68 L1804.96,1670.64 L1801.32,1666.71 L1803.45,1643.71 zM1101.28,1664.52 L1093.8,1659.48 L1087.76,1646.21 L1087.84,1633.99 L1095.65,1622.71 L1103.2,1623 L1116.44,1663.92 L1111.05,1666.72 zM1563.48,1623.68 L1567.24,1620.53 L1571.64,1623.45 L1568.43,1630.91 L1560.79,1628.35 zM1264.73,1628.44 L1264.05,1624.32 L1271.24,1620.52 L1273.92,1619.56 L1275.68,1625.85 L1274.72,1641.93 zM530.319,1624.16 L530.764,1620.12 L532.962,1618.44 L534.44,1622.92 L532,1627.36 zM1193.8,1669.96 L1196.76,1619.92 L1200,1617.6 L1208.44,1624.15 L1210.36,1675.86 L1208.04,1681.18 L1195.04,1688.52 zM1297.29,1623.07 L1297.47,1618.99 L1301.56,1616.33 L1319.67,1620.76 L1311.32,1656.28 L1315,1678.16 L1301.32,1681.62 L1296.75,1677.17 zM534,1614.81 L532.992,1614.2 zM287.08,1642.12 L339.118,1617.76 L363.941,1612.24 L385.032,1615.83 L412.512,1638.84 L413.227,1643.16 L262.886,1663.64 L260.512,1661.72 L264.039,1657.28 zM695.237,1618.2 L694.342,1613.56 L704.622,1610.4 L709.68,1614.25 L705.161,1669.63 L701.798,1677.08 L684.56,1668.96 zM2560.88,1625.76 L2538.83,1620.24 L2513.07,1619.64 L2524.51,1607.89 L2533.16,1604.77 L2563,1615.24 L2569.36,1626.92 zM2165.28,1683.76 L2127.04,1671.24 L2081.92,1647.16 L2052.68,1621.36 L2035.61,1600.01 L2037.76,1597.32 L2068.88,1605.76 L2104.28,1623.52 L2145.52,1655.84 L2166.76,1679.08 L2168.6,1683.6 zM2086.2,1707.4 L2064.83,1670.64 L2053.03,1672.52 L2044.28,1696.35 L2038.11,1698.36 L1996.72,1676.48 L1963.28,1648.96 L1966.32,1603 L1981.86,1594.24 L2004.77,1594.76 L2026.36,1625.04 L2074.07,1668.23 L2122.04,1692.24 L2165.28,1707 L2126.92,1712.68 L2102.51,1712.24 zM1604.44,1645.24 L1592.16,1642.32 L1589.37,1637.83 L1600.05,1610.36 L1637.48,1607.76 L1666.72,1591.52 L1669.64,1591.08 L1669.76,1608.88 L1676.4,1618.84 L1693.72,1631.2 L1727.63,1644.96 L1696.24,1715.36 L1688.16,1680.2 L1679.07,1674.32 L1670.28,1677.04 L1633.08,1735.6 L1608.56,1706.8 L1571.77,1693.44 L1577.08,1674.44 L1597.04,1686.2 L1614.87,1691.24 L1650.77,1688.24 L1647.68,1678.21 L1631.74,1660.06 zM2685.76,1635 L2664.8,1589.28 L2716.08,1615.24 L2783.07,1632.67 L2712.88,1696.56 zM773.115,1594.2 L784.116,1587.48 L789.081,1586.71 L790.674,1593.77 L783.6,1635.68 L773.202,1632.88 L764.318,1616.04 L765.799,1603.28 zM997.127,1594.59 L1001.68,1586.92 L1011.2,1591.52 L1012.05,1597.24 L994.719,1604.76 zM2547.77,1587.04 L2546.77,1579.68 L2550.52,1578.95 L2553.68,1584.24 L2551.96,1588.64 zM1681.36,1578.64 L1680.72,1578 zM1737.01,1582.24 L1742,1576.8 L1760.2,1571.24 L1764.72,1571.32 L1768.64,1581.96 L1756.56,1589.85 zM1203.24,1577.45 L1205.76,1569 L1243.71,1573.68 L1269.4,1567.4 L1272.36,1581.69 L1268.89,1585.14 L1235.09,1585.64 L1220.24,1578.32 L1214.15,1582.49 L1209.6,1597.24 L1200.16,1605.29 zM740.284,1565.32 L741.039,1564.32 L743.64,1564.08 L741.682,1568.88 zM2940.56,1603.68 L2927.32,1583.72 L2934.12,1564.25 L2939.75,1562.13 L2968.68,1603.52 L2966.88,1607.24 L2955.56,1609.56 zM1293.32,1571.68 L1293.77,1565.36 L1295.6,1561.48 L1330.6,1561.4 L1333.68,1569.99 L1296.97,1581.64 zM576.278,1565 L588.684,1562.41 L592.602,1562.6 L590.518,1575.69 L572.278,1632.04 L570.722,1599.84 L566.957,1593.8 L549.362,1584 L557.923,1570.88 zM1385.28,1608.96 L1377.52,1603.2 L1371.28,1589.99 L1372.24,1577.01 L1385.04,1560.28 L1388.24,1559.68 L1391.76,1566.29 L1401.64,1608.07 L1397.52,1613.63 zM952.319,1574.91 L952.764,1567.38 L955.28,1558.62 L980.636,1574.76 L963.962,1610.64 L953.759,1597.88 zM2181.2,1661.88 L2143.84,1611.24 L2124.6,1562.28 L2126.24,1557.64 L2133.83,1564.16 L2160.52,1599.04 L2185.76,1658.28 L2185.92,1664.52 zM396.239,1563 L399.557,1556.81 L401.643,1563.97 L394.479,1584 L387.555,1589.2 L381.882,1586 zM2590.24,1619.16 L2589.76,1608.2 L2615.19,1553.68 L2622.12,1554.89 L2654.2,1616.72 L2650.2,1631.92 L2620.08,1691.52 zM1816.56,1558.76 L1845.92,1547.25 L1853.48,1554.24 L1851.96,1562.12 L1832.28,1571.24 L1797.36,1572.04 L1809.09,1591.69 L1798.69,1607.63 L1787.36,1566.16 zM1523.76,1596.93 L1532.24,1549.29 L1543.28,1540.25 L1547.44,1543.31 L1554.24,1571 L1568.2,1593.81 L1535.44,1614.68 L1523.39,1609.95 zM377.522,1541.8 L379.202,1540.56 L382.64,1541.68 L350.961,1592.68 L327.917,1596.48 zM2314.64,1542.87 L2320.04,1539.56 L2357.24,1537.24 L2362.4,1536.55 L2363.16,1543.88 L2336.99,1573.77 L2306.88,1619.88 L2286.24,1673.84 L2279.32,1730.43 L2283.32,1772.76 L2292.96,1810.32 L2274.48,1787.57 L2279.4,1778.28 L2246.4,1692.8 L2279.8,1645.09 L2299.2,1608 zM1026.12,1549.44 L1037.04,1536.28 L1046.96,1539.28 L1055.25,1549.24 L1031.28,1552.72 zM1158.24,1542.24 L1157.56,1538.45 L1159,1534.33 L1184.4,1541.2 L1173.24,1602.56 L1168.36,1666.28 L1163.84,1665.07 L1153.52,1641.76 L1138.72,1591.11 L1128.44,1570.36 L1152.72,1559.72 zM2413.72,1631.2 L2402.16,1598 L2384.8,1564.27 L2385.64,1535.6 L2401.68,1537.04 L2401.24,1558.95 L2410.76,1586.24 L2427.2,1607.89 L2456.87,1630.32 L2423.82,1633.68 zM790.763,1536.92 L797.686,1531.8 L805.211,1531.01 L805.327,1536.28 L795.925,1566.56 L784.325,1552.25 zM488.758,1564.48 L517.558,1529.04 L521.44,1529.6 L533.435,1562.92 L508.72,1613.96 L464.603,1597.96 zM2789.24,1611.24 L2741.68,1602.2 L2689.04,1577.72 L2678.28,1530.89 L2680.84,1527.16 L2810.2,1608.52 L2808.72,1612.68 zM302.795,1534 L307.599,1524.81 L351.158,1531.24 L354.083,1534.52 L278.517,1622.12 L264.123,1629.52 zM2459.84,1550.08 L2440.96,1530.08 L2454.76,1519.56 L2461.24,1520.04 L2466.76,1543.08 L2466.68,1554.44 zM2841.76,1569 L2805.6,1516.28 L2819.39,1522.63 L2841.72,1545.04 L2852.68,1568.72 L2849.8,1582.27 zM2108.68,1601.2 L2078.24,1586.8 L2018.64,1571.24 L2007.32,1546.76 L2009.76,1534.15 L2019.56,1519.04 L2037.48,1511.24 L2053.76,1512.76 L2095.24,1533.72 L2114.68,1600.55 L2113.92,1603.52 zM906.241,1550.31 L911.761,1510.04 L915.722,1511.04 L930.197,1538.39 L931.126,1574.2 L908.77,1565.77 zM197.316,1585.71 L196.804,1509.01 L203.72,1509.36 L208.406,1520.61 L219.681,1585.71 L212.036,1640.63 L196.558,1604.28 zM2194.24,1579.71 L2194.32,1545.01 L2202.48,1509.08 L2205.68,1506.36 L2207.68,1509 L2220.76,1554.73 L2221.76,1607.29 L2214.2,1650.84 L2210.28,1652.95 L2199.32,1618.04 zM2891.44,1543.64 L2880.32,1526.04 L2884.84,1506.49 L2893.12,1508.44 L2923.56,1543.61 L2910.9,1549.64 zM500.635,1505.93 L503.679,1504.16 L507.317,1504.05 L506.043,1507.19 L439.949,1592.08 L426.031,1591.24 L417.366,1586.32 L433.676,1531.04 zM1676.04,1504.8 L1686.6,1502.24 L1696.12,1501.36 L1698.16,1504.32 L1669.91,1554.84 L1650.88,1575.8 L1625.53,1589.24 L1610.07,1588.72 L1611.91,1582.36 L1636.72,1575.76 L1648.81,1566.88 L1664.16,1549.08 L1681.68,1517.72 L1674.12,1514.32 L1640.6,1521.64 L1639.8,1514.96 zM1804.37,1522.03 L1823.56,1498.08 L1827.72,1498.04 L1838.64,1522.96 L1817.01,1527.68 zM993.203,1522 L979.321,1497 L1017.23,1519.61 L1002.68,1541.6 zM755.284,1500.68 L756.482,1497.68 L782.17,1496.32 L773.759,1524.72 L767.841,1531.6 L749.775,1529.36 zM977.804,1495.36 L976.956,1494.28 zM2824.04,1592.72 L2691.89,1509.52 L2692.08,1506.76 L2739.2,1492.24 L2744.04,1491.8 L2761.8,1504.04 L2793.44,1534.76 L2823.44,1578.28 L2829.68,1592.27 zM229.241,1516.44 L220.325,1491 L224.92,1489.76 L278.599,1515.96 L262.241,1566.92 L241.118,1607.59 L237.795,1547.39 zM1852.52,1492.04 L1851.33,1489.04 L1882.48,1490.32 L1864.68,1511.36 L1860.6,1509.91 zM1362.24,1524.04 L1363.04,1501.6 L1375.72,1488.53 L1381.13,1487.48 L1383.23,1491.56 L1383.4,1538.9 L1372.04,1536.72 zM1733.52,1528.76 L1715.88,1519.8 L1729.76,1488.09 L1737.48,1497 L1747.68,1528.51 L1745.6,1533.6 zM1217.69,1523 L1231.48,1488.28 L1234.69,1486.36 L1266.25,1496.76 L1268.13,1529.2 L1242.67,1530.24 L1215.09,1538.04 L1212.68,1534.8 zM1759.36,1486.76 L1759.65,1485.08 L1801.12,1485.32 L1779.49,1510.16 L1768.57,1503.25 zM2313.32,1487.84 L2315.04,1484.36 L2342.4,1486.68 L2359.24,1483.24 L2363.68,1482.95 L2364.55,1487.26 L2364.2,1495.06 L2359.03,1500.61 L2335.04,1498.32 L2316.76,1502.32 zM1451.25,1551.25 L1449.36,1537.99 L1460.48,1484.08 L1465.52,1483.84 L1499.75,1526.07 L1510.2,1541.27 L1510.24,1552.52 L1499.24,1610.16 L1493.61,1614.56 L1472.88,1592.12 zM1076.44,1503.28 L1074.77,1497.64 L1091.92,1483.93 L1099.4,1482.81 L1111.68,1504.96 zM2483.24,1518 L2477.32,1480.25 L2479.08,1476.33 L2513.24,1488.56 L2524.64,1515.83 L2491.84,1547.28 zM416.28,1473.24 L417.8,1472.76 L421.163,1472.55 L418.149,1477.49 L378.667,1510.72 L350.278,1509.68 L344.321,1508.6 L344.043,1505.32 zM425.079,1471.64 L424.639,1471 zM2388.05,1497.13 L2387.77,1479.64 L2417.16,1481.68 L2449.28,1470.24 L2454.76,1474.4 L2456.95,1502.37 L2423.12,1493.56 zM608.522,1466.96 L609.517,1465.12 L608.2,1493.11 L599.442,1533.4 L595.126,1537.72 L570.321,1542.96 zM1682.8,1473.37 L1689.04,1464.36 L1698.24,1461.24 L1718.95,1473.72 L1681.6,1481.68 L1678.32,1480 zM324.359,1458.92 L324.359,1458.08 zM1910.88,1488.41 L1914.32,1483.32 L1936.56,1475.2 L1946.04,1465.36 L1968.48,1456.25 L2007.72,1464.24 L2041.09,1486.44 L2015.92,1494.88 L1992.08,1517.28 L1986.32,1539.4 L1991.89,1570.16 L1963.28,1577.24 L1947.17,1589.15 L1918.92,1645.6 L1909.4,1622.76 L1927.24,1590.96 L1934.48,1565 L1933.2,1514.12 L1927.51,1512.52 L1914.32,1526.24 L1893.68,1562.88 L1880.56,1555.96 L1873.36,1538.41 L1898.68,1511.76 zM1572.24,1506.85 L1589.52,1455.81 L1594.2,1456.96 L1620.68,1505 L1614.32,1508.92 L1596.24,1478.88 L1590.28,1477.56 L1580.76,1505.31 L1577.32,1531.31 L1577.76,1547.84 L1590.67,1572.27 L1587.96,1578.64 L1574.76,1563.96 L1568.32,1543.08 zM582.165,1458.52 L585.278,1455.53 L586.722,1460.68 L549.404,1533.16 L546.671,1533.16 L538.399,1506.24 zM891.799,1453.96 L894.516,1449.2 L897.684,1452.29 L896.481,1465.07 L882.716,1556.41 L865.241,1566.32 L858.634,1581.71 L861.524,1594.04 L874.749,1613.27 L873.961,1624.6 L852.123,1631.2 L843.684,1644.6 L839.36,1637.32 L859.598,1544.92 zM918.359,1470.16 L920.761,1448.76 L923.641,1447.04 L925.643,1468.13 L919.964,1473.62 zM2552.76,1526.92 L2535.32,1483.16 L2549.87,1447.84 L2557.24,1450.56 L2573.48,1473.08 L2603.68,1523.52 L2577.88,1581.56 zM2851.44,1489.2 L2836.76,1471.53 L2836.76,1457.19 L2841.35,1447.97 L2845.85,1444.48 L2850.28,1447.88 L2875.68,1488 L2862.99,1492.72 zM2118.76,1482.12 L2127.24,1455.56 L2146.45,1444.24 L2170.24,1448.56 L2189.68,1476.52 L2176.24,1521.41 L2172.29,1573.12 L2118.84,1523.24 L2116.32,1513.02 zM482.72,1445.76 L487.278,1443.48 L489.918,1442.48 L490.237,1447.2 L473.682,1494.68 L440.768,1506.21 L442,1481.42 L437.074,1472.87 L430.439,1469.84 zM2235.76,1523.56 L2217.6,1474.07 L2230.28,1450.04 L2248.17,1440.24 L2265.96,1441.8 L2283.76,1458.28 L2293.68,1510.85 L2291.68,1554.12 L2281.2,1594.24 L2270.16,1618.04 L2255.2,1643.56 L2234.44,1667.36 L2244.68,1586.73 zM1609.64,1439.92 L1609.4,1438.36 zM1868.61,1452.63 L1885.76,1434.56 L1888.96,1433.4 L1890.68,1437.24 L1890.19,1462.44 L1860.16,1463.72 zM1706.81,1438.04 L1718.51,1434.24 L1728.62,1435.2 L1724.52,1445.84 zM1376.76,1435.68 L1382.99,1430.25 L1388.68,1434.01 L1384.68,1466.68 L1373.88,1461.52 L1370.76,1455.08 L1370.8,1445 zM2970.27,1432.67 L2971.68,1428.76 L2974.25,1433.52 zM1753.88,1457.17 L1751.76,1445.33 L1756.64,1428.04 L1762.04,1426.88 L1779.64,1438.12 L1801.96,1445.28 L1807.64,1455.04 L1791.88,1460.44 zM1659.23,1432.25 L1661.56,1424.92 L1664,1422.89 L1673.32,1429.36 L1669.24,1452.88 L1645.76,1487.92 L1636.85,1486 L1647.56,1443.32 zM1162.04,1467.8 L1127.45,1456.32 L1161.01,1443.75 L1185.89,1423.8 L1188.11,1421.44 L1192.16,1424.92 L1212.64,1467.32 L1201.72,1491.68 zM2911.52,1410.24 L2918.48,1408.49 L2924.6,1409.92 L2911,1420.67 L2900.68,1414.84 zM599.079,1408.64 L598.639,1408 zM2634.28,1439.76 L2627.32,1437.88 L2605.8,1403.28 L2642.86,1433.67 L2645.85,1439.48 zM397.442,1421.36 L436.239,1401.24 L467.357,1412.84 L481.918,1420.28 L480.638,1422.52 L341.082,1481.68 L342.519,1474.36 L357.916,1456.44 zM2938.81,1398.56 L2939.96,1397.84 zM258.318,1482.72 L198.557,1445.24 L196.318,1395.36 L199.52,1394.84 L261.72,1477.04 L264.044,1482.64 zM2799.37,1430.05 L2789.8,1418.27 L2791.76,1394 L2799.2,1394.52 L2833.59,1429.06 L2818.32,1436.68 zM1594.16,1404.08 L1611,1393.24 L1613.96,1392.63 L1615.68,1402.01 L1611.56,1435.67 L1605.15,1433.75 L1592.36,1418 L1580.28,1420.08 L1547.96,1511.72 L1539.32,1513 L1554.92,1431.04 zM1840.24,1409.76 L1845.64,1389.77 L1860.12,1393.88 L1873.68,1408 L1853.48,1433.2 L1832.8,1445.68 L1827.6,1434.56 zM2942.68,1396.61 L2948.54,1389.23 L2952.96,1385.36 L2957.64,1394.96 zM294.202,1395.4 L292.398,1388.64 L296.67,1386.24 L302.763,1385.34 L304.641,1388.84 L302.443,1412.51 L299.243,1413 zM2721.48,1457.24 L2686.07,1443.75 L2621.93,1386.25 L2623.04,1383.32 L2647.96,1394.76 L2717.2,1433.84 L2725.2,1455.16 zM1359.48,1381.24 L1363.76,1380.24 L1368.68,1381.01 L1358.8,1408 L1353.24,1442.16 L1332.24,1481.28 L1324.95,1518.25 L1293,1527.67 L1288.91,1492.8 L1309.96,1481.72 L1326.27,1463.21 L1339.44,1426 L1342.81,1387.84 zM1716.68,1382.12 L1713.36,1379.97 zM2487,1456.24 L2475.48,1450.97 L2471.32,1439.44 L2466.8,1378.46 L2469.24,1377.04 L2501.2,1454.12 L2500.8,1460.24 zM837.277,1374.24 L840.239,1373.24 L844.679,1374 L823.479,1429.28 L799.761,1460.88 L783.239,1471.2 L766.278,1473.24 L765.321,1467.87 L785.995,1461.48 L802.759,1447.4 L828.679,1394.8 L823.794,1390.32 L787.243,1403.16 L784.36,1401.04 L786.841,1395.92 zM2971.28,1371.96 L2970.8,1371 zM1473.48,1424.92 L1491.28,1368.49 L1494.76,1368.08 L1533.68,1422.51 L1520.2,1500.36 L1514.24,1510.92 L1468.16,1451.88 zM2511.24,1425 L2488.84,1367.04 L2497.76,1372.08 L2535.12,1422 L2524.16,1449.24 zM1250.12,1469.52 L1229.19,1451.95 L1217.24,1431 L1207.24,1400.61 L1208.24,1377.88 L1200.64,1364.24 L1206,1363.24 L1252.24,1391.12 L1253.56,1397.95 L1250.55,1398.68 L1218,1380.88 L1213.36,1382.68 L1223.24,1424.72 L1235.8,1448.04 L1262.72,1465.6 L1261.44,1471.84 zM2385.8,1441.59 L2386.04,1408.44 L2407.96,1398.72 L2421.76,1386.68 L2439.8,1354.41 L2442.64,1353.57 L2443.76,1361.33 L2448.96,1444.52 L2425.02,1439.32 L2389.24,1445.16 zM1283.76,1377.56 L1311.04,1351.28 L1317.92,1350.36 L1319.68,1356.97 L1319.68,1413.2 L1311.48,1445.44 L1298.75,1461.93 L1290.17,1467.4 L1284.32,1463.28 L1299.52,1449.88 L1308.76,1428.48 L1311.12,1370.96 L1303.77,1370.48 L1276.44,1394.76 L1275.8,1386.01 zM1315.4,1348.88 L1315.36,1348.04 zM2740.69,1379.28 L2731.84,1364.16 L2735.52,1345.28 L2740.2,1345.52 L2777.09,1375.8 L2773.16,1383.08 L2761.68,1386.68 L2748.29,1384.76 zM280.848,1466.2 L200.319,1358.68 L197.778,1344.08 L237,1343.32 L248.201,1350.44 L265.757,1381 L279.202,1418.48 L287.677,1466.15 L286.602,1471.36 zM719.319,1388.88 L729.761,1343 L732.246,1341.64 L744.642,1356.88 L765.402,1389.72 L760.924,1392.53 L738.003,1365.2 L731.759,1369.2 L727.318,1424.8 L732.483,1443.68 L743.679,1458.28 L740.81,1462.6 L729.835,1455.52 L721.355,1437.97 L717.359,1412.08 zM1287.69,1334.94 L1287.32,1323.22 L1291.72,1315.69 L1295.37,1314.04 L1297.4,1332.99 L1290.48,1341.04 zM2850.32,1350.04 L2881.32,1330.36 L2894.04,1308.32 L2913.08,1323.85 L2932.28,1351.92 L2903.92,1370.4 L2883.68,1401.67 L2869.8,1388.56 zM2689.16,1330.92 L2682.52,1324 L2677.36,1307.8 L2682.77,1293.72 L2688.68,1292.12 L2719.08,1330.04 L2707.81,1336.68 zM259.607,1303.48 L242.272,1296.44 L272.005,1276.24 L283.723,1278.24 L306.157,1290.96 L305.513,1328.38 zM1783.85,1295.92 L1792.48,1274.84 L1794.92,1273.52 L1798.48,1283.4 L1799.16,1302 L1792.56,1304.45 zM2344.28,1380.52 L2328.08,1362.56 L2318.8,1343.8 L2309.32,1309.16 L2306.24,1273.04 L2356.49,1305.36 L2354.99,1312.63 L2324.99,1294.24 L2317.33,1295.01 L2331.76,1351.84 L2343.24,1366.89 L2361.59,1380.19 L2355.39,1385.63 zM2851.27,1281.21 L2857.56,1270.77 L2864.03,1272.35 L2870.36,1281.69 L2845.76,1304.04 L2834,1329.36 L2814.07,1312.28 L2837.92,1296.76 zM1577.24,1305.92 L1582.4,1287.93 L1610.55,1269.25 L1614.6,1268.03 L1615.68,1272.22 L1617.68,1298.88 L1617.68,1351.57 L1614.52,1365.08 L1562.77,1396.96 zM2386.68,1295.55 L2421.52,1267.25 L2425.71,1266.6 L2426.68,1280.84 L2421.76,1339.93 L2410.72,1366.96 L2396.12,1380.64 L2386.32,1384.64 L2384.64,1378.6 L2406.76,1356.72 L2414.68,1326.8 L2416.56,1288.73 L2409.92,1287.84 L2381.08,1310.77 L2379.69,1303.74 zM1425.88,1265.48 L1429.92,1262.56 L1506.67,1264 L1461.24,1386.52 L1430.96,1510.32 L1426.24,1505.72 L1421.76,1481.5 L1419.76,1399.52 L1412.64,1381.4 L1395.69,1369.79 L1423.4,1350.28 L1428.12,1342.32 L1395.45,1337.32 L1362.44,1339.32 L1366.92,1329.48 L1373.29,1325.43 L1421.26,1327.2 L1449.72,1320.48 L1474.19,1309.44 L1473.72,1303.08 L1457.76,1296.24 L1407.19,1288.05 L1408.48,1282.12 zM348.079,1257.64 L347.639,1257 zM1517.76,1292.08 L1533.56,1257.04 L1537.97,1256.29 L1547.24,1267 L1558.68,1287.85 L1540.24,1387.84 L1534.88,1387.51 L1501.6,1340.89 zM233.237,1261.12 L233.919,1252.6 L237.48,1249.96 L251.597,1260.35 L234.887,1272.6 zM2880.89,1249.8 L2886.25,1248.24 L2894.13,1249.6 L2887.65,1264.64 L2875.93,1253.53 zM2658.77,1274 L2649.24,1261.89 L2652.6,1244.81 L2658.36,1244.77 L2675.63,1272.27 L2667.19,1276.68 zM490.354,1243.24 L496.089,1242.24 L504.672,1243.04 L484.477,1285.28 L464.228,1294.76 L417.014,1297.68 L367.873,1289.24 L348.6,1281.04 zM2947.48,1244.4 L2951.88,1226.68 L2970.2,1216.52 L2973.88,1216.19 L2975.68,1237.24 L2973.71,1319.96 L2952.76,1342.32 L2911.19,1288.76 L2934.79,1269.89 zM1564.04,1209.24 L1567,1208.76 L1573.19,1211.4 L1564.92,1252.6 L1546.37,1229.96 L1553.8,1213.84 zM1481.2,1215.48 L1487.95,1209.93 L1494.2,1207.44 L1528.05,1213.76 L1520.36,1232.23 L1475.35,1226.4 L1472.97,1223.48 zM2911.88,1199.75 L2915.04,1195.76 L2930.63,1195.24 L2956.17,1198.41 L2912.84,1219.24 L2906.75,1218.96 L2905.88,1215.64 zM2825.76,1197.04 L2827.05,1195.28 L2867.94,1195.29 L2850.67,1225.94 L2830.28,1209.96 L2824.32,1202 zM393.12,1219.2 L410,1208.84 L451.119,1193.24 L461.039,1192.92 L497.961,1216.28 L498.117,1220.72 L353.928,1256.68 L349.753,1255.72 L351.043,1253.36 L362.191,1242.13 zM320.722,1186.61 L320.319,1181.2 L331.641,1184.04 L323.725,1205.85 zM599.835,1184.76 L586.843,1178.04 L595.722,1170.52 L598.759,1170.12 L605.397,1182.92 zM1590.76,1237.61 L1602.76,1170.64 L1605.72,1168.61 L1608.44,1183.96 L1613.64,1237.91 L1609.36,1245.28 L1589.36,1256.44 zM1576.48,1169.32 L1578.56,1165.81 L1579.19,1177.84 L1571.87,1178.84 zM1545.8,1167.52 L1548.72,1165.52 L1552.64,1165.32 L1548.96,1172.72 L1541.44,1173.64 zM2730.04,1201.2 L2695.8,1180.48 L2674.08,1160.73 L2720.64,1148.24 L2732.84,1147.76 L2735.95,1154.68 L2700.16,1162.76 L2696.77,1169.4 L2747.24,1198.48 L2764.44,1201.68 L2787.57,1197.36 L2791.12,1201.08 L2769.66,1210.68 zM507.433,1164.96 L503.412,1159.79 L504.318,1148.93 L505.761,1145.13 L514.667,1163.24 zM2836.04,1173.21 L2830.36,1138.04 L2833.76,1132.56 L2841.28,1131.24 L2866.12,1132.32 L2900.92,1140.76 L2940.96,1158.48 L2962.64,1173.96 zM390.249,1168.99 L423.551,1128.21 L435.298,1126.03 L441,1130.36 L446.33,1170.08 L402,1188.52 L351.004,1222.68 L356.835,1200.36 L368.959,1197.72 zM562.482,1152.04 L564.282,1123.78 L566.481,1117.86 L585.696,1150.36 L562.002,1166.67 zM273.715,1247.4 L231.757,1216.44 L216.798,1192.64 L197.998,1174.75 L197.321,1123.26 L201.041,1115.32 L207.363,1116.32 L246.637,1197.92 L270.757,1236 zM289.203,1225.13 L225.321,1102.89 L228.677,1098.81 L263.809,1105.76 L273.402,1108.32 L279.517,1117.04 L290.165,1142.72 L299.759,1192.2 L299.682,1238.32 zM621.684,1104.75 L621.639,1097.92 L625.722,1096.25 L635.593,1103.89 L620.514,1119.76 zM2717.36,1079.12 L2717.16,1074.28 L2726.12,1073.79 L2728.63,1079.05 L2725.32,1087.63 zM2804.68,1164.07 L2792.47,1129.71 L2774.72,1104.19 L2761.25,1093.64 L2757.32,1097.28 L2753.64,1134.67 L2746.56,1130.96 L2750.76,1074.04 L2755.8,1074.11 L2776.72,1094.04 L2800.48,1125.72 L2811.16,1149.72 L2809.76,1179 L2806.64,1183.6 L2801.4,1180.36 zM655.484,1051.44 L658.117,1047.21 L662.162,1044.72 L671.324,1050.8 L664.162,1065.08 L658.077,1071.48 zM2930.96,1130.76 L2871,1111.63 L2817.61,1110.08 L2781.2,1069.88 L2778.32,1062.28 L2847.97,1031.25 L2920.52,1111.84 L2934.36,1129.04 zM2658.87,1027.11 L2650.87,1014.04 L2673.36,1013.32 L2805.24,1027.08 L2800.04,1032.48 L2763.76,1045.23 L2741.49,1038.92 L2734.31,1042.21 L2729.93,1050.51 L2716.58,1053.64 L2691.28,1048.32 L2677.04,1050.24 zM555.442,991.241 L557.517,990.763 L562.392,992.285 L549.644,1010.12 L523.537,1034.94 L483,1060.48 L437.484,1077.68 L434.437,1076.96 L435.835,1072.76 L473.038,1033.28 L514.722,1005.8 zM573.205,1016.04 L596.151,986.435 L620.28,985.8 L638.4,998.162 L644.681,1018.72 L635.433,1040.25 L596.077,1073.09 L551.754,1094.76 L495.928,1105.76 L444,1103.68 L441.36,1101.96 L444,1099.24 L479.961,1086.24 L522.157,1063.08 L558.961,1032.72 zM677.243,980.002 L673.676,971.764 L703.324,977.805 L690.686,1010.64 zM291.48,1092.96 L250.398,1041.36 L284.204,972.637 L288.442,972.6 L303.318,1014.2 L316.521,1038.28 L353.641,1089.15 L321.003,1175.24 L305.757,1121.55 zM2887.28,1003.48 L2927.76,965.562 L2974.36,1001.76 L2966.32,1050.11 L2972.6,1127.68 L2968.52,1127.16 L2929.17,1083.85 L2874.16,1017.84 L2875.04,1012.32 zM463.788,959.975 L465.766,957.559 L471.122,956.437 L472.674,959.524 L464.162,986.041 L448.123,1018.12 L430.518,1042.16 L414.361,1055.36 L422.003,1030.35 L440.877,991.88 zM470.678,954.159 L470.441,953.077 L473.559,953.077 zM2787.28,960.759 L2775.09,954.722 L2780.65,952.488 L2785.91,951.678 L2790.92,956.28 L2792.32,961.6 zM2791.53,1004.24 L2652.2,990.236 L2688.76,952.56 L2727.52,958.241 L2764,971.519 L2812.75,1002.11 L2814.22,1005.53 zM2961.68,946.479 L2949.6,938.879 L2953.52,930.846 L2958.32,929.843 L2974.51,939.516 L2973.88,953.445 zM2550.07,950.139 L2540.56,939.928 L2541.76,914.591 L2543.96,912.359 L2585.32,946.795 L2562.73,957.97 zM499.319,937.835 L504.079,926.519 L551.168,904.243 L574.691,908.289 L585.722,922.319 L588.682,938.522 L579.324,963.239 L514.402,981.838 L485.161,997.484 zM376.516,966.983 L381.241,932.076 L390.759,904.082 L394.442,904.323 L399.681,920.961 L404.479,957.961 L398.241,1018.36 L389.442,1045.68 L385.759,1045.84 L378.319,1010.04 zM2770.28,952.759 L2730.2,937.519 L2698.1,931.763 L2658.8,931.319 L2608.32,940.363 L2587.24,903.477 L2564.6,878.28 L2600.4,887.241 L2639.37,891.681 L2718.48,886.486 L2774.08,950.759 zM1707.24,887.798 L1695.64,862.404 L1698.56,853.079 L1705.96,853.482 L1720.37,864.688 L1737.63,887.271 L1734.2,893.479 L1712.96,905.634 zM415.241,896.72 L407.876,877.922 L408.799,868.009 L424.078,847.557 L437.567,840.241 L459.079,843.599 L475.202,861.998 L479.682,893.078 L478.435,916.392 L452.434,939.4 L428.039,969.322 L423.406,927.002 zM315.202,871.441 L320.874,848.048 L332.531,839.523 L345.211,838.319 L359.557,842.799 L367.72,850.039 L378.64,870.555 L360.519,922.56 L354.319,958.244 L355.519,1007.06 L366.643,1065.08 L353.366,1052.13 L332.523,1021.28 L309.759,968.848 L303.557,917.961 zM2908,880.121 L2924.76,834.723 L2926.96,832.362 L2932.72,840.558 L2954.2,880.997 L2938.24,915.237 L2916.48,946.2 L2877.41,983.64 L2874.12,979.443 zM1616.45,841.196 L1617.36,836.041 L1626.76,833.241 L1667.71,835.241 L1676.12,839.88 L1673.36,848.916 L1643.28,858.243 L1624.93,869.595 L1618.24,857.161 zM1732.4,844.12 L1722.27,834.483 L1738.03,830.243 L1753.29,830.6 L1757.18,834.116 L1754.12,863.234 L1750.32,863.955 zM493.941,833.761 L505.002,830.241 L508.682,829.359 L510.681,833.314 L500.925,869.599 L484.939,836.12 zM2768.08,826.641 L2767.64,826 zM2898.76,825.759 L2900.24,825.241 L2905.4,827.08 L2853,973.685 L2846.32,939.812 L2846.56,897.079 L2852.32,862.278 L2860.8,842.521 zM271.282,800.038 L273.28,798.486 L276.64,798.323 L274.402,810.319 L202.366,1004.43 L197.807,994.664 L197.319,961.565 L206.278,931.594 L230.239,872.637 zM1847.83,878.472 L1817.76,839.959 L1818.12,824.763 L1810.36,815.316 L1819.21,799.323 L1822.44,798.362 L1852.2,874.838 L1852.56,879.726 zM299.759,803.998 L302.483,798.321 L304.679,803.973 L300.757,827.919 L288.802,853.72 L284.318,875.922 L280.241,919.121 L249.162,997.319 L234.563,1023.68 L228.002,1024.08 L222.77,1015.09 zM2445.36,796.921 L2445.36,796.079 zM275.401,795.073 L276.045,794.284 L278.324,795.882 zM1872.76,869.277 L1842.32,789.002 L1862.92,792.761 L1871.68,800.957 L1876.64,868.682 L1874.96,871.638 zM1653.33,809.763 L1625.52,807.967 L1641.44,786.798 L1646.96,786.28 L1667.11,807.713 L1665.83,810.599 zM1716.64,805.119 L1724.52,783.847 L1737.87,790.236 L1747.56,804.959 L1718.12,809.638 zM1669.92,774.521 L1676.2,770.243 L1701.65,772.483 L1691.68,797.64 zM2695.19,840.241 L2656.68,828.162 L2620.72,809.479 L2595.11,788.788 L2576.34,766.048 L2588.32,765.241 L2611.92,771.759 L2657.93,795.449 L2706.6,840.036 zM2595.52,865.241 L2562.32,853.52 L2534.92,838.162 L2502.96,810.157 L2498.32,793.244 L2502.2,778.325 L2516.32,764.282 L2523.48,762.241 L2546.68,763.28 L2584.1,806.785 L2617.6,831.761 L2663.08,852.241 L2701.6,864.038 L2655.49,871.681 zM366.002,821.243 L342.721,814.957 L347.196,808.127 L355.804,804.072 L362.282,809.759 L378.121,813.681 L391.037,809.164 L421.203,783.879 L433.763,757.888 L437.602,754.043 L444.521,787.442 L464.602,820.88 L430.118,819.759 L412.168,828.354 L392.875,845.963 zM248.163,735.004 L250.471,733.402 L254.042,732.882 L251.204,738.478 L200.243,799.359 L200.488,763.072 zM288.761,732.925 L289.555,731.802 L226.966,829.679 L199.765,853.166 L198.838,842.961 L212.2,822.396 L249.837,773.483 zM1762.04,755.359 L1745.6,726.524 L1746.6,722.483 L1749.64,723.603 L1764.12,753.441 zM2721.56,822.237 L2685.04,779.521 L2669.52,754 L2657.32,723.445 L2660.29,720.887 L2672.76,731.079 L2699.96,767.481 L2718.2,802.038 L2724.68,821.237 zM2836.24,741.394 L2839.77,724.649 L2844.17,719.33 L2872.49,728.759 L2901.55,732.837 L2907.68,740.722 L2894.96,753.643 L2857.93,751.319 L2848.52,753.874 L2849.58,759.256 L2870.56,779.884 L2850.76,811.043 L2833.8,853.201 L2826.32,891.688 L2824.88,954.522 L2812.27,938.601 L2818.64,930.846 L2817.76,924.285 L2783.36,848.126 L2825.72,776.165 zM1791.76,767.402 L1790.32,722.157 L1796.16,728.961 L1809.64,764.876 L1795.44,796.718 L1789.56,799.23 L1764.32,760.004 L1767.8,759.477 L1787.96,777.68 zM2402.96,752.202 L2396.8,747.038 L2392.32,733.283 L2400.04,718.285 L2407.24,720.041 L2413.68,751.555 L2411.84,754.563 zM1789.36,717.921 L1789.36,717.079 zM643.684,740.325 L644.763,715.159 L647.723,713.321 L660.125,720.483 L667.643,740.118 L660.608,756.074 L648.206,763.679 L643.319,760.715 zM2463.76,719.483 L2465.6,713.325 L2469.68,712.045 L2472.68,719.039 L2450,764.202 L2447.76,750.079 zM236.278,711.241 L237.722,710.763 L238.961,713.72 L199.725,737.675 L199.839,724.435 zM241.079,710.641 L240.639,710 zM1786.56,709.196 L1785.84,708.038 zM1783.76,702.918 L1783.32,701.447 zM860.519,711.772 L863.764,697.92 L865.675,695.477 L872.756,699.075 L877.402,716.483 L869.794,728.606 L860.002,732.195 zM2511.67,714.039 L2495.99,709.239 L2489.32,693.725 L2523.12,702.108 L2524.88,717.849 zM205.634,687.241 L215.645,686.409 L233.873,687.761 L202.524,697.677 L198.359,690.876 zM342.837,684.72 L347.673,681.57 L371.566,683.925 L335.368,721.271 L331.634,722.404 L327.195,711.445 L317.917,705.722 zM2645,764.243 L2609.52,749.798 L2557.19,737.796 L2548.24,722.424 L2547.36,704.662 L2555.72,689.6 L2568.57,680.248 L2590.76,681.241 L2628.08,699.798 L2650.64,763.995 zM674.241,841.927 L672.357,827.039 L683.207,813.551 L692.206,790.239 L692.681,739.239 L687.319,715.205 L690.839,696.959 L701.521,679.845 L707.198,681.841 L726.241,767.438 L749.679,841.833 L720.838,882.997 L715.318,901.922 L713.363,937.227 L710.558,937.957 L689.72,909.28 L675.56,898.801 L656.761,889.243 L636.157,884.56 L621.115,893.204 L615.319,905.969 L629.965,940.239 L611.319,948.879 L609.443,921 L602.682,904.239 L582,887.243 L558.074,880.722 L595.56,857.241 L630.05,850.319 L641.557,856.757 L656.323,858.237 L669.202,852.479 zM2872.84,689.4 L2842.87,684.23 L2844.6,675.476 L2854.68,673.243 L2866.32,674.682 L2876.4,687.718 zM453.8,674.962 L454.558,673.764 L457.159,675.079 L450.319,682.64 zM1844.4,764.202 L1829.76,756.959 L1801.32,680.445 L1803.96,677.642 L1821.96,689.119 L1823.99,672.196 L1828.17,670.361 L1843.96,675.798 L1854.48,684.962 L1867.68,767.589 L1864.28,771.636 zM2730.2,750.998 L2726.32,706 L2733.76,669.08 L2735.96,667.362 L2739.2,672.039 L2752.24,713.956 L2756.68,766.819 L2752.2,799.681 L2747.24,810.873 L2737.28,785.126 zM1778.52,688.875 L1767.6,671.003 L1768.76,665.723 L1771.24,663.68 L1774.8,670.323 zM825.807,655.997 L825.639,655.043 L828.561,655.079 zM434.761,654.923 L435.557,653.763 L438.64,653.325 L436.919,658.56 L405.72,705.961 L341.709,782.971 L330.039,791.445 L331.192,758.481 zM198.955,663.159 L198.326,652.888 L202.206,648.328 L239.599,661.923 zM648.757,671.363 L653.761,649.161 L657.961,647.763 L664.646,653.243 L671.366,664.038 L671.679,674.804 L663.923,689.757 L646.878,696.284 L644.367,692.555 zM2380.35,688.035 L2374.6,677.357 L2374.88,665.198 L2380.73,653.593 L2391.04,645.488 L2394.92,644.794 L2397.2,649.52 L2400.56,695.565 L2389.8,696.161 zM408.961,639.519 L411.959,638.243 L415.12,637.716 L413.757,642.881 L389.739,665.661 L382.915,659.517 L383.559,655.761 zM1736.36,639.162 L1743.73,634.722 L1747.4,633.557 L1748.68,638.61 L1738.68,664.402 L1717.64,670.558 L1706.64,655.686 L1708.05,651.639 zM415.678,635.797 L416.768,634.564 L420.322,634.839 L419.232,637.436 zM2511.64,657.599 L2475.25,648.12 L2466.6,640.325 L2484.03,642.681 L2503.95,632.243 L2547.76,638.241 L2580.68,656.998 L2554.28,664.243 L2541.44,673.003 zM741.481,739 L726.318,662.278 L740.685,650.994 L749.483,633.649 L751.962,627.567 L753.682,635.082 L753.681,767.198 L751.278,774.353 zM752.079,624.641 L751.639,624 zM871.681,649.603 L874.041,623.323 L886.793,630.113 L894.681,650.87 L885.885,668.796 L874.002,675.346 L870.678,671.718 zM1113,613.361 L1112.36,612.079 zM2728.21,613.564 L2726.05,609.285 L2732,610.524 zM2650.24,641.763 L2658.56,619.761 L2677.11,609.243 L2699.52,614.758 L2720.16,639.797 L2707.32,688.961 L2704.96,735.406 L2651.84,687.038 zM1110.76,611.322 L1108.84,608.318 zM2762.76,674.56 L2745.36,637.319 L2758.32,612.038 L2777.12,602.241 L2794.24,603.833 L2804.96,610.28 L2812.76,626.558 L2822.68,672.2 L2820.51,685.888 L2809.37,691.113 L2821.43,708.188 L2817.76,731.885 L2797.76,785 L2769.32,824.322 L2776.64,775.885 L2776.68,743.2 L2770.68,699.921 zM280.676,645.757 L201.043,624.441 L198.318,603.245 L199.044,599.477 L202.723,600.243 L290,641.243 L291.962,647.599 zM354.204,631.883 L343.598,618.038 L357.037,600.565 L362.517,599.319 L374.767,630 L364.039,634.443 zM939.768,609.516 L936.605,600.206 L940.727,595.888 L959.558,607.884 L944.888,612.675 zM546.442,824.956 L549.681,810.482 L545.158,798.477 L534.201,791.246 L513.56,791.198 L498.722,759.278 L485.599,742.994 L461.401,724.394 L494,724.443 L515.442,719.759 L549.722,698.72 L554.402,687.928 L553.518,675.039 L544.791,664.394 L528.326,659.363 L526.364,655.594 L550.839,598.046 L555.122,597.043 L558.799,619.041 L594.2,674.802 L602.681,726.607 L602.839,794.596 L610.076,811.557 L622.003,823.716 L567.997,841.523 L534.007,864.675 L537.839,835.986 zM390.759,608.964 L387.249,599.28 L388.77,595.605 L416.358,608.003 L398.167,618.679 L394.398,617.957 zM552.678,592.041 L554.041,590.678 L556.081,592.516 zM749.359,586.318 L750.043,585.321 L751.275,589.965 zM2263.4,584.602 L2263.36,583.316 zM528.637,584.196 L528.4,583.079 zM997.33,583.245 L997.555,580.881 L1020.4,582.116 L1003.2,592.12 zM1710.8,588.085 L1715.04,580.323 L1730.97,575.241 L1740.16,577.923 L1741.96,589.681 L1719.2,602.357 L1696.16,625.039 L1693.84,622.681 zM504,576.361 L503.359,575.079 zM656.316,597.086 L657.321,573.041 L661.923,571.763 L673.718,579.275 L680.236,591.473 L680.442,601.938 L675.204,615.478 L659.596,624.363 L656.362,620.966 zM2386.64,576.038 L2395.01,571.519 L2401.85,570.437 L2404.68,574.921 L2396.68,624.284 L2382.2,616.838 L2377.24,606.156 L2376.88,589.365 zM1161.76,566.085 L1160.92,565.239 zM1830.28,648.759 L1819.56,642.959 L1806.75,611.995 L1790.36,589.569 L1797.76,563.764 L1799.72,562.084 L1815.06,585.818 L1835.76,607.639 L1846.52,651.117 zM1105.48,602.083 L1077.08,573.118 L1092,559.526 L1096.85,560.524 zM474.362,559.962 L474.396,559.12 zM1768.44,557.799 L1769.92,556.841 L1771.76,561.926 L1765.48,577.004 L1759.4,566.763 zM2640.74,574.759 L2653.72,565.957 L2656.49,557.563 L2660.48,553.326 L2707.11,560.682 L2744.45,555.325 L2764.99,574.368 L2723.19,580.759 L2696,590.681 L2683.88,588.56 L2662,592.798 L2638.96,610.805 L2627.92,641.598 L2615.76,612.364 L2620.68,588.232 L2615.92,573.321 zM1151.08,552.641 L1150.64,552 zM308.682,626.161 L199.362,574.72 L199.601,551.328 L213.925,554.838 L248.92,576.241 L302.804,616.441 L312.045,625.718 zM867.484,583.797 L863.282,550.002 L870.411,548.634 L881.069,553.395 L889.757,570.744 L886.239,590.959 L875,600.201 L869.764,599.997 zM1895.76,551.485 L1898.6,537.958 L1901.4,536.853 L1906.16,548.277 L1893,573.322 zM1038.28,537.002 L1031.27,529.003 L1080.38,535.761 L1069.96,549.717 L1058.51,557.445 zM1028.92,527.72 L1029.8,526.639 zM1942.88,532.291 L1949.59,524.091 L1953.16,525.688 L1954.24,534.922 L1930.52,567.161 L1914.32,581.996 zM1018.08,521.641 L1017.64,521 zM2558.2,565.455 L2563.64,520.715 L2566.2,517.729 L2587.55,548.312 L2604.56,564.923 L2582.32,574.241 L2578.76,584.793 L2578.8,596.686 L2591.48,614.038 L2593,632.674 L2562.28,616.798 L2528.48,607.602 zM2564.76,516.36 L2563.64,515.237 L2565.68,513.4 zM740.558,527.002 L749.725,512.723 L753.604,512.321 L754.681,526.41 L751.237,583.928 L734.319,544.118 zM1141.04,542.44 L1122.95,526.202 L1131.76,508.007 L1135.44,508.321 L1145.68,541.277 zM373.763,550.921 L369.282,505.005 L389.036,522.196 L423.523,539.757 L457.77,542.162 L471.075,532.398 L474.684,537.973 L475.641,554.278 L472.443,557.68 L428.688,544.396 L380.61,554.679 zM282.759,557.725 L302.154,524.245 L341.002,502.519 L347.086,502.764 L351.127,562.236 L320.273,568.759 L294.524,579.525 L277.598,568.278 zM664.241,523.122 L670.194,502.486 L676.954,499.809 L686.481,510.722 L688.202,531.805 L677.196,546.482 L661.763,551.232 L659.323,547.437 zM2460.33,499.484 L2460.55,497.601 L2498.68,503.681 L2545.67,499.003 L2504.8,535.443 L2490.24,561.284 L2484.28,596.223 L2477.41,598.677 L2471.84,597.957 L2475.24,556.909 zM2382.24,515.796 L2388.32,505.004 L2399.44,496.798 L2405.96,496.716 L2407.64,501.967 L2404.96,550.563 L2387.28,540.964 L2380.32,523.761 zM1967.32,497.043 L1970.32,491.282 L1978.4,495 L1975.2,503.996 L1970.32,505.95 zM222.674,534.117 L199.488,521.641 L198.714,486.719 L203.434,489.005 zM2121.31,509.314 L2121.77,490.132 L2123.32,483.634 L2132.96,486.284 L2143.16,497.961 L2145.68,509.879 L2136.48,529.162 L2124.19,534.445 zM1784.69,487.556 L1787.4,485.402 L1791.6,483.516 L1792.68,486.602 L1786.96,505.72 L1754,519.402 L1743.4,514.923 zM1077.85,480.318 L1077.76,479.084 L1120.24,480.084 L1103.11,507.558 zM1831.24,520.756 L1818.32,487.481 L1820.76,477.08 L1879.64,517.435 L1862.28,617.808 zM859.684,500.878 L858.766,483.662 L860.316,473.833 L870.557,476.803 L881.443,488.318 L884.681,499.853 L880.72,514.961 L870.957,525.718 L864.116,527.438 L860.874,525.043 zM578.241,502.239 L583.761,474.563 L585.116,471.518 L588.163,473.486 L594.481,488.29 L595.681,509.08 L589.162,530.041 L555.198,588.477 zM2319.4,469.921 L2319.64,468.804 zM1654.32,521.839 L1688.48,452.045 L1690.08,449.442 L1693.2,452.684 L1718.68,520.241 L1706.76,548.995 L1680.84,593.243 zM2574.6,445.203 L2576.72,444.527 L2579.56,444.716 L2576.16,454.039 L2564.92,469.32 L2542.48,454.12 zM1420.72,468.002 L1417.75,444.051 L1426.44,443.241 L1434.91,448.229 L1444.68,466.843 L1440.48,482.28 L1428.73,492.39 L1425.36,491.119 zM2641.32,518.082 L2620.87,497.668 L2587.77,478.997 L2607.6,442.77 L2611.68,442.325 L2625.48,467.237 L2636.74,478.901 L2671.56,497.759 L2687.92,500.681 L2700.96,497.2 L2707.72,488.288 L2711.88,471.394 L2718.32,473.318 L2727.66,518.072 L2724.73,522.484 L2690,522.318 L2650.84,532.119 zM1717.76,457.517 L1713.33,443.08 L1726.2,443.759 L1758.56,457.396 L1735.28,501.044 zM1035.84,463.757 L1013.55,458.844 L1020.56,439.326 L1023.2,437.721 L1042.08,461.036 L1041.67,464.559 zM327.243,449.882 L329.717,439.163 L335.127,436.647 L351.359,445.036 L350.679,462.037 L347.759,464.365 L327.044,458.44 zM2761.31,522.561 L2761.68,499.121 L2756.05,466.398 L2802.76,452.757 L2839.96,436.243 L2846.16,439.002 L2852.6,471.318 L2872.8,522 L2909.16,581.232 L2917.09,579.437 L2929.72,564.722 L2955.16,524.039 L2972.48,486.683 L2976.2,486.023 L2974.13,727.193 L2959.96,704.56 L2929.04,722.4 L2925.32,720.002 L2934.68,701.002 L2940.68,666.138 L2938.76,636.784 L2929.96,607.359 L2924.24,606.321 L2914.52,622.278 L2898.16,675.526 L2882.25,654.491 L2881.68,596.239 L2859.76,546.079 L2853.87,544.359 L2850.24,550.243 L2842.37,606.777 L2839.45,607.497 L2820.32,588.024 L2822.68,554.819 L2818.76,531.124 L2807.76,502 L2796.85,485.291 L2789.88,484.531 L2785.24,498.845 L2780.96,552.209 L2760.92,536.038 zM2472.64,440.073 L2479.8,429 L2482.69,427.48 L2488.6,439.921 L2474.84,442.677 zM1758.72,433.481 L1756.24,430.445 L1763,426.241 L1766.76,426.36 L1769.48,434.4 zM2386.2,473.562 L2377.25,461.722 L2375.32,447.884 L2379.24,435.359 L2390.96,425.524 L2395.72,426.156 L2404.25,475.643 L2399.08,478.438 zM672.359,449.243 L672.768,426.485 L676.484,423.325 L687.441,428.762 L698.679,449.92 L692.482,467.198 L675.914,477.602 zM1251.32,429.127 L1252.6,423.88 L1255.84,421.367 L1277.72,425.005 L1264.72,579.17 L1262.36,581.957 L1257.84,555.242 L1252.28,503 L1256.68,472.171 L1251.6,456.919 zM2126.76,441.561 L2131.68,421.326 L2138.15,420.041 L2147.75,429.991 L2148.76,451.436 L2137.88,464.36 L2124.76,468.363 L2122.32,461.074 zM1128.84,422.243 L1140.59,419.763 L1142.48,424.52 L1133.53,444.484 L1122.36,434.079 zM1001.36,416.921 L1001.36,416.079 zM542.237,446.997 L545.596,417.969 L548.404,416.853 L565.44,446.039 L551.759,519.88 L531.077,578.561 zM2324.68,424.677 L2325.76,413.88 L2328.72,412.051 L2331.44,424.591 L2329.68,447.039 L2322.72,465.359 L2320.32,462.759 zM775.686,615.079 L775.278,483.718 L781.681,444.493 L779.678,409.051 L784.44,408.805 L793.164,419.923 L803.677,446.398 L800.325,452.361 L804.237,453.724 L805.237,475.203 L790.56,546.157 L793.798,569.76 L806.757,601.851 L807.681,614.565 L800.477,678.171 L776.962,773.633 L774.319,766.585 zM2326.36,408.955 L2326.28,405.727 L2329.12,406.723 zM863.516,431.284 L868.558,404.615 L870.962,402.366 L878.957,406.28 L883.838,412.444 L888.198,431.318 L884.443,444.234 L867.374,455.677 L861.794,454.957 L860.56,450.882 zM1905.24,475.874 L1903.8,430.165 L1906.6,417.677 L1918.15,403.168 L1922.56,400.478 L1924.64,405.962 L1913.24,427.483 L1911.56,458 L1921.28,500.161 L1928.08,499.514 L1947.76,469.996 L1952.4,476.723 L1921.44,524.726 zM1030.8,408.921 L1033.76,401.527 L1038.96,399.598 L1042.53,407.882 L1032.04,414.681 zM1784.65,412.025 L1798.87,398.015 L1803.32,398.033 L1804.68,402.845 L1802.68,423.641 L1791.8,427.119 zM1035.68,396.879 L1035.44,395.355 L1038.56,395.355 zM2012.48,477.759 L1972.84,465.475 L1970.92,459.804 L1973.8,458.36 L2007.14,466.483 L2013.14,459.838 L1998.96,433.757 L1980.8,411.359 L1965.99,401.519 L1945.44,395.682 L1946.05,390.559 L1961.96,391.519 L1980.96,400.282 L2003.48,425.8 L2029.6,477.35 L2025.52,480.638 zM1877.24,492.116 L1860.23,457.476 L1829.28,424.947 L1828.32,390.723 L1831.52,389.197 L1849.56,405.722 L1882.08,425.8 L1881.32,452.457 L1886.64,491.724 L1882.28,506.043 zM2688.12,441.805 L2676.72,428.36 L2624.68,411.677 L2632.48,385.082 L2635.44,383.806 L2649.96,404.641 L2668.32,420.72 L2716.09,439.323 L2711.49,467.395 zM2600.96,386.241 L2606,383.521 L2609.68,386.168 L2600.56,404.806 L2579.88,394.318 zM1412.2,401.11 L1412.29,379.449 L1419.16,376.802 L1431.16,386.482 L1435.68,405.079 L1424.19,422.45 L1414.6,426.641 L1411.32,418.955 zM361.764,399.236 L366.561,385.202 L377.036,377.563 L390.684,376.843 L400.795,383.398 L406.675,396.957 L401.922,411.921 L394.643,418.48 L380.92,421.681 L367.082,413.72 zM1301.24,401.794 L1303.84,382.153 L1319,376.484 L1325.2,379.758 L1326.68,388.815 L1322.76,449.608 L1309.68,520 L1289.44,581.955 L1286.36,582.947 L1286.56,574.157 zM2766.32,394 L2780.85,374.241 L2795.69,373.802 L2808.44,384.041 L2811.68,398.091 L2807.16,409.514 L2794.43,417.759 L2778.92,417.043 L2768.52,405.275 zM586.684,1253.76 L625.118,1214.71 L655.003,1232.48 L675.23,1239.24 L690.723,1236.76 L699.759,1228.63 L702.237,1210.2 L681.759,1179.08 L654.643,1160.48 L625.917,1149.2 L653.241,1119.56 L656.959,1119.32 L679.596,1140.76 L709.524,1154.76 L742.965,1158.68 L766.237,1148.96 L769.681,1138.76 L767.922,1125.57 L746.759,1105.56 L712,1091.32 L676.05,1090.68 L686.711,1070.09 L693.247,1067.44 L726.835,1090.72 L754.571,1098.76 L787.433,1097.76 L798.882,1091.8 L803.202,1084.24 L805.681,1075.96 L801.121,1062.88 L781,1046.8 L744.926,1034.32 L705.33,1033.92 L725.596,986.755 L762.763,998.759 L786.457,1000.68 L817.041,995.162 L834.241,985.401 L838.202,978.923 L838.201,961.038 L825.921,948.759 L801.759,941.319 L751.675,943.763 L775.401,913.802 L782.759,897.202 L786.682,861.353 L777.839,841.643 L802.406,767.355 L825.319,660.323 L828.681,660.325 L830.684,669.44 L823.56,739.882 L825.325,770.005 L836.123,783.359 L848.49,787.681 L864.921,785.241 L876.761,775.126 L892.526,723.959 L906.715,705.603 L918.718,739.434 L926.766,749 L947.003,752.237 L960.561,743.32 L969.682,713.483 L970.682,687.16 L964.164,663.682 L950.321,637.723 L953.323,633.278 L977.961,626.56 L980.641,628.876 L972.557,681.882 L974.598,697.275 L986.036,721.273 L998.996,732.198 L1023.24,727.401 L1033.44,699 L1034.24,671.789 L1030.52,652.33 L1011.36,614.039 L1047,593.819 L1056.24,639.715 L1072.44,667.843 L1093.84,684.759 L1116.96,680.716 L1123.76,670.443 L1124.68,655.717 L1114.36,616.328 L1140.08,637.202 L1159.04,636.362 L1169.2,628.038 L1172.68,612.984 L1163.84,566.926 L1178.68,577.202 L1189.72,579.681 L1204.04,575.2 L1211.52,566.093 L1211.24,538.952 L1198.44,507.041 L1179.16,485.482 L1152.95,465.64 L1158.8,444.763 L1164.65,437.48 L1187.48,472.124 L1229.32,499.993 L1240.24,581.364 L1252.24,636.479 L1261.6,664.237 L1275.88,666.239 L1297.48,622.082 L1318.48,562.962 L1339.76,475.048 L1349.08,402.796 L1371.24,440.077 L1389.8,522.278 L1398.44,541.599 L1410,550.162 L1424.6,554.237 L1452,553.443 L1463.97,549.229 L1472.01,540.157 L1477.68,513.114 L1474.68,480.961 L1458.76,431.289 L1459.24,417.086 L1466.04,398.357 L1489.36,372.488 L1494.56,373.167 L1491.28,420.967 L1494.32,460.931 L1499.88,469.12 L1513.2,469.997 L1521.96,460.791 L1526.36,423.639 L1531.76,425.359 L1546.93,459.25 L1558.72,462.681 L1571.92,458.759 L1575.68,448.256 L1575.76,422.428 L1580.2,414 L1588.47,421.993 L1597.8,448.476 L1613.73,456.483 L1653.24,584.715 L1679.4,654.201 L1685.4,659.038 L1693.36,677.555 L1692.16,682.401 L1663.4,706.918 L1651.68,724.961 L1669.41,727.237 L1711.24,716.321 L1717.64,723.961 L1713.12,742.998 L1707.36,747.561 L1673.52,746.318 L1645.16,754.681 L1616.2,744.319 L1604.84,749.044 L1604.47,761.076 L1620.12,773.284 L1606.88,789.882 L1593.64,818.681 L1571.24,830.318 L1564.44,841.065 L1566.97,849.851 L1572.8,853.237 L1591.36,848.555 L1604.64,887.686 L1569.6,930.161 L1551.8,960 L1541.32,983.358 L1545.76,997.44 L1557.04,1001.68 L1567.76,999.36 L1587.8,969.522 L1600.4,961.677 L1603.68,974.332 L1596.32,1006.41 L1600.52,1019.2 L1614.52,1026.24 L1631.04,1024.2 L1649.76,995.045 L1662.04,985.843 L1665.44,1002.08 L1658.24,1037.44 L1666.07,1049.23 L1682.12,1050.12 L1690.2,1040.08 L1702.24,1003.16 L1715.04,931.073 L1748.04,914.367 L1759.12,931.118 L1773.68,927.202 L1775.68,918.439 L1767.56,891.923 L1778.24,866.162 L1783.04,835.398 L1792.61,840.926 L1877.95,943.635 L1884.19,947.438 L1893.95,945.324 L1897.68,935.066 L1897.68,873.096 L1892.68,797.764 L1871.77,657.041 L1906.28,627.398 L1955.2,570.476 L1973.77,573.681 L1986.48,568.196 L1990.68,554.2 L1979.57,537.007 L1992.08,519.678 L2000.12,527.009 L2001.76,543.843 L2009.73,552.476 L2024.64,554.399 L2034.96,547.643 L2037.68,537.084 L2034.64,526.489 L2017.84,515.478 L2009.4,500.043 L2051.18,507.636 L2060.75,501.005 L2038.36,440.88 L2045.11,420.165 L2051.61,413.446 L2068.76,437 L2076.48,461.556 L2080.68,492.164 L2080.32,551.279 L2085.48,576.954 L2095.04,588.237 L2113.12,595.759 L2143,598.681 L2152.27,593.962 L2163.2,580.963 L2171.68,550 L2171.2,515.608 L2165.32,491.438 L2168.24,469.284 L2187.48,441.878 L2205.92,431.031 L2206.32,481.036 L2213.76,556.526 L2228.24,629.885 L2239.52,664.198 L2249.61,666.124 L2257.76,659.002 L2306.68,535.128 L2314.48,559.684 L2340.48,606.597 L2340.36,662.49 L2345.24,695.44 L2353.84,714.077 L2376.2,743.039 L2397.77,798.968 L2410.3,807.759 L2422.05,808.681 L2433.72,806.481 L2445.64,798.4 L2448.72,819.4 L2453.86,821.62 L2476.76,800.714 L2456.8,855.718 L2454.36,877.893 L2457,882.68 L2482.64,864.8 L2501.6,843.736 L2510.75,849.557 L2510.97,864.514 L2476.52,905.718 L2460.36,949.312 L2462.32,955.167 L2471.55,952.924 L2515.44,918.197 L2516.76,935.988 L2472.92,967.394 L2457.72,985.08 L2443.33,1012.92 L2454.93,1013.76 L2484.88,1003.24 L2510.99,985.994 L2507.24,1021.84 L2471.76,1041.56 L2452.4,1060.16 L2431.56,1097.88 L2435.84,1100.68 L2454.72,1095.76 L2495.6,1075.59 L2492.76,1097.48 L2443.83,1131.04 L2420.8,1160.44 L2414.67,1174.95 L2437.48,1172.76 L2471.96,1158.4 L2469.32,1194.36 L2476.67,1231.08 L2481.6,1230.6 L2495.72,1210.96 L2511.32,1172.48 L2546.2,1208.64 L2552.16,1212.22 L2556.6,1209.86 L2557.76,1194.63 L2545.76,1148.28 L2516.32,1106.72 L2522.92,1081.4 L2558.65,1122.41 L2570.79,1129.85 L2575.48,1124.67 L2571.76,1095.53 L2559.48,1065 L2530.8,1030 L2536.73,1005.33 L2581.36,1043.48 L2591,1043.32 L2626.16,1060.24 L2674.23,1073.56 L2680.92,1081.16 L2698.85,1089.17 L2721.48,1114.84 L2724.23,1124.84 L2718,1127.68 L2681.28,1105.96 L2667.99,1088.52 L2660.88,1086.56 L2647.28,1090.28 L2641.32,1106.82 L2648.2,1119.64 L2668.88,1122.76 L2683.33,1134.53 L2639.28,1147.29 L2640.53,1160.92 L2652.24,1171.92 L2697.52,1206.72 L2722,1220.76 L2769.28,1240.76 L2817.04,1253.32 L2804.52,1272 L2793.03,1303.16 L2750.04,1289.2 L2717.83,1268.51 L2682.44,1221.76 L2653.56,1193.48 L2631.56,1190.24 L2616.49,1202.75 L2611.84,1214.72 L2613.76,1229.12 L2636.48,1275.84 L2640.56,1308 L2648.8,1331.96 L2669.28,1358.72 L2698.56,1385.88 L2710.64,1403.95 L2624,1360.8 L2560.2,1337.32 L2553.53,1341.56 L2553.49,1353.41 L2601.12,1437 L2588.14,1441.23 L2575.27,1438.75 L2498.64,1340.2 L2460.91,1301.23 L2448.6,1296.23 L2443.16,1235.49 L2430,1232.24 L2397.04,1257.65 L2395.36,1238.08 L2403.2,1227.75 L2404.24,1213.31 L2395.28,1203.53 L2384.63,1201.32 L2373.52,1205.8 L2368.76,1214.88 L2374.72,1247.82 L2372.2,1277.2 L2368,1282.76 L2360.76,1277.92 L2350.32,1238.08 L2354.68,1225.76 L2353.24,1218.11 L2342.96,1206.8 L2328.28,1206.52 L2317.32,1220.8 L2319.64,1232.68 L2330.16,1243.04 L2332.96,1262.2 L2295.21,1241.32 L2288.48,1241.91 L2283.32,1251.29 L2289.24,1310.68 L2300.24,1352.72 L2321.87,1390.03 L2338,1401.2 L2362.56,1410.88 L2364.72,1438 L2361.68,1445.25 L2335.86,1444.24 L2306.92,1451.32 L2284.08,1426.84 L2266.18,1419.24 L2247.47,1417.56 L2227.8,1423.96 L2201.31,1450.63 L2174.32,1426.84 L2143.28,1422.32 L2127,1427.8 L2114.04,1437.28 L2097.56,1465.75 L2091.64,1457.75 L2088.32,1439.08 L2094.48,1422 L2092.76,1408.29 L2084.84,1397.64 L2070.8,1393.32 L2055.52,1400.84 L2050.32,1414.06 L2051.84,1427.04 L2061.44,1438.88 L2064.96,1468.32 L2025.85,1443.28 L2001.44,1434.24 L1969.25,1428.75 L1949.53,1419.32 L1938.29,1420.52 L1929.2,1427.36 L1925.24,1451.92 L1919.08,1454.6 L1913.24,1426.8 L1903.36,1403.96 L1911.04,1369.64 L1904.19,1362 L1894.8,1361.84 L1885.51,1370.21 L1886.23,1377.88 L1882.59,1379.64 L1847.6,1360.24 L1843.76,1321.29 L1834.36,1279.45 L1837.96,1275.64 L1876.91,1291.76 L1908.88,1291.76 L1922.2,1281.96 L1922.2,1259.76 L1909.08,1245.32 L1889.96,1232.8 L1865.97,1225.24 L1832.88,1221.68 L1862.92,1189.4 L1887.61,1215.37 L1919.12,1234.24 L1951.22,1239.68 L1970.52,1231.88 L1975.24,1223.49 L1974.48,1207.47 L1958.91,1189.15 L1929.72,1172.24 L1889,1164.28 L1922.64,1147.76 L1945.76,1125.41 L1963.4,1087.47 L1954.93,1067.25 L1946.89,1062.8 L1933.43,1062.76 L1911.92,1074.32 L1887.88,1098.88 L1872.04,1131.6 L1860.72,1094.83 L1838.42,1068.06 L1823.84,1060.32 L1804.84,1066.48 L1798.32,1087.49 L1806.24,1124.72 L1822.2,1150.88 L1845.24,1173.12 L1810.32,1210.56 L1791.48,1172.72 L1777.16,1156.48 L1744.88,1137.32 L1723.28,1145.04 L1718.32,1154.97 L1718.76,1166.69 L1739.67,1207.04 L1789.32,1240.2 L1771.67,1260.8 L1759.92,1236.16 L1733.96,1207.76 L1705.71,1194.32 L1692.53,1197.04 L1683.04,1205.77 L1679.56,1220.81 L1688.8,1243.28 L1704.47,1263.92 L1729.24,1281.75 L1739.68,1317.88 L1738.77,1327.4 L1732.69,1331.15 L1726.28,1326.96 L1704.28,1292.8 L1685.96,1290.96 L1677.25,1299.27 L1678.6,1314.32 L1711.23,1377.12 L1675.12,1360.76 L1639.59,1357.96 L1634.44,1219.04 L1621.76,1128.32 L1612.76,1093.08 L1601.12,1090.8 L1587.52,1105.61 L1550,1119.24 L1518.04,1138.56 L1514.76,1101.12 L1510.36,1081.88 L1506.59,1079.37 L1496.52,1090.72 L1481.24,1122.28 L1475.32,1145.92 L1475.44,1182.63 L1464.08,1198.6 L1456.05,1203.92 L1450.76,1150.08 L1447.19,1137.12 L1441.63,1134.68 L1420.24,1174.56 L1413.32,1214.94 L1415.56,1235.96 L1405.73,1251.95 L1394.08,1260.33 L1391.76,1224.59 L1385.16,1198.72 L1379.97,1194.81 L1372.32,1203.52 L1358.76,1233.73 L1352.32,1260.88 L1354.68,1304.71 L1340.08,1323.16 L1336.56,1321.68 L1321.41,1272.36 L1313.16,1259.53 L1308.08,1257.77 L1296.25,1292.72 L1284.7,1286.24 L1273.02,1285.32 L1260.2,1294.06 L1258.64,1306.22 L1265.44,1321.26 L1266.68,1356.13 L1266.11,1364.07 L1259.39,1366.97 L1242.32,1325.44 L1245.64,1311.32 L1242.52,1300.64 L1231.04,1292.76 L1216.4,1294.48 L1209.8,1301 L1207.32,1312.11 L1210.6,1320.84 L1222.16,1332 L1225.96,1349.28 L1191.09,1331.84 L1181.16,1331.89 L1175.92,1338.34 L1175.92,1358.44 L1136.84,1384.48 L1124.32,1398.8 L1111.72,1424.73 L1102.16,1378.72 L1086.76,1355.08 L1071.48,1345.76 L1051.48,1349.84 L1043.76,1361.43 L1044.76,1403.16 L1054.84,1428.08 L1081.4,1461.27 L1042.96,1496.13 L1029.76,1457 L1014.68,1434.8 L1001.2,1424.8 L1001.76,1410.56 L995.445,1403.32 L991.524,1404.24 L999.145,1409.16 L996.753,1419.53 L971.722,1415.8 L956.526,1429.12 L958.243,1455.48 L973.245,1487.08 L951.522,1473.73 L930.752,1368.83 L923.998,1360.92 L917,1359.48 L910.437,1364.4 L884.278,1414.84 L842.041,1524.52 L839.479,1490.28 L819.634,1473.73 L847.759,1429.72 L870.202,1365.2 L870.442,1348.77 L859.113,1344.32 L819.68,1356.96 L829.319,1338.08 L838.875,1333.56 L844.646,1324.04 L844.124,1313.67 L837.962,1304.28 L821.073,1301.76 L808.838,1312.12 L808.237,1330.92 L794.162,1360.08 L784.039,1370.43 L779.4,1364.4 L782.321,1337.55 L796.44,1304.04 L791.923,1292.24 L776.845,1285.32 L762.926,1292.92 L758.319,1302.28 L764.438,1321.04 L759.679,1340.08 L731.516,1307.84 L718.992,1307.93 L701.318,1365.96 L697.557,1427.96 L706.838,1460.04 L733.528,1488.49 L733.759,1496.92 L725.239,1521.08 L706.158,1513.24 L685.319,1510.32 L651.773,1518.08 L658.562,1532.24 L680.758,1549.64 L718.679,1560.76 L714.682,1573.64 L677.613,1563.32 L643.055,1569.68 L648.068,1583.71 L673.6,1605.92 L662.519,1614.72 L651.479,1649 L642.912,1656.6 L636.763,1641.45 L635.479,1606.73 L626.003,1598.24 L608.319,1593 L635.681,1460.43 L640.681,1399.54 L635.078,1388.84 L624.564,1388.28 L603.964,1405.64 L601.639,1402.72 L608.681,1381.04 L578.194,1372.24 L528.677,1365.28 L496.242,1365.32 L452,1371.32 L394.517,1396.32 L366.357,1417.2 L330.241,1453.44 L325.874,1453.2 L333.681,1380.08 L331.319,1320.17 L335.043,1301.76 L404.513,1317.68 L472.196,1314.76 L505.882,1305.24 L534.002,1291.76 zM1211.96,412.202 L1181.72,397.363 L1197.76,364.562 L1201.48,365.12 L1210.28,382.437 L1230.2,406.159 L1228.96,422.366 zM1002.12,513.481 L958.28,506.844 L948.402,459.725 L933.558,419.159 L933.319,378.835 L942.039,361.319 L946.236,363.602 L950.394,409.317 L969.038,492.557 L973.28,500.72 L979.968,503.681 L996.126,501.008 L1008.6,513.037 zM1592.36,353.921 L1592.36,353.079 zM1110.77,356.167 L1111.4,353.878 L1118.64,354.325 L1117.24,363.12 L1112.36,364.954 zM2379,401.241 L2371.84,396.036 L2365.32,376.798 L2372.29,360.031 L2384.19,352.25 L2389.64,354.081 L2392.16,402.515 L2388.24,405.397 zM2280.24,385.483 L2282.76,354.245 L2286.96,351.28 L2304.29,373.004 L2304.68,417 L2285.76,523.161 L2264.64,581.189 zM2133.8,377.825 L2134.64,356.709 L2144.52,350.241 L2150.41,349.364 L2156.12,355.921 L2158.76,376.722 L2151.16,389.518 L2136.12,396.726 zM672.684,377.843 L673.768,356.932 L675.596,349.671 L683.634,351.95 L692.682,359.357 L697.681,376.283 L689.438,396.243 L674.246,403.402 L671.36,400.763 zM2284.36,348.921 L2284.36,348.079 zM1169.48,348.241 L1176.24,346.241 L1180.2,345.637 L1180.75,349.043 L1158.68,387.363 L1148.84,384.085 L1139.92,375.406 L1142.36,358.921 L1145.44,354.118 zM1043.48,367.517 L1048.6,348.197 L1054.05,346.766 L1058.01,367.201 L1042.12,377.6 zM1872.2,376.404 L1863.72,364.038 L1900.28,345.244 L1905.48,348.007 L1913.72,378.957 L1887.96,403.806 zM2134.48,345.961 L2135.04,342.319 L2143.52,345.927 L2136.12,349.563 zM1050.44,342.645 L1050.71,341.16 L1053.45,341.802 zM1627.76,417.796 L1621.84,386.8 L1646.04,338.323 L1651.48,341.28 L1679.4,419.481 L1645.04,486.638 zM1080.24,354.887 L1077.32,337.923 L1079.44,335.961 L1088.24,343.394 L1088.28,360.399 L1084.36,362.277 zM1077.36,333.921 L1077.36,333.079 zM1929.84,334.243 L1939.72,332.241 L1951.4,334.039 L1935,362.763 L1925.36,339.445 zM1614.8,336.617 L1615.28,333.435 L1622.67,334.763 L1616,345.206 zM1076.36,331.921 L1076.36,331.079 zM1950.36,330.957 L1950.4,330.041 L1953.04,330.278 zM870.684,360.746 L872.719,330.603 L876.964,328.924 L887.401,334.798 L893.437,345.193 L894.638,358.142 L885.836,377.843 L875.89,382.64 L871.031,381.196 zM1696.76,400.241 L1670.32,327.484 L1673.45,324.325 L1719.24,341.558 L1751.19,396.198 L1746.16,420.275 L1739.85,424.677 L1705.64,414.121 zM481.8,321.757 L487.648,319.519 L493.122,318.437 L494.674,321.524 L482.632,364.357 L475.8,412.892 L469.88,505.07 L427.644,473.318 L373.878,466.718 L372.319,461 L375.966,453.841 L423.808,466.759 L459.95,469.249 L451.757,413.517 L420.364,341.684 zM2637.32,341.901 L2635.32,312.002 L2639.92,310.766 L2667.56,324.365 L2703.88,325.557 L2755.6,339.08 L2729.2,393.279 L2698.04,366.798 L2670.05,355.759 L2638.08,350.972 zM1814.76,317.002 L1813.82,312.723 L1839.93,310.355 L1860.4,316.079 L1832.63,337.6 L1819.92,330.959 zM1510.28,309.241 L1518.24,306.241 L1525.6,306.05 L1526.36,312.127 L1506.24,338.354 L1501.32,316.995 zM1754.6,341.038 L1779.07,305.647 L1784.2,305.011 L1790.2,319.72 L1794.44,345.236 L1764.92,374.6 L1751.32,350.72 zM1552.24,313.478 L1548.72,304.156 L1552.64,301.369 L1569.76,303.759 L1588.68,313.007 L1579.37,332.599 zM1406.24,329.278 L1402.32,310.879 L1405.6,301.282 L1414.72,302.244 L1423.72,309.039 L1430.68,327.07 L1426.08,344.155 L1413.69,353.638 L1409.32,349.995 zM1228.8,315.604 L1237.88,302.486 L1242.68,301.33 L1245.68,312.521 L1241.4,331.957 L1238.32,333.638 L1222.92,326.196 zM528.278,301.961 L529.039,301.277 L532.6,301.635 L531.681,325.236 L504.962,572.561 L495.319,514.79 L496.321,441.719 L510.757,348.959 L526.322,308.241 L523.917,304.318 zM2610.6,340.52 L2574.68,332.606 L2607.83,296.804 L2615.68,329.238 L2615.64,341.677 zM1871.76,306.873 L1871.08,303.241 L1883.83,294.972 L1887.6,294.033 L1891.97,309.401 L1876.04,311.441 zM2222.56,289.722 L2224.68,287.763 L2229.67,288.848 L2218.92,329.322 L2211.56,317.039 L2215.28,300.874 zM1155.77,295.281 L1154.96,289.637 L1157.92,286.407 L1190.72,294.365 L1214.29,294.396 L1197.69,316.638 zM1489.6,287.757 L1488.61,285.729 L1491.45,282.325 L1502.36,285.03 L1497,292.682 zM2228.36,283.643 L2228.4,282.318 L2231.64,282.962 zM2369.49,326.163 L2359.84,315.039 L2357.32,300.675 L2361.24,287.087 L2371.28,278.244 L2377.6,279.039 L2386.68,326.995 L2382.2,330.159 zM1279.56,280.955 L1279.28,279.002 L1282.32,278.802 zM679.237,301.985 L680.559,277.08 L688.039,277.838 L700.003,288.766 L703.679,305.611 L695.238,323.403 L679.598,331.6 zM1279.96,274.722 L1280.8,273.637 zM2142.24,295.442 L2146.95,270.766 L2153,269.241 L2162.76,278.359 L2166.76,300.881 L2155.84,316.401 L2139.19,321.718 zM1558.76,279.916 L1574.28,266.493 L1584.47,274.278 L1583.68,285.167 zM878.521,279.592 L882.839,258.472 L888.003,255.532 L897.8,264.396 L902.237,285.966 L892.406,302.241 L877.002,308.081 zM2064.24,260.28 L2067.6,253.845 L2071.68,260.242 L2060.76,308.887 L2035.76,363.154 L2034.24,389.003 L2027.12,407.584 L2019.47,409.871 L2003.36,389.997 zM1617.28,305.042 L1611.32,299 L1606.76,272.956 L1608.77,251.994 L1612.67,250.487 L1618.53,254.764 L1637.64,304.038 L1632.24,315.122 zM2622.24,259.8 L2619.84,251.319 L2622.41,249.359 L2640.64,259.038 L2627.21,264.675 zM2620.08,248.641 L2619.64,248 zM2264.52,252.486 L2265.56,249.722 L2268.64,251.316 L2267.65,276.29 L2242.4,580.37 L2239.6,582.573 L2238.24,577.41 L2228.56,502.568 L2229.32,411.521 L2245.32,315.882 zM1506.72,265.241 L1494.65,259.757 L1509.96,248.244 L1514.72,251.16 L1517.64,267.122 zM1535.76,250.248 L1534.33,245.763 L1539.77,243.323 L1557.32,248.799 L1540.27,263.088 zM2564.79,265.443 L2587.52,242.764 L2591.73,243.362 L2597.12,252.64 L2599.48,267.4 L2559.04,271.64 zM1740.76,259.563 L1748.56,242.805 L1752.68,242.045 L1760.48,259.998 L1732,314.636 L1718.36,294.319 zM2589.68,239.798 L2590.76,238.642 L2592.32,240.88 zM2043.35,242.008 L2046.2,239.477 L2049.19,240 L2042.24,256.921 L2003.2,340.282 L1994.44,349.355 L1995.24,356.92 L1985.68,374.918 L1962.76,369.2 L1960.24,365.002 L2000.8,297.438 zM2475.52,285.113 L2467.56,251.923 L2467.36,237.266 L2471.32,229.362 L2499.84,229.36 L2485.04,247.957 L2482.32,258.248 L2489.97,277.605 L2499.39,283.202 L2525.77,284.003 L2498.76,315.402 L2501.08,333 L2507.2,341.641 L2518.15,347.039 L2507.32,364.957 L2510.28,380.168 L2521.31,391.077 L2502,400.477 L2496.48,336.801 zM2354.12,245.763 L2349.32,239.002 L2349.72,229.729 L2365.34,228.635 L2372.24,233.839 L2371.68,254.931 zM1672.8,233.039 L1671.38,230.002 L1698.22,228.478 L1708.62,232.284 L1701.8,273.303 zM1688.11,306.759 L1657.64,293.961 L1633.81,230.837 L1638.85,228.637 L1648.48,236.8 L1686.8,289.396 L1697.68,306.277 zM1576.61,235.121 L1572.06,229.285 L1581.13,230.08 L1581.64,235.959 zM1476.86,232.684 L1478.35,230.768 L1495.3,231.202 L1474,247.165 zM886.757,229.802 L888.321,228.641 L891.481,229.121 L889.476,232.044 zM492.722,232.481 L489.719,230.005 L496.56,229.237 L525.72,230.082 L518.957,247.525 zM2151.76,234.61 L2157.23,228.241 L2172.73,230.522 L2169.88,238.799 L2153.88,247.484 zM1938.64,230.237 L1949.47,228.237 L2023.06,230.12 L1985.14,280.071 L1947.73,283.598 L1916.2,299.322 L1907.64,283.764 L1941.44,274.722 L1957.92,262.72 L1974.4,240.998 L1968.81,233.759 zM1891.85,232.354 L1894.2,228.567 L1918.07,227.321 L1935.85,231.404 L1898.92,248.597 zM1820.52,257.758 L1782.03,241.517 L1775.36,229.043 L1806.01,236.681 L1835.55,237.561 L1841.7,236.361 L1840.34,230.004 L1843.83,228.28 L1868.37,229.596 L1875.56,258.682 L1841.09,268.602 zM1398.32,252.133 L1399.99,230.043 L1405.81,227.407 L1415.44,232.797 L1423.68,255.128 L1417.33,271.351 L1399.61,279.445 zM1211,239.759 L1182.27,228.725 L1209.24,227.318 L1259.83,238.36 L1259.48,245.196 L1242.04,259.675 zM1111.56,232.036 L1112.96,229.486 L1129.2,227.319 L1134.68,231.002 L1125.32,249.961 L1131.64,275.493 L1130.68,289.929 L1112.4,290.105 zM1066.24,253.311 L1065.8,232.61 L1072.05,227.555 L1086.29,227.765 L1089.44,231.118 L1089.68,291.038 L1076.84,308.8 L1072.76,307.92 L1069.52,294.997 zM1017.68,246.002 L1018.77,233.371 L1020.6,227.593 L1038.22,227.716 L1040.68,253.043 L1028.76,332.24 L1014.2,388.002 L1004,411.372 L1002.36,393.879 zM976.237,244.16 L976.321,228.716 L994.675,227.751 L995.681,243.236 L979.679,399.314 L975.394,410.586 L967.321,338.01 L977.366,320.684 L980.684,302.485 L981.645,273.075 zM696.483,233.484 L701.406,228.241 L713.805,227.321 L721.157,230.966 L719.161,242.237 L712.118,252.481 L700.72,259.759 L689.559,260.236 L688.802,253.002 z" fill="rgb(255,255,0)" stroke-width="0.5" stroke="rgb(0,0,0)" />
</svg>
