<?xml version="1.0" standalone="no" ?>
<!DOCTYPE svg PUBLIC "-//W3C//DTD SVG 1.1//EN" "http://www.w3.org/Graphics/SVG/1.1/DTD/svg11.dtd">
<svg width="3379px" height="2322px" xmlns="http://www.w3.org/2000/svg" version="1.1" >
	<path d = "M3041.71,2232.32 L3096.64,2228.96 L3099.32,2191.28 L3107.24,2160.28 L3120.87,2126.76 L3151.76,2088.6 L3192.72,2064.84 L3248.08,2051.24 L3271.96,2050.56 L3275.68,2042.08 L3244.64,250.925 L3241.71,244.357 L3192.92,237.241 L3153.56,225.479 L3123.56,209.201 L3100.32,185.722 L3078.52,154.086 L3064.56,111.278 L3058.68,72.9608 L3048.05,68.8037 L380.196,116.321 L369.809,121.798 L363.682,167.079 L346.243,214.92 L322.112,248.569 L295.557,268.646 L258.886,287.162 L237.156,294.759 L193.557,301.243 L190.352,307.99 L221.355,2100.04 L224.757,2105.6 L230.484,2102.32 L276.194,2108.52 L312.319,2120.88 L344.962,2142.28 L368.722,2172.04 L388.481,2207 L401.241,2240.27 L404.091,2281.64 zM384.763,2090.07 L393.241,2070.08 L414.278,2060.24 L436.641,2066.24 L449.365,2080.76 L449.202,2102.24 L443.481,2114.2 L429.65,2123.24 L410.039,2124.2 L393.2,2112.88 zM3054.36,2036.15 L3064.08,2012.28 L3080.94,2003.24 L3105.68,2005.28 L3119.8,2019.67 L3124.68,2034.65 L3116.28,2062.36 L3098.09,2072.24 L3077.97,2071.48 L3060.28,2056.96 zM537.763,2126.36 L533.681,2092.2 L525.164,2069.04 L512.761,2045.6 L492.363,2019.2 L457.316,1993.52 L423.761,1977.52 L357.28,1960.84 L354.319,1816.03 L426.761,1558.12 L450.116,1568.88 L560.36,1637.12 L553.319,1672 L558.243,1701.2 L565.956,1722.12 L592.556,1753.71 L598.791,1753.08 L609.759,1725.76 L614.645,1695.04 L613.637,1673.88 L618,1672.24 L1116.96,1978.11 L1119.32,1986.49 L1115.32,2018.83 L1118.8,2039.2 L1134.52,2072.28 L1154.59,2093.71 L1160.09,2093.92 L1170.68,2073.03 L1175.68,2051.72 L1176.76,2014.32 L1355.63,2124.04 L1341.23,2127.68 L546.314,2141.68 L538.675,2138.76 zM352.684,1535.16 L352.319,1517.29 L353.603,1513.48 L359.401,1514.28 L387.604,1534.72 L355.278,1647.08 zM2604,1872.12 L2611.68,1833.48 L2606.76,1804.52 L2595.88,1773.04 L2936.8,1389.64 L2955.76,1440.96 L2972.24,1458.68 L2978.16,1457.2 L2987.4,1441.96 L2998.44,1397.8 L2998.68,1380.96 L2985.64,1336.32 L3119.04,1185.32 L3122.68,1192.37 L3125.68,1302.89 L3135.64,1870.32 L3132.4,1915.82 L3102.6,1919.76 L3066.04,1930.76 L3024.08,1954.24 L2999.35,1976.96 L2975.24,2011.28 L2962.32,2057.28 L2956.34,2098.24 L2300.57,2111.72 L2297.96,2107.84 L2333.08,2066.32 L2549.04,1826.28 L2553.24,1830.24 L2564.52,1877.44 L2579.32,1901.76 L2588.92,1905.15 zM344.241,309.52 L343.321,304.28 L351.48,288.841 L368.115,278.243 L391.28,280.798 L408.718,294.318 L412.681,309.155 L404.757,335.923 L388.723,344.722 L362.596,341.72 L350.8,330.038 zM507.627,249.555 L725.179,244.202 L740.656,243.716 L743.402,250.432 L648.72,595.078 L645.28,595.916 L628.963,570.206 L612.882,554.202 L584.565,536.484 L576.768,538.603 L575.319,575.196 L580.521,598.72 L594.76,622.441 L630.438,654.759 L630.607,665.998 L461.643,1271.96 L423.8,1235.56 L393.435,1224.6 L390.835,1254.32 L401.874,1292.24 L417.833,1316.72 L443.002,1341.08 L403.643,1485.68 L398.555,1489.68 L351.923,1462.08 L346.11,1450.08 L329.359,439.236 L333.048,433.639 L361.118,431.682 L404.002,418.479 L434.918,401.759 L460.44,377.241 L488.682,331.646 L499.243,301.082 zM554.833,1093.64 L672.763,668.039 L677.447,663.558 L708.718,657.759 L736.516,642.124 L757.963,618.437 L772.12,593.08 L768.199,588.241 L745.462,586.319 L722.915,588.798 L696.002,599.116 L693.36,595.592 L791.359,244.318 L1517.18,229.239 L1573.75,228.321 L1583.88,231.757 L1829.16,340.874 L1830.12,344.365 L1805.36,359.036 L1780.24,381.077 L1768.6,398.833 L1771.97,404.759 L1806.48,409.681 L1835.25,407.918 L1860.96,396.237 L1889.76,371.041 L1896.48,369.804 L2402.41,592.278 L2406.87,594.912 L2406.48,599.165 L2370.32,623.237 L2354.36,640.163 L2346.16,656.198 L2382.54,661.681 L2413.88,657.759 L2439.96,648.239 L2473.32,623.805 L2986.27,848.593 L2988.16,852.482 L2961.96,865.838 L2944.28,882.038 L2925.64,907.038 L2927.12,910.237 L2948.95,914.684 L2996.08,910.241 L3015.96,901.72 L3042.13,880.202 L3050.85,877.678 L3117.2,907.344 L3122.68,1090.39 L3120.61,1117.51 L3106.12,1131.48 L3104.95,1122.4 L3090.92,1122.8 L3089.32,1133.04 L3093.64,1141.8 L3087.44,1156.24 L2954.6,1305.68 L2915.11,1294.32 L2879.67,1293.32 L2850.32,1303.28 L2828.28,1318.08 L2824.49,1329.6 L2841.28,1338.76 L2878.04,1350.24 L2911.39,1349.65 L2911.65,1353.87 L2564.51,1745.16 L2553.64,1746.2 L2524.14,1738.32 L2496.08,1739.24 L2467.01,1748.24 L2439.36,1765.2 L2438.08,1774.68 L2457,1785.48 L2478.8,1792.76 L2510.29,1794.32 L2516.84,1797.84 L2238.69,2109.99 L1444.57,2125.68 L1195.81,1976.44 L1242.44,1958.72 L1272.68,1934.76 L1266.28,1926.8 L1232.56,1915.8 L1203.71,1914.76 L1167.04,1924.8 L1138.51,1941.12 L1061.04,1895.72 L641.763,1638.16 L639.676,1635.12 L692.998,1615.24 L706.718,1603.72 L712.595,1593.84 L702.039,1585.84 L669,1575.36 L640,1575.56 L619.039,1581.76 L581.319,1600.64 L439.882,1514.12 L483.716,1352.04 L523.436,1346.76 L541.961,1337.68 L571.754,1310.65 L588.679,1279.12 L576.96,1274.8 L552.317,1274.32 L501.4,1289.52 zM1839.31,295.519 L1689.81,230.165 L1693.17,226.319 L1764.92,225.237 L1840.84,224.516 L1841.32,262.528 L1848.67,295.277 zM3013.76,257.642 L3013.6,248.448 L3020.2,233.714 L3042.32,220.278 L3062.28,222.599 L3075.76,233.357 L3082.68,254.162 L3076.96,273.723 L3062.63,286.161 L3039.35,289.477 L3022.04,278.681 zM3072.69,837.481 L3064.32,831.715 L3062.68,801.923 L3045.16,758.921 L3027.48,739.318 L3006.49,724.398 L3002.52,728.837 L2997.56,755.589 L2999.24,778.175 L3007.12,805.559 L3001.84,805.759 L2490.04,581.967 L2485.68,544.921 L2478.52,523.044 L2455.25,485.002 L2430.4,467.292 L2423.96,471.412 L2416.32,511.162 L2423,552.675 L1910.36,326.759 L1910.68,305.927 L1903.4,271.722 L1885.24,243.561 L1866.92,224.319 L2895.35,204.241 L2917.98,204.333 L2925.17,207.997 L2934.24,254.163 L2949.24,291.995 L2968.08,320.722 L2993.28,346.722 L3048.84,375.239 L3102.43,381.843 L3108.71,385.723 L3116.68,853 L3114.64,855.122 z" fill="rgb(255,255,0)" stroke-width="0.5" stroke="rgb(0,0,0)" />
</svg>
