<?xml version="1.0" standalone="no" ?>
<!DOCTYPE svg PUBLIC "-//W3C//DTD SVG 1.1//EN" "http://www.w3.org/Graphics/SVG/1.1/DTD/svg11.dtd">
<svg width="3286px" height="2275px" xmlns="http://www.w3.org/2000/svg" version="1.1" >
	<path d = "M2915.83,2202.32 L3010.2,2202.12 L3017.76,2157.23 L3030.56,2118.04 L3060.44,2072.88 L3090.32,2047.28 L3109.08,2037.76 L3160.79,2023.24 L3190.48,2021.32 L3193.16,1866.4 L3191.6,220.157 L3137.52,209.757 L3109.08,199.241 L3062.04,170.679 L3030.8,129.277 L3020.32,104.002 L3009.44,39.082 L2918.54,37.3194 L339.492,40.3212 L323.108,43.5978 L316.682,91 L306.125,122.079 L291.716,148.964 L272.478,171.204 L225.961,202.241 L189.007,215.241 L143.887,223.558 L141.316,229.966 L142.571,2022.84 L207.204,2035.52 L229.998,2044.52 L257.761,2062.08 L284.481,2090.8 L300.084,2116.32 L312.757,2146.56 L325.044,2204.72 zM600.722,1960.44 L719.799,1850.96 L725.679,1849.8 L721.319,1902.72 L737.677,1962.68 L630.885,2001.48 L589.007,2012.24 L542.723,2018.68 L541.802,2015.52 zM754.553,1847.12 L762.037,1821.57 L767.961,1819.32 L776.202,1833.8 L778.44,1846.8 L774.759,1863.44 L765.038,1875.64 L756.876,1862.56 zM686.034,1779.84 L691.321,1773.28 L706.813,1768.24 L732.002,1770.8 L742.952,1777.32 L739.075,1784.12 L711.554,1791.68 L691.995,1785.47 zM1838.52,1824.89 L1840.68,1807.01 L1837.44,1791 L1825.6,1768.28 L1846.65,1779.28 L1868.76,1813.53 L1868.4,1827.28 L1842.96,1838.24 L1833.48,1838.32 zM1681.56,1832.91 L1675.32,1792.25 L1682.52,1761.56 L1693.28,1743.08 L1698.96,1739.96 L1720.64,1745.6 L1721.56,1789.92 L1738.08,1830.96 L1732.43,1835.48 L1704.34,1839.68 zM1734.76,1789.12 L1734.64,1743.76 L1750,1737.24 L1760.41,1741.73 L1777.48,1770.24 L1780.68,1784.55 L1778.24,1802.84 L1769.88,1815.48 L1752.59,1824.36 L1740.8,1810 zM1891.88,1748.88 L1918.72,1735.53 L1924.4,1736.32 L1927.68,1748.04 L1921.2,1779.24 L1906.96,1800.68 L1887.19,1819.04 L1883.52,1817.64 L1872.36,1788.04 L1886.76,1775.99 zM1737.6,1723.24 L1739.76,1718.04 L1742.72,1717.04 L1745.28,1723.92 L1738.6,1726.56 zM1714.48,1712.12 L1718.25,1710.24 L1727.21,1710.76 L1723.16,1718.01 zM1625.2,1735.04 L1639.76,1716.56 L1654.01,1709.52 L1661.6,1709.04 L1683.04,1732.85 L1670.8,1758.08 L1665.24,1781.04 L1664.68,1825.6 L1655.24,1821.88 L1625.76,1789.96 L1618.32,1763.51 zM1967.52,1749.28 L1952.8,1720.6 L1953.28,1707.61 L1958.28,1701.61 L1962.2,1703.92 L1977.68,1745.79 L1974.88,1752.24 zM1676.71,1703.59 L1678.25,1700.53 L1682.36,1701.33 L1681.72,1707.4 zM1216.24,1720 L1206.76,1698.01 L1206.8,1669 L1209.72,1668.05 L1217.52,1689.68 L1232.75,1707.42 L1268.92,1719.72 L1239.02,1728.68 L1222.08,1728.23 zM1207.4,1665.88 L1207.36,1665.04 zM1183.16,1726.24 L1143.72,1710.48 L1110.17,1679.97 L1101.59,1666.36 L1132.58,1665.24 L1151.1,1664.72 L1168.16,1686.92 L1193.36,1693.76 L1204.65,1725.96 L1196.64,1728.68 zM1646.24,1689.76 L1617.96,1679.16 L1602.2,1666.84 L1590.33,1641.84 L1598.03,1640.24 L1625.91,1656.23 L1651.12,1685.89 L1652.04,1690.6 zM2730.32,1665.85 L2739.48,1635.16 L2744.52,1635.84 L2750.48,1648.48 L2753.68,1663.84 L2751.48,1676.16 L2740.59,1690.63 zM1960.76,1628.08 L1962.56,1624.04 L1964.92,1622.52 L1966.64,1627.92 L1956.2,1678 L1928.16,1712.48 L1903,1728.2 L1882.48,1735.76 L1858.24,1740.68 L1833.4,1738.04 L1869.28,1724.92 L1904.92,1702.76 L1937.68,1669.76 zM2994.92,1805.6 L2810.92,1643.52 L2813.08,1640.36 L2846.88,1642.44 L2881.48,1637.2 L2939,1611.24 L2946.24,1614.16 L2990.76,1743.84 L3002.44,1793.2 L3001.8,1810.25 zM1238.76,1623.77 L1240.88,1614.77 L1272.48,1609.76 L1285.2,1603.56 L1334.4,1620.76 L1369.56,1623.09 L1355,1654.68 L1331.57,1673.44 L1302.95,1676.24 L1271.76,1666.96 L1252.08,1650.84 zM1242.71,1600.4 L1242.76,1591.76 L1245.52,1589.92 L1253.49,1599.95 zM2775.92,1599.24 L2793.52,1587.24 L2821.92,1590.76 L2830.96,1596.32 L2829.16,1601.2 L2812.04,1609.24 L2797.03,1609.68 zM1265.96,1577.52 L1267.68,1576.6 L1265,1591.23 L1256.6,1583.04 zM1285.16,1549.36 L1289.01,1547.24 L1297.19,1548.01 L1295.24,1557.17 zM1297.68,1592.2 L1307.4,1566.43 L1308.6,1547.83 L1317.06,1541.24 L1346.17,1541.52 L1362.64,1551.97 L1373.16,1573.76 L1375.16,1602.08 L1367.24,1609.2 L1350.69,1611.68 L1321.44,1604.2 zM1074.11,1646.24 L1047.04,1634.72 L1010.6,1609.36 L955.205,1550.61 L951.596,1534.64 L966.835,1507.97 L970.602,1506.2 L974.243,1510.64 L1018.13,1570.81 L1071.04,1615.24 L1111.84,1635.24 L1172.16,1646 L1124.04,1653.72 L1100.32,1652.76 zM1142,1574.76 L1102.12,1543.76 L1082.28,1522.96 L1049.84,1481.04 L1047.48,1475.08 L1053.87,1473.24 L1163.05,1480.08 L1189.36,1525.8 L1210.55,1551.23 L1236.64,1574.44 L1229.72,1600.39 L1224.11,1603.64 L1171.08,1590.24 zM2415.72,1471.96 L2419.07,1469.61 L2420.67,1473.81 L2359.24,1536.44 L2347.24,1536.24 L2344.2,1532.2 zM1946.52,1466.76 L1947.52,1464.36 L1951.64,1465.32 L1948.76,1479.92 L1927.24,1561.88 L1899.75,1626 L1879.44,1656.24 L1847.96,1686.72 L1799.96,1712.2 L1766.93,1718.48 L1757.48,1715.16 L1754.6,1708.28 L1805.84,1664.6 L1866.93,1595.72 L1900.8,1549.6 zM1330.76,1468 L1340.19,1455.17 L1345.29,1452.48 L1348.68,1457 L1348.76,1477.09 L1343.2,1495 L1331.16,1512.52 L1319.2,1524.48 L1313.44,1525.07 L1320.84,1485.87 zM1862.92,1435.52 L1866.52,1434.24 L1873.84,1433.36 L1874.44,1437.24 L1837.49,1478.11 L1801.32,1527.52 L1751.84,1609 L1718.14,1675.31 L1712.18,1679.12 L1677.08,1685.68 L1674.32,1680.56 L1685.76,1603.15 L1719.84,1519.92 L1736.2,1495.12 L1764.04,1474.32 L1799.87,1456.28 zM1213.24,1535.93 L1190.52,1504.68 L1174.36,1472.04 L1220.17,1431.89 L1224.68,1429.28 L1248.95,1480.12 L1288.44,1534.64 L1269.01,1540.52 L1241.75,1559.48 L1228.32,1551.92 zM1922.71,1421.76 L1943.25,1419.24 L1950.12,1418.44 L1951.67,1421.45 L1939.48,1452.72 L1881.72,1554.96 L1821.88,1628.8 L1788.72,1662.92 L1747.87,1695.23 L1733.49,1687.08 L1730.81,1680.04 L1756.36,1627.04 L1806.12,1543.24 L1873.03,1456.33 L1904.88,1426.91 zM2399.61,1413.63 L2406.48,1407.84 L2410.68,1406.44 L2412.4,1412.03 L2406.87,1420.69 L2329.68,1486.97 L2285.28,1522.4 L2271.61,1519.64 L2273.21,1513.19 zM909.687,1444.83 L943.923,1413.88 L964,1404.52 L990.957,1400.24 L1046.88,1401.36 L1112.44,1416.24 L1131.2,1440.72 L1130,1447.2 L1036.5,1440.32 L1003.27,1444.76 L982.007,1452.24 L955.233,1468.65 L938.28,1484.28 L925.874,1504.41 L911.037,1550.64 L877.839,1514.69 L889.871,1474.76 zM2455.24,1397.25 L2465.21,1391.24 L2480.72,1393.08 L2482.05,1397.48 L2475.48,1404.2 L2280.08,1568.16 L2268.01,1568.76 L2260.32,1564.96 L2261.52,1560.84 zM2387.8,1353.96 L2396.07,1347.69 L2401.71,1346.72 L2402.2,1353.99 L2397.76,1359.92 L2218.24,1500.44 L2203.58,1505.56 L2188.48,1499.32 zM866.315,1399.16 L882.077,1382.24 L908.923,1362.6 L928.118,1352.76 L965.951,1345.24 L1014.88,1345.56 L1074.88,1360.76 L1087.71,1368.03 L1103.6,1399.32 L1021.27,1387.32 L979.28,1389.32 L950.002,1396.8 L924.2,1412.36 L898.248,1438.07 L875.801,1475.64 L865.845,1500.48 L844.838,1475.28 L843.319,1453.25 L849.757,1428.08 zM2445.28,1338.48 L2453.56,1333.24 L2467,1334.52 L2472.56,1338.12 L2470.47,1341.2 L2218.84,1539.36 L2199.65,1539.48 L2196.64,1534.76 L2202.04,1529.28 zM2000.32,1552.59 L1995.68,1465.24 L1988.81,1419.59 L1975.96,1386.77 L1919.83,1393.8 L1846.19,1409.76 L1795.28,1427.24 L1745.47,1450.56 L1764.04,1411.32 L1831,1374.24 L1907.56,1347.24 L1955.77,1335.24 L2004.08,1329.24 L2021.43,1331.24 L2028.76,1362.31 L2042.68,1469.24 L2045.68,1573.06 L2038.47,1586.13 L1996.36,1624.84 zM2321.84,1326.48 L2351.04,1303.28 L2359.24,1304.49 L2380.33,1323.64 L2367.24,1352.24 L2357.48,1362.2 L2217.92,1463.76 L2182.91,1485.16 L2179.56,1453.04 L2181.56,1418.11 L2264.92,1367.24 zM794.798,1392 L773.319,1344 L795.762,1296.89 L800.806,1297.49 L834.324,1391.32 L821.756,1426 L817.079,1430.12 zM2432.28,1287.2 L2433.75,1286.85 L2432.68,1291.88 L2419.46,1302.67 L2412.91,1298.24 L2413.88,1292.04 zM2073.68,1526.12 L2065.16,1405.84 L2057.76,1361.11 L2041.64,1301.04 L2000,1300.32 L1940.92,1309.52 L1884.24,1323.76 L1796.36,1356.68 L1822.48,1315.84 L1842.28,1306.24 L1956.24,1271.32 L2070.94,1252.24 L2086.96,1251.91 L2089.2,1259.41 L2102.68,1375.96 L2113.68,1522.37 L2110.4,1531.24 L2077.73,1554.67 L2074.32,1550.48 zM829.52,1345.88 L809.36,1277.43 L842,1245.52 L846.366,1245.09 L879.64,1345.56 L844.727,1379.08 zM663.759,1296.84 L645.325,1247.49 L648.204,1246.85 L676.679,1295.96 L670.925,1305.32 L666.08,1303.72 zM2191.76,1292.92 L2235.73,1265.77 L2251.47,1272.68 L2265.68,1269.68 L2274.12,1258.28 L2279.04,1238.8 L2285.08,1241.89 L2274.76,1269.6 L2272.32,1296.14 L2280.28,1310.72 L2293.09,1312.76 L2305.48,1306.2 L2316.71,1269.52 L2343.23,1292.14 L2292.96,1332.72 L2211.33,1385.76 L2181,1402.36 L2176.24,1396.25 L2167.64,1309.05 zM2423,1238.28 L2423.72,1237.72 L2426.64,1237.05 L2424.48,1243.96 L2400.96,1286.64 L2388,1273.79 zM1037.01,1321.76 L1016.88,1314.08 L987.323,1239.25 L989.763,1235.33 L1012.68,1244.32 L1042.24,1291.76 L1059.28,1324.36 zM2430.2,1260.76 L2448.79,1225.92 L2452.05,1224.88 L2455.68,1237 L2457.76,1268.91 L2425.62,1274.36 L2423.68,1271.8 zM883.202,1319 L873.241,1295.44 L858.401,1237.84 L862.684,1232.84 L893.439,1223.24 L901.442,1225.32 L937.324,1319.92 L892.998,1338.44 zM949.518,1314.04 L920.835,1245.28 L916.405,1221.6 L937.214,1221.76 L969.402,1229.76 L1003.35,1313.76 L957.92,1317.68 zM2319.92,1223.24 L2334.13,1216.24 L2349.72,1215.85 L2353.19,1224.88 L2347.96,1230.72 L2317.76,1244.56 L2307.04,1257.32 L2297.2,1294.28 L2291.12,1301.08 L2287.49,1299.57 L2285.4,1286.25 L2291.24,1260.28 L2304.24,1235.16 zM2122.76,1483.17 L2113.68,1358.88 L2098.29,1240.6 L2065.96,1239.56 L1992.07,1250.76 L1839.44,1292.6 L1861.04,1259.6 L1901.28,1243.24 L1971.09,1225.24 L2095.83,1211.24 L2119.56,1210.64 L2123.76,1214.29 L2147.68,1384.2 L2153.68,1502.15 L2125.28,1519.91 zM2465.24,1219.4 L2463.32,1212.45 L2464.61,1209.44 L2483.16,1211.32 L2510.65,1218.56 L2473.87,1252.01 L2467.84,1240.2 zM2326.92,1204.72 L2327.8,1203.64 zM2040.08,1186.64 L2039.64,1186 zM689.838,1294 L637.282,1203.95 L640.555,1185.73 L649.086,1191.84 L702.922,1285.72 L704.681,1294.72 L699.239,1304.36 zM698.758,1253.52 L665.243,1196 L663.041,1184.28 L669.198,1185.96 L706.473,1250.28 L703.282,1259.08 zM1443.32,1207.99 L1445.32,1191 L1452.04,1177.28 L1458.88,1180.2 L1464.2,1192.72 L1463.76,1218.16 L1454.04,1233.4 zM2281.71,1184.49 L2299.77,1176.24 L2315.22,1177.04 L2315.79,1187.24 L2278.16,1207.68 L2267.59,1223.72 L2262.75,1251.89 L2256.11,1260.08 L2249.36,1257.13 L2253.11,1226.36 L2266.04,1198.48 zM2150.76,1209.96 L2148.32,1197.51 L2151.48,1191.88 L2194.56,1167.24 L2201.8,1168.11 L2244.96,1204.48 L2232.27,1252.21 L2166.08,1292.56 zM2485.44,1199.76 L2469.69,1197.16 L2467.51,1192.96 L2505.28,1164.21 L2509.64,1163.05 L2518.37,1202.56 L2511.91,1204.67 zM2525.48,1173.12 L2523.88,1159.28 L2560.8,1172.08 L2553.67,1182.01 L2533.04,1197.4 zM1273.76,1183.07 L1267.88,1157.76 L1271,1153.88 L1299,1168.24 L1334.88,1179.48 L1387.17,1182.16 L1274.48,1285.44 L1278.68,1220.08 zM2661.64,1193.16 L2698.04,1140.28 L3000.24,1176.27 L3002.68,1193 L2997.2,1223.35 L2987.76,1258.72 L2951.76,1354.84 L2935.32,1429.88 L2932.28,1505.3 L2937.96,1582.56 L2890.2,1560.48 L2842.41,1552.32 L2794.16,1560.84 L2741.71,1583.56 L2521.04,1392.64 L2521.08,1388.32 L2584.64,1309.56 zM710.964,1178.28 L696.444,1151.05 L709.872,1133.56 L713.677,1134.7 L715.722,1177.98 L714.92,1181.6 zM726.277,1258.44 L664.246,1151 L661.319,1137.92 L665.278,1130.53 L723.202,1225.04 L728.679,1257.16 zM1375.12,1137.45 L1380,1132.24 L1400.12,1126.24 L1415.81,1127.76 L1427.76,1133.52 L1430.56,1138.79 L1424.96,1143.24 L1401.88,1149.68 L1385,1145.76 zM2553.69,1155.2 L2531.37,1144.59 L2556.59,1125.28 L2561.2,1126.12 L2565.64,1157.08 zM2085.04,1157.2 L2141.73,1122.52 L2150.2,1123.52 L2180.97,1149.29 L2185.72,1156.6 L2180.28,1160.48 L2145.28,1180.2 L2050.3,1186.72 L2045.77,1185.4 L2045.77,1180.6 zM2574.8,1131.93 L2573.64,1122.6 L2592.85,1124.76 L2606.6,1131.64 L2582.64,1153.6 zM1952.84,1120.48 L1961.72,1113.52 L1974,1114.8 L1987.31,1121.97 L1919.04,1174.8 L1877.97,1216.71 L1872.24,1202.69 L1873.08,1191.28 zM2593.15,1112.72 L2582.61,1109.68 L2581.8,1106 L2602.32,1089.49 L2607.08,1089.84 L2610,1114.12 zM1877.4,1099.76 L1889.24,1089.25 L1917,1097.48 L1903.2,1114.48 L1866.32,1144.6 L1861.36,1114.88 zM2620.28,1096 L2620.64,1087.6 L2624.6,1085.8 L2646.21,1095.56 L2625.32,1114.12 zM2049.8,1114.53 L2054,1101.8 L2096.29,1086.24 L2111.96,1089.28 L2133.52,1111.89 L2051.64,1163.48 L2000.65,1192.24 L1904.71,1209.8 L1940.53,1173.83 L1991.72,1134.8 L1997.64,1134.04 L2001.8,1150 L2010.72,1159.2 L2024.36,1161.68 L2037.27,1158.2 L2046.72,1146.04 zM1948.56,1086.2 L1956.31,1081.52 L1970.27,1081.52 L1974.53,1085.72 L1971.71,1090.97 L1844.01,1201.75 L1836,1204.44 L1825.64,1200.8 L1823.44,1198.89 L1828.28,1192.04 zM1061.48,1300.32 L935.838,1090.08 L932.046,1076.6 L941.962,1079.36 L1069,1285.32 L1075.51,1301.68 L1068.92,1307.29 zM1094.44,1243.24 L994.284,1079.96 L986.321,1061.32 L995.718,1064.32 L1108.55,1237.07 L1111.6,1242.92 L1103.96,1255.4 zM2632,1066.28 L2646.32,1055.49 L2652.68,1058.56 L2651.96,1081.64 L2627.09,1072.72 zM2664.24,1056.68 L2663.32,1047 L2684.32,1050.6 L2693.64,1055.96 L2668.97,1076.63 zM2536.24,1049 L2537.79,1046.76 L2547.05,1045.76 L2553.72,1049.96 L2530.32,1067.6 zM1128.16,1185 L1060.28,1083.68 L1039.33,1049.01 L1042.28,1046.24 L1051.76,1048.08 L1145.05,1175.84 L1149.68,1184.72 L1140.08,1198.53 zM2248.83,1043.48 L2251.48,1042.52 L2259.96,1043.72 L2172.93,1090.32 L2154.11,1075.8 L2152.09,1069.76 zM2519.49,1042.91 L2522.07,1039.29 L2525.64,1039.32 L2524.76,1044.44 L2503.48,1094.45 L2466,1165.64 L2428.52,1214.12 L2380.64,1262 L2371.96,1263.12 L2352.42,1245.66 L2366.16,1225.28 L2366.12,1215.8 L2360.97,1207.32 L2330.32,1201.04 L2420.84,1133.6 zM1169.4,1133.88 L1097.28,1035.68 L1096.4,1032.04 L1100.24,1030.24 L1107.24,1030.47 L1115.76,1039.08 L1179.89,1127.48 L1182.6,1133.08 L1176.76,1140.76 zM1097.44,1307.92 L942.798,1054.28 L936.318,1039.76 L940.596,1024.29 L944.363,1023.88 L956.72,1042.04 L1109.2,1293.96 L1109.53,1312.77 L1102.36,1315.99 zM733.278,1025.39 L733.716,1020.77 L745.116,1024.08 L735.962,1032.64 zM2691.12,1040.24 L2676.51,1033.16 L2695.96,1018.25 L2698.72,1019.21 L2700.56,1040.96 zM1129.52,1245.28 L997.037,1041.52 L993.84,1030.76 L999.686,1018.77 L1018.72,1042.04 L1142.2,1230.8 L1146.68,1244.56 L1141.96,1257.68 L1137.56,1257.24 zM1199.4,1079.16 L1155.96,1018.44 L1160.01,1017.25 L1172.84,1027.16 L1215.08,1070.85 L1217.12,1080.28 L1210.04,1090.16 zM2711.36,1016.05 L2711.72,1012.89 L2726.09,1011.24 L2737.64,1015.68 L2716,1039.36 zM806.759,1853.44 L783.118,1793.32 L965.673,1624.72 L1021.88,1674.64 L1064.08,1702.24 L1122.2,1727.24 L1160.16,1736.24 L1209.17,1741.68 L1273.48,1733.2 L1325.28,1708.48 L1355.8,1685.84 L1373.76,1662.12 L1387.64,1621.73 L1388.68,1591.52 L1382.36,1564.32 L1394.76,1538.43 L1397.68,1517.72 L1396.68,1495.2 L1388.24,1460.04 L1367.75,1428.07 L1352.26,1418.45 L1344.43,1422.6 L1341.12,1435.64 L1292.56,1433.24 L1246.32,1448.6 L1235.24,1416.47 L1235.8,1402.96 L1263.16,1351.2 L1409.72,1217.99 L1409.32,1250.92 L1418.76,1295.92 L1448.24,1349.92 L1453.84,1355.08 L1459.85,1351.83 L1485.41,1308.28 L1499.64,1255.01 L1495.76,1208.08 L1476.88,1156.96 L1636.63,1010.73 L1915.56,1044.8 L1908.72,1054.92 L1814.56,1141.76 L1792.32,1168.24 L1748.52,1227.72 L1710.8,1296 L1684.24,1376.8 L1676.36,1435.4 L1678.52,1459.88 L1689.25,1483.93 L1699,1491.2 L1719.39,1497.32 L1689.84,1553.72 L1678.19,1587.04 L1631.01,1596.52 L1609.04,1606.76 L1586.56,1624.77 L1578.8,1614.15 L1570.8,1612.32 L1561.8,1626 L1557.56,1666.76 L1565.76,1702.92 L1580.8,1735.56 L1605.08,1760.48 L1616.52,1798.28 L1640.36,1824.8 L1668.04,1842.24 L1711.4,1854.76 L1760.31,1861.44 L1808,1858.44 L1848.56,1849.16 L1894.24,1829.16 L1936.92,1801.32 L1990.12,1754.84 L2026.4,1764.68 L2058.18,1764.24 L2098.44,1756.76 L2133.88,1742.24 L2200.92,1702.76 L2277.92,1641.76 L2362.84,1550.52 L2491.84,1421.52 L2527.24,1448.56 L2718.35,1617.58 L2700.24,1670.12 L2696.32,1708.33 L2702.24,1742.16 L2712.48,1769.68 L2738.76,1812.16 L2742.88,1814.24 L2756.24,1796.24 L2776.24,1756.81 L2783.68,1732.16 L2786.4,1677.2 L2989.59,1852.35 L2935.88,1878.88 L2894.07,1910.32 L2861.92,1953.64 L2838.13,2017.48 L2776.16,2014.68 L2730.39,2005.76 L2605.44,1964.24 L2554,1952.24 L2490.14,1945.24 L2436.02,1944.32 L2330.87,1958.76 L2221.79,1996.48 L2162.33,2012.24 L2088.1,2020.68 L2034.32,2020.68 L1987.92,2016.68 L1936.12,2006.76 L1826.89,1968.76 L1769.29,1953.76 L1708.09,1946.32 L1646.69,1945.32 L1594.48,1949.24 L1524.84,1963.24 L1387.29,2010.52 L1299.91,2021.68 L1232.96,2021.44 L1178.64,2015.76 L1143.12,2007.76 L1037.84,1970.76 L947.842,1949.8 L887.951,1946.32 L801.057,1949.28 L811.681,1891.79 zM2545.36,1031.96 L2549.24,1019.36 L2558.72,1010.68 L2563.4,1011.45 L2565.23,1033 zM1163.84,1180.08 L1053.36,1027.56 L1050.32,1017.96 L1054.12,1008.22 L1058.68,1006.31 L1068.72,1018.04 L1179.48,1170.72 L1181.68,1183.85 L1178.96,1192.72 L1174.76,1193.08 zM2575.32,1007.88 L2575.78,1006.17 L2583.17,1002.33 L2605.04,1007.36 L2582.41,1026.64 L2577.8,1023.76 zM2528.68,997.519 L2534.56,994.524 L2541.32,997.205 L2531.44,1011.24 L2467.8,1076.85 L2421.68,1116.96 L2334.08,1183.16 L2327.96,1170.32 L2311.76,1162.32 L2270.72,1174.4 L2239.81,1148.49 L2241.32,1141.04 L2421.92,1045.88 zM2281.17,1011.07 L2294.59,993.729 L2299.2,994.002 L2302.16,1014.57 L2272.4,1023.6 zM1200.52,1133.04 L1114.84,1015.08 L1110.32,1002.41 L1113.56,990.811 L1121.68,994.442 L1215.2,1123.45 L1216.68,1138.72 L1211.96,1145.64 zM763.92,994.241 L772.003,989.241 L777.679,990.002 L773.961,1008.72 L760.194,1014.56 L746.593,1007.04 L747.089,1003.53 zM2742.04,982.759 L2746.53,981.241 L2757.09,982.4 L2746.69,1001.36 L2724.2,997.604 zM2311.84,984.798 L2313.64,981.565 L2344.12,980.557 L2349.81,983.433 L2327.4,1008.27 L2317.99,1012.17 zM848.154,986.6 L846.766,982.763 L849.925,980.642 L852.431,984.718 zM2519.63,979.243 L2523.33,978.8 L2534.29,978.36 L2534.68,981.442 L2374.52,1055.32 L2224.92,1134.56 L2185.32,1100.28 L2230,1073.52 L2303.39,1037.48 L2353.68,1017.84 zM1306.95,973.206 L1311.23,971.878 L1319.79,973.798 L1308.71,980.757 L1295.68,981.957 zM1181.44,1005.8 L1200.11,970.93 L1210.69,972.25 L1225.07,990.757 L1247.72,1008.48 L1275.76,1016.24 L1301.25,1015.76 L1332.73,1006.48 L1370.76,977.36 L1574.88,1001.56 L1581.27,1005.92 L1457.13,1119.64 L1401.16,1098.24 L1380.05,1093.32 L1358.31,1093.56 L1311.24,1101.76 L1262.37,1127.6 L1253.04,1116.96 L1223.68,1060.52 L1177.36,1013.96 zM2584.83,989.239 L2608.72,964.519 L2613.52,966.277 L2617.37,991.84 zM2626.32,965.278 L2626.73,959.002 L2636.64,958.241 L2658.36,965 L2631.16,985.892 zM2451.84,971.846 L2469.32,953.565 L2475.64,963.593 L2475.63,975.641 L2444.88,983.284 zM2484.64,946.041 L2485.77,944.598 L2513.31,946.243 L2492.65,967.599 zM737.681,972.836 L740.153,948.804 L744.327,944.935 L772.602,972.077 L738.002,991.66 zM1994.52,974.643 L2009.32,950.996 L2029.07,941.243 L2036.05,942.278 L2018.56,956.759 L2012.28,967.039 L2006.52,990.85 L2009.76,1023.36 L2016.32,1036.72 L2022.24,1038.16 L2026.44,1034.41 L2033.87,1001.4 L2045.6,983.758 L2062.04,973.759 L2081.4,974.116 L2063.8,997.118 L2052.6,1027.48 L2053.56,1034.68 L2062.99,1046.45 L2046.8,1062.76 L2039.32,1094.97 L2036.68,1134.76 L2030.78,1146.88 L2019.71,1147.81 L2012.48,1141.21 L2013.67,1085.36 L1998.52,1059 L1988.32,1031.12 L1988.32,999.113 zM2319.78,965.959 L2345.28,932.488 L2347.92,931.439 L2351.2,937.798 L2357.48,966.674 zM1117.24,969.442 L1069.48,935.287 L1130.93,931.237 L1178.25,931.373 L1184.72,974.684 L1165.28,1002.68 zM1322.36,927.921 L1322.36,927.079 zM2361.32,928.206 L2362.04,924.398 L2395.28,925.763 L2401.07,929.244 L2371.35,957.049 zM763.28,926.241 L778.007,920.241 L783.847,919.516 L786.44,925.961 L779.841,958.484 L751.415,932.935 zM2651.76,947.759 L2634.36,942.961 L2654.63,922.175 L2663.31,919.612 L2666.68,948.986 L2663.2,951.679 zM1197.86,951.998 L1197.33,940.476 L1235.82,947.64 L1246.94,945.798 L1267.76,917.727 L1270.64,917.964 L1266.76,933.759 L1253.48,958.731 L1262.21,965.681 L1292.92,956.476 L1322.67,930.809 L1300.96,961.72 L1269.53,980.396 L1271.28,990.754 L1296.87,995.681 L1323.48,988.682 L1361.8,950.565 L1366.32,949.843 L1361.72,962.961 L1345.12,982.522 L1317.96,999.202 L1291.68,1004.68 L1265.01,1001.76 L1237.6,985.281 L1218.37,959.242 zM2675.69,916.88 L2677.32,910.678 L2716.76,916.562 L2681,945.679 zM795.198,960.711 L802.28,911.888 L805.038,908.483 L821.759,932.357 L835.2,955 L835.443,966.843 L830.921,987.72 L793.644,999.324 L791.318,988.921 zM2495.24,925.355 L2513.72,906.964 L2517.44,907.325 L2521.37,927.844 L2497.47,929.679 zM2529.8,903.874 L2530.15,900.77 L2555.68,902.723 L2537.69,921.634 zM744.759,904.99 L748.763,883.21 L750.36,879.999 L756.559,883.358 L779.243,904.845 L746.198,917.679 zM585.168,905.892 L566.354,881.084 L590.995,881.241 L730.94,899.516 L714.923,1060.6 zM2366.72,906.725 L2395.64,873.127 L2398.72,871.644 L2401.16,880.604 L2405.16,912.887 L2370.48,911.682 L2365.44,909.684 zM2692.08,898.759 L2684.65,895.915 L2686.36,892.163 L2712.72,866.722 L2716.36,866.043 L2723.97,900.761 zM2413.2,877.291 L2411.33,866.002 L2420.32,864.763 L2450.33,873.792 L2422,906.767 zM2535.61,884.915 L2554.36,862.488 L2559.64,862.332 L2564.48,886.837 zM2730.24,868.483 L2728.53,862.002 L2766.93,868.036 L2739.12,896.561 zM784.766,889.086 L758.641,867.127 L764.321,858.557 L770.443,857.323 L776.164,861.966 L791.677,887 L789.645,892.522 zM388.759,1600.16 L394.645,1568.02 L398.681,1494.11 L392.404,1413.56 L377.684,1352 L339.357,1250.96 L323.359,1170 L322.359,1122.07 L324.319,1068.72 L333.203,1012.43 L386.043,858.319 L492.202,871.524 L664.594,1334.04 L703.206,1412.33 L752.2,1477.64 L825.554,1547.23 L892.003,1588.76 L934.076,1597.77 L761.28,1758.16 L696.761,1735.32 L660.749,1735.24 L622,1743.8 L563.359,1777.28 L578.923,1792.16 L619.198,1813.2 L639.239,1819.68 L687.118,1826.08 L593.043,1915.64 L493.319,2002.57 L469.759,1952.36 L430.525,1906.08 L386.486,1876.32 L324.319,1852 L327.318,1805.2 L339.599,1747.52 L380.682,1637.72 zM2572.44,862.152 L2570.85,857.724 L2575.69,853.326 L2597.64,860.316 L2578.04,879.675 zM1715.89,980.241 L1679.69,972.798 L1819.45,843.798 L1833.76,848.367 L1964.75,962.07 L1979.01,979.809 L1973.52,998.969 L1954.81,1009.68 zM754.804,844.314 L756.761,836.043 L762.562,843.236 L757.963,847.157 zM2747.77,850.759 L2736.05,847.72 L2736.24,844 L2762.28,821.484 L2764.92,820.437 L2768.48,828.12 L2772.37,851.679 zM955.037,865.237 L922.045,846.243 L924.56,822.362 L930.442,823.079 L956.72,861.039 L958.361,864.957 zM2588.96,844.241 L2576.56,839.565 L2597.04,815.284 L2600.44,817.196 L2605.56,845.674 zM2778.93,816.359 L2780.8,814.271 L2807.56,815.041 L2791.44,841.239 L2785.28,844.679 zM2442.68,857.759 L2416.88,849.399 L2448.56,811.764 L2451.72,811.33 L2455.68,827.282 L2459.04,859.157 zM2614.24,818.47 L2613.33,812.728 L2617.25,807.33 L2645.6,815.038 L2619.72,840.044 zM2465.76,816.729 L2465.31,806.761 L2473.16,804.804 L2505.64,816.314 L2472.24,850.445 zM881.997,824.477 L869.676,816.404 L869.678,804.766 L872.928,803.683 L879.403,811.202 L886.677,823.996 zM2802.24,792.52 L2811.11,788.241 L2819.08,790.044 L2815.96,800.324 L2793.86,799.438 zM890.036,804.722 L882.841,791.598 L885.303,788.241 L903.892,789.043 L914.161,802.686 L907.684,829.561 zM2798.08,779.641 L2797.64,779 zM800.038,770.203 L807.722,765.519 L810.957,764.555 L811.679,769.689 L806.239,785.324 L789.997,777.28 zM2625.84,796.241 L2619.88,792.92 L2644.48,764.843 L2649.48,767.002 L2652.05,800.195 zM876.765,771.472 L878.598,761.716 L882.797,759.163 L891.324,772.961 L881.245,776.638 zM2661.65,764.805 L2661.33,762.333 L2667.33,756.292 L2701.93,762.725 L2667,795.677 zM2477.56,793.759 L2470.37,790.036 L2501.79,757.486 L2504.64,756.164 L2507.2,765.167 L2509.72,801.631 zM2518.17,754.565 L2517.57,751.89 L2519.44,746.555 L2542.64,749.16 L2537,778.565 L2526.92,795.559 L2522.24,787.236 zM2535.64,724.839 L2540.69,720.763 L2544.64,719.653 L2546.06,724.266 L2540.73,732.77 L2529.45,732.641 zM771.478,750.27 L777.761,717.563 L779.43,714.832 L787.976,722.298 L808.963,748.403 L772.928,768.679 L768.325,766.998 zM2710.72,711.722 L2714.32,708.525 L2719.32,708.044 L2719.68,712.275 L2713.04,747.514 L2695.96,748.681 L2671.52,742.645 L2675.8,735.557 zM830.241,741.891 L837.761,704.61 L839.155,699.675 L842.924,702.247 L868.402,739.005 L857.682,800.118 L853.036,808.361 L821.764,791.998 zM2734.6,699.318 L2743,695.241 L2748.6,698.002 L2746.48,705.802 L2731.96,728.597 zM802.718,696.759 L816.117,692.519 L824.392,691.555 L825.675,696.728 L816.727,732.325 L790.96,704.241 L793.05,699.88 zM786.2,675.874 L794.874,641.678 L798.404,639.928 L806,648.318 L823.206,676.2 L786.367,687.602 zM2080.48,627.77 L2079.6,614.728 L2088.48,593.28 L2091.97,591.644 L2098.75,599.998 L2104.68,625.993 L2092.12,650.243 L2085.52,644.002 zM2009.92,553.241 L2015.04,546.28 L2027.53,541.241 L2054.48,542.521 L2066.51,547.837 L2068.96,554.681 L2051.63,562.479 L2035.91,563.679 zM1415.36,523.798 L1425.56,496.88 L1431.48,499.355 L1438.68,517.557 L1435.24,541.88 L1430.36,551.232 L1423.84,550.43 zM1460.64,459.761 L1483.28,449.241 L1496.08,448.763 L1513,454.798 L1518.12,460 L1512.68,465.72 L1487.72,472.681 L1467,466.202 zM875.443,307 L875.773,302.484 L878.429,299.451 L883.445,301.997 L879.681,337.518 L851.202,547.241 L845.72,572.681 L841.764,574.166 L840.36,568.154 zM981.443,814.882 L976.161,628.97 L967.202,556.123 L962.521,563.631 L943.481,694.885 L938.002,702.679 L934.36,698.038 L958.681,516.991 L931.518,408.05 L928.521,405.642 L925.318,413.961 L897.754,618.236 L892.116,627.114 L889.396,624.691 L921.681,384.099 L899.516,301.197 L989.046,288.241 L1128.48,242.241 L1138.96,243.28 L1404.69,475.647 L1406.23,480.909 L1384.6,536.643 L1382.32,572.997 L1394.76,623.88 L1424.56,676.196 L1429.92,676.72 L1440.24,661.959 L1463.16,615.959 L1469.68,592.079 L1470.4,537.003 L1473.29,534.895 L1782.71,804.066 L1791.64,815.406 L1628.7,963.962 L1616.39,967.602 L1387.91,939.757 L1376.48,928.318 L1368.2,926.398 L1355.08,934.565 L1341.4,933.759 L1337.36,931.957 L1336.72,915.599 L1328.04,909.319 L1316.88,911.039 L1301.85,928.634 L1285.84,927.126 L1282.16,903.881 L1273.48,897.319 L1263.28,901.278 L1248.56,921.957 L1243.99,922.679 L1004.48,892.759 L991.838,886.518 L982.158,873.519 zM458.281,307.239 L479.203,268.002 L495.043,225.596 L557.843,228.557 L600.197,236.241 L730.56,280.759 L835.198,301.003 L789.682,603.722 L758.682,745 L751.038,761.597 L723.646,752.319 L714.764,756.237 L715.524,765.525 L745.121,814.366 L736.759,856.997 L733.723,859.679 L700.476,856.241 L530.558,834.681 L485.516,785.84 L478.113,783.319 L466.637,791.433 L473.919,827.232 L394.675,815.643 L398.684,719.804 L392.682,651.921 L378.757,594.244 L336.8,478.278 L324.321,397.969 L327.876,393.598 L378.043,377.754 L412.277,357.481 zM1755.95,291.241 L1812.44,278.759 L1894.12,248.759 L1952.56,232.241 L2035.04,223.241 L2120.68,224.759 L2182.72,234.319 L2302.2,275.243 L2357.12,289.601 L2359.04,293.202 L2246.96,395.718 L2240.08,395.434 L2241.68,400.961 L2095.03,535.114 L2042.12,512.759 L2000.85,507.319 L1945.76,517.798 L1893.56,545.797 L1888.4,552.921 L1908.04,568.72 L1951.11,589.203 L1986.04,596.759 L2025.15,598.318 L1823.16,785.006 L1756.04,730.718 L1501.53,505.722 L1550.08,503.682 L1572.92,498.241 L1619.96,476.239 L1637.51,464.085 L1638.64,457.205 L1592.92,429.759 L1569.08,420.759 L1534.16,415.319 L1483.6,421.798 L1429.89,443.248 L1186.6,231.044 L1241.92,224.319 L1357.03,229.241 L1407.2,239.759 L1530.84,282.241 L1600.56,294.759 L1677.27,298.681 zM2309.83,391.481 L2414.16,296.804 L2481.34,297.681 L2556.36,289.759 L2639.44,266.479 L2698.56,243.241 L2744,230.8 L2832.36,222.237 L2841.08,224.05 L2849.52,252.72 L2870.84,297.077 L2904.28,338.962 L2951.88,371.761 L3009.56,391.077 L2994.41,479.998 L2951.52,594.203 L2940.32,639.2 L2932.56,734.921 L2933.36,776 L2940.52,830.998 L2955.24,884.718 L2995.68,994 L3002.16,1028.6 L3008.68,1101.74 L3005.96,1135.97 L2723.59,1101.92 L2793.68,990 L2790.4,984.676 L2786,984.882 L2767.36,997.64 L2770.48,976.012 L2762.36,965.316 L2803.64,930.522 L2826.68,904.483 L2835.76,886.161 L2836.64,872.76 L2824.15,868.319 L2765.36,891.037 L2812.4,834.839 L2830.61,800.647 L2831.67,786.872 L2824.79,777.068 L2799.4,775.073 L2838,730.196 L2858.72,695.12 L2861.24,675.038 L2852.16,664.241 L2835.32,664.521 L2817.19,672.2 L2759.32,713.083 L2761.68,694.923 L2758.4,686.038 L2743.27,681.36 L2734.95,683.278 L2701.92,699.877 L2651.92,738.444 L2665.48,707.839 L2668.64,689.844 L2660.41,683.956 L2648.99,685.209 L2609.28,709.278 L2555.08,762.757 L2559.68,728.965 L2557.76,710.284 L2551,704.56 L2536.99,707.53 L2438.25,803.072 L2251.84,1026.79 L2213,1040.68 L2157.81,1033.76 L2153.88,1029.72 L2323.08,749.118 L2321.56,741.323 L2311.16,743.597 L2054.4,934.922 L2034.24,927.319 L2001.08,939.602 L1996.71,937.47 L1856.19,815.712 L1854.03,812.15 L1859.08,806.243 L2044.32,636.388 L2048.24,682.757 L2057.52,716.722 L2080.96,762.196 L2090.04,773.64 L2093.24,772.438 L2121.76,724.997 L2135.68,678.038 L2130.61,614.92 L2113.88,572.923 z" fill="rgb(255,255,0)" stroke-width="0.5" stroke="rgb(0,0,0)" />
</svg>
